<svg xmlns="http://www.w3.org/2000/svg" width="32" height="32"><g fill="none" fill-rule="evenodd"><path fill="#D1D5DB" d="M3 2.002C3 .896 3.89 0 4.997 0H22l7 7v22.996A2 2 0 0 1 27.003 32H4.997A1.995 1.995 0 0 1 3 29.998V2.002z"/><path fill="#A3ACB8" d="M21.5 0c-.276 0-.5.23-.5.5V8h7.5c.276 0 .5-.232.5-.5V7l-7-7h-.5z"/><path fill="#4F5B69" d="M7 15.568c0-.597.06-1.12.178-1.568.118-.449.285-.82.5-1.115a2.11 2.11 0 0 1 .772-.664c.3-.147.633-.221 1.001-.221.786 0 1.391.29 1.815.87.424.58.636 1.479.636 2.698 0 .602-.059 1.128-.177 1.577-.119.449-.286.822-.501 1.12a2.084 2.084 0 0 1-.776.669 2.265 2.265 0 0 1-1.006.22c-.792 0-1.397-.306-1.815-.918C7.209 17.623 7 16.734 7 15.568zm3.705 0a9.152 9.152 0 0 0-.019-.58l-2.292 2.191c.193.597.546.895 1.057.895.4 0 .708-.2.926-.6.219-.4.328-1.035.328-1.906zm-2.507 0a7.965 7.965 0 0 0 .018.55l2.283-2.192c-.187-.563-.54-.845-1.057-.845-.4 0-.707.202-.922.605-.215.402-.322 1.03-.322 1.882zm5.35 0c0-.597.06-1.12.179-1.568.118-.449.285-.82.5-1.115a2.11 2.11 0 0 1 .772-.664c.3-.147.633-.221 1.001-.221.786 0 1.39.29 1.815.87.424.58.636 1.479.636 2.698 0 .602-.06 1.128-.178 1.577-.118.449-.285.822-.5 1.12a2.08 2.08 0 0 1-.777.669 2.265 2.265 0 0 1-1.005.22c-.792 0-1.397-.306-1.815-.918-.418-.613-.627-1.502-.627-2.668zm3.706 0a9.153 9.153 0 0 0-.02-.58l-2.291 2.191c.193.597.546.895 1.057.895.4 0 .708-.2.926-.6.218-.4.328-1.035.328-1.906zm-2.508 0a7.965 7.965 0 0 0 .02.55l2.282-2.192c-.187-.563-.54-.845-1.057-.845-.4 0-.707.202-.922.605-.215.402-.323 1.03-.323 1.882zm5.988 2.368h1.431v-4.295l-1.235.993-.561-.786 2.133-1.71h.823v5.798h1.404v1.081h-3.995v-1.08zM7 24.413c0-.596.06-1.119.178-1.568.118-.449.285-.82.5-1.115a2.11 2.11 0 0 1 .772-.664c.3-.147.633-.22 1.001-.22.786 0 1.391.29 1.815.869.424.58.636 1.48.636 2.698 0 .603-.059 1.128-.177 1.577-.119.449-.286.822-.501 1.12a2.075 2.075 0 0 1-.776.669A2.265 2.265 0 0 1 9.442 28c-.792 0-1.397-.306-1.815-.919C7.209 26.468 7 25.58 7 24.413zm3.705 0a9.152 9.152 0 0 0-.019-.58l-2.292 2.192c.193.596.546.894 1.057.894.4 0 .708-.2.926-.6.219-.4.328-1.035.328-1.906zm-2.507 0a7.965 7.965 0 0 0 .018.55l2.283-2.192c-.187-.563-.54-.845-1.057-.845-.4 0-.707.202-.922.605-.215.403-.322 1.03-.322 1.882zm5.987 2.368h1.431v-4.295l-1.235.993-.56-.786 2.132-1.71h.824v5.798h1.403v1.081h-3.995v-1.08zm5.913-2.368c0-.596.059-1.119.177-1.568.119-.449.286-.82.501-1.115.215-.295.472-.516.772-.664.3-.147.633-.22 1-.22.787 0 1.392.29 1.816.869.424.58.636 1.48.636 2.698 0 .603-.06 1.128-.178 1.577-.118.449-.285.822-.5 1.12a2.07 2.07 0 0 1-.777.669A2.265 2.265 0 0 1 22.54 28c-.793 0-1.398-.306-1.815-.919-.418-.613-.627-1.502-.627-2.668zm3.704 0a9.152 9.152 0 0 0-.018-.58l-2.292 2.192c.193.596.545.894 1.057.894.399 0 .708-.2.926-.6.218-.4.327-1.035.327-1.906zm-2.507 0a7.965 7.965 0 0 0 .019.55l2.283-2.192c-.187-.563-.54-.845-1.057-.845-.4 0-.707.202-.922.605-.215.403-.323 1.03-.323 1.882z"/></g></svg>