<svg xmlns="http://www.w3.org/2000/svg" width="32" height="32" viewBox="0 0 32 32">
  <g fill="none" fill-rule="evenodd" transform="translate(3)">
    <path fill="#D1D5DB" d="M0,2.00174332 C0,0.89621101 0.890925393,0 1.99742191,0 L19,0 L26,7 L26,29.9964051 C26,31.10296 25.1050211,32 24.0029953,32 L1.99700466,32 C0.89408944,32 0,31.1107383 0,29.9982567 L0,2.00174332 Z"/>
    <path fill="#A3ACB8" d="M18.5,8.57092175e-14 C18.2238576,1.33045111e-13 18,0.230796814 18,0.500435829 L18,8 L25.4995642,8 C25.7759472,8 26,7.76806641 26,7.5 L26,7 L19,0 L18.5,8.57092175e-14 Z"/>
    <path fill="#4F5B69" d="M4,15.5675676 C4,14.971332 4.05925097,14.4488147 4.17775468,14 C4.29625839,13.5511853 4.46309664,13.1793627 4.67827443,12.8845209 C4.89345222,12.5896791 5.15072615,12.3685511 5.45010395,12.2211302 C5.74948175,12.0737093 6.08315824,12 6.45114345,12 C7.23701017,12 7.84199372,12.2899234 8.26611227,12.8697789 C8.69023081,13.4496343 8.9022869,14.3488883 8.9022869,15.5675676 C8.9022869,16.1703552 8.84303594,16.6961485 8.72453222,17.1449631 C8.60602851,17.5937778 8.43919027,17.9672385 8.22401247,18.2653563 C8.00883468,18.5634741 7.75000151,18.78624 7.4475052,18.9336609 C7.14500888,19.0810818 6.80977315,19.1547912 6.44178794,19.1547912 C5.64968419,19.1547912 5.04470063,18.8484879 4.62681913,18.2358722 C4.20893762,17.6232566 4,16.7338306 4,15.5675676 L4,15.5675676 Z M7.7047817,15.5675676 C7.7047817,15.4627349 7.70322247,15.3628178 7.70010395,15.2678133 C7.69698543,15.1728087 7.69230772,15.0794435 7.68607069,14.987715 L5.39397089,17.1793612 C5.58731905,17.7755968 5.93970638,18.0737101 6.45114345,18.0737101 C6.85031385,18.0737101 7.15904257,17.8738759 7.37733888,17.4742015 C7.59563519,17.0745271 7.7047817,16.4389888 7.7047817,15.5675676 L7.7047817,15.5675676 Z M5.1975052,15.5675676 C5.1975052,15.6658482 5.19906443,15.7592133 5.20218295,15.8476658 C5.20530147,15.9361184 5.20997918,16.0262076 5.21621622,16.1179361 L7.4989605,13.9262899 C7.31184938,13.3628145 6.95946205,13.0810811 6.44178794,13.0810811 C6.04261755,13.0810811 5.73544806,13.2825533 5.52027027,13.6855037 C5.30509248,14.0884541 5.1975052,14.7158025 5.1975052,15.5675676 L5.1975052,15.5675676 Z M10.5488565,15.5675676 C10.5488565,14.971332 10.6081075,14.4488147 10.7266112,14 C10.8451149,13.5511853 11.0119532,13.1793627 11.227131,12.8845209 C11.4423088,12.5896791 11.6995827,12.3685511 11.9989605,12.2211302 C12.2983383,12.0737093 12.6320148,12 13,12 C13.7858667,12 14.3908503,12.2899234 14.8149688,12.8697789 C15.2390874,13.4496343 15.4511435,14.3488883 15.4511435,15.5675676 C15.4511435,16.1703552 15.3918925,16.6961485 15.2733888,17.1449631 C15.1548851,17.5937778 14.9880468,17.9672385 14.772869,18.2653563 C14.5576912,18.5634741 14.2988581,18.78624 13.9963617,18.9336609 C13.6938654,19.0810818 13.3586297,19.1547912 12.9906445,19.1547912 C12.1985407,19.1547912 11.5935572,18.8484879 11.1756757,18.2358722 C10.7577942,17.6232566 10.5488565,16.7338306 10.5488565,15.5675676 L10.5488565,15.5675676 Z M14.2536383,15.5675676 C14.2536383,15.4627349 14.252079,15.3628178 14.2489605,15.2678133 C14.245842,15.1728087 14.2411643,15.0794435 14.2349272,14.987715 L11.9428274,17.1793612 C12.1361756,17.7755968 12.4885629,18.0737101 13,18.0737101 C13.3991704,18.0737101 13.7078991,17.8738759 13.9261954,17.4742015 C14.1444917,17.0745271 14.2536383,16.4389888 14.2536383,15.5675676 L14.2536383,15.5675676 Z M11.7463617,15.5675676 C11.7463617,15.6658482 11.747921,15.7592133 11.7510395,15.8476658 C11.754158,15.9361184 11.7588357,16.0262076 11.7650728,16.1179361 L14.047817,13.9262899 C13.8607059,13.3628145 13.5083186,13.0810811 12.9906445,13.0810811 C12.5914741,13.0810811 12.2843046,13.2825533 12.0691268,13.6855037 C11.853949,14.0884541 11.7463617,14.7158025 11.7463617,15.5675676 L11.7463617,15.5675676 Z M17.7338877,17.9361179 L19.1652807,17.9361179 L19.1652807,13.6412776 L17.9303534,14.6339066 L17.3690229,13.8476658 L19.502079,12.1375921 L20.3253638,12.1375921 L20.3253638,17.9361179 L21.7286902,17.9361179 L21.7286902,19.017199 L17.7338877,19.017199 L17.7338877,17.9361179 Z M4,24.4127764 C4,23.8165408 4.05925097,23.2940235 4.17775468,22.8452088 C4.29625839,22.3963942 4.46309664,22.0245715 4.67827443,21.7297297 C4.89345222,21.434888 5.15072615,21.21376 5.45010395,21.0663391 C5.74948175,20.9189182 6.08315824,20.8452088 6.45114345,20.8452088 C7.23701017,20.8452088 7.84199372,21.1351322 8.26611227,21.7149877 C8.69023081,22.2948432 8.9022869,23.1940971 8.9022869,24.4127764 C8.9022869,25.015564 8.84303594,25.5413573 8.72453222,25.990172 C8.60602851,26.4389867 8.43919027,26.8124473 8.22401247,27.1105651 C8.00883468,27.4086829 7.75000151,27.6314489 7.4475052,27.7788698 C7.14500888,27.9262907 6.80977315,28 6.44178794,28 C5.64968419,28 5.04470063,27.6936968 4.62681913,27.0810811 C4.20893762,26.4684654 4,25.5790394 4,24.4127764 L4,24.4127764 Z M7.7047817,24.4127764 C7.7047817,24.3079438 7.70322247,24.2080267 7.70010395,24.1130221 C7.69698543,24.0180175 7.69230772,23.9246524 7.68607069,23.8329238 L5.39397089,26.02457 C5.58731905,26.6208056 5.93970638,26.9189189 6.45114345,26.9189189 C6.85031385,26.9189189 7.15904257,26.7190847 7.37733888,26.3194103 C7.59563519,25.9197359 7.7047817,25.2841976 7.7047817,24.4127764 L7.7047817,24.4127764 Z M5.1975052,24.4127764 C5.1975052,24.511057 5.19906443,24.6044222 5.20218295,24.6928747 C5.20530147,24.7813272 5.20997918,24.8714164 5.21621622,24.963145 L7.4989605,22.7714988 C7.31184938,22.2080234 6.95946205,21.9262899 6.44178794,21.9262899 C6.04261755,21.9262899 5.73544806,22.1277621 5.52027027,22.5307125 C5.30509248,22.9336629 5.1975052,23.5610113 5.1975052,24.4127764 L5.1975052,24.4127764 Z M11.1850312,26.7813268 L12.6164241,26.7813268 L12.6164241,22.4864865 L11.3814969,23.4791155 L10.8201663,22.6928747 L12.9532225,20.982801 L13.7765073,20.982801 L13.7765073,26.7813268 L15.1798337,26.7813268 L15.1798337,27.8624079 L11.1850312,27.8624079 L11.1850312,26.7813268 Z M17.0977131,24.4127764 C17.0977131,23.8165408 17.1569641,23.2940235 17.2754678,22.8452088 C17.3939715,22.3963942 17.5608097,22.0245715 17.7759875,21.7297297 C17.9911653,21.434888 18.2484393,21.21376 18.547817,21.0663391 C18.8471948,20.9189182 19.1808713,20.8452088 19.5488565,20.8452088 C20.3347233,20.8452088 20.9397068,21.1351322 21.3638254,21.7149877 C21.7879439,22.2948432 22,23.1940971 22,24.4127764 C22,25.015564 21.940749,25.5413573 21.8222453,25.990172 C21.7037416,26.4389867 21.5369034,26.8124473 21.3217256,27.1105651 C21.1065478,27.4086829 20.8477146,27.6314489 20.5452183,27.7788698 C20.242722,27.9262907 19.9074862,28 19.539501,28 C18.7473973,28 18.1424137,27.6936968 17.7245322,27.0810811 C17.3066507,26.4684654 17.0977131,25.5790394 17.0977131,24.4127764 L17.0977131,24.4127764 Z M20.8024948,24.4127764 C20.8024948,24.3079438 20.8009356,24.2080267 20.797817,24.1130221 C20.7946985,24.0180175 20.7900208,23.9246524 20.7837838,23.8329238 L18.491684,26.02457 C18.6850322,26.6208056 19.0374195,26.9189189 19.5488565,26.9189189 C19.9480269,26.9189189 20.2567557,26.7190847 20.475052,26.3194103 C20.6933483,25.9197359 20.8024948,25.2841976 20.8024948,24.4127764 L20.8024948,24.4127764 Z M18.2952183,24.4127764 C18.2952183,24.511057 18.2967775,24.6044222 18.299896,24.6928747 C18.3030146,24.7813272 18.3076923,24.8714164 18.3139293,24.963145 L20.5966736,22.7714988 C20.4095625,22.2080234 20.0571751,21.9262899 19.539501,21.9262899 C19.1403306,21.9262899 18.8331612,22.1277621 18.6179834,22.5307125 C18.4028056,22.9336629 18.2952183,23.5610113 18.2952183,24.4127764 L18.2952183,24.4127764 Z"/>
  </g>
</svg>
