<svg xmlns="http://www.w3.org/2000/svg" viewBox="0 0 32 32"><path d="M2 2a2 2 0 0 1 2-2h22a2 2 0 0 1 2 2v28a2 2 0 0 1-2 2H4a2 2 0 0 1-2-2z" fill="#acf5f7" fill-rule="evenodd"/><path d="M8 8h14v2H8zm0 4h8v2H8zm0 4h14v2H8zm0 4h10v2H8zM1.5 4h2A1.54 1.54 0 0 1 5 5.5 1.54 1.54 0 0 1 3.5 7h-2A1.54 1.54 0 0 1 0 5.5 1.54 1.54 0 0 1 1.5 4zM1.5 11h2A1.54 1.54 0 0 1 5 12.5 1.54 1.54 0 0 1 3.5 14h-2A1.54 1.54 0 0 1 0 12.5 1.54 1.54 0 0 1 1.5 11zM1.5 18h2A1.54 1.54 0 0 1 5 19.5 1.54 1.54 0 0 1 3.5 21h-2A1.54 1.54 0 0 1 0 19.5 1.54 1.54 0 0 1 1.5 18zM1.5 25h2A1.54 1.54 0 0 1 5 26.5 1.54 1.54 0 0 1 3.5 28h-2A1.54 1.54 0 0 1 0 26.5 1.54 1.54 0 0 1 1.5 25zM31.4 18.4l-2.8-2.8a2 2 0 0 1 2.8 2.8zM30.7 19.1L20.8 29l-2.5.9a1 1 0 0 1-1.3-.6.85.85 0 0 1 0-.7l.9-2.5 9.9-9.9z" fill="#0dcbcf" fill-rule="evenodd"/></svg>
