<svg xmlns="http://www.w3.org/2000/svg" width="32" height="32" viewBox="0 0 32 32">
  <g fill="none" fill-rule="evenodd" transform="translate(3)">
    <path fill="#FCD0D5" d="M0,2.00174332 C0,0.89621101 0.890925393,0 1.99742191,0 L19,0 L26,7 L26,29.9964051 C26,31.10296 25.1050211,32 24.0029953,32 L1.99700466,32 C0.89408944,32 0,31.1107383 0,29.9982567 L0,2.00174332 Z"/>
    <path fill="#F1132D" d="M18.5.57092175e-14C18.2238576.33045111e-13 18 .230796814 18 .500435829L18 8 25.4995642 8C25.7759472 8 26 7.76806641 26 7.5L26 7 19 0 18.5.57092175e-14zM6 11L20 11 20 13 6 13 6 11zM6 15L18 15 18 17 6 17 6 15zM6.06599695 19.784L7.96999695 19.784C8.25266503 19.784 8.51799571 19.8119997 8.76599695 19.868 9.01399819 19.9240003 9.22999603 20.0173327 9.41399695 20.148 9.59799787 20.2786673 9.74332975 20.4519989 9.84999695 20.668 9.95666415 20.8840011 10.0099969 21.1493318 10.0099969 21.464 10.0099969 21.7680015 9.95533083 22.0319989 9.84599695 22.256 9.73666307 22.4800011 9.58866455 22.6639993 9.40199695 22.808 9.21532935 22.9520007 8.99933151 23.0586663 8.75399695 23.128 8.50866239 23.1973337 8.24733167 23.232 7.96999695 23.232L7.24199695 23.232 7.24199695 25 6.06599695 25 6.06599695 19.784zM7.89799695 22.296C8.53800015 22.296 8.85799695 22.0186694 8.85799695 21.464 8.85799695 21.1919986 8.77666443 21.0000006 8.61399695 20.888 8.45132947 20.7759994 8.21266519 20.72 7.89799695 20.72L7.24199695 20.72 7.24199695 22.296 7.89799695 22.296zM10.9139969 19.784L12.3859969 19.784C12.7859989 19.784 13.1459953 19.8346662 13.4659969 19.936 13.7859985 20.0373338 14.0606625 20.1933323 14.2899969 20.404 14.5193314 20.6146677 14.6953297 20.882665 14.8179969 21.208 14.9406642 21.533335 15.0019969 21.9199978 15.0019969 22.368 15.0019969 22.8160022 14.9406642 23.2053317 14.8179969 23.536 14.6953297 23.8666683 14.5219981 24.1399989 14.2979969 24.356 14.0739958 24.5720011 13.8059985 24.7333328 13.4939969 24.84 13.1819954 24.9466672 12.8339989 25 12.4499969 25L10.9139969 25 10.9139969 19.784zM12.3139969 24.048C12.5379981 24.048 12.7406627 24.018667 12.9219969 23.96 13.1033312 23.901333 13.2579963 23.8066673 13.3859969 23.676 13.5139976 23.5453327 13.6139966 23.3733344 13.6859969 23.16 13.7579973 22.9466656 13.7939969 22.6826682 13.7939969 22.368 13.7939969 22.0586651 13.7579973 21.7986677 13.6859969 21.588 13.6139966 21.3773323 13.5139976 21.209334 13.3859969 21.084 13.2579963 20.958666 13.1033312 20.8693336 12.9219969 20.816 12.7406627 20.7626664 12.5379981 20.736 12.3139969 20.736L12.0899969 20.736 12.0899969 24.048 12.3139969 24.048zM15.9939969 19.784L19.2819969 19.784 19.2819969 20.776 17.1699969 20.776 17.1699969 21.984 18.9779969 21.984 18.9779969 22.976 17.1699969 22.976 17.1699969 25 15.9939969 25 15.9939969 19.784z"/>
  </g>
</svg>
