<svg xmlns="http://www.w3.org/2000/svg" width="32" height="32" viewBox="0 0 32 32">
  <g fill="none" fill-rule="evenodd" transform="translate(3)">
    <path fill="#9FE6A2" d="M0,2.00174332 C0,0.89621101 0.890925393,0 1.99742191,0 L19,0 L26,7 L26,29.9964051 C26,31.10296 25.1050211,32 24.0029953,32 L1.99700466,32 C0.89408944,32 0,31.1107383 0,29.9982567 L0,2.00174332 Z"/>
    <path fill="#0FC016" d="M18.5.57092175e-14C18.2238576.33045111e-13 18 .230796814 18 .500435829L18 8 25.4995642 8C25.7759472 8 26 7.76806641 26 7.5L26 7 19 0 18.5.57092175e-14zM5 9L9 9 9 11 5 11 5 9zM5 5L9 5 9 7 5 7 5 5zM5 13L9 13 9 15 5 15 5 13zM5 17L9 17 9 19 5 19 5 17zM5 21L9 21 9 23 5 23 5 21zM5 25L9 25 9 27 5 27 5 25zM11 9L15 9 15 11 11 11 11 9zM11 5L15 5 15 7 11 7 11 5zM11 13L15 13 15 15 11 15 11 13zM11 17L15 17 15 19 11 19 11 17zM11 21L15 21 15 23 11 23 11 21zM11 25L15 25 15 27 11 27 11 25zM17 13L21 13 21 15 17 15 17 13zM17 17L21 17 21 19 17 19 17 17zM17 21L21 21 21 23 17 23 17 21zM17 25L21 25 21 27 17 27 17 25z"/>
  </g>
</svg>
