<svg xmlns="http://www.w3.org/2000/svg" width="32" height="32" viewBox="0 0 32 32">
  <g fill="none" fill-rule="evenodd" transform="translate(0 2)">
    <path fill="#FFDEC1" d="M0,1.99124431 C0,0.891510444 0.889763236,0 2.00359486,0 L25,0 L32,7 L32,26.0054385 C32,27.1070044 31.1107383,28 29.9982567,28 L2.00174332,28 C0.89621101,28 0,27.1001025 0,26.0087557 L0,1.99124431 Z"/>
    <path fill="#FF9433" d="M24.5.57092175e-14C24.2238576.33045111e-13 24 .230796814 24 .500435829L24 8 31.4995642 8C31.7759472 8 32 7.76806641 32 7.5L32 7 25 0 24.5.57092175e-14zM9.99621582 16L25.9962158 16 25.9962158 18 9.99621582 18 9.99621582 16zM9.99621582 20L25.9962158 20 25.9962158 22 9.99621582 22 9.99621582 20zM6 16L8 16 8 18 6 18 6 16zM6 20L8 20 8 22 6 22 6 20zM16 14C18.209139 14 20 12.209139 20 10L16 10 16 6C13.790861 6 12 7.790861 12 10 12 12.209139 13.790861 14 16 14zM17 9C17 9 16.9999999 6 17 5 19 5 21.0000002 7 21 9L17 9z"/>
  </g>
</svg>
