<svg xmlns="http://www.w3.org/2000/svg" width="32" height="32" viewBox="0 0 32 32">
  <g fill="none" fill-rule="evenodd" transform="translate(3)">
    <path fill="#B2D3FF" d="M0,2.00174332 C0,0.89621101 0.890925393,0 1.99742191,0 L19,0 L26,7 L26,29.9964051 C26,31.10296 25.1050211,32 24.0029953,32 L1.99700466,32 C0.89408944,32 0,31.1107383 0,29.9982567 L0,2.00174332 Z"/>
    <path fill="#197BFF" d="M18.5.57092175e-14C18.2238576.33045111e-13 18 .230796814 18 .500435829L18 8 25.4995642 8C25.7759472 8 26 7.76806641 26 7.5L26 7 19 0 18.5.57092175e-14zM6 11L20 11 20 13 6 13 6 11zM6 15L18 15 18 17 6 17 6 15zM6 19L20 19 20 21 6 21 6 19zM6 23L16 23 16 25 6 25 6 23z"/>
  </g>
</svg>
