<svg xmlns="http://www.w3.org/2000/svg" width="32" height="32" viewBox="0 0 32 32">
  <g fill="none" fill-rule="evenodd" transform="translate(1 1)">
    <path fill="#FFC5CE" d="M0,1.99161703 C0,0.891677316 0.89784041,0 1.99161703,0 L28.008383,0 C29.1083227,0 30,0.89784041 30,1.99161703 L30,28.008383 C30,29.1083227 29.1021596,30 28.008383,30 L1.99161703,30 C0.891677316,30 0,29.1021596 0,28.008383 L0,1.99161703 Z M1,14.0093689 C1,13.4519098 1.44335318,13 2.0093689,13 L3.9906311,13 C4.54809015,13 5,13.4433532 5,14.0093689 L5,15.9906311 C5,16.5480902 4.55664682,17 3.9906311,17 L2.0093689,17 C1.45190985,17 1,16.5566468 1,15.9906311 L1,14.0093689 Z M25,14.0093689 C25,13.4519098 25.4433532,13 26.0093689,13 L27.9906311,13 C28.5480902,13 29,13.4433532 29,14.0093689 L29,15.9906311 C29,16.5480902 28.5566468,17 27.9906311,17 L26.0093689,17 C25.4519098,17 25,16.5566468 25,15.9906311 L25,14.0093689 Z M1,7.99980749 C1,7.44762906 1.44335318,7 2.0093689,7 L3.9906311,7 C4.54809015,7 5,7.44371665 5,7.99980749 L5,11.0001925 C5,11.5523709 4.55664682,12 3.9906311,12 L2.0093689,12 C1.45190985,12 1,11.5562834 1,11.0001925 L1,7.99980749 Z M25,7.99980749 C25,7.44762906 25.4433532,7 26.0093689,7 L27.9906311,7 C28.5480902,7 29,7.44371665 29,7.99980749 L29,11.0001925 C29,11.5523709 28.5566468,12 27.9906311,12 L26.0093689,12 C25.4519098,12 25,11.5562834 25,11.0001925 L25,7.99980749 Z M1,24.9998075 C1,24.4476291 1.44335318,24 2.0093689,24 L3.9906311,24 C4.54809015,24 5,24.4437166 5,24.9998075 L5,28.0001925 C5,28.5523709 4.55664682,29 3.9906311,29 L2.0093689,29 C1.45190985,29 1,28.5562834 1,28.0001925 L1,24.9998075 Z M25,24.9998075 C25,24.4476291 25.4433532,24 26.0093689,24 L27.9906311,24 C28.5480902,24 29,24.4437166 29,24.9998075 L29,28.0001925 C29,28.5523709 28.5566468,29 27.9906311,29 L26.0093689,29 C25.4519098,29 25,28.5562834 25,28.0001925 L25,24.9998075 Z M1,1.99980749 C1,1.44762906 1.44335318,1 2.0093689,1 L3.9906311,1 C4.54809015,1 5,1.44371665 5,1.99980749 L5,5.00019251 C5,5.55237094 4.55664682,6 3.9906311,6 L2.0093689,6 C1.45190985,6 1,5.55628335 1,5.00019251 L1,1.99980749 Z M25,1.99980749 C25,1.44762906 25.4433532,1 26.0093689,1 L27.9906311,1 C28.5480902,1 29,1.44371665 29,1.99980749 L29,5.00019251 C29,5.55237094 28.5566468,6 27.9906311,6 L26.0093689,6 C25.4519098,6 25,5.55628335 25,5.00019251 L25,1.99980749 Z M1,18.9998075 C1,18.4476291 1.44335318,18 2.0093689,18 L3.9906311,18 C4.54809015,18 5,18.4437166 5,18.9998075 L5,22.0001925 C5,22.5523709 4.55664682,23 3.9906311,23 L2.0093689,23 C1.45190985,23 1,22.5562834 1,22.0001925 L1,18.9998075 Z M25,18.9998075 C25,18.4476291 25.4433532,18 26.0093689,18 L27.9906311,18 C28.5480902,18 29,18.4437166 29,18.9998075 L29,22.0001925 C29,22.5523709 28.5566468,23 27.9906311,23 L26.0093689,23 C25.4519098,23 25,22.5562834 25,22.0001925 L25,18.9998075 Z"/>
    <path fill="#FF405D" d="M11,9.61464155 C11,9.06099084 11.3798008,8.84004874 11.8525944,9.12372488 L20.1474056,14.1006116 C20.6182805,14.3831366 20.6201992,14.8400487 20.1474056,15.1237249 L11.8525944,20.1006116 C11.3817195,20.3831366 11,20.1564073 11,19.609695 L11,9.61464155 Z"/>
  </g>
</svg>
