<svg xmlns="http://www.w3.org/2000/svg" width="64" height="64" viewBox="0 0 64 64" fill="none">
  <path fill-rule="evenodd" clip-rule="evenodd" d="M60 12.4C60.0005 12.0847 59.9388 11.7724 59.8184 11.4809C59.698 11.1895 59.5212 10.9247 59.2982 10.7018C59.0753 10.4788 58.8105 10.302 58.5191 10.1816C58.2277 10.0612 57.9153 9.99948 57.6 10H6.4C5.76381 10.0011 5.15397 10.2543 4.70412 10.7041C4.25426 11.154 4.00106 11.7638 4 12.4V51.6C3.99948 51.9153 4.06119 52.2277 4.18162 52.5191C4.30204 52.8105 4.47881 53.0753 4.70177 53.2982C4.92474 53.5212 5.18952 53.698 5.48094 53.8184C5.77236 53.9388 6.08468 54.0005 6.4 54H57.6C58.2362 53.999 58.846 53.7458 59.2959 53.2959C59.7458 52.846 59.999 52.2362 60 51.6V12.4Z" fill="white"/>
  <path fill-rule="evenodd" clip-rule="evenodd" d="M4 18H39.434C39.806 18 40.174 18.086 40.506 18.254L43.494 19.746C43.826 19.914 44.194 20 44.566 20H60V12.4C60 11.764 59.748 11.154 59.298 10.702C58.8472 10.2526 58.2366 10.0002 57.6 10H6.4C5.764 10 5.154 10.252 4.702 10.702C4.25259 11.1528 4.00016 11.7634 4 12.4V18Z" fill="#E0EDFF"/>
  <path fill-rule="evenodd" clip-rule="evenodd" d="M62 12.4C62 11.234 61.536 10.114 60.712 9.288C59.8859 8.46386 58.7669 8.00071 57.6 8H6.4C5.234 8 4.114 8.464 3.288 9.288C2.46386 10.1141 2.00071 11.2331 2 12.4V51.6C2 52.766 2.464 53.886 3.288 54.712C4.114 55.536 5.234 56 6.4 56H57.6C58.766 56 59.886 55.536 60.712 54.712C61.536 53.886 62 52.766 62 51.6V12.4ZM6 20V51.6C6 51.706 6.042 51.808 6.118 51.882C6.15477 51.9195 6.19866 51.9492 6.24709 51.9695C6.29552 51.9897 6.3475 52.0001 6.4 52H57.6C57.6525 52.0001 57.7045 51.9897 57.7529 51.9695C57.8013 51.9492 57.8452 51.9195 57.882 51.882C57.9195 51.8452 57.9492 51.8013 57.9695 51.7529C57.9897 51.7045 58.0001 51.6525 58 51.6V22H44.566C43.884 22 43.21 21.84 42.598 21.536L39.612 20.042C39.5568 20.0142 39.4958 19.9998 39.434 20H6ZM58 18V12.4C58.0001 12.3475 57.9897 12.2955 57.9695 12.2471C57.9492 12.1987 57.9195 12.1548 57.882 12.118C57.8452 12.0805 57.8013 12.0508 57.7529 12.0305C57.7045 12.0103 57.6525 11.9999 57.6 12H6.4C6.3475 11.9999 6.29552 12.0103 6.24709 12.0305C6.19866 12.0508 6.15477 12.0805 6.118 12.118C6.08054 12.1548 6.0508 12.1987 6.03054 12.2471C6.01027 12.2955 5.99989 12.3475 6 12.4V16H39.434C40.116 16 40.79 16.16 41.402 16.464L44.388 17.958C44.4432 17.9858 44.5042 18.0002 44.566 18H58Z" fill="#CFDDEE"/>
  <path fill-rule="evenodd" clip-rule="evenodd" d="M18.1718 33.0002L16.5858 34.5862C16.2215 34.9634 16.0199 35.4686 16.0245 35.993C16.029 36.5174 16.2394 37.019 16.6102 37.3898C16.981 37.7607 17.4826 37.971 18.007 37.9756C18.5314 37.9801 19.0366 37.7785 19.4138 37.4142L20.9998 35.8282L22.5858 37.4142C22.963 37.7785 23.4682 37.9801 23.9926 37.9756C24.517 37.971 25.0187 37.7607 25.3895 37.3898C25.7603 37.019 25.9706 36.5174 25.9752 35.993C25.9797 35.4686 25.7782 34.9634 25.4138 34.5862L23.8278 33.0002L25.4138 31.4142C25.7782 31.037 25.9797 30.5318 25.9752 30.0074C25.9706 29.483 25.7603 28.9814 25.3895 28.6106C25.0187 28.2398 24.517 28.0294 23.9926 28.0249C23.4682 28.0203 22.963 28.2219 22.5858 28.5862L20.9998 30.1722L19.4138 28.5862C19.0366 28.2219 18.5314 28.0203 18.007 28.0249C17.4826 28.0294 16.981 28.2398 16.6102 28.6106C16.2394 28.9814 16.029 29.483 16.0245 30.0074C16.0199 30.5318 16.2215 31.037 16.5858 31.4142L18.1718 33.0002ZM40.1718 33.0002L38.5858 34.5862C38.2215 34.9634 38.0199 35.4686 38.0245 35.993C38.029 36.5174 38.2394 37.019 38.6102 37.3898C38.981 37.7607 39.4826 37.971 40.007 37.9756C40.5314 37.9801 41.0366 37.7785 41.4138 37.4142L42.9998 35.8282L44.5858 37.4142C44.963 37.7785 45.4682 37.9801 45.9926 37.9756C46.517 37.971 47.0187 37.7607 47.3895 37.3898C47.7603 37.019 47.9706 36.5174 47.9752 35.993C47.9797 35.4686 47.7782 34.9634 47.4138 34.5862L45.8278 33.0002L47.4138 31.4142C47.7782 31.037 47.9797 30.5318 47.9752 30.0074C47.9706 29.483 47.7603 28.9814 47.3895 28.6106C47.0187 28.2398 46.517 28.0294 45.9926 28.0249C45.4682 28.0203 44.963 28.2219 44.5858 28.5862L42.9998 30.1722L41.4138 28.5862C41.0366 28.2219 40.5314 28.0203 40.007 28.0249C39.4826 28.0294 38.981 28.2398 38.6102 28.6106C38.2394 28.9814 38.029 29.483 38.0245 30.0074C38.0199 30.5318 38.2215 31.037 38.5858 31.4142L40.1718 33.0002Z" fill="#CFDDEE"/>
  <path fill-rule="evenodd" clip-rule="evenodd" d="M23.1061 45.7879L26.0321 47.2519C27.2701 47.8719 28.7301 47.8719 29.9681 47.2519L31.8221 46.3259C31.8774 46.2984 31.9383 46.2841 32.0001 46.2841C32.0619 46.2841 32.1228 46.2984 32.1781 46.3259L34.0321 47.2519C35.2701 47.8719 36.7301 47.8719 37.9681 47.2519L40.8941 45.7879C41.1373 45.6756 41.3554 45.5156 41.5355 45.3174C41.7156 45.1191 41.8541 44.8868 41.9428 44.634C42.0314 44.3812 42.0683 44.1132 42.0514 43.8459C42.0345 43.5786 41.964 43.3174 41.8442 43.0779C41.7245 42.8383 41.5578 42.6252 41.3541 42.4513C41.1504 42.2774 40.9138 42.1461 40.6584 42.0654C40.4031 41.9846 40.1341 41.956 39.8674 41.9811C39.6007 42.0063 39.3419 42.0848 39.1061 42.2119L36.1781 43.6739C36.1228 43.7014 36.0619 43.7157 36.0001 43.7157C35.9383 43.7157 35.8774 43.7014 35.8221 43.6739L33.9681 42.7479C33.3571 42.4422 32.6833 42.283 32.0001 42.283C31.3169 42.283 30.6431 42.4422 30.0321 42.7479L28.1781 43.6739C28.1228 43.7014 28.0619 43.7157 28.0001 43.7157C27.9383 43.7157 27.8774 43.7014 27.8221 43.6739L24.8941 42.2119C24.6584 42.0848 24.3995 42.0063 24.1328 41.9811C23.8661 41.956 23.5971 41.9846 23.3418 42.0654C23.0864 42.1461 22.8498 42.2774 22.6461 42.4513C22.4424 42.6252 22.2758 42.8383 22.156 43.0779C22.0362 43.3174 21.9657 43.5786 21.9488 43.8459C21.9319 44.1132 21.9688 44.3812 22.0575 44.634C22.1461 44.8868 22.2846 45.1191 22.4647 45.3174C22.6448 45.5156 22.8629 45.6756 23.1061 45.7879Z" fill="#CFDDEE"/>
</svg>