<svg xmlns="http://www.w3.org/2000/svg" viewBox="0 0 512 200">
  <g>
    <path fill="#f5f6f7" d="M434.84,52.27c-10.53-24.07-36-39.79-64.34-46.1C351.82,2,331.88.92,312.68.44c-20.49-.51-41,.23-61.4,1.72C231.45,3.61,211.71,5.8,192.07,8.5,173,11.11,153.44,13,135.45,19.27c-16.63,5.85-39.63,14.06-57.86,48.79-13.38,25.51-6.37,58.5,12.19,81.68C123,191.24,187.27,192.82,240,191.35c15.39-.43,30.9-.65,46.18-2.27a333.79,333.79,0,0,0,56.69-11c16.87-4.83,34.09-10.81,48.55-19.83a96.91,96.91,0,0,0,30.28-30C436.52,105.32,446.1,78,434.84,52.27Z"/>
    <path fill="#ffb15c" d="M504.35,139.57c.07-6.71-.1-13.4-.08-20.1,0-6.42.07-12.78,0-19.19a8,8,0,0,1-.42-.89.73.73,0,0,0-.65-.52c-.2,0-.41,0-.61-.06-1.92-1.06-6.5-.34-8.6-.34-8.9,0-17.74.21-26.64,0l-2,0-1.56-.07c-6.54-.35-13.08-.11-19.63.15-1.84.07-4.33.07-6.6.19a16.42,16.42,0,0,0-5.82.44,1.82,1.82,0,0,0-.78.05l-.16,0h0a1.4,1.4,0,0,0-.91.82.84.84,0,0,0-.38.74c0,.22,0,.44,0,.66-.22,1.34.17,3.21-.32,5.6,0,.23.3,20.1.23,29.58,0,6,0,11.61.27,17.59.07,1.92.59,3.73,2.11,4.5a4.66,4.66,0,0,0,3.19,1.46c6.87.58,33.35.49,39.55.39,6.18.13,12.39-.07,18.54-.17,1.78,0,5.29.42,7.68-.27a2.19,2.19,0,0,0,1.27-.45,3.2,3.2,0,0,0,2.27-3.14C504.58,150.86,504.28,145.21,504.35,139.57Z"/>
    <path fill="#ffb15c" d="M505.34,89l0,0a.27.27,0,0,1-.08-.07c-.6-.42-1.06-1-1.64-1.44-.07,0-.15-.13-.26-.23-.95-.88-3.34-3.5-3.47-3.7A4.48,4.48,0,0,0,498.27,82l-.22,0c-9.33,0-18.66-.06-28,.1-4.69.09-9.39.08-14.08,0-3.52,0-7-.22-10.54-.31-.61,0-1.24,0-1.87,0l-1.43,0a47.24,47.24,0,0,1-5-.09c-.41,0-.82,0-1.23,0a2.23,2.23,0,0,0-.78.47c-.56.49-3.06,2.84-3.7,3.41l-1.33,1.18a.66.66,0,0,1-.26.23l-.41.37-.22.2h0a2.11,2.11,0,0,1-.19.23,5,5,0,0,1-.51.52l-.07.09a2.87,2.87,0,0,0-.42,1.1c-.12.3.39.36.87.51a18.41,18.41,0,0,0,2.53.46c1.13.16,2.25.35,3.39.45,2.34.22,4.69.39,7,.55,4.73.31,9.47.6,14.2.79,9.37.38,18.77.71,28.13.32,3.44-.15,6.84-.57,10.26-.84l5.09-.38,2.31-.18c.87-.06,1.72-.27,2.6-.29a.79.79,0,0,0,.73-.42A1,1,0,0,0,505.34,89Z"/>
    <path fill="#fec267" d="M505.72,92a11.1,11.1,0,0,1-.13-2.51c-4.34,0-8.68.17-13,.24-4.7.06-9.4,0-14.1,0s-9.47-.12-14.21-.18-9.43,0-14.14,0c-3.55-.06-7.1-.3-10.64-.44s-7.66-.38-11.12-.39a.79.79,0,0,0-.77.48.93.93,0,0,0-.27.31,4.94,4.94,0,0,0-.2,2.46c0,2.16,1.06,5.4.62,6.42-.19.45,2.32,4.55,3.63,4.63,2.32.15,4.65.1,7,.15,4.64.09,6.4.32,11,.41s9.43,0,14.15.2,9.31,0,14,0c5.3,0,9.86-.29,15.17-.33,2.61,0,4.47-.19,7.08-.36.94-.06,1.87,0,2.81-.08.49-.08.81-.12,1.14-.15a3.41,3.41,0,0,0,1.59-2.63C505.58,97.21,505.81,92.64,505.72,92Z"/>
    <path fill="#bbd9fd" d="M440.4,156.61c-.84-1.44-2.16-1.4-3.68-1.37-1.68,0-2.79-.38-2.78-2.24a14.23,14.23,0,0,0-.08-1.61,5.38,5.38,0,0,0-.26-1.91,2.49,2.49,0,0,0-1.17-1.38,3.85,3.85,0,0,0-2.35-.12,1.49,1.49,0,0,0-.25.07h0a.67.67,0,0,0-.18.07l-.15.09a.87.87,0,0,0-.7.89,54,54,0,0,0,0,6,6.31,6.31,0,0,0,.92,4.25c1.86,2.61,7.39,1.52,10,1.5a.91.91,0,0,0,.93-1,.75.75,0,0,0,0-.16C440.7,158.76,440.91,157.49,440.4,156.61Z"/>
    <path fill="#3281ee" d="M432.07,149.75a1,1,0,0,0-1.2-.15,1.41,1.41,0,0,0-.51.32,1.19,1.19,0,0,0,.11,1.74,1.16,1.16,0,0,0,1.74-.1,1,1,0,0,0,.21-.37l0-.06A1.16,1.16,0,0,0,432.07,149.75Z"/>
    <path fill="#3281ee" d="M439.15,156.83a1,1,0,0,0-1.2-.15,1.33,1.33,0,0,0-.51.32,1.19,1.19,0,0,0,.11,1.74,1.16,1.16,0,0,0,1.74-.1,1,1,0,0,0,.21-.37s0,0,0-.06A1.14,1.14,0,0,0,439.15,156.83Z"/>
    <path fill="#bbd9fd" d="M492.77,159.73a.76.76,0,0,0,0,.16.92.92,0,0,0,.93,1c2.64,0,8.16,1.11,10-1.5a6.32,6.32,0,0,0,.93-4.25,56.33,56.33,0,0,0,0-6,.87.87,0,0,0-.69-.89.51.51,0,0,0-.16-.09.56.56,0,0,0-.18-.07h0a1.68,1.68,0,0,0-.24-.07,3.85,3.85,0,0,0-2.35.12,2.45,2.45,0,0,0-1.17,1.38,5.63,5.63,0,0,0-.27,1.91,14.23,14.23,0,0,0-.08,1.61c0,1.86-1.1,2.26-2.78,2.24-1.52,0-2.84-.07-3.67,1.37C492.55,157.49,492.77,158.76,492.77,159.73Z"/>
    <path fill="#3281ee" d="M501.39,149.75a1,1,0,0,1,1.2-.15,1.33,1.33,0,0,1,.51.32,1.18,1.18,0,0,1-.1,1.74,1.16,1.16,0,0,1-1.74-.1,1,1,0,0,1-.22-.37l0-.06A1.16,1.16,0,0,1,501.39,149.75Z"/>
    <path fill="#3281ee" d="M494.31,156.83a1,1,0,0,1,1.2-.15,1.33,1.33,0,0,1,.51.32,1.18,1.18,0,0,1-.1,1.74,1.16,1.16,0,0,1-1.74-.1,1,1,0,0,1-.22-.37l0-.06A1.17,1.17,0,0,1,494.31,156.83Z"/>
    <path fill="#bbd9fd" d="M438.32,99.68c-.83-1.44-2.15-1.4-3.67-1.38-1.68,0-2.79-.37-2.78-2.24a14.17,14.17,0,0,0-.08-1.6,5.39,5.39,0,0,0-.27-1.91,2.47,2.47,0,0,0-1.17-1.39,3.92,3.92,0,0,0-2.35-.11,1,1,0,0,0-.24.07h0c-.06,0-.13,0-.18.07l-.16.09a.89.89,0,0,0-.69.9,56.33,56.33,0,0,0,0,6,6.32,6.32,0,0,0,.93,4.25c1.86,2.61,7.38,1.52,10,1.5a.92.92,0,0,0,.93-1,.86.86,0,0,0,0-.17C438.62,101.82,438.84,100.56,438.32,99.68Z"/>
    <path fill="#3281ee" d="M430,92.82a1,1,0,0,0-1.2-.15,1.33,1.33,0,0,0-.51.32,1.2,1.2,0,0,0,.1,1.74,1.16,1.16,0,0,0,1.74-.1,1,1,0,0,0,.22-.38l0,0A1.16,1.16,0,0,0,430,92.82Z"/>
    <path fill="#3281ee" d="M437.08,99.9a1,1,0,0,0-1.2-.16,1.36,1.36,0,0,0-.51.33,1.18,1.18,0,0,0,.1,1.74,1.16,1.16,0,0,0,1.74-.1,1,1,0,0,0,.22-.38l0,0A1.17,1.17,0,0,0,437.08,99.9Z"/>
    <path fill="#bbd9fd" d="M494,102.79a.86.86,0,0,0,0,.17.92.92,0,0,0,.93,1c2.64,0,8.16,1.11,10-1.5a6.32,6.32,0,0,0,.93-4.25,56.33,56.33,0,0,0,0-6,.89.89,0,0,0-.69-.9l-.16-.09c-.05,0-.12,0-.18-.07h0a1,1,0,0,0-.24-.07,3.92,3.92,0,0,0-2.35.11,2.47,2.47,0,0,0-1.17,1.39,5.63,5.63,0,0,0-.27,1.91,14.17,14.17,0,0,0-.08,1.6c0,1.87-1.1,2.27-2.78,2.24-1.52,0-2.84-.06-3.67,1.38C493.77,100.56,494,101.82,494,102.79Z"/>
    <path fill="#3281ee" d="M502.61,92.82a1,1,0,0,1,1.2-.15,1.33,1.33,0,0,1,.51.32,1.18,1.18,0,0,1-.1,1.74,1.16,1.16,0,0,1-1.74-.1,1,1,0,0,1-.22-.38l0,0A1.16,1.16,0,0,1,502.61,92.82Z"/>
    <path fill="#3281ee" d="M495.53,99.9a1,1,0,0,1,1.2-.16,1.36,1.36,0,0,1,.51.33,1.18,1.18,0,0,1-.1,1.74,1.16,1.16,0,0,1-1.74-.1,1,1,0,0,1-.22-.38l0,0A1.17,1.17,0,0,1,495.53,99.9Z"/>
    <path fill="#ffb15c" d="M456.32,162.26c.08-7.76-.11-15.51-.09-23.27,0-7.43.08-14.79,0-22.22a1,1,0,0,0-.41-.83,1.19,1.19,0,0,0-.08-.2.85.85,0,0,0-.75-.6c-.24,0-.48,0-.71-.07-2.23-1.22-7.53-.39-10-.39-10.3,0-20.54.24-30.85-.05l-2.32,0-1.8-.09c-7.58-.4-15.16-.13-22.73.18-2.14.08-5,.07-7.65.22-2-.1-4.86-.2-6.73.51a2.26,2.26,0,0,0-.91.06l-.18,0-.05,0a1.57,1.57,0,0,0-1.05.94,1,1,0,0,0-.45.86c0,.26,0,.51,0,.76-.25,1.55.2,3.72-.37,6.49-.05.26.35,23.27.27,34.25-.05,6.93,0,13.44.31,20.37.09,2.22.68,4.31,2.44,5.21a5.41,5.41,0,0,0,3.7,1.68c8,.68,38.61.57,45.8.46,7.15.15,14.33-.08,21.46-.2,2.06,0,6.13.49,8.89-.31a2.67,2.67,0,0,0,1.48-.52,3.72,3.72,0,0,0,2.62-3.64C456.59,175.34,456.24,168.8,456.32,162.26Z"/>
    <path fill="#ffb15c" d="M457.47,103.72l0,0-.09-.08c-.69-.49-1.23-1.15-1.9-1.67-.07-.06-.18-.15-.3-.27-1.09-1-3.86-4-4-4.28a5.14,5.14,0,0,0-1.85-1.8,1,1,0,0,0-.25,0c-10.81,0-21.6-.07-32.4.12-5.43.1-10.87.09-16.3,0-4.07,0-8.13-.25-12.2-.35a19.39,19.39,0,0,1-2.16,0l-1.67-.06a51.73,51.73,0,0,1-5.84-.09l-1.43,0a2.87,2.87,0,0,0-.9.54c-.65.57-3.55,3.3-4.28,4l-1.54,1.37a.83.83,0,0,1-.31.27l-.47.42-.25.24h0l-.22.27a8.35,8.35,0,0,1-.59.6l-.08.1a3.13,3.13,0,0,0-.5,1.27c-.14.35.46.42,1,.59a21.08,21.08,0,0,0,2.94.53c1.3.19,2.61.41,3.91.53,2.72.25,5.44.45,8.16.63,5.48.36,11,.7,16.45.92,10.84.44,21.72.83,32.57.37,4-.17,7.92-.66,11.88-1,2-.16,3.92-.3,5.88-.45l2.68-.2c1-.07,2-.31,3-.33a.94.94,0,0,0,.84-.5A1.09,1.09,0,0,0,457.47,103.72Z"/>
    <path fill="#fec267" d="M457.91,107.23a12.86,12.86,0,0,1-.15-2.91c-5,0-10.05.21-15.08.28-5.44.07-10.88,0-16.33,0s-11-.15-16.44-.22-10.92,0-16.38-.06c-4.11-.06-8.21-.35-12.32-.51s-8.87-.43-12.87-.45a.92.92,0,0,0-.89.56,1,1,0,0,0-.31.35c-.5.89-.22,1.85-.24,2.85,0,2.51,1.23,6.25.72,7.44-.22.53,2.69,5.27,4.21,5.36,2.68.18,5.38.12,8.07.17,5.37.11,7.42.38,12.79.48s10.92,0,16.38.23,10.78,0,16.17,0c6.15,0,11.43-.33,17.57-.37,3,0,5.18-.23,8.2-.42,1.08-.07,2.17-.06,3.25-.09.57-.1.95-.14,1.32-.18a3.9,3.9,0,0,0,1.84-3C457.75,113.21,458,107.93,457.91,107.23Z"/>
    <path fill="#bbd9fd" d="M382.28,182c-1-1.67-2.5-1.63-4.26-1.6-1.94,0-3.23-.43-3.22-2.59a16.43,16.43,0,0,0-.09-1.86,6.16,6.16,0,0,0-.31-2.21,2.85,2.85,0,0,0-1.35-1.6,4.36,4.36,0,0,0-2.72-.13,1.23,1.23,0,0,0-.29.08h0a1.8,1.8,0,0,0-.21.08l-.18.11a1,1,0,0,0-.8,1,63.57,63.57,0,0,0,0,6.94,7.35,7.35,0,0,0,1.07,4.92c2.16,3,8.56,1.76,11.6,1.74a1.07,1.07,0,0,0,1.08-1.11,1.18,1.18,0,0,0,0-.2C382.62,184.48,382.87,183,382.28,182Z"/>
    <path fill="#3281ee" d="M372.64,174.06a1.18,1.18,0,0,0-1.39-.18,1.62,1.62,0,0,0-.59.37,1.36,1.36,0,0,0,.12,2,1.33,1.33,0,0,0,2-.11,1.07,1.07,0,0,0,.25-.43s0,0,0-.07A1.35,1.35,0,0,0,372.64,174.06Z"/>
    <path fill="#3281ee" d="M380.83,182.25a1.19,1.19,0,0,0-1.39-.18,1.65,1.65,0,0,0-.59.38,1.38,1.38,0,0,0,.12,2,1.34,1.34,0,0,0,2-.12,1.05,1.05,0,0,0,.25-.43l0-.06A1.35,1.35,0,0,0,380.83,182.25Z"/>
    <path fill="#bbd9fd" d="M442.91,185.6a1.18,1.18,0,0,0,0,.2,1.07,1.07,0,0,0,1.08,1.11c3.05,0,9.45,1.28,11.6-1.74a7.29,7.29,0,0,0,1.07-4.92,63.84,63.84,0,0,0,0-6.94,1,1,0,0,0-.81-1,1.08,1.08,0,0,0-.18-.11,1.31,1.31,0,0,0-.21-.08h0a1.15,1.15,0,0,0-.28-.08,4.36,4.36,0,0,0-2.72.13,2.87,2.87,0,0,0-1.36,1.6,6.64,6.64,0,0,0-.31,2.21c-.06.62-.09,1.23-.09,1.86,0,2.16-1.27,2.63-3.22,2.59-1.76,0-3.28-.07-4.25,1.6C442.67,183,442.91,184.48,442.91,185.6Z"/>
    <path fill="#3281ee" d="M452.9,174.06a1.18,1.18,0,0,1,1.39-.18,1.62,1.62,0,0,1,.59.37,1.37,1.37,0,0,1-.12,2,1.34,1.34,0,0,1-2-.11,1.37,1.37,0,0,1-.25-.43s0,0,0-.07A1.34,1.34,0,0,1,452.9,174.06Z"/>
    <path fill="#3281ee" d="M444.7,182.25a1.2,1.2,0,0,1,1.39-.18,1.65,1.65,0,0,1,.59.38,1.37,1.37,0,0,1-.12,2,1.33,1.33,0,0,1-2-.12,1.08,1.08,0,0,1-.26-.43l0-.06A1.36,1.36,0,0,1,444.7,182.25Z"/>
    <path fill="#bbd9fd" d="M379.87,116.08c-1-1.67-2.49-1.63-4.25-1.6-1.94,0-3.23-.43-3.22-2.59a16.43,16.43,0,0,0-.09-1.86,6.16,6.16,0,0,0-.31-2.21,2.85,2.85,0,0,0-1.35-1.6,4.36,4.36,0,0,0-2.72-.13,1.23,1.23,0,0,0-.29.08h0a1.8,1.8,0,0,0-.21.08l-.18.11a1,1,0,0,0-.8,1,63.57,63.57,0,0,0,0,6.94,7.35,7.35,0,0,0,1.07,4.92c2.16,3,8.55,1.76,11.6,1.74a1.07,1.07,0,0,0,1.08-1.11,1.18,1.18,0,0,0,0-.2C380.22,118.56,380.47,117.1,379.87,116.08Z"/>
    <path fill="#3281ee" d="M370.24,108.14a1.19,1.19,0,0,0-1.4-.18,1.71,1.71,0,0,0-.59.37,1.37,1.37,0,0,0,.13,2,1.33,1.33,0,0,0,2-.11,1.07,1.07,0,0,0,.25-.43s0,0,0-.07A1.35,1.35,0,0,0,370.24,108.14Z"/>
    <path fill="#3281ee" d="M378.43,116.33a1.19,1.19,0,0,0-1.39-.18,1.65,1.65,0,0,0-.59.38,1.37,1.37,0,0,0,.12,2,1.34,1.34,0,0,0,2-.12,1.18,1.18,0,0,0,.25-.43l0-.06A1.36,1.36,0,0,0,378.43,116.33Z"/>
    <path fill="#bbd9fd" d="M444.33,119.68a.65.65,0,0,0,0,.2,1.06,1.06,0,0,0,1.07,1.11c3.05,0,9.45,1.28,11.61-1.74a7.35,7.35,0,0,0,1.06-4.92,63.84,63.84,0,0,0,0-6.94,1,1,0,0,0-.81-1,.78.78,0,0,0-.18-.11,1,1,0,0,0-.21-.08h0a1.38,1.38,0,0,0-.29-.08,4.36,4.36,0,0,0-2.72.13,2.81,2.81,0,0,0-1.35,1.6,6.16,6.16,0,0,0-.31,2.21,14.39,14.39,0,0,0-.09,1.86c0,2.16-1.28,2.63-3.23,2.59-1.75,0-3.28-.07-4.25,1.6C444.08,117.1,444.33,118.56,444.33,119.68Z"/>
    <path fill="#3281ee" d="M454.31,108.14a1.18,1.18,0,0,1,1.39-.18,1.62,1.62,0,0,1,.59.37,1.37,1.37,0,0,1-.12,2,1.34,1.34,0,0,1-2-.11,1.37,1.37,0,0,1-.25-.43l0-.07A1.32,1.32,0,0,1,454.31,108.14Z"/>
    <path fill="#3281ee" d="M446.12,116.33a1.19,1.19,0,0,1,1.39-.18,1.74,1.74,0,0,1,.59.38,1.37,1.37,0,0,1-.13,2,1.33,1.33,0,0,1-2-.12,1,1,0,0,1-.25-.43l0-.06A1.36,1.36,0,0,1,446.12,116.33Z"/>
    <path fill="#3281ee" d="M330.83,75a34.67,34.67,0,0,1-19.55-5.93c-5-3.44-10.91-11.46-12.65-20.14a32.29,32.29,0,0,1,1.26-16.47C304.71,18.61,318,8.94,332.08,8.94a28.94,28.94,0,0,1,15.85,4.67c8.69,5.58,13.9,12.82,15.48,21.52,1.66,9.16-1.07,19.62-7.31,28C350.5,70.61,341.34,74.94,331,75Z"/>
    <path fill="#bfc3c7" d="M332.08,10.94a27,27,0,0,1,14.77,4.36c8.2,5.26,13.11,12.05,14.59,20.19,1.57,8.62-1,18.5-6.94,26.43-5.22,7-13.8,11-23.53,11.07h-.15a32.57,32.57,0,0,1-18.4-5.58c-4.52-3.13-10.21-10.81-11.83-18.89a30.19,30.19,0,0,1,1.19-15.41c4.48-12.85,17.22-22.17,30.3-22.17m0-4C317.4,6.94,303.14,17.05,298,31.8a34.09,34.09,0,0,0-1.33,17.51c1.84,9.18,8.11,17.68,13.48,21.39A36.45,36.45,0,0,0,330.82,77H331c10.28,0,20.43-4.27,26.71-12.68,10.84-14.53,13.65-38-8.69-52.38a31.07,31.07,0,0,0-16.93-5Z"/>
    <path fill="#bfc3c7" d="M360.9,40.77c-7.95-.11-51.79.44-59.77,0-3.28-.18-3.48,4.93-.19,5.11,8,.43,51.82-.12,59.78,0C364,45.93,364.21,40.82,360.9,40.77Z"/>
    <path fill="#bfc3c7" d="M327.78,12.05c.05,8,1.53,51.77,1.27,59.75-.1,3.29,5,3.38,5.12.08.26-8-1.22-51.8-1.28-59.76C332.87,8.84,327.76,8.74,327.78,12.05Z"/>
    <path fill="#fff" d="M323.31,66a1,1,0,0,0,0-1.89,1.14,1.14,0,0,0-.63.13h0a0,0,0,0,0,0,0,5.42,5.42,0,0,0,0-.57,1,1,0,0,0-.95-1,1,1,0,0,0-.95,1,2.9,2.9,0,0,1,0,.51l-.23,0c-.12,0-.2,0-.36,0a1,1,0,0,0-.94,1.1.76.76,0,0,0,.63.79c.26.13.56,0,.86,0a2.73,2.73,0,0,1,0,.41c.05,1.22,1.94,1.23,1.9,0l0-.36A2.34,2.34,0,0,0,323.31,66Z"/>
    <path fill="#fff" d="M313.26,33l-1.17,0c0-.25,0-.49,0-.73a1.26,1.26,0,0,0-2.52,0c0,.3,0,.6,0,.9a4.88,4.88,0,0,1-.69-.07c-1.55-.53-2.21,1.91-.68,2.43a4.45,4.45,0,0,0,1.49.12c0,.19,0,.38,0,.57a1.27,1.27,0,0,0,2.53,0c0-.23,0-.46,0-.69l1.05,0A1.27,1.27,0,0,0,313.26,33Z"/>
    <path fill="#fff" d="M320.82,22.63a1,1,0,0,0,0-1.89,1.25,1.25,0,0,0-.63.12h0a0,0,0,0,0,0,0,2.71,2.71,0,0,0,0-.57,1,1,0,0,0-.95-.94,1,1,0,0,0-.94.94c0,.17,0,.34,0,.51l-.23,0c-.12,0-.2,0-.36,0a1,1,0,0,0-.95,1.11.77.77,0,0,0,.63.79,2.5,2.5,0,0,0,.87,0l0,.42c0,1.21,1.94,1.22,1.89,0,0-.13,0-.25,0-.37A2.63,2.63,0,0,0,320.82,22.63Z"/>
    <path fill="#fff" d="M342.58,50.48h-1.17c0-.24,0-.48,0-.72a1.26,1.26,0,0,0-2.52,0c0,.3,0,.6,0,.9a5,5,0,0,1-.69-.08c-1.55-.52-2.21,1.92-.67,2.44a4.64,4.64,0,0,0,1.48.12c0,.19,0,.38,0,.57a1.26,1.26,0,0,0,2.52,0c0-.23,0-.46,0-.69l1.05,0A1.26,1.26,0,0,0,342.58,50.48Z"/>
    <path fill="#fff" d="M317.41,50.6a1.15,1.15,0,0,0,.47.67A1.14,1.14,0,0,0,319.4,51a1.13,1.13,0,0,0-.36-1.68,1.15,1.15,0,0,0-1.62.73A1.06,1.06,0,0,0,317.41,50.6Z"/>
    <path fill="#fff" d="M321.92,33.54a1.15,1.15,0,0,0,.47.67,1.14,1.14,0,0,0,1.52-.28,1.12,1.12,0,1,0-2-1A1,1,0,0,0,321.92,33.54Z"/>
    <path fill="#fff" d="M310.94,57.27a1.19,1.19,0,0,0,.46.67,1.15,1.15,0,0,0,1.53-.28,1.11,1.11,0,0,0-.36-1.67,1.13,1.13,0,0,0-1.62.72A1.06,1.06,0,0,0,310.94,57.27Z"/>
    <path fill="#fff" d="M338.76,64.58a1.18,1.18,0,0,0,.47.67,1.15,1.15,0,0,0,1.52-.28,1.12,1.12,0,0,0-.36-1.68,1.15,1.15,0,0,0-1.62.72A1.1,1.1,0,0,0,338.76,64.58Z"/>
    <path fill="#fff" d="M352.54,33.54a1.14,1.14,0,0,0,.46.67,1.15,1.15,0,0,0,1.53-.28,1.12,1.12,0,0,0-.36-1.67,1.13,1.13,0,0,0-1.62.72A1.06,1.06,0,0,0,352.54,33.54Z"/>
    <path fill="#fff" d="M350.82,56.14a1.23,1.23,0,0,0,.47.67,1.16,1.16,0,0,0,1.53-.28,1.13,1.13,0,0,0-.36-1.68,1.15,1.15,0,0,0-1.62.72A1.22,1.22,0,0,0,350.82,56.14Z"/>
    <path fill="#fff" d="M341.5,37.78a1.2,1.2,0,0,0,.47.67,1.15,1.15,0,0,0,1.53-.28,1.12,1.12,0,1,0-2-1A1.22,1.22,0,0,0,341.5,37.78Z"/>
    <path fill="#fff" d="M348.67,26.17c-4.39-1.47-6.33-1.86-6.47-8.38,0-.57.4-1.49-.69-1.62a4.15,4.15,0,0,0-2.06.53c-3.28,1.68-4.29,6.24-3.09,9.53a6.55,6.55,0,0,0,7.69,4.47,8.64,8.64,0,0,0,4.87-2.55C349.5,27.59,349.5,26.44,348.67,26.17Z"/>
    <path fill="#bbd9fd" d="M292.35,197c-35.52,0-91.54-.16-93.66-.26-2.42-.21-3.91-.58-5.15-2-1.43-1.64-1.51-3.55-1.59-5.75-.41-10.41-.57-20.39-.49-31.46,0-3.08,0-6.92,0-11.76v-1.19c0-4.83,0-8.68,0-11.76-.08-11.07.08-21,.48-31.41.09-2.25.17-4.15,1.6-5.8,1.24-1.42,2.78-1.8,5.2-2,8.78-.74,35.54-.82,46.64-.82s20.28.07,24.23.14h.11c4-.08,10.36-.13,16.65-.13,13.87,0,24.54.23,28.55.63a7.74,7.74,0,0,1,2.69.7c.76.32,1.33.6,1.46.68.45.29,1,.88,1.14,2.56.44,6.46.36,13.1.29,19.52,0,3.5-.08,7.11,0,10.69.07,5.94,0,12,0,17.59s.1,11.7,0,17.65c0,3.57,0,7.18,0,10.68.07,6.42.15,13.06-.29,19.53-.11,1.67-.69,2.26-1.19,2.58a13.35,13.35,0,0,1-1.35.63,7.8,7.8,0,0,1-2.75.72C314.6,197,311.62,197,292.35,197Z"/>
    <path fill="#3281ee" d="M286.36,95.77c13.78,0,24.35.23,28.27.61a5.07,5.07,0,0,1,1.81.48l.06,0,.68.31c0,.08,0,.2,0,.35.43,6.35.36,12.64.28,19.3,0,3.51-.08,7.14,0,10.74.07,5.92,0,11.91,0,17.53v.11c.05,5.62.1,11.61,0,17.53,0,3.61,0,7.23,0,10.74.08,6.66.15,12.95-.28,19.31,0,.14,0,.26,0,.35l-.68.3-.06,0a4.9,4.9,0,0,1-1.68.46c-.73,0-4.46.07-22.44.07-34.67,0-90-.15-93.43-.26-2.07-.18-2.63-.45-3.09-1-.67-.77-.77-1.73-.86-3.9v-.05c-.4-10.31-.56-20.24-.48-31.26,0-3.12,0-7,0-11.81v-1.15c0-4.82,0-8.68,0-11.8-.08-11,.08-21,.48-31.27v0c.09-2.17.19-3.13.86-3.9.47-.54,1-.8,3.19-1,6.11-.51,23-.81,46.41-.81,11,0,20.22.07,24.16.13h.22c4-.08,10.32-.13,16.58-.13m0-6c-6.7,0-12.9,0-16.7.14-4.2-.07-13.56-.14-24.26-.14-17.75,0-39.2.18-46.91.83-2.55.22-5.15.65-7.21,3S189,98.84,189,101.28c-.43,10.73-.56,20.82-.49,31.55,0,3.33,0,7.38,0,11.73h0v1.21h0c0,4.36,0,8.4,0,11.73-.07,10.74.06,20.82.49,31.55.09,2.44.19,5.19,2.33,7.65s4.66,2.81,7.21,3c1.38.12,60.22.27,93.83.27,13.06,0,22.31,0,22.9-.08a11.07,11.07,0,0,0,3.62-.94,16.77,16.77,0,0,0,1.83-.89,5.86,5.86,0,0,0,2.53-4.89c.69-10.12.15-20.25.26-30.38.07-5.89,0-11.77,0-17.65s.1-11.77,0-17.66c-.11-10.12.43-20.26-.26-30.37a5.88,5.88,0,0,0-2.53-4.9,15.45,15.45,0,0,0-1.83-.88,11,11,0,0,0-3.62-1c-4.91-.48-17.58-.64-28.86-.64Z"/>
    <path fill="#3281ee" d="M323.54,112.8s0-10.45-.33-15.66a5.91,5.91,0,0,0-2.54-4.9,15.45,15.45,0,0,0-1.83-.88,11,11,0,0,0-3.62-1c-7.83-.77-35.37-.72-45.56-.5-11.17-.19-58.81-.35-71.17.69-2.55.22-5.15.65-7.21,3S189,98.84,189,101.28c-.16,3.91-.36,11.52-.36,11.52Z"/>
    <path fill="#bfc3c7" d="M316.3,101.21a4.1,4.1,0,0,0-1.5-2.37,3.93,3.93,0,0,0-5.26.71,3.85,3.85,0,0,0,1,5.8,4,4,0,0,0,5.8-4.14Z"/>
    <path fill="#bfc3c7" d="M304.09,101.21a4.09,4.09,0,0,0-1.49-2.37,3.94,3.94,0,0,0-5.27.71,3.85,3.85,0,0,0,1,5.8,3.9,3.9,0,0,0,5.65-2.2A3.77,3.77,0,0,0,304.09,101.21Z"/>
    <path fill="#bfc3c7" d="M291.88,101.21a4.09,4.09,0,0,0-1.49-2.37,3.94,3.94,0,0,0-5.27.71,3.84,3.84,0,0,0,1,5.8,3.9,3.9,0,0,0,5.64-2.2A3.67,3.67,0,0,0,291.88,101.21Z"/>
    <path fill="#3281ee" d="M226.11,150.19a2.08,2.08,0,0,1-1.52-.79c-.74-.74-2.44-3.3-.58-5.23.27-.28,1.9-1.8,2.22-2.08l1.47-1.29-1.34-1.43a23,23,0,0,0-2.16-2.08,2.44,2.44,0,0,1-.81-1.82,3.59,3.59,0,0,1,1-2.65,2.9,2.9,0,0,1,2.11-.92,4.2,4.2,0,0,1,2.62,1,14.59,14.59,0,0,1,1.54,1.49v0l.92,1,.92,1a14.18,14.18,0,0,0,3.69-3.87,2.46,2.46,0,0,1,2.09-1,3.72,3.72,0,0,1,3.19,2.25,2.52,2.52,0,0,1-.2,2.43c-.8,1-2.17,2.81-3.05,3.74l-1.26,1.2,1.86,1.56c.4.33.77.64,1.12,1a2.62,2.62,0,0,1,.82,3,3.84,3.84,0,0,1-3.36,2.38h0a3.07,3.07,0,0,1-2.13-.91c-.61-.56-1.23-1.1-1.77-1.55l-1.26-1.06L231,146.76a15,15,0,0,0-1.37,1.44C229,148.93,227.91,150.59,226.11,150.19Z"/>
    <path fill="#3281ee" d="M272,150.19a2.11,2.11,0,0,1-1.53-.79c-.74-.74-2.44-3.3-.58-5.23.27-.28,1.9-1.8,2.23-2.08l1.47-1.29-1.34-1.43a23,23,0,0,0-2.16-2.08,2.45,2.45,0,0,1-.82-1.82,3.68,3.68,0,0,1,.95-2.65,2.92,2.92,0,0,1,2.12-.92,4.19,4.19,0,0,1,2.61,1,14.72,14.72,0,0,1,1.55,1.49v0l.92,1,.92,1a14.27,14.27,0,0,0,3.68-3.87,2.48,2.48,0,0,1,2.1-1,3.72,3.72,0,0,1,3.18,2.25,2.52,2.52,0,0,1-.2,2.43c-.8,1-2.16,2.81-3.05,3.74l-1.25,1.2,1.86,1.56c.4.33.77.64,1.12,1a2.6,2.6,0,0,1,.81,3,3.83,3.83,0,0,1-3.36,2.38h0a3.07,3.07,0,0,1-2.14-.91c-.6-.56-1.23-1.1-1.77-1.55l-1.25-1.06-1.23,1.08a14.77,14.77,0,0,0-1.36,1.44C274.88,148.93,273.82,150.59,272,150.19Z"/>
    <path fill="#3281ee" d="M268.52,168.69c-10.45-1.1-10.45-1.72-20.89-3.24-4.3-.62-5.17,6.07-.86,6.7,10.44,1.51,10.44,2.13,20.89,3.23C272,175.84,272.85,169.15,268.52,168.69Z"/>
    <path fill="#bfc3c7" d="M190.17,94.36c-3.17,7-8.16,12.7-12.67,18.7a201.31,201.31,0,0,1-28.88,31c-.7.6-5.26,4.4-5.8,4.83a185.06,185.06,0,0,1-39.92,24.52c-8.64,3.89-17.44,7.23-26.23,10.6a1.18,1.18,0,0,0-.42.16c-8.93,3.43-17.86,6.89-26.6,11-1.68.78-.94,4,.76,3.21,8.8-4.12,17.78-7.6,26.78-11.06,22.1-.16,44.11-3.29,66.21-3.33,4.22,0,8.43.15,12.63.44.58,0,3.81.29,4.16.33,16.37,1.64,47.29,10,62.44,15.17.83.28,3.68-.31,6.76-.08,0,0,.71-1.62-3.76-3-7.32-2.25-32.9-9.85-40.35-11.51,0,0,0,0,0,0a57.47,57.47,0,0,1-12.53-28.06c-1.43-9-1.34-18.27-1.29-27.43a31.33,31.33,0,0,0,.73-4.21,1.6,1.6,0,0,0-.24-1.08,257.58,257.58,0,0,0,20.64-28.63C196.24,90,192,90.23,190.17,94.36Zm-21.56,34.05c0,.36,0,.71,0,1.07-1.43,5.39-4.48,10.13-7.54,14.55a1.13,1.13,0,0,0-.41,0,1,1,0,0,0-1.28.15l-1.47,1.3a36.55,36.55,0,0,0,0-4,1.74,1.74,0,0,0-.55-1.24Q163.22,134.56,168.61,128.41Zm.82,25.64a1.33,1.33,0,0,0-1.11.39,38.28,38.28,0,0,1-5.43,4.41c-.41-3.71-.6-7.46-.66-11.26a80.65,80.65,0,0,0,6.36-10.16A156,156,0,0,0,169.43,154.05ZM150.19,162c-.14.21-.29.42-.44.62a23.31,23.31,0,0,0-2.52-1.48,2.42,2.42,0,0,0,.06-.48v-1.79q3.28-2.78,6.53-5.61c-.27,1.09-.58,2.17-.94,3.21A47.9,47.9,0,0,0,150.19,162Zm1.3,12.38-1-.12c.07-.34.13-.69.18-1Zm-18.05-4.6c-.91.71-1.79,1.49-2.65,2.28-1.75-.15-3.5-.28-5.25-.38Q129.47,170.57,133.44,169.75Zm1.84,2.56a16.83,16.83,0,0,1,5.67-2.79c-.71,1.09-1.39,2.21-2.07,3.34-1.25-.15-2.51-.28-3.77-.41Zm4-7c1.14-.82,2.25-1.7,3.33-2.58a21.7,21.7,0,0,1,3.69,1.54Q142.82,164.73,139.31,165.32Zm20.88-4.92a17.9,17.9,0,0,1-6.73,1.87,30.94,30.94,0,0,0,2-4.44c1.24-2.18,2.63-4.27,4.05-6.33C159.61,154.49,159.83,157.46,160.19,160.4Zm-8,5.24a19.24,19.24,0,0,0,8.45-1.89c.3,1.86.68,3.71,1.12,5.55a24.39,24.39,0,0,0-9.67-3A1.83,1.83,0,0,0,152.22,165.64Zm2.91-23.27a39.68,39.68,0,0,1-.37,5.87c-2.48,2.16-5,4.29-7.47,6.43v-5.31C150,147.11,152.58,144.77,155.13,142.37Zm-13.68,11.7c1-.78,2-1.57,3-2.37v5.41l-1,.82-1.42,1.22a31.16,31.16,0,0,0-6.2-1C137.74,156.86,139.61,155.49,141.45,154.07ZM99.14,178.6A197.3,197.3,0,0,0,132,160.87a1.25,1.25,0,0,0,1.08.59,36.55,36.55,0,0,1,5.7.38c-3.59,2.75-7.51,5-11.74,5a1.43,1.43,0,0,0-1.35,1.35c-3.23.86-6.43,1.85-9.58,3-7,2.6-13.82,6.87-21,9C96.46,179.72,97.81,179.18,99.14,178.6Zm21.31,2.94c-8,.52-15.91,1.17-23.86,1.67,6.13-2,12-5.42,18-7.87.45-.19.9-.36,1.36-.54h0c3.86-.1,7.71,0,11.55.31a55.64,55.64,0,0,1-6.58,5.75A1.42,1.42,0,0,0,120.45,181.54Zm13.25-.7q-4.06.15-8.13.38c2.09-1.84,4.05-3.86,6.08-5.78,1.79.17,3.57.35,5.35.54A51.19,51.19,0,0,1,133.7,180.84Zm11.65-1a1.77,1.77,0,0,0-.22.85h-.42q-3.61,0-7.22.08c.95-1.42,1.83-2.9,2.72-4.38l6.39.76A24.17,24.17,0,0,1,145.35,179.8Zm2.23-5.9-5.49-.66c.84-1.35,1.7-2.67,2.65-3.93a1.91,1.91,0,0,0,.33-.71l2.41-.45c.19.37.4.72.6,1.08A20.51,20.51,0,0,1,147.58,173.9Zm.61,6.81a26.86,26.86,0,0,0,1.37-3.24l4.53.5a36.31,36.31,0,0,1,2,3.11C153.43,180.9,150.81,180.77,148.19,180.71Zm7.31-5.94c-1.23-1.69-2.5-3.34-3.67-5.1,3.84.14,7.64,1.88,11.14,3.89v0a1.44,1.44,0,0,0,1.84,1.07l1.28.78.19.12C162.69,175.42,159.09,175.13,155.5,174.77Zm4,6.57a27.6,27.6,0,0,0-1.59-3c4,.36,8.09.61,12.15.64a1.2,1.2,0,0,0,.89-.37c2.56,1.76,5.08,3.58,7.63,5.35Q169.08,182.18,159.48,181.34Zm17.94-2.07c-3.84-2.71-7.67-5.46-11.69-7.81l-.46-.26a70.73,70.73,0,0,1-1.93-8.88,41.18,41.18,0,0,0,6.52-5.07c.09.66.19,1.32.31,2A60,60,0,0,0,177.42,179.27Z"/>
    <path fill="#bfc3c7" d="M450.47,81.48c-3.24,0-16.14-1.53-21.31-2.15-.49-.06-9.51-1.59-14.36-2.66-.79-.17-9.93-3-10.65-3.31-17.11-6.48-32-17.62-40.22-32.74-1-1.78-3.88-.22-2.92,1.55a62.54,62.54,0,0,0,7.66,11c.05,6.66,2.59,12.92,4.67,19.23.25.76.47,1.53.68,2.29a1.55,1.55,0,0,0,.52,2.1c1.4,6.25,1.49,12.42,1.46,19,0,2,3.38,2,3.39,0V94.18a1.52,1.52,0,0,0,1.34-1.06c1.67-5.14,11.61-6.89,16.53-8.24,8.6-2.35,17.56-3,26.49-3.17,4.94.77,19.62,2.77,24.54,2.82,1,0,6.3.29,6.35-.64C454.72,82.5,451.62,81.49,450.47,81.48Zm-54.91-5.41a15.39,15.39,0,0,1-3.11,2.06,17.2,17.2,0,0,0-2.89-2.47Q392.58,75.81,395.56,76.07Zm-8.31-3.58a3,3,0,0,0,0-.31V68.65c2.58,1.56,5.26,3,8,4.31C392.62,72.73,389.94,72.56,387.25,72.49Zm-.73,5a10.33,10.33,0,0,1,2.69,1.81,19.74,19.74,0,0,1-3.45.53A12.29,12.29,0,0,0,386.52,77.49ZM384,66.55a1.35,1.35,0,0,0-.09.5v3.49c-2.71-3.75-6.21-7-8.81-10.84A80.18,80.18,0,0,0,384,66.55ZM377.35,74c-1.05-3.47-2.38-6.9-3.44-10.39,2.78,3.47,6,6.63,8.34,10.39Zm3.27,8.8c-.46,1-.89,2.06-1.36,3.07a53.62,53.62,0,0,0-1.1-8.79h5C382.77,79.08,381.47,80.87,380.62,82.78Zm1.85,4c.36-.76.7-1.53,1-2.32.23-.52.48-1,.73-1.53l.22,0a23.84,23.84,0,0,0,7.1-1.1q.48.58.93,1.17A45,45,0,0,0,382.47,86.79Zm13.4-4.71c-.43-.5-.85-1-1.27-1.51a18,18,0,0,0,4.3-3.19,1.47,1.47,0,0,0,.46-.95q3,.31,6.06.69c2.26.78,4.54,1.5,6.85,2.13A101.74,101.74,0,0,0,395.87,82.08Z"/>
    <path fill="none" d="M434.84,52.27c-10.53-24.07-36-39.79-64.34-46.1C351.82,2,331.88.92,312.68.44c-20.49-.51-41,.23-61.4,1.72C231.45,3.61,211.71,5.8,192.07,8.5,173,11.11,153.44,13,135.45,19.27c-16.63,5.85-39.63,14.06-57.86,48.79-13.38,25.51-6.37,58.5,12.19,81.68C123,191.24,187.27,192.82,240,191.35c15.39-.43,30.9-.65,46.18-2.27a333.79,333.79,0,0,0,56.69-11c16.87-4.83,34.09-10.81,48.55-19.83a96.91,96.91,0,0,0,30.28-30C436.52,105.32,446.1,78,434.84,52.27Z"/>
    <path fill="#ff9300" d="M159.8,71.92c-.31-5.18-5.44-10-11.37-8.53-5.08,1.26-9.62,7.81-7.79,12.71s7.78,7.24,12.66,5.61a10.68,10.68,0,0,0,5.46-4.83A9.78,9.78,0,0,0,159.8,71.92Z"/>
    <path fill="#fec267" d="M110.59,43.82c.92.2,1.82.42,2.72.66l.33.09c3,.81,6,1.78,8.92,2.72,1.6.42,3.18.87,4.75,1.4.5.14,1,.28,1.51.4A1.57,1.57,0,0,1,130,50.23l0,.1a1.73,1.73,0,0,1-1.72,2.18,1.74,1.74,0,0,1-.89-.1l-.78-.27c-1.65-.44-16.35-4.79-16.35-4.79l-.53-.12C107.57,46.75,108.38,43.34,110.59,43.82Z"/>
    <path fill="#fec267" d="M111.28,46.77c-1.43,15.52-17.45,72.32-19.23,78.71-.61,2.17-4,1.36-3.41-.82,1.56-5.59,17.45-63.27,19.14-77.77C108,44.65,111.49,44.52,111.28,46.77Z"/>
    <path fill="#ff9300" d="M128.87,47a3.22,3.22,0,0,1,.61-.47,3.89,3.89,0,0,1,.65-.44c2.71-1.4,7.11.84,8,3.63a.44.44,0,0,1-.07.41.5.5,0,0,1-.14.24,34.89,34.89,0,0,1-3.56,3,35.65,35.65,0,0,1-4,2.39.48.48,0,0,1-.28,0,.4.4,0,0,1-.41-.07C127.35,54,126.66,49.14,128.87,47Z"/>
    <path fill="#fec267" d="M130.7,51.87a12.84,12.84,0,0,1,2.19-1.67,13.23,13.23,0,0,1,2.29-1.53c9.61-5,25.25,3,28.5,12.86a1.41,1.41,0,0,1-.25,1.45,1.65,1.65,0,0,1-.49.86,128.81,128.81,0,0,1-12.63,10.74,127.09,127.09,0,0,1-14.25,8.47,1.57,1.57,0,0,1-1,.18,1.4,1.4,0,0,1-1.45-.23C125.32,76.72,122.88,59.36,130.7,51.87Z"/>
    <path fill="#ff9300" d="M110.94,42.36c4.65,1.12,2.92,8.34-1.73,7.23S106.28,41.25,110.94,42.36Z"/>
    <path fill="#ff9300" d="M66.87,140.19a43.2,43.2,0,0,0,8.91,1.92,68.45,68.45,0,0,0,15.14.54c3.59-.23,23-1.42,25.33-7.13a2.5,2.5,0,0,0,.23-1.71,17,17,0,0,0-5.4-6.33,22.85,22.85,0,0,0-7.38-3.4A36.07,36.07,0,0,0,86.3,124a47.36,47.36,0,0,0-13.66,5.55l-2.2,1.29c-1.61.91-4.62,2.65-6.25,3.82a3.2,3.2,0,0,0-1.49,3.16C62.86,138.4,65,139.51,66.87,140.19Z"/>
    <path fill="#ffb15c" d="M80.64,125.94c.07-6.71-.09-13.39-.07-20.1,0-6.42.06-12.77,0-19.19a.91.91,0,0,0-.35-.72l-.08-.17a.72.72,0,0,0-.64-.52l-.62-.06c-1.92-1.06-6.5-.33-8.6-.34-8.89,0-17.73.21-26.64,0l-2,0L40,84.69c-6.55-.35-13.09-.11-19.63.15-1.85.08-4.33.07-6.6.19A16.38,16.38,0,0,0,8,85.47a2,2,0,0,0-.79,0l-.15,0H7a1.38,1.38,0,0,0-.9.82.84.84,0,0,0-.39.75c0,.21,0,.43,0,.65-.21,1.34.17,3.22-.32,5.6,0,.23.3,20.1.23,29.58,0,6,0,11.61.27,17.6.08,1.91.59,3.72,2.11,4.5a4.72,4.72,0,0,0,3.2,1.45c6.86.59,33.34.49,39.55.39,6.18.13,12.38-.06,18.54-.17,1.78,0,5.29.42,7.67-.27a2.23,2.23,0,0,0,1.28-.45,3.19,3.19,0,0,0,2.27-3.14C80.88,137.24,80.58,131.59,80.64,125.94Z"/>
    <path fill="#ffb15c" d="M81.64,75.38l0,0-.08-.06c-.59-.43-1.06-1-1.64-1.45l-.26-.23c-.94-.88-3.33-3.49-3.46-3.7a4.48,4.48,0,0,0-1.6-1.55.78.78,0,0,0-.22,0c-9.33,0-18.65-.06-28,.11q-7,.12-14.08,0c-3.51,0-7-.22-10.53-.3-.62,0-1.24,0-1.87,0l-1.44,0a44.62,44.62,0,0,1-5-.09c-.41,0-.82,0-1.23,0a2.43,2.43,0,0,0-.79.47C10.83,69,8.32,71.39,7.69,72L6.36,73.14a.69.69,0,0,1-.27.23l-.4.37a2.09,2.09,0,0,0-.22.2h0l-.19.24a6.14,6.14,0,0,1-.51.51l-.07.09a2.65,2.65,0,0,0-.43,1.1c-.12.31.39.37.87.51a18.28,18.28,0,0,0,2.54.46c1.12.16,2.25.35,3.38.45,2.35.22,4.7.39,7,.55,4.72.31,9.46.6,14.2.8,9.36.37,18.76.71,28.13.31,3.43-.14,6.84-.56,10.26-.84l5.08-.38,2.32-.17c.87-.07,1.72-.28,2.6-.29a.81.81,0,0,0,.72-.43A1,1,0,0,0,81.64,75.38Z"/>
    <path fill="#fec267" d="M82,78.41a10.55,10.55,0,0,1-.13-2.51c-4.35,0-8.68.18-13,.24-4.71.06-9.41,0-14.11,0s-9.47-.13-14.2-.19-9.43,0-14.15,0c-3.55-.06-7.09-.3-10.64-.44s-7.65-.38-11.11-.39a.78.78,0,0,0-.77.48.93.93,0,0,0-.27.31,4.83,4.83,0,0,0-.2,2.46c0,2.17,1,5.4.62,6.42-.2.46,2.32,4.55,3.63,4.63,2.32.16,4.65.1,7,.15,4.64.09,6.41.33,11.05.41s9.43,0,14.14.2,9.31,0,14,0c5.31,0,9.87-.29,15.17-.32,2.62,0,4.48-.2,7.09-.36.93-.06,1.87-.06,2.8-.09.5-.08.82-.12,1.14-.15a3.36,3.36,0,0,0,1.6-2.62C81.88,83.58,82.11,79,82,78.41Z"/>
    <path fill="#bbd9fd" d="M16.69,143c-.83-1.43-2.15-1.4-3.67-1.37-1.68,0-2.79-.38-2.78-2.24a14.23,14.23,0,0,0-.08-1.61,5.66,5.66,0,0,0-.27-1.91,2.49,2.49,0,0,0-1.17-1.38,3.85,3.85,0,0,0-2.35-.12,1,1,0,0,0-.24.08h0a.56.56,0,0,0-.18.07.83.83,0,0,0-.16.09.87.87,0,0,0-.69.89,56.34,56.34,0,0,0,0,6A6.36,6.36,0,0,0,6,145.72c1.87,2.61,7.39,1.53,10,1.5a.92.92,0,0,0,.93-.95,1,1,0,0,0,0-.17C17,145.13,17.21,143.87,16.69,143Z"/>
    <path fill="#3281ee" d="M8.37,136.13a1,1,0,0,0-1.2-.16,1.36,1.36,0,0,0-.51.33,1.17,1.17,0,0,0,.1,1.73,1.15,1.15,0,0,0,1.74-.1,1,1,0,0,0,.22-.37l0-.05A1.17,1.17,0,0,0,8.37,136.13Z"/>
    <path fill="#3281ee" d="M15.45,143.2a1,1,0,0,0-1.21-.15,1.4,1.4,0,0,0-.5.33,1.17,1.17,0,0,0,.1,1.73,1.15,1.15,0,0,0,1.74-.1,1,1,0,0,0,.22-.37.33.33,0,0,0,0-.06A1.18,1.18,0,0,0,15.45,143.2Z"/>
    <path fill="#bbd9fd" d="M69.06,146.1a1,1,0,0,0,0,.17.91.91,0,0,0,.93.95c2.63,0,8.16,1.11,10-1.5a6.36,6.36,0,0,0,.92-4.25,54.06,54.06,0,0,0,0-6,.87.87,0,0,0-.7-.89l-.15-.09a.62.62,0,0,0-.19-.07h0a.92.92,0,0,0-.25-.08,3.85,3.85,0,0,0-2.35.12,2.53,2.53,0,0,0-1.17,1.38,5.41,5.41,0,0,0-.26,1.91,12.23,12.23,0,0,0-.08,1.61c0,1.86-1.11,2.26-2.78,2.24s-2.84-.06-3.68,1.37C68.85,143.87,69.06,145.13,69.06,146.1Z"/>
    <path fill="#3281ee" d="M77.69,136.13a1,1,0,0,1,1.2-.16,1.44,1.44,0,0,1,.51.33,1.18,1.18,0,0,1-.11,1.73,1.15,1.15,0,0,1-1.74-.1,1,1,0,0,1-.22-.37s0,0,0-.05A1.16,1.16,0,0,1,77.69,136.13Z"/>
    <path fill="#3281ee" d="M70.61,143.2a1,1,0,0,1,1.2-.15,1.44,1.44,0,0,1,.51.33,1.18,1.18,0,0,1-.11,1.73,1.15,1.15,0,0,1-1.74-.1.93.93,0,0,1-.21-.37s0,0,0-.06A1.16,1.16,0,0,1,70.61,143.2Z"/>
    <path fill="#bbd9fd" d="M14.62,86.05c-.84-1.44-2.15-1.4-3.67-1.38-1.68,0-2.8-.37-2.79-2.24a14.17,14.17,0,0,0-.07-1.6,5.63,5.63,0,0,0-.27-1.91,2.49,2.49,0,0,0-1.17-1.38,3.85,3.85,0,0,0-2.35-.12,1.49,1.49,0,0,0-.25.07h0a1.06,1.06,0,0,0-.19.06l-.15.1a.87.87,0,0,0-.7.89,54,54,0,0,0,0,6,6.37,6.37,0,0,0,.92,4.25c1.87,2.61,7.39,1.52,10,1.5a.91.91,0,0,0,.93-1,.85.85,0,0,0,0-.17C14.92,88.19,15.13,86.93,14.62,86.05Z"/>
    <path fill="#3281ee" d="M6.29,79.19A1,1,0,0,0,5.09,79a1.41,1.41,0,0,0-.51.32,1.19,1.19,0,0,0,.11,1.74A1.16,1.16,0,0,0,6.43,81a1,1,0,0,0,.22-.37s0,0,0-.06A1.16,1.16,0,0,0,6.29,79.19Z"/>
    <path fill="#3281ee" d="M13.37,86.27a1,1,0,0,0-1.2-.15,1.41,1.41,0,0,0-.51.32,1.19,1.19,0,0,0,.11,1.74,1.16,1.16,0,0,0,1.74-.1,1,1,0,0,0,.21-.38l0,0A1.16,1.16,0,0,0,13.37,86.27Z"/>
    <path fill="#bbd9fd" d="M70.28,89.16a.85.85,0,0,0,0,.17.91.91,0,0,0,.93,1c2.63,0,8.16,1.11,10-1.5a6.37,6.37,0,0,0,.92-4.25,54,54,0,0,0,0-6,.87.87,0,0,0-.7-.89l-.15-.1a1.06,1.06,0,0,0-.19-.06h0a1.49,1.49,0,0,0-.25-.07,3.85,3.85,0,0,0-2.35.12,2.49,2.49,0,0,0-1.17,1.38,5.38,5.38,0,0,0-.26,1.91,12.16,12.16,0,0,0-.08,1.6c0,1.87-1.11,2.27-2.78,2.24s-2.84-.06-3.68,1.38C70.07,86.93,70.28,88.19,70.28,89.16Z"/>
    <path fill="#3281ee" d="M78.91,79.19a1,1,0,0,1,1.2-.15,1.41,1.41,0,0,1,.51.32,1.19,1.19,0,0,1-.11,1.74,1.16,1.16,0,0,1-1.74-.1,1,1,0,0,1-.22-.37s0,0,0-.06A1.16,1.16,0,0,1,78.91,79.19Z"/>
    <path fill="#3281ee" d="M71.83,86.27a1,1,0,0,1,1.2-.15,1.41,1.41,0,0,1,.51.32,1.19,1.19,0,0,1-.11,1.74,1.16,1.16,0,0,1-1.74-.1,1,1,0,0,1-.21-.38l0,0A1.16,1.16,0,0,1,71.83,86.27Z"/>
    <path fill="#f5f6f7" d="M46.54,149.06c11.5-1.8,23.1-1,34.64-.08l.14,0,1.28-.11a2.26,2.26,0,0,1,2.31,2.16,2.28,2.28,0,0,1-2.31,2.16,206.62,206.62,0,0,1-35.44.1,2.29,2.29,0,0,1-2.27-1.88A2.15,2.15,0,0,1,46.54,149.06Z"/>
    <path fill="#bbd9fd" d="M110.65,144.43l-.07,0a.17.17,0,0,0-.15,0,.18.18,0,0,0-.11,0,21.09,21.09,0,0,1-4.32-.73c-1.33-.31-2.66-.59-4-1a31.75,31.75,0,0,1-7.33-3.53,35.22,35.22,0,0,1-6.25-4.76,24.64,24.64,0,0,1-2.68-3.09,8.34,8.34,0,0,1-.93-2,5.24,5.24,0,0,0-.62-1.53h0a.13.13,0,0,0-.13-.07H84a.17.17,0,0,0-.26-.06h0a.14.14,0,0,0-.14,0,2.75,2.75,0,0,0-1-.18c-1.1-.16-2.19-.24-3.3-.29-2.49-.13-5-.33-7.46-.59a44,44,0,0,1-7.73-1.32c-2.39-.67-4.64-1.6-6.95-2.5-1.18-.46-2.38-.8-3.54-1.3-1-.44-1.94-1-3-1.39a9.53,9.53,0,0,0-3-.37,11.9,11.9,0,0,0-3,.17,6.25,6.25,0,0,0-3.86,2.71c-1,1.63-.87,3.9-.59,5.7A13.4,13.4,0,0,0,42.56,134c1.35,1.77,2.24,3.79,3.46,5.65a15.87,15.87,0,0,0,2,2.27c.76.78,1.42,1.67,2.19,2.45a14.15,14.15,0,0,1,2.42,2.41c.42.7.64,1.63,1.33,2.12A.13.13,0,0,0,54,149c.74.35,1.47.73,2.22,1s1.82.68,2.71,1.09a29,29,0,0,0,5.14,1.79,21.79,21.79,0,0,0,5.51.7c1.29,0,2.64-.22,4-.19a.16.16,0,0,0,.15.19l.51,0a.17.17,0,0,0,.13.09c.72,0,1.41.22,2.13.26s1.73,0,2.59,0c1.72-.07,3.44-.29,5.14-.51a80.24,80.24,0,0,0,10.18-2.09,71.45,71.45,0,0,0,9.79-3.23,48.85,48.85,0,0,0,4.52-1.95,10,10,0,0,0,1.57-1c.17-.14.53-.35.51-.61A.19.19,0,0,0,110.65,144.43Z"/>
    <path fill="#bfc3c7" d="M117.35,142h-1.18a.15.15,0,0,0-.15.11,55.17,55.17,0,0,1-7.38-.56,28.26,28.26,0,0,1-8-2.17c-1.15-.55-2.24-1.23-3.36-1.81a16.17,16.17,0,0,1-3.71-2.46c-1-.9-1.89-1.79-2.91-2.64a10.21,10.21,0,0,1-1.33-1.53c-.47-.59-1.06-1.05-1.54-1.63a.16.16,0,0,0-.23,0,3.1,3.1,0,0,1-1.57.6.08.08,0,0,0-.07,0h-.17a.12.12,0,0,0-.14.08c-1.08.25-2.12.74-3.17,1.09-1.22.41-2.47.79-3.71,1.11a67.88,67.88,0,0,1-7.63,1.29,67,67,0,0,1-7.87.67c-1.22,0-2.42.15-3.63.23a8.61,8.61,0,0,1-2-.07c-.45-.06-.83-.29-1.27-.33-.16,0-.19.16-.12.26a.12.12,0,0,0,0,.12,4,4,0,0,0,1,2.24c.71.89,1.49,1.75,2.24,2.61a30.88,30.88,0,0,0,2.66,2.58c.85.78,1.68,1.62,2.59,2.32s2.09,1.42,3.09,2.2A18,18,0,0,0,70.6,148c1.07.56,2.12,1.12,3.22,1.62.27.13,2.67,1,2.67,1a.15.15,0,0,0,.09.15h.07c.88,0,1.75.14,2.63.2s2.06,0,3.08,0q2.92-.06,5.85-.3c1.84-.15,3.67-.38,5.49-.64s3.78-.71,5.68-1a56,56,0,0,0,5.72-1.38,55.91,55.91,0,0,0,5.38-1.69c.82-.3,1.66-.55,2.49-.82s1.49-.63,2.24-1,2.07-1,2.29-2A.17.17,0,0,0,117.35,142Z"/>
    <path fill="#3281ee" d="M114.22,147.93l0,.09a.22.22,0,0,0,0-.11l-.26-.06c-.57-.06-1.17-.21-1.73-.3-.78-.13-1.56-.24-2.34-.38-1.5-.28-3-.61-4.47-1-3-.79-6.12-1.57-9.12-2.54s-6.22-2-9.22-3.27c-1.43-.6-2.84-1.28-4.22-2-.66-.34-1.29-.72-1.94-1.08a8.1,8.1,0,0,0-1.22-.74.14.14,0,0,0-.18.1.16.16,0,0,0-.1,0,24.58,24.58,0,0,0-3,.73c-1.18.29-2.33.71-3.51,1.05s-2.28.5-3.41.78-2.53.57-3.82.77c-2.5.39-5,1.05-7.53,1.23-1.21.09-2.4.24-3.61.25-.29,0-1.24.17-1.49,0a.44.44,0,0,0-.28,0,.42.42,0,0,0-.24.24.26.26,0,0,0,.09.19.14.14,0,0,0,0,.06h0l0,0s0,0,0,0l.11.07a3.24,3.24,0,0,0,.47.56c.47.51,1,1,1.51,1.47l.41.43a12.79,12.79,0,0,0,1.86,1.51q.42.38.87.72a55.58,55.58,0,0,0,8,5,27.7,27.7,0,0,0,4.09,1.73c1.48.5,2.91,1.15,4.38,1.69a17.34,17.34,0,0,0,3.87,1.06,12.61,12.61,0,0,0,2.65.42,7.6,7.6,0,0,0,2.13,0c1.71,0,3.43-.16,5.13-.35s3.24-.39,4.85-.61,3.28-.27,4.92-.53a50.21,50.21,0,0,0,9.34-2.39,26.84,26.84,0,0,0,3.34-1.35h.13a5.73,5.73,0,0,0,2.2-1.33,7.34,7.34,0,0,0,1.75-2Zm-50.63,2.13-1-.59,1,.51A.21.21,0,0,0,63.59,150.06Zm2.87,1.56c-.84-.41-1.65-.86-2.46-1.32a25,25,0,0,1,3.29,1.7C67,151.88,66.73,151.76,66.46,151.62Zm3.12,1.18,1.06.42.4.2C70.55,153.23,70.06,153,69.58,152.8Zm43.63-3.64a2.35,2.35,0,0,0,.46-.83.23.23,0,0,0,.18.09h0A7.72,7.72,0,0,1,113.21,149.16Z"/>
    <path fill="#3281ee" d="M67.71,133.82h0a7.28,7.28,0,0,1-2.85-1.29l-.15-.09a30.4,30.4,0,0,1-2.89-2c-1.8-1.49-3.51-3.1-5.11-4.61l-.17-.16a64,64,0,0,0-4.84-4.28,9,9,0,0,0-5.12-2.28,7.08,7.08,0,0,0-4.65,1.59,6.18,6.18,0,0,0-2.45,4.27,16.35,16.35,0,0,0,1.3,6.79,27.43,27.43,0,0,0,3.19,6,50,50,0,0,0,4.71,5.83c.93,1,1.87,2,2.68,2.76l.26.26a5.39,5.39,0,0,1,1.54,2.06.63.63,0,0,0,.61.47.47.47,0,0,0,.17,0,.64.64,0,0,0,.46-.78,5.06,5.06,0,0,0-1.22-1.93l0,0c-.47-.54-1-1.05-1.47-1.54l-.72-.72a60.76,60.76,0,0,1-4.78-5.48c-3.47-4.55-5.31-8.84-5.46-12.77a4.94,4.94,0,0,1,2.16-4.23,5.88,5.88,0,0,1,5.43-.85,9.58,9.58,0,0,1,2.36,1.48l.27.2c1,.77,2,1.63,2.87,2.45.64.58,1.27,1.17,1.9,1.76,1,1,2.08,1.94,3.14,2.88l.56.5a27.38,27.38,0,0,0,3.42,2.77l.4.26c.61.39,1.24.8,1.88,1.18a6.7,6.7,0,0,0,1,.52c.17.07.35.13.54.19l.18.05,0,0,0,.05a.64.64,0,0,0,.52.22.74.74,0,0,0,.77-.77A.63.63,0,0,0,67.71,133.82Z"/>
    <path fill="#3281ee" d="M92.07,127.4a.15.15,0,0,0-.1-.09,8.22,8.22,0,0,1-2.52-1.75c-.77-.63-1.54-1.26-2.27-1.93s-1.37-1.36-2-2c-.21-.22-.41-.42-.6-.65a6.75,6.75,0,0,1-.64-.67c-.09-.09-.16-.16-.16-.19a0,0,0,0,1,0,0l0,0c-.32.07-.65.13-1,.18a5.8,5.8,0,0,1-1.5.16c-.46,0-.94,0-1.41,0l-.29,0c-1.64.19-3.31.18-5,.22a95.31,95.31,0,0,1-10,.08c-3.43-.27-6.86-.51-10.28-.83-1.69-.16-3.39-.29-5.08-.46-.73-.07-1.42-.38-2.14-.42a1.9,1.9,0,0,0-.54.07,1,1,0,0,0-.25,0l-.09.06-.19,0a.16.16,0,0,0-.16.16.16.16,0,0,0,0,.32h.08a4.19,4.19,0,0,1,1.32.48c.54.2,1.09.39,1.63.62a17.24,17.24,0,0,1,2.85,1.64,30,30,0,0,1,4.65,4.43c.72.74,1.54,1.39,2.31,2.08s1.72,1.55,2.63,2.27,3.5,2.76,4.4,3.34a5.33,5.33,0,0,0,4,.69,33.39,33.39,0,0,0,3.45-.68c1.37-.31,2.72-.66,4.09-.94a31.87,31.87,0,0,0,4.07-1c2.52-.9,5-1.9,7.5-2.88a12.69,12.69,0,0,0,2.34-1.22c.28-.18,1-.54,1-.94A.13.13,0,0,0,92.07,127.4Z"/>
    <path fill="#bfc3c7" d="M85.79,162.17l0,0Z"/>
    <path fill="#bfc3c7" d="M108,162.16a2.67,2.67,0,0,0-.89-.78,14.38,14.38,0,0,1-1.7-1.23,17.52,17.52,0,0,1-3.21-3.56,23.26,23.26,0,0,1-2.1-3.9,14.51,14.51,0,0,1-1.23-4.83s0,0,0-.05a3.84,3.84,0,0,0,0-.59.17.17,0,0,0-.21-.16,18.27,18.27,0,0,1-3.57,1,39,39,0,0,1-4.32.41c-1.26,0-2.52.11-3.78.15-.15,0-.74,0-1.41,0a7,7,0,0,1-2.7-.35h-.08a.15.15,0,0,0-.14.1s-.07,0-.08.08-.08.3-.08.39a.19.19,0,0,0,0,.08,2.6,2.6,0,0,1,0,.28,8.58,8.58,0,0,0-.2,1.2,19,19,0,0,0-.09,2.13,20.72,20.72,0,0,0,.39,3.51,12.31,12.31,0,0,0,2.79,6,4.51,4.51,0,0,0,.92.3l.46.08a22,22,0,0,0,2.57.13c2,.1,4,.24,6,.26s4,0,5.93,0c.94,0,1.88,0,2.81-.05a13,13,0,0,0,1.87-.26.16.16,0,0,0,.12,0,6.21,6.21,0,0,1,.88-.15h1a.16.16,0,0,0,.09-.07h0A.14.14,0,0,0,108,162.16Z"/>
  </g>
</svg>
