<svg xmlns="http://www.w3.org/2000/svg" width="32" height="32" viewBox="0 0 32 32">
    <defs>
        <radialGradient id="rblqo1kiva" cx="-4.847%" cy="-.239%" r="401.337%" fx="-4.847%" fy="-.239%" gradientTransform="matrix(.26722 0 0 1 -.036 0)">
            <stop offset="0%" stop-color="#3E2723" stop-opacity=".2"/>
            <stop offset="100%" stop-color="#3E2723" stop-opacity="0"/>
        </radialGradient>
        <radialGradient id="a5f4nz628b" cx="-.122%" cy=".104%" r="136.314%" fx="-.122%" fy=".104%" gradientTransform="matrix(1 0 0 .84752 0 0)">
            <stop offset="0%" stop-color="#3E2723" stop-opacity=".2"/>
            <stop offset="100%" stop-color="#3E2723" stop-opacity="0"/>
        </radialGradient>
        <radialGradient id="mx4zk5z41c" cx="10.227%" cy="-12.225%" r="226.352%" fx="10.227%" fy="-12.225%" gradientTransform="matrix(1 0 0 .49642 0 -.062)">
            <stop offset="0%" stop-color="#263238" stop-opacity=".2"/>
            <stop offset="100%" stop-color="#263238" stop-opacity="0"/>
        </radialGradient>
    </defs>
    <g fill="none" fill-rule="evenodd">
        <g>
            <g>
                <g>
                    <g>
                        <g transform="translate(-535 -420) translate(491 404) translate(32 16) translate(12) translate(0 .09)">
                            <path fill="#3E2723" fill-opacity=".15" fill-rule="nonzero" d="M9.817 19.453L2.618 7.105 2.513 7.286 9.661 19.544z"/>
                            <path fill="#263238" fill-opacity=".15" fill-rule="nonzero" d="M22.02 19.76L21.87 19.674 14.928 31.814 15.136 31.814 22.024 19.766z"/>
                            <path fill="#0F9D58" d="M2.523 7.308l7.122 12.217h12.529v5.265l-7.012 7.012C6.722 31.412 0 24.446 0 15.91c0-3.17.926-6.122 2.523-8.602z"/>
                            <path fill="#FFCD40" d="M30.084 8.678c1.11 2.17 1.735 4.627 1.735 7.232 0 8.786-7.123 15.91-15.91 15.91-.252 0-.504-.007-.754-.018l7.019-12.277L15.91 8.678h14.174z"/>
                            <path fill="url(#rblqo1kiva)" fill-rule="nonzero" d="M15.91 8.678L15.91 12.466 30.084 8.678z"/>
                            <path fill="#DB4437" d="M15.91 0c6.182 0 11.541 3.527 14.174 8.678H15.91L9.647 19.525 2.529 7.3C5.361 2.908 10.296 0 15.91 0z"/>
                            <path fill="url(#a5f4nz628b)" fill-rule="nonzero" d="M2.526 7.313L12.876 17.661 9.647 19.525z"/>
                            <path fill="url(#mx4zk5z41c)" fill-rule="nonzero" d="M15.156 31.801L18.945 17.663 22.174 19.525z"/>
                            <circle cx="15.91" cy="15.91" r="7.232" fill="#F1F1F1" fill-rule="nonzero"/>
                            <circle cx="15.91" cy="15.91" r="5.785" fill="#4285F4" fill-rule="nonzero"/>
                            <path fill="#3E2723" fill-opacity=".2" d="M15.91 8.497h14.08l.094.18-14.174.001c-3.956 0-7.167 3.172-7.231 7.112l-.001.12v-.181c0-3.956 3.172-7.167 7.112-7.23l.12-.002z"/>
                            <path fill="#FFF" fill-opacity=".1" fill-rule="nonzero" d="M22.165 19.525c-1.251 2.16-3.58 3.616-6.255 3.616-2.676 0-5.008-1.457-6.256-3.616h-.007L0 2.98v.181l9.654 16.546c1.251 2.159 3.58 3.616 6.256 3.616 2.675 0 5.004-1.455 6.255-3.616h.009v-.18h-.01.001z"/>
                            <path fill="#3E2723" fill-rule="nonzero" d="M16.09 8.678c-.03 0-.06.004-.09.005 3.952.05 7.141 3.264 7.141 7.227 0 3.963-3.189 7.177-7.141 7.226.03 0 .06.005.09.005 3.996 0 7.232-3.236 7.232-7.231 0-3.996-3.236-7.232-7.232-7.232z" opacity=".1"/>
                            <path fill="#FFF" fill-opacity=".2" fill-rule="nonzero" d="M22.237 19.76c.615-1.063.971-2.292.971-3.608 0-.742-.113-1.479-.338-2.186.172.618.271 1.266.271 1.94 0 1.316-.356 2.546-.97 3.609l.003.007-7.03 12.294h.21l6.883-12.056z"/>
                            <path fill="#FFF" fill-opacity=".2" fill-rule="nonzero" d="M15.91.18C24.665.18 31.769 7.256 31.82 16l.001-.09C31.821 7.123 24.698 0 15.911 0 7.125 0 0 7.123 0 15.91l.002.09C.05 7.255 7.154.18 15.91.18z"/>
                            <path fill="#3E2723" fill-opacity=".15" fill-rule="nonzero" d="M15.91 31.638c8.755 0 15.859-7.074 15.91-15.819l.001.09c0 8.787-7.123 15.91-15.91 15.91C7.125 31.82 0 24.696 0 15.91l.002-.09c.049 8.745 7.152 15.82 15.91 15.82h-.002z"/>
                        </g>
                    </g>
                </g>
            </g>
        </g>
    </g>
</svg>
