<svg xmlns="http://www.w3.org/2000/svg" width="32" height="32"><defs><radialGradient id="a" cx="-4.847%" cy="-.239%" r="401.337%" fx="-4.847%" fy="-.239%" gradientTransform="matrix(.26722 0 0 1 -.036 0)"><stop offset="0%" stop-color="#3E2723" stop-opacity=".2"/><stop offset="100%" stop-color="#3E2723" stop-opacity="0"/></radialGradient><radialGradient id="b" cx="-.122%" cy=".104%" r="136.314%" fx="-.122%" fy=".104%" gradientTransform="scale(1 .84752)"><stop offset="0%" stop-color="#3E2723" stop-opacity=".2"/><stop offset="100%" stop-color="#3E2723" stop-opacity="0"/></radialGradient><radialGradient id="c" cx="10.227%" cy="-12.225%" r="226.352%" fx="10.227%" fy="-12.225%" gradientTransform="matrix(1 0 0 .49642 0 -.062)"><stop offset="0%" stop-color="#263238" stop-opacity=".2"/><stop offset="100%" stop-color="#263238" stop-opacity="0"/></radialGradient></defs><g transform="translate(0 .09)" fill="none" fill-rule="evenodd"><path fill="#3E2723" fill-opacity=".15" fill-rule="nonzero" d="M9.817 19.453 2.618 7.105l-.105.181 7.148 12.258z"/><path fill="#263238" fill-opacity=".15" fill-rule="nonzero" d="m22.02 19.76-.15-.086-6.942 12.14h.208l6.888-12.048z"/><path fill="#0F9D58" d="m2.523 7.308 7.122 12.217h12.529v5.265l-7.012 7.012C6.722 31.412 0 24.446 0 15.91c0-3.17.926-6.122 2.523-8.602z"/><path fill="#FFCD40" d="M30.084 8.678a15.83 15.83 0 0 1 1.735 7.232c0 8.786-7.123 15.91-15.91 15.91-.252 0-.504-.007-.754-.018l7.019-12.277L15.91 8.678h14.174z"/><path fill="url(#a)" fill-rule="nonzero" d="M15.91 8.678v3.788l14.174-3.788z"/><path fill="#DB4437" d="M15.91 0c6.182 0 11.541 3.527 14.174 8.678H15.91L9.647 19.525 2.529 7.3C5.361 2.908 10.296 0 15.91 0z"/><path fill="url(#b)" fill-rule="nonzero" d="m2.526 7.313 10.35 10.348-3.229 1.864z"/><path fill="url(#c)" fill-rule="nonzero" d="m15.156 31.801 3.789-14.138 3.229 1.862z"/><circle cx="15.91" cy="15.91" r="7.232" fill="#F1F1F1" fill-rule="nonzero"/><circle cx="15.91" cy="15.91" r="5.785" fill="#4285F4" fill-rule="nonzero"/><path fill="#3E2723" fill-opacity=".2" d="M15.91 8.497h14.08l.094.18-14.174.001a7.23 7.23 0 0 0-7.231 7.112l-.001.12v-.181a7.228 7.228 0 0 1 7.112-7.23l.12-.002z"/><path fill="#FFF" fill-opacity=".1" fill-rule="nonzero" d="M22.165 19.525a7.219 7.219 0 0 1-12.511 0h-.007L0 2.98v.181l9.654 16.546a7.218 7.218 0 0 0 12.511 0h.009v-.18h-.01.001z"/><path fill="#3E2723" fill-rule="nonzero" d="M16.09 8.678c-.03 0-.06.004-.09.005a7.228 7.228 0 0 1 0 14.453c.03 0 .06.005.09.005a7.23 7.23 0 0 0 7.232-7.231 7.23 7.23 0 0 0-7.232-7.232z" opacity=".1"/><path fill="#FFF" fill-opacity=".2" fill-rule="nonzero" d="M22.237 19.76a7.205 7.205 0 0 0 .633-5.794c.172.618.271 1.266.271 1.94a7.19 7.19 0 0 1-.97 3.609l.003.007-7.03 12.294h.21l6.883-12.056z"/><path fill="#FFF" fill-opacity=".2" fill-rule="nonzero" d="M15.91.18C24.665.18 31.769 7.256 31.82 16l.001-.09C31.821 7.123 24.698 0 15.911 0 7.125 0 0 7.123 0 15.91l.002.09C.05 7.255 7.154.18 15.91.18z"/><path fill="#3E2723" fill-opacity=".15" fill-rule="nonzero" d="M15.91 31.638c8.755 0 15.859-7.074 15.91-15.819l.001.09c0 8.787-7.123 15.91-15.91 15.91C7.125 31.82 0 24.696 0 15.91l.002-.09c.049 8.745 7.152 15.82 15.91 15.82h-.002z"/></g></svg>