<svg viewBox="0 0 72 72" xmlns="http://www.w3.org/2000/svg"><path d="M52.935 62.2h-33.87C8.55 62.2 0 53.583 0 42.99c0-5.05 1.93-9.82 5.437-13.432 3.073-3.16 7.052-5.126 11.358-5.638a19.136 19.136 0 0 1 5.597-11.443A18.875 18.875 0 0 1 35.724 7c5.013 0 9.75 1.942 13.332 5.476a19.15 19.15 0 0 1 5.592 11.385C64.36 24.74 72 32.984 72 42.994 72 53.583 63.444 62.2 52.934 62.2zM53 58.6h.146c8.412 0 15.254-6.934 15.254-15.456 0-8.52-6.842-15.453-15.254-15.453h-.153a2.033 2.033 0 0 1-2.023-2c-.19-8.323-7.03-15.09-15.248-15.09-8.22 0-15.06 6.77-15.25 15.093a2.036 2.036 0 0 1-1.977 2.002C10.282 27.888 3.6 34.818 3.6 43.146c0 8.522 6.842 15.455 15.254 15.455h.124l.048-.003c.044 0 .088 0 .13.003H53zm-7.5-16.76c-1.2-.79-1.26-2.24-1.263-2.304a.713.713 0 0 0-.72-.7.715.715 0 0 0-.696.726c.004.052.024.733.347 1.536-4.28 4.082-11.008 4.088-15.297.025.33-.815.353-1.507.353-1.56a.712.712 0 0 0-.692-.724.714.714 0 0 0-.723.694c0 .058-.058 1.515-1.263 2.305a.714.714 0 0 0 .387 1.311.702.702 0 0 0 .387-.115c.31-.203.57-.435.787-.68a12.486 12.486 0 0 0 8.403 3.238 12.49 12.49 0 0 0 8.422-3.254c.217.248.48.486.798.695a.7.7 0 0 0 .979-.208.718.718 0 0 0-.206-.988v.002z" fill="#3AB4F0" fill-rule="evenodd"/></svg>