<svg width="102" height="102" viewBox="0 0 102 102" fill="none" xmlns="http://www.w3.org/2000/svg">
<path fill-rule="evenodd" clip-rule="evenodd" d="M95.625 19.7625C95.6258 19.26 95.5275 18.7622 95.3356 18.2977C95.1436 17.8333 94.8619 17.4113 94.5066 17.0559C94.1512 16.7006 93.7292 16.4189 93.2648 16.227C92.8003 16.035 92.3025 15.9367 91.8 15.9375H10.2C9.18607 15.9392 8.21415 16.3427 7.49718 17.0597C6.78022 17.7766 6.37669 18.7486 6.37501 19.7625V82.2375C6.37417 82.7401 6.47253 83.2378 6.66446 83.7023C6.85638 84.1667 7.1381 84.5887 7.49345 84.9441C7.8488 85.2994 8.2708 85.5811 8.73525 85.7731C9.1997 85.965 9.69746 86.0634 10.2 86.0625H91.8C92.8139 86.0608 93.7859 85.6573 94.5028 84.9403C95.2198 84.2234 95.6233 83.2514 95.625 82.2375V19.7625Z" fill="white"/>
<path fill-rule="evenodd" clip-rule="evenodd" d="M6.375 28.6875H62.8479C63.4408 28.6875 64.0273 28.8246 64.5564 29.0923L69.3186 31.4702C69.8477 31.7379 70.4342 31.875 71.0271 31.875H95.625V19.7625C95.625 18.7489 95.2234 17.7767 94.5062 17.0563C93.7877 16.3401 92.8145 15.9378 91.8 15.9375H10.2C9.18638 15.9375 8.21419 16.3391 7.49381 17.0563C6.77756 17.7748 6.37525 18.7479 6.375 19.7625V28.6875Z" fill="#E0EDFF"/>
<path fill-rule="evenodd" clip-rule="evenodd" d="M98.8125 19.7625C98.8125 17.9042 98.073 16.1192 96.7598 14.8028C95.4432 13.4893 93.6597 12.7511 91.8 12.75H10.2C8.34169 12.75 6.55669 13.4895 5.24025 14.8028C3.92677 16.1193 3.18863 17.9028 3.1875 19.7625V82.2375C3.1875 84.0958 3.927 85.8808 5.24025 87.1973C6.55669 88.5105 8.34169 89.25 10.2 89.25H91.8C93.6583 89.25 95.4433 88.5105 96.7598 87.1973C98.073 85.8808 98.8125 84.0958 98.8125 82.2375V19.7625ZM9.5625 31.875V82.2375C9.5625 82.4064 9.62944 82.569 9.75056 82.6869C9.80917 82.7466 9.87912 82.794 9.9563 82.8263C10.0335 82.8586 10.1163 82.8752 10.2 82.875H91.8C91.8837 82.8752 91.9665 82.8586 92.0437 82.8263C92.1209 82.794 92.1908 82.7466 92.2494 82.6869C92.3091 82.6283 92.3565 82.5584 92.3888 82.4812C92.4211 82.404 92.4377 82.3212 92.4375 82.2375V35.0625H71.0271C69.9401 35.0625 68.8659 34.8075 67.8906 34.323L63.1316 31.9419C63.0436 31.8977 62.9464 31.8748 62.8479 31.875H9.5625ZM92.4375 28.6875V19.7625C92.4377 19.6788 92.4211 19.596 92.3888 19.5188C92.3565 19.4416 92.3091 19.3717 92.2494 19.3131C92.1908 19.2534 92.1209 19.206 92.0437 19.1737C91.9665 19.1414 91.8837 19.1248 91.8 19.125H10.2C10.1163 19.1248 10.0335 19.1414 9.9563 19.1737C9.87912 19.206 9.80917 19.2534 9.75056 19.3131C9.69086 19.3717 9.64346 19.4416 9.61117 19.5188C9.57887 19.596 9.56233 19.6788 9.5625 19.7625V25.5H62.8479C63.9349 25.5 65.0091 25.755 65.9844 26.2395L70.7434 28.6206C70.8314 28.6648 70.9286 28.6877 71.0271 28.6875H92.4375Z" fill="#CFDDEE"/>
<path fill-rule="evenodd" clip-rule="evenodd" d="M28.9616 52.5941L26.434 55.1218C25.8533 55.723 25.532 56.5282 25.5393 57.3639C25.5466 58.1997 25.8818 58.9991 26.4728 59.5901C27.0638 60.1811 27.8632 60.5163 28.699 60.5236C29.5347 60.5309 30.3399 60.2096 30.9411 59.6289L33.4688 57.1013L35.9965 59.6289C36.5976 60.2096 37.4028 60.5309 38.2385 60.5236C39.0743 60.5163 39.8738 60.1811 40.4647 59.5901C41.0557 58.9991 41.391 58.1997 41.3982 57.3639C41.4055 56.5282 41.0842 55.723 40.5036 55.1218L37.9759 52.5941L40.5036 50.0664C41.0842 49.4653 41.4055 48.6601 41.3982 47.8244C41.391 46.9886 41.0557 46.1891 40.4647 45.5981C39.8738 45.0072 39.0743 44.6719 38.2385 44.6647C37.4028 44.6574 36.5976 44.9787 35.9965 45.5593L33.4688 48.087L30.9411 45.5593C30.3399 44.9787 29.5347 44.6574 28.699 44.6647C27.8632 44.6719 27.0638 45.0072 26.4728 45.5981C25.8818 46.1891 25.5466 46.9886 25.5393 47.8244C25.532 48.6601 25.8533 49.4653 26.434 50.0664L28.9616 52.5941ZM64.0241 52.5941L61.4964 55.1218C60.9158 55.723 60.5945 56.5282 60.6018 57.3639C60.6091 58.1997 60.9443 58.9991 61.5353 59.5901C62.1263 60.1811 62.9257 60.5163 63.7615 60.5236C64.5972 60.5309 65.4024 60.2096 66.0036 59.6289L68.5313 57.1013L71.0589 59.6289C71.6601 60.2096 72.4653 60.5309 73.301 60.5236C74.1368 60.5163 74.9363 60.1811 75.5272 59.5901C76.1182 58.9991 76.4535 58.1997 76.4607 57.3639C76.468 56.5282 76.1467 55.723 75.5661 55.1218L73.0384 52.5941L75.5661 50.0664C76.1467 49.4653 76.468 48.6601 76.4607 47.8244C76.4535 46.9886 76.1182 46.1891 75.5272 45.5981C74.9363 45.0072 74.1368 44.6719 73.301 44.6647C72.4653 44.6574 71.6601 44.9787 71.0589 45.5593L68.5313 48.087L66.0036 45.5593C65.4024 44.9787 64.5972 44.6574 63.7615 44.6647C62.9257 44.6719 62.1263 45.0072 61.5353 45.5981C60.9443 46.1891 60.6091 46.9886 60.6018 47.8244C60.5945 48.6601 60.9158 49.4653 61.4964 50.0664L64.0241 52.5941Z" fill="#CFDDEE"/>
<path fill-rule="evenodd" clip-rule="evenodd" d="M36.8252 72.9747L41.4885 75.308C43.4616 76.2961 45.7885 76.2961 47.7615 75.308L50.7163 73.8322C50.8045 73.7884 50.9016 73.7656 51 73.7656C51.0985 73.7656 51.1956 73.7884 51.2837 73.8322L54.2385 75.308C56.2116 76.2961 58.5385 76.2961 60.5115 75.308L65.1748 72.9747C65.5624 72.7957 65.91 72.5407 66.1971 72.2248C66.4842 71.9088 66.7049 71.5385 66.8461 71.1356C66.9874 70.7328 67.0462 70.3057 67.0193 69.8797C66.9923 69.4536 66.88 69.0374 66.6891 68.6556C66.4982 68.2737 66.2326 67.9342 65.9079 67.657C65.5833 67.3798 65.2063 67.1706 64.7993 67.0419C64.3923 66.9132 63.9635 66.8675 63.5385 66.9077C63.1135 66.9478 62.7009 67.0729 62.3252 67.2755L57.6587 69.6055C57.5706 69.6493 57.4735 69.6721 57.375 69.6721C57.2766 69.6721 57.1795 69.6493 57.0913 69.6055L54.1365 68.1297C53.1628 67.6425 52.0889 67.3888 51 67.3888C49.9112 67.3888 48.8373 67.6425 47.8635 68.1297L44.9087 69.6055C44.8206 69.6493 44.7235 69.6721 44.625 69.6721C44.5266 69.6721 44.4295 69.6493 44.3413 69.6055L39.6748 67.2755C39.2991 67.0729 38.8865 66.9478 38.4615 66.9077C38.0365 66.8675 37.6078 66.9132 37.2008 67.0419C36.7938 67.1706 36.4168 67.3798 36.0921 67.657C35.7675 67.9342 35.5018 68.2737 35.3109 68.6556C35.12 69.0374 35.0078 69.4536 34.9808 69.8797C34.9538 70.3057 35.0127 70.7328 35.1539 71.1356C35.2952 71.5385 35.5159 71.9088 35.803 72.2248C36.0901 72.5407 36.4377 72.7957 36.8252 72.9747Z" fill="#CFDDEE"/>
</svg>
