<svg xmlns="http://www.w3.org/2000/svg" width="32" height="32" viewBox="0 0 32 32">
    <defs>
        <radialGradient id="5fpj1ry4vb" cx="55.246%" cy="50.927%" r="61.975%" fx="55.246%" fy="50.927%" gradientTransform="matrix(.86319 0 0 1 .076 0)">
            <stop offset="0%" stop-opacity="0"/>
            <stop offset="72%" stop-opacity="0"/>
            <stop offset="95%" stop-opacity=".53"/>
            <stop offset="100%"/>
        </radialGradient>
        <radialGradient id="ktsu093yjd" cx="41.814%" cy="72.563%" r="85.122%" fx="41.814%" fy="72.563%" gradientTransform="matrix(.1498 -.80128 .98872 .1214 -.362 .973)">
            <stop offset="0%" stop-opacity="0"/>
            <stop offset="76%" stop-opacity="0"/>
            <stop offset="95%" stop-opacity=".5"/>
            <stop offset="100%"/>
        </radialGradient>
        <radialGradient id="16hl53u8ce" cx="10.094%" cy="27.789%" r="118.837%" fx="10.094%" fy="27.789%" gradientTransform="matrix(-.02662 .9992 -.66542 -.03997 .289 .188)">
            <stop offset="0%" stop-color="#35C1F1"/>
            <stop offset="11%" stop-color="#34C1ED"/>
            <stop offset="23%" stop-color="#2FC2DF"/>
            <stop offset="31%" stop-color="#2BC3D2"/>
            <stop offset="67%" stop-color="#36C752"/>
            <stop offset="100%" stop-color="#36C752"/>
        </radialGradient>
        <radialGradient id="68ep5tgu3f" cx="93.771%" cy="45.4%" r="57.095%" fx="93.771%" fy="45.4%" gradientTransform="scale(.66595 1) rotate(73.74 1.173 .768)">
            <stop offset="0%" stop-color="#66EB6E"/>
            <stop offset="100%" stop-color="#66EB6E" stop-opacity="0"/>
        </radialGradient>
        <linearGradient id="mb2q97wp6a" x1="0%" x2="100.004%" y1="50%" y2="50%">
            <stop offset="0%" stop-color="#0C59A4"/>
            <stop offset="100%" stop-color="#114A8B"/>
        </linearGradient>
        <linearGradient id="otkc5m1xgc" x1="76.669%" x2="33.25%" y1="24.818%" y2="83.18%">
            <stop offset="0%" stop-color="#1B9DE2"/>
            <stop offset="16%" stop-color="#1595DF"/>
            <stop offset="67%" stop-color="#0680D7"/>
            <stop offset="100%" stop-color="#0078D4"/>
        </linearGradient>
    </defs>
    <g fill="none" fill-rule="evenodd">
        <g fill-rule="nonzero">
            <g>
                <g>
                    <g>
                        <g>
                            <path fill="url(#mb2q97wp6a)" d="M28.769 23.725c-.425.223-.863.418-1.313.586-1.429.536-2.943.808-4.47.805-5.892 0-11.024-4.053-11.024-9.254.015-1.42.798-2.722 2.046-3.4-5.33.223-6.7 5.777-6.7 9.03 0 9.2 8.48 10.132 10.306 10.132.985 0 2.47-.286 3.362-.568l.163-.055c3.43-1.185 6.355-3.504 8.292-6.574.122-.192.098-.443-.058-.609-.156-.165-.405-.204-.604-.093z" transform="translate(-713 -420) translate(491 404) translate(32 16) translate(178) translate(12)"/>
                            <path fill="url(#5fpj1ry4vb)" d="M28.769 23.725c-.425.223-.863.418-1.313.586-1.429.536-2.943.808-4.47.805-5.892 0-11.024-4.053-11.024-9.254.015-1.42.798-2.722 2.046-3.4-5.33.223-6.7 5.777-6.7 9.03 0 9.2 8.48 10.132 10.306 10.132.985 0 2.47-.286 3.362-.568l.163-.055c3.43-1.185 6.355-3.504 8.292-6.574.122-.192.098-.443-.058-.609-.156-.165-.405-.204-.604-.093z" opacity=".35" transform="translate(-713 -420) translate(491 404) translate(32 16) translate(178) translate(12)"/>
                            <path fill="url(#otkc5m1xgc)" d="M13.162 30.06c-1.11-.69-2.07-1.593-2.827-2.657-1.75-2.397-2.352-5.445-1.642-8.327.709-2.882 2.656-5.304 5.319-6.615.388-.183 1.052-.514 1.934-.498 1.261.009 2.445.608 3.2 1.619.502.671.78 1.485.791 2.323 0-.026 3.046-9.91-9.961-9.91-5.466 0-9.961 5.186-9.961 9.737-.022 2.408.493 4.79 1.508 6.973 3.431 7.321 11.8 10.913 19.471 8.356-2.626.828-5.483.464-7.817-.996l-.015-.005z" transform="translate(-713 -420) translate(491 404) translate(32 16) translate(178) translate(12)"/>
                            <path fill="url(#ktsu093yjd)" d="M13.162 30.06c-1.11-.69-2.07-1.593-2.827-2.657-1.75-2.397-2.352-5.445-1.642-8.327.709-2.882 2.656-5.304 5.319-6.615.388-.183 1.052-.514 1.934-.498 1.261.009 2.445.608 3.2 1.619.502.671.78 1.485.791 2.323 0-.026 3.046-9.91-9.961-9.91-5.466 0-9.961 5.186-9.961 9.737-.022 2.408.493 4.79 1.508 6.973 3.431 7.321 11.8 10.913 19.471 8.356-2.626.828-5.483.464-7.817-.996l-.015-.005z" opacity=".41" transform="translate(-713 -420) translate(491 404) translate(32 16) translate(178) translate(12)"/>
                            <path fill="url(#16hl53u8ce)" d="M18.965 18.535c-.101.125-.411.311-.411.705 0 .325.211.637.587.9 1.791 1.245 5.167 1.08 5.175 1.08 1.327-.002 2.629-.361 3.77-1.039 2.342-1.366 3.784-3.872 3.79-6.584.032-2.79-.997-4.646-1.412-5.468C27.824 2.97 22.129 0 15.938 0 7.222 0 .123 7 0 15.714c.06-4.55 4.582-8.225 9.961-8.225.436 0 2.921.043 5.23 1.254 2.034 1.069 3.1 2.359 3.84 3.637.77 1.329.907 3.007.907 3.676s-.343 1.66-.973 2.48z" transform="translate(-713 -420) translate(491 404) translate(32 16) translate(178) translate(12)"/>
                            <path fill="url(#68ep5tgu3f)" d="M18.965 18.535c-.101.125-.411.311-.411.705 0 .325.211.637.587.9 1.791 1.245 5.167 1.08 5.175 1.08 1.327-.002 2.629-.361 3.77-1.039 2.342-1.366 3.784-3.872 3.79-6.584.032-2.79-.997-4.646-1.412-5.468C27.824 2.97 22.129 0 15.938 0 7.222 0 .123 7 0 15.714c.06-4.55 4.582-8.225 9.961-8.225.436 0 2.921.043 5.23 1.254 2.034 1.069 3.1 2.359 3.84 3.637.77 1.329.907 3.007.907 3.676s-.343 1.66-.973 2.48z" transform="translate(-713 -420) translate(491 404) translate(32 16) translate(178) translate(12)"/>
                        </g>
                    </g>
                </g>
            </g>
        </g>
    </g>
</svg>
