<?xml version="1.0" encoding="UTF-8"?>
<svg width="68px" height="72px" viewBox="0 0 68 72" version="1.1" xmlns="http://www.w3.org/2000/svg" xmlns:xlink="http://www.w3.org/1999/xlink">
    <!-- Generator: Sketch 52.2 (67145) - http://www.bohemiancoding.com/sketch -->
    <title>Microsoft_Edge_logo</title>
    <desc>Created with Sketch.</desc>
    <g id="🕸unsupported-browsers" stroke="none" stroke-width="1" fill="none" fill-rule="evenodd">
        <g id="D---unsupported-browsers" transform="translate(-588.000000, -413.000000)" fill="#0078D7" fill-rule="nonzero">
            <g id="Stacked-Group" transform="translate(360.000000, 409.000000)">
                <g id="Group-4" transform="translate(219.000000, 0.000000)">
                    <g id="Microsoft_Edge_logo" transform="translate(9.000000, 4.000000)">
                        <path d="M21.26,42.75 C21.26,44.4825 21.51875,46.0575 22.0475,47.475 C22.61,48.87 23.34125,50.11875 24.275,51.21 C25.20875,52.30125 26.3,53.235 27.5825,54.0225 C28.82,54.81 30.17,55.4625 31.61,55.96875 C33.03875,56.48625 34.535,56.86875 36.05375,57.11625 C37.595,57.36375 39.09125,57.4875 40.61,57.4875 C42.5225,57.4875 44.3,57.34125 45.9875,57.0375 C47.675,56.7225 49.3175,56.30625 50.9375,55.7775 C52.5575,55.24875 54.12125,54.61875 55.685,53.89875 C57.26,53.17875 58.8575,52.39125 60.5,51.51375 L60.5,66.76875 C58.66625,67.66875 56.86625,68.4225 55.06625,69.075 C53.26625,69.705 51.46625,70.25625 49.6325,70.695 C47.79875,71.145 45.9425,71.4825 44.04125,71.685 C42.14,71.8875 40.19375,72 38.16875,72 C35.46875,72 32.85875,71.685 30.35,71.06625 C27.84125,70.4475 25.49,69.55875 23.285,68.38875 C21.08,67.21875 19.06625,65.80125 17.2325,64.13625 C15.3875,62.47125 13.82375,60.5925 12.5075,58.51125 C11.19125,56.43 10.17875,54.14625 9.4475,51.69375 C8.73875,49.24125 8.37875,46.63125 8.37875,43.86375 C8.37875,40.905 8.78375,38.0925 9.59375,35.40375 C10.415,32.70375 11.57375,30.25125 13.10375,28.00125 C14.6225,25.75125 16.47875,23.74875 18.6725,22.005 C20.86625,20.26125 23.33,18.8325 26.075,17.73 C24.57875,19.22625 23.40875,20.9925 22.5875,23.05125 C21.74375,25.09875 21.215,27.1575 20.97875,29.21625 L46.60625,29.21625 C46.60625,26.62875 46.3475,24.37875 45.81875,22.44375 C45.29,20.50875 44.44625,18.9 43.265,17.62875 C42.095,16.34625 40.5875,15.37875 38.73125,14.74875 C36.875,14.1075 34.63625,13.78125 32.015,13.78125 C28.92125,13.78125 25.8275,14.23125 22.73375,15.165 C19.64,16.065 16.70375,17.35875 13.91375,18.99 C11.12375,20.64375 8.55875,22.59 6.21875,24.8175 C3.87875,27.0675 1.91,29.48625 0.3125,32.1075 C0.65,29.07 1.325,26.145 2.25875,23.36625 C3.1925,20.5875 4.43,18 5.915,15.60375 C7.4,13.24125 9.14375,11.08125 11.135,9.14625 C13.12625,7.21125 15.33125,5.54625 17.7725,4.19625 C20.21375,2.84625 22.80125,1.755 25.61375,1.02375 C28.42625,0.3825 31.41875,-4.77395901e-15 34.56875,-4.77395901e-15 C36.41375,-4.77395901e-15 38.2475,0.16875 40.08125,0.495 C41.915,0.8325 43.70375,1.2825 45.4475,1.8675 C48.9125,3.06 52.00625,4.725 54.72875,6.84 C57.45125,8.9775 59.735,11.4075 61.59125,14.18625 C63.4475,16.965 64.85375,20.03625 65.82125,23.3775 C66.78875,26.71875 67.28375,30.195 67.28375,33.80625 L67.28375,42.75 L21.26,42.75 Z" id="Shape"></path>
                    </g>
                </g>
            </g>
        </g>
    </g>
</svg>