<svg xmlns="http://www.w3.org/2000/svg" width="32" height="32"><defs><radialGradient id="b" cx="55.246%" cy="50.927%" r="61.975%" fx="55.246%" fy="50.927%" gradientTransform="matrix(.86319 0 0 1 .076 0)"><stop offset="0%" stop-opacity="0"/><stop offset="72%" stop-opacity="0"/><stop offset="95%" stop-opacity=".53"/><stop offset="100%"/></radialGradient><radialGradient id="d" cx="41.814%" cy="72.563%" r="85.122%" fx="41.814%" fy="72.563%" gradientTransform="matrix(.1498 -.80128 .98872 .1214 -.362 .973)"><stop offset="0%" stop-opacity="0"/><stop offset="76%" stop-opacity="0"/><stop offset="95%" stop-opacity=".5"/><stop offset="100%"/></radialGradient><radialGradient id="e" cx="10.094%" cy="27.789%" r="118.837%" fx="10.094%" fy="27.789%" gradientTransform="matrix(-.02662 .9992 -.66542 -.03997 .289 .188)"><stop offset="0%" stop-color="#35C1F1"/><stop offset="11%" stop-color="#34C1ED"/><stop offset="23%" stop-color="#2FC2DF"/><stop offset="31%" stop-color="#2BC3D2"/><stop offset="67%" stop-color="#36C752"/><stop offset="100%" stop-color="#36C752"/></radialGradient><radialGradient id="f" cx="93.771%" cy="45.4%" r="57.095%" fx="93.771%" fy="45.4%" gradientTransform="scale(.66595 1) rotate(73.74 1.173 .768)"><stop offset="0%" stop-color="#66EB6E"/><stop offset="100%" stop-color="#66EB6E" stop-opacity="0"/></radialGradient><linearGradient id="a" x1="0%" x2="100.004%" y1="50%" y2="50%"><stop offset="0%" stop-color="#0C59A4"/><stop offset="100%" stop-color="#114A8B"/></linearGradient><linearGradient id="c" x1="76.669%" x2="33.25%" y1="24.818%" y2="83.18%"><stop offset="0%" stop-color="#1B9DE2"/><stop offset="16%" stop-color="#1595DF"/><stop offset="67%" stop-color="#0680D7"/><stop offset="100%" stop-color="#0078D4"/></linearGradient></defs><g fill="none"><path fill="url(#a)" d="M28.769 23.725c-.425.223-.863.418-1.313.586a12.654 12.654 0 0 1-4.47.805c-5.892 0-11.024-4.053-11.024-9.254a3.917 3.917 0 0 1 2.046-3.4c-5.33.223-6.7 5.777-6.7 9.03 0 9.2 8.48 10.132 10.306 10.132.985 0 2.47-.286 3.362-.568l.163-.055a15.973 15.973 0 0 0 8.292-6.574.5.5 0 0 0-.662-.702z"/><path fill="url(#b)" d="M28.769 23.725c-.425.223-.863.418-1.313.586a12.654 12.654 0 0 1-4.47.805c-5.892 0-11.024-4.053-11.024-9.254a3.917 3.917 0 0 1 2.046-3.4c-5.33.223-6.7 5.777-6.7 9.03 0 9.2 8.48 10.132 10.306 10.132.985 0 2.47-.286 3.362-.568l.163-.055a15.973 15.973 0 0 0 8.292-6.574.5.5 0 0 0-.662-.702z" opacity=".35"/><path fill="url(#c)" d="M13.162 30.06a9.852 9.852 0 0 1-2.827-2.657 10.047 10.047 0 0 1 3.677-14.942c.388-.183 1.052-.514 1.934-.498a4.03 4.03 0 0 1 3.2 1.619c.502.671.78 1.485.791 2.323 0-.026 3.046-9.91-9.961-9.91-5.466 0-9.961 5.186-9.961 9.737a16.187 16.187 0 0 0 1.508 6.973c3.431 7.321 11.8 10.913 19.471 8.356a9.407 9.407 0 0 1-7.817-.996l-.015-.005z"/><path fill="url(#d)" d="M13.162 30.06a9.852 9.852 0 0 1-2.827-2.657 10.047 10.047 0 0 1 3.677-14.942c.388-.183 1.052-.514 1.934-.498a4.03 4.03 0 0 1 3.2 1.619c.502.671.78 1.485.791 2.323 0-.026 3.046-9.91-9.961-9.91-5.466 0-9.961 5.186-9.961 9.737a16.187 16.187 0 0 0 1.508 6.973c3.431 7.321 11.8 10.913 19.471 8.356a9.407 9.407 0 0 1-7.817-.996l-.015-.005z" opacity=".41"/><path fill="url(#e)" d="M18.965 18.535c-.101.125-.411.311-.411.705 0 .325.211.637.587.9 1.791 1.245 5.167 1.08 5.175 1.08a7.402 7.402 0 0 0 3.77-1.039 7.641 7.641 0 0 0 3.79-6.584c.032-2.79-.997-4.646-1.412-5.468C27.824 2.97 22.129 0 15.938 0 7.222 0 .123 7 0 15.714c.06-4.55 4.582-8.225 9.961-8.225.436 0 2.921.043 5.23 1.254 2.034 1.069 3.1 2.359 3.84 3.637.77 1.329.907 3.007.907 3.676s-.343 1.66-.973 2.48z"/><path fill="url(#f)" d="M18.965 18.535c-.101.125-.411.311-.411.705 0 .325.211.637.587.9 1.791 1.245 5.167 1.08 5.175 1.08a7.402 7.402 0 0 0 3.77-1.039 7.641 7.641 0 0 0 3.79-6.584c.032-2.79-.997-4.646-1.412-5.468C27.824 2.97 22.129 0 15.938 0 7.222 0 .123 7 0 15.714c.06-4.55 4.582-8.225 9.961-8.225.436 0 2.921.043 5.23 1.254 2.034 1.069 3.1 2.359 3.84 3.637.77 1.329.907 3.007.907 3.676s-.343 1.66-.973 2.48z"/></g></svg>