<svg xmlns="http://www.w3.org/2000/svg" width="32" height="32" viewBox="0 0 32 32">
    <defs>
        <radialGradient id="ldqx20gp9b" cx="85.868%" cy="-12.876%" r="127.807%" fx="85.868%" fy="-12.876%" gradientTransform="matrix(.8162 0 0 1 .158 0)">
            <stop offset="0%" stop-color="#FFBD4F"/>
            <stop offset="13%" stop-color="#FFBD4F"/>
            <stop offset="19%" stop-color="#FFAC31"/>
            <stop offset="25%" stop-color="#FF9D17"/>
            <stop offset="28%" stop-color="#FF980E"/>
            <stop offset="40%" stop-color="#FF563B"/>
            <stop offset="47%" stop-color="#FF3750"/>
            <stop offset="71%" stop-color="#F5156C"/>
            <stop offset="78%" stop-color="#EB0878"/>
            <stop offset="86%" stop-color="#E50080"/>
            <stop offset="100%" stop-color="#E50080"/>
        </radialGradient>
        <radialGradient id="doqp14ww4c" cx="47.757%" cy="39.37%" r="127.807%" fx="47.757%" fy="39.37%" gradientTransform="matrix(.8162 0 0 1 .088 0)">
            <stop offset="0%" stop-color="#960E18"/>
            <stop offset="30%" stop-color="#960E18"/>
            <stop offset="35%" stop-color="#B11927" stop-opacity=".74"/>
            <stop offset="43%" stop-color="#DB293D" stop-opacity=".34"/>
            <stop offset="50%" stop-color="#F5334B" stop-opacity=".09"/>
            <stop offset="53%" stop-color="#FF3750" stop-opacity="0"/>
            <stop offset="100%" stop-color="#FF3750" stop-opacity="0"/>
        </radialGradient>
        <radialGradient id="a8xet7j7sd" cx="50%" cy="-29.975%" r="315.016%" fx="50%" fy="-29.975%" gradientTransform="matrix(1 0 0 .58872 0 -.123)">
            <stop offset="0%" stop-color="#FFF44F"/>
            <stop offset="13%" stop-color="#FFF44F"/>
            <stop offset="25%" stop-color="#FFDC3E"/>
            <stop offset="51%" stop-color="#FF9D12"/>
            <stop offset="53%" stop-color="#FF980E"/>
            <stop offset="100%" stop-color="#FF980E"/>
        </radialGradient>
        <radialGradient id="iqf5r705te" cx="19.482%" cy="110.03%" r="111.864%" fx="19.482%" fy="110.03%" gradientTransform="matrix(1 0 0 .91135 0 .098)">
            <stop offset="0%" stop-color="#3A8EE6"/>
            <stop offset="35%" stop-color="#3A8EE6"/>
            <stop offset="47%" stop-color="#5C79F0"/>
            <stop offset="67%" stop-color="#9059FF"/>
            <stop offset="100%" stop-color="#C139E6"/>
        </radialGradient>
        <radialGradient id="piyprqb6qf" cx="-19.808%" cy="-114.776%" r="59.135%" fx="-19.808%" fy="-114.776%" gradientTransform="scale(1 .91135) rotate(-13.339 -.675 -1.204)">
            <stop offset="0%" stop-color="#9059FF" stop-opacity="0"/>
            <stop offset="21%" stop-color="#9059FF" stop-opacity="0"/>
            <stop offset="28%" stop-color="#8C4FF3" stop-opacity=".06"/>
            <stop offset="75%" stop-color="#7716A8" stop-opacity=".45"/>
            <stop offset="97%" stop-color="#6E008B" stop-opacity=".6"/>
            <stop offset="100%" stop-color="#6E008B" stop-opacity=".6"/>
        </radialGradient>
        <radialGradient id="p22ah2cs2g" cx="207.953%" cy="-103.797%" r="293.531%" fx="207.953%" fy="-103.797%" gradientTransform="matrix(1 0 0 .99473 0 -.005)">
            <stop offset="0%" stop-color="#FFE226"/>
            <stop offset="12%" stop-color="#FFDB27"/>
            <stop offset="29%" stop-color="#FFC82A"/>
            <stop offset="50%" stop-color="#FFA930"/>
            <stop offset="73%" stop-color="#FF7E37"/>
            <stop offset="79%" stop-color="#FF7139"/>
            <stop offset="100%" stop-color="#FF7139"/>
        </radialGradient>
        <radialGradient id="nweet2wh4h" cx="79.323%" cy="-40.885%" r="193.806%" fx="79.323%" fy="-40.885%" gradientTransform="matrix(.83966 0 0 1 .127 0)">
            <stop offset="0%" stop-color="#FFF44F"/>
            <stop offset="11%" stop-color="#FFF44F"/>
            <stop offset="46%" stop-color="#FF980E"/>
            <stop offset="62%" stop-color="#FF5634"/>
            <stop offset="72%" stop-color="#FF3647"/>
            <stop offset="90%" stop-color="#E31587"/>
            <stop offset="100%" stop-color="#E31587"/>
        </radialGradient>
        <radialGradient id="wlcsiuttni" cx="55.472%" cy="-103.12%" r="350.323%" fx="55.472%" fy="-103.12%" gradientTransform="scale(1 .47347) rotate(84.289 1.188 -1.605)">
            <stop offset="0%" stop-color="#FFF44F"/>
            <stop offset="6%" stop-color="#FFE847"/>
            <stop offset="17%" stop-color="#FFC830"/>
            <stop offset="30%" stop-color="#FF980E"/>
            <stop offset="36%" stop-color="#FF8B16"/>
            <stop offset="46%" stop-color="#FF672A"/>
            <stop offset="57%" stop-color="#FF3647"/>
            <stop offset="74%" stop-color="#E31587"/>
            <stop offset="100%" stop-color="#E31587"/>
        </radialGradient>
        <radialGradient id="b7etogxfuj" cx="15.271%" cy="-42.61%" r="239.063%" fx="15.271%" fy="-42.61%" gradientTransform="matrix(.98106 0 0 1 .003 0)">
            <stop offset="0%" stop-color="#FFF44F"/>
            <stop offset="14%" stop-color="#FFF44F"/>
            <stop offset="48%" stop-color="#FF980E"/>
            <stop offset="59%" stop-color="#FF5634"/>
            <stop offset="66%" stop-color="#FF3647"/>
            <stop offset="90%" stop-color="#E31587"/>
            <stop offset="100%" stop-color="#E31587"/>
        </radialGradient>
        <radialGradient id="7bkg6qjd3k" cx="155.324%" cy="-44.54%" r="312.763%" fx="155.324%" fy="-44.54%" gradientTransform="matrix(.89487 0 0 1 .163 0)">
            <stop offset="0%" stop-color="#FFF44F"/>
            <stop offset="9%" stop-color="#FFF44F"/>
            <stop offset="23%" stop-color="#FFE141"/>
            <stop offset="51%" stop-color="#FFAF1E"/>
            <stop offset="63%" stop-color="#FF980E"/>
            <stop offset="100%" stop-color="#FF980E"/>
        </radialGradient>
        <linearGradient id="3w6ujffwza" x1="86.996%" x2="9.593%" y1="15.441%" y2="92.796%">
            <stop offset="0%" stop-color="#FFF44F"/>
            <stop offset="5%" stop-color="#FFF44F"/>
            <stop offset="11%" stop-color="#FFE847"/>
            <stop offset="23%" stop-color="#FFC830"/>
            <stop offset="37%" stop-color="#FF980E"/>
            <stop offset="40%" stop-color="#FF8B16"/>
            <stop offset="46%" stop-color="#FF672A"/>
            <stop offset="53%" stop-color="#FF3647"/>
            <stop offset="70%" stop-color="#E31587"/>
            <stop offset="100%" stop-color="#E31587"/>
        </linearGradient>
        <linearGradient id="swb1zlzrel" x1="86.07%" x2="20.204%" y1="15.03%" y2="83.25%">
            <stop offset="0%" stop-color="#FFF44F" stop-opacity=".8"/>
            <stop offset="17%" stop-color="#FFF44F" stop-opacity=".8"/>
            <stop offset="27%" stop-color="#FFF44F" stop-opacity=".63"/>
            <stop offset="49%" stop-color="#FFF44F" stop-opacity=".22"/>
            <stop offset="60%" stop-color="#FFF44F" stop-opacity="0"/>
            <stop offset="100%" stop-color="#FFF44F" stop-opacity="0"/>
        </linearGradient>
    </defs>
    <g fill="none" fill-rule="evenodd">
        <g fill-rule="nonzero">
            <g>
                <g>
                    <g>
                        <g>
                            <g>
                                <path fill="url(#3w6ujffwza)" d="M29.48 10.6c-.668-1.604-2.015-3.33-3.074-3.876.754 1.46 1.277 3.026 1.553 4.646v.028c-1.73-4.318-4.65-6.057-7.064-9.85-.123-.189-.241-.394-.36-.584-.067-.115-.122-.221-.17-.316-.094-.194-.167-.398-.217-.608 0-.02-.013-.036-.031-.04h-.032c-3.844 2.252-5.136 6.424-5.27 8.506-1.537.105-3.007.672-4.215 1.627-.126-.108-.258-.208-.396-.3-.348-1.222-.363-2.515-.043-3.745-1.411.686-2.666 1.656-3.686 2.848-.608-.766-.565-3.302-.53-3.832-.18.072-.352.162-.513.269-.535.384-1.036.814-1.497 1.284-.523.532-1.002 1.107-1.43 1.718C1.52 9.772.823 11.35.45 13.017l-.055.095c-.028.134-.134.81-.15.956v.036c-.132.69-.214 1.39-.245 2.094v.079c-.057 7.992 6.041 14.684 14.004 15.366 7.964.683 15.112-4.874 16.416-12.759.027-.198.047-.395.07-.593.31-2.608-.038-5.252-1.01-7.691zM11.852 22.582c.071.035.138.075.21.106l-.21-.106z" transform="translate(-624 -420) translate(491 404) translate(32 16) translate(89) translate(12) translate(.595)"/>
                                <path fill="url(#ldqx20gp9b)" d="M29.48 10.6c-.668-1.604-2.015-3.33-3.074-3.876.754 1.46 1.277 3.026 1.553 4.646v.031c1.179 3.375 1.009 7.075-.475 10.327-1.758 3.765-6.004 7.625-12.642 7.435C7.66 28.962 1.332 23.633.15 16.648c-.217-1.102 0-1.66.107-2.556-.15.692-.236 1.397-.257 2.106v.079c-.057 7.992 6.041 14.684 14.004 15.366 7.964.683 15.112-4.874 16.416-12.759.027-.198.047-.395.07-.593.31-2.608-.038-5.252-1.01-7.691z" transform="translate(-624 -420) translate(491 404) translate(32 16) translate(89) translate(12) translate(.595)"/>
                                <path fill="url(#doqp14ww4c)" d="M29.48 10.6c-.668-1.604-2.015-3.33-3.074-3.876.754 1.46 1.277 3.026 1.553 4.646v.031c1.179 3.375 1.009 7.075-.475 10.327-1.758 3.765-6.004 7.625-12.642 7.435C7.66 28.962 1.332 23.633.15 16.648c-.217-1.102 0-1.66.107-2.556-.15.692-.236 1.397-.257 2.106v.079c-.057 7.992 6.041 14.684 14.004 15.366 7.964.683 15.112-4.874 16.416-12.759.027-.198.047-.395.07-.593.31-2.608-.038-5.252-1.01-7.691z" transform="translate(-624 -420) translate(491 404) translate(32 16) translate(89) translate(12) translate(.595)"/>
                                <path fill="url(#a8xet7j7sd)" d="M22.037 12.397l.094.071c-.383-.683-.862-1.309-1.422-1.857C15.953 5.855 19.465.292 20.053 0c-3.855 2.252-5.143 6.424-5.262 8.506.178 0 .356-.024.537-.024 2.778.004 5.34 1.499 6.709 3.915z" transform="translate(-624 -420) translate(491 404) translate(32 16) translate(89) translate(12) translate(.595)"/>
                                <path fill="url(#iqf5r705te)" d="M15.34 13.35c-.027.394-1.375 1.694-1.845 1.694-4.345 0-5.06 2.631-5.06 2.631.193 2.22 1.738 4.045 3.606 5.013l.261.123c.15.067.3.126.45.186.636.228 1.302.361 1.976.395 7.632.36 9.11-9.126 3.603-11.88 1.298-.168 2.613.152 3.69.897-1.371-2.419-3.936-3.914-6.716-3.915-.182 0-.36 0-.538.024-1.537.105-3.006.672-4.215 1.627.233.198.498.458 1.055 1.008 1.063 1.011 3.725 2.07 3.733 2.196z" transform="translate(-624 -420) translate(491 404) translate(32 16) translate(89) translate(12) translate(.595)"/>
                                <path fill="url(#piyprqb6qf)" d="M15.34 13.35c-.027.394-1.375 1.694-1.845 1.694-4.345 0-5.06 2.631-5.06 2.631.193 2.22 1.738 4.045 3.606 5.013l.261.123c.15.067.3.126.45.186.636.228 1.302.361 1.976.395 7.632.36 9.11-9.126 3.603-11.88 1.298-.168 2.613.152 3.69.897-1.371-2.419-3.936-3.914-6.716-3.915-.182 0-.36 0-.538.024-1.537.105-3.006.672-4.215 1.627.233.198.498.458 1.055 1.008 1.063 1.011 3.725 2.07 3.733 2.196z" transform="translate(-624 -420) translate(491 404) translate(32 16) translate(89) translate(12) translate(.595)"/>
                                <path fill="url(#p22ah2cs2g)" d="M9.877 9.624c.122.079.225.146.312.21-.35-1.223-.363-2.517-.04-3.746-1.412.684-2.667 1.654-3.686 2.848.063 0 2.284-.04 3.414.688z" transform="translate(-624 -420) translate(491 404) translate(32 16) translate(89) translate(12) translate(.595)"/>
                                <path fill="url(#nweet2wh4h)" d="M.138 16.656c1.185 6.98 7.506 12.314 14.697 12.515 6.648.19 10.895-3.67 12.642-7.435 1.486-3.254 1.657-6.957.478-10.335v.028c.54 3.556-1.265 6.98-4.081 9.304v.02c-5.492 4.476-10.75 2.702-11.817 1.975l-.205-.142c-3.22-1.53-4.543-4.449-4.259-6.953-1.559.03-2.989-.864-3.642-2.28 1.708-1.048 3.838-1.133 5.625-.225 1.815.823 3.88.904 5.752.225 0-.126-2.67-1.185-3.71-2.208-.556-.55-.817-.81-1.054-1.008-.126-.108-.258-.208-.395-.3l-.316-.21c-1.114-.726-3.338-.687-3.41-.687-.604-.766-.564-3.302-.529-3.832-.179.071-.35.162-.51.269-.536.382-1.037.812-1.497 1.284C3.38 7.19 2.9 7.764 2.47 8.375 1.485 9.772.787 11.35.415 13.017c0 .02-.545 2.39-.277 3.639z" transform="translate(-624 -420) translate(491 404) translate(32 16) translate(89) translate(12) translate(.595)"/>
                                <path fill="url(#wlcsiuttni)" d="M20.71 10.611c.559.549 1.037 1.174 1.421 1.857.087.067.166.13.233.19 3.47 3.2 1.652 7.723 1.517 8.047 2.817-2.327 4.623-5.76 4.081-9.307-1.734-4.318-4.653-6.057-7.067-9.85-.123-.189-.241-.394-.36-.584-.067-.115-.122-.221-.17-.316-.094-.194-.167-.398-.217-.608 0-.02-.013-.036-.031-.04h-.032c-.62.292-4.132 5.855.624 10.611z" transform="translate(-624 -420) translate(491 404) translate(32 16) translate(89) translate(12) translate(.595)"/>
                                <path fill="url(#b7etogxfuj)" d="M22.36 12.642c-.073-.067-.15-.13-.229-.19l-.094-.07c-1.079-.746-2.395-1.065-3.694-.898 5.507 2.766 4.03 12.247-3.603 11.88-.675-.034-1.34-.167-1.976-.395-.15-.06-.3-.119-.45-.186l-.257-.122c1.063.723 6.321 2.5 11.817-1.976v-.02c.142-.284 1.96-4.811-1.514-8.023z" transform="translate(-624 -420) translate(491 404) translate(32 16) translate(89) translate(12) translate(.595)"/>
                                <path fill="url(#7bkg6qjd3k)" d="M8.435 17.675s.707-2.631 5.06-2.631c.474 0 1.818-1.316 1.845-1.695-1.873.679-3.937.598-5.752-.225-1.79-.911-3.925-.826-5.637.225.656 1.408 2.077 2.3 3.63 2.28-.276 2.504 1.047 5.424 4.27 6.953l.21.106c-1.888-.96-3.433-2.793-3.626-5.013z" transform="translate(-624 -420) translate(491 404) translate(32 16) translate(89) translate(12) translate(.595)"/>
                                <path fill="url(#swb1zlzrel)" d="M29.48 10.6c-.668-1.604-2.015-3.33-3.074-3.876.754 1.46 1.277 3.026 1.553 4.646v.028c-1.73-4.318-4.65-6.057-7.064-9.85-.123-.189-.241-.394-.36-.584-.067-.115-.122-.221-.17-.316-.094-.194-.167-.398-.217-.608 0-.02-.013-.036-.031-.04h-.032c-3.844 2.252-5.136 6.424-5.27 8.506.178 0 .355-.024.537-.024 2.78.001 5.345 1.496 6.716 3.915-1.076-.745-2.391-1.065-3.69-.897 5.507 2.766 4.03 12.247-3.603 11.88-.674-.034-1.34-.167-1.975-.395-.15-.06-.3-.119-.45-.186l-.261-.122-.237-.095c.071.035.138.075.21.106-1.87-.968-3.414-2.793-3.608-5.013 0 0 .707-2.631 5.061-2.631.474 0 1.817-1.316 1.845-1.695 0-.126-2.67-1.185-3.71-2.208-.557-.55-.821-.81-1.054-1.008-.126-.108-.258-.208-.396-.3-.348-1.222-.363-2.515-.043-3.745-1.411.686-2.666 1.656-3.686 2.848-.608-.766-.565-3.302-.53-3.832-.18.072-.352.162-.513.269-.535.384-1.035.814-1.497 1.284-.523.532-1.002 1.107-1.43 1.718C1.517 9.772.819 11.35.446 13.017l-.05.095c-.029.134-.159.822-.179.968-.115.7-.187 1.408-.217 2.118v.079c-.057 7.992 6.041 14.684 14.004 15.366 7.964.683 15.112-4.874 16.416-12.759.027-.198.047-.395.07-.593.31-2.608-.038-5.252-1.01-7.691z" transform="translate(-624 -420) translate(491 404) translate(32 16) translate(89) translate(12) translate(.595)"/>
                            </g>
                        </g>
                    </g>
                </g>
            </g>
        </g>
    </g>
</svg>
