<svg xmlns="http://www.w3.org/2000/svg" width="96" height="96" viewBox="0 0 96 96">
    <g fill="none" fill-rule="evenodd">
        <g>
            <g>
                <g transform="translate(-592.000000, -248.000000) translate(592.000000, 248.000000) translate(9.000000, 0.000000)">
                    <path fill="#000" fill-rule="nonzero" d="M6.72 91.788c2.684 1.273 9.56 2.37 15.105 2.821 15.125 1.205 36.265.568 45.218-1.636 9.032-2.214 9.434-5.584-13.518-7.278-19.543-1.43-42.358.578-47.226 3.595-1.313.803-1.235 1.704.421 2.498" opacity=".16"/>
                    <circle cx="39.184" cy="40.163" r="39.184" fill="#FFF" fill-rule="nonzero" opacity=".322"/>
                    <g fill="#FFF">
                        <path d="M9.328 13.57C7.232 16.513 6 20.113 6 24c0 9.941 8.059 18 18 18 3.887 0 7.487-1.232 10.43-3.328L9.328 13.57zm4.242-4.242L38.672 34.43C40.768 31.487 42 27.887 42 24c0-9.941-8.059-18-18-18-3.887 0-7.487 1.232-10.43 3.328zM24 48C10.745 48 0 37.255 0 24S10.745 0 24 0s24 10.745 24 24-10.745 24-24 24z" transform="translate(15.183673, 16.163265)"/>
                    </g>
                </g>
            </g>
        </g>
    </g>
</svg>
