<svg width="216" height="60" viewBox="0 0 216 60" fill="none" xmlns="http://www.w3.org/2000/svg">
<rect width="216" height="60" fill="#000091"/>
<path d="M74.0847 26.2993C74.6023 26.2993 75.0833 26.2205 75.5278 26.063C75.9723 25.9054 76.3548 25.6804 76.6755 25.3878C76.9962 25.0952 77.2494 24.7436 77.4351 24.3329C77.6207 23.9222 77.7136 23.4693 77.7136 22.9741C77.7136 22.0289 77.421 21.3032 76.8359 20.7968C76.2508 20.2904 75.6122 19.86 74.9202 19.5056C74.2281 19.1511 73.5895 18.7967 73.0044 18.4422C72.4193 18.0878 72.1267 17.5955 72.1267 16.9653C72.1267 16.4815 72.2927 16.0736 72.6246 15.7416C72.9566 15.4097 73.3983 15.2437 73.9496 15.2437C74.4672 15.2437 74.937 15.3759 75.359 15.6403C75.781 15.9048 76.1664 16.2845 76.5152 16.7797L77.6967 15.75C77.2579 15.1762 76.729 14.712 76.1101 14.3576C75.4912 14.0031 74.7654 13.8259 73.9327 13.8259C73.4376 13.8259 72.9791 13.9103 72.5571 14.0791C72.1352 14.2478 71.7723 14.4757 71.4684 14.7626C71.1646 15.0496 70.9283 15.3872 70.7595 15.7754C70.5908 16.1636 70.5064 16.5715 70.5064 16.9991C70.5064 17.933 70.7989 18.6532 71.3841 19.1596C71.9692 19.6659 72.6078 20.0963 73.2998 20.4508C73.9918 20.8052 74.6304 21.1597 75.2155 21.5141C75.8007 21.8686 76.0932 22.3609 76.0932 22.991C76.0932 23.5311 75.916 23.9812 75.5615 24.3413C75.2071 24.7014 74.7092 24.8814 74.0678 24.8814C73.5164 24.8814 72.996 24.7464 72.5065 24.4764C72.017 24.2063 71.5641 23.8125 71.1478 23.2948L70 24.3582C70.5176 24.9996 71.1084 25.4835 71.7723 25.8098C72.4362 26.1361 73.207 26.2993 74.0847 26.2993ZM80.7349 18.6869L82.4734 14.1634H80.8361L79.4015 18.6869H80.7349ZM85.5284 15.2606C85.8097 15.2606 86.046 15.1621 86.2373 14.9652C86.4286 14.7683 86.5243 14.5292 86.5243 14.2478C86.5243 13.9778 86.4286 13.7443 86.2373 13.5474C86.046 13.3505 85.8097 13.252 85.5284 13.252C85.2471 13.252 85.008 13.3505 84.8111 13.5474C84.6142 13.7443 84.5157 13.9778 84.5157 14.2478C84.5157 14.5292 84.6142 14.7683 84.8111 14.9652C85.008 15.1621 85.2471 15.2606 85.5284 15.2606ZM86.2373 25.9786V17.4717H84.8026V25.9786H86.2373ZM92.921 26.3161C93.529 26.3161 94.089 26.2064 94.601 25.987C95.113 25.7676 95.56 25.4497 95.943 25.0334V25.9786H97.377V13.3195H95.943V18.4169C95.56 18.0005 95.113 17.6827 94.601 17.4632C94.089 17.2438 93.529 17.1341 92.921 17.1341C92.257 17.1341 91.6554 17.2579 91.1153 17.5054C90.5752 17.753 90.1166 18.0849 89.7397 18.5013C89.3627 18.9176 89.0702 19.4043 88.862 19.9613C88.6538 20.5183 88.5497 21.1062 88.5497 21.7251C88.5497 22.344 88.6538 22.9319 88.862 23.4889C89.0702 24.0459 89.3627 24.5326 89.7397 24.949C90.1166 25.3653 90.5752 25.6972 91.1153 25.9448C91.6554 26.1924 92.257 26.3161 92.921 26.3161ZM93.09 24.9658C92.64 24.9658 92.229 24.8814 91.858 24.7127C91.4866 24.5439 91.1687 24.3132 90.9043 24.0206C90.6399 23.7281 90.4345 23.3849 90.2882 22.991C90.142 22.5972 90.0688 22.1752 90.0688 21.7251C90.0688 21.275 90.142 20.8531 90.2882 20.4592C90.4345 20.0654 90.6399 19.7222 90.9043 19.4296C91.1687 19.137 91.4866 18.9064 91.858 18.7376C92.229 18.5688 92.64 18.4844 93.09 18.4844C93.664 18.4844 94.198 18.6194 94.694 18.8895C95.189 19.1596 95.605 19.5534 95.943 20.071V23.3792C95.616 23.8856 95.206 24.2766 94.71 24.5523C94.215 24.828 93.675 24.9658 93.09 24.9658ZM104.314 26.3161C105.102 26.3161 105.808 26.1586 106.433 25.8435C107.057 25.5285 107.566 25.1065 107.96 24.5776L106.897 23.7506C106.616 24.1332 106.256 24.4398 105.817 24.6705C105.378 24.9011 104.888 25.0165 104.348 25.0165C103.403 25.0165 102.635 24.7098 102.044 24.0966C101.454 23.4833 101.158 22.7097 101.158 21.7758V21.742H107.673C107.696 21.6295 107.718 21.4916 107.741 21.3285C107.763 21.1653 107.775 20.9993 107.775 20.8305C107.775 20.3017 107.685 19.8094 107.505 19.3537C107.325 18.8979 107.069 18.5069 106.737 18.1806C106.405 17.8543 106.002 17.5983 105.53 17.4126C105.057 17.2269 104.534 17.1341 103.96 17.1341C103.307 17.1341 102.714 17.2523 102.179 17.4886C101.645 17.7249 101.195 18.0484 100.829 18.4591C100.463 18.8698 100.179 19.3565 99.977 19.9191C99.774 20.4817 99.673 21.0837 99.673 21.7251C99.673 22.344 99.78 22.9319 99.994 23.4889C100.207 24.0459 100.514 24.5326 100.913 24.949C101.313 25.3653 101.802 25.6972 102.382 25.9448C102.961 26.1924 103.606 26.3161 104.314 26.3161ZM106.323 20.6111H101.276C101.445 19.8797 101.766 19.3227 102.238 18.9401C102.711 18.5575 103.29 18.3663 103.977 18.3663C104.675 18.3663 105.234 18.5885 105.656 19.033C106.078 19.4774 106.301 20.0035 106.323 20.6111ZM111.64 25.9786V20.0879C111.91 19.6378 112.25 19.258 112.661 18.9486C113.072 18.6391 113.581 18.4844 114.189 18.4844C114.841 18.4844 115.364 18.6954 115.758 19.1174C116.152 19.5393 116.349 20.1273 116.349 20.8812V25.9786H117.801V20.8305C117.801 19.6265 117.483 18.7095 116.847 18.0793C116.211 17.4492 115.421 17.1341 114.475 17.1341C113.845 17.1341 113.302 17.2551 112.847 17.497C112.391 17.7389 111.989 18.0512 111.64 18.4338V17.4717H110.205V25.9786H111.64ZM124.13 26.1473C124.434 26.1473 124.704 26.1277 124.94 26.0883C125.177 26.0489 125.396 25.9898 125.599 25.911V24.6283C125.441 24.6958 125.261 24.7464 125.058 24.7802C124.856 24.8139 124.614 24.8308 124.333 24.8308C123.815 24.8308 123.402 24.7127 123.092 24.4764C122.783 24.2401 122.628 23.79 122.628 23.1261V18.7882H125.582V17.4717H122.628V15.345H121.176V17.4717H119.573V18.7882H121.176V23.1261C121.176 24.1613 121.432 24.9236 121.944 25.4131C122.456 25.9026 123.185 26.1473 124.13 26.1473ZM128.502 15.2606C128.783 15.2606 129.019 15.1621 129.211 14.9652C129.402 14.7683 129.498 14.5292 129.498 14.2478C129.498 13.9778 129.402 13.7443 129.211 13.5474C129.019 13.3505 128.783 13.252 128.502 13.252C128.22 13.252 127.981 13.3505 127.784 13.5474C127.587 13.7443 127.489 13.9778 127.489 14.2478C127.489 14.5292 127.587 14.7683 127.784 14.9652C127.981 15.1621 128.22 15.2606 128.502 15.2606ZM129.211 25.9786V17.4717H127.776V25.9786H129.211ZM134.19 25.9786V18.7882H137.144V17.4717H134.19V16.3914C134.19 15.8401 134.339 15.4068 134.637 15.0918C134.935 14.7767 135.315 14.6192 135.776 14.6192C136.069 14.6192 136.319 14.6726 136.528 14.7795C136.736 14.8864 136.913 15.0243 137.059 15.1931L137.954 14.1466C137.706 13.899 137.397 13.6993 137.025 13.5474C136.654 13.3955 136.232 13.3195 135.76 13.3195C134.848 13.3195 134.117 13.6093 133.565 14.1888C133.014 14.7683 132.738 15.5137 132.738 16.4252V17.4717H131.135V18.7882H132.738V25.9786H134.19ZM139.625 15.2606C139.906 15.2606 140.142 15.1621 140.334 14.9652C140.525 14.7683 140.621 14.5292 140.621 14.2478C140.621 13.9778 140.525 13.7443 140.334 13.5474C140.142 13.3505 139.906 13.252 139.625 13.252C139.343 13.252 139.104 13.3505 138.907 13.5474C138.711 13.7443 138.612 13.9778 138.612 14.2478C138.612 14.5292 138.711 14.7683 138.907 14.9652C139.104 15.1621 139.343 15.2606 139.625 15.2606ZM140.334 25.9786V17.4717H138.899V25.9786H140.334ZM147.288 26.3161C148.075 26.3161 148.781 26.1586 149.406 25.8435C150.031 25.5285 150.54 25.1065 150.934 24.5776L149.87 23.7506C149.589 24.1332 149.229 24.4398 148.79 24.6705C148.351 24.9011 147.862 25.0165 147.321 25.0165C146.376 25.0165 145.608 24.7098 145.018 24.0966C144.427 23.4833 144.131 22.7097 144.131 21.7758V21.742H150.647C150.669 21.6295 150.692 21.4916 150.714 21.3285C150.737 21.1653 150.748 20.9993 150.748 20.8305C150.748 20.3017 150.658 19.8094 150.478 19.3537C150.298 18.8979 150.042 18.5069 149.71 18.1806C149.378 17.8543 148.976 17.5983 148.503 17.4126C148.03 17.2269 147.507 17.1341 146.933 17.1341C146.281 17.1341 145.687 17.2523 145.153 17.4886C144.618 17.7249 144.168 18.0484 143.802 18.4591C143.437 18.8698 143.152 19.3565 142.95 19.9191C142.747 20.4817 142.646 21.0837 142.646 21.7251C142.646 22.344 142.753 22.9319 142.967 23.4889C143.181 24.0459 143.487 24.5326 143.887 24.949C144.286 25.3653 144.776 25.6972 145.355 25.9448C145.935 26.1924 146.579 26.3161 147.288 26.3161ZM149.296 20.6111H144.25C144.418 19.8797 144.739 19.3227 145.212 18.9401C145.684 18.5575 146.264 18.3663 146.95 18.3663C147.648 18.3663 148.208 18.5885 148.63 19.033C149.052 19.4774 149.274 20.0035 149.296 20.6111ZM154.613 25.9786V20.206C154.872 19.7784 155.193 19.4324 155.575 19.168C155.958 18.9036 156.425 18.7713 156.976 18.7713C157.145 18.7713 157.297 18.7826 157.432 18.8051C157.567 18.8276 157.696 18.8557 157.82 18.8895V17.4042C157.719 17.3704 157.606 17.3451 157.482 17.3282C157.359 17.3113 157.229 17.3029 157.094 17.3029C156.554 17.3029 156.084 17.4154 155.685 17.6405C155.285 17.8655 154.928 18.1637 154.613 18.535V17.4717H153.178V25.9786H154.613ZM166.766 26.3161C167.34 26.3161 167.88 26.1924 168.386 25.9448C168.892 25.6972 169.303 25.3484 169.618 24.8983V25.9786H171.053V20.2735C171.053 19.3396 170.749 18.5829 170.142 18.0034C169.534 17.4239 168.69 17.1341 167.61 17.1341C166.867 17.1341 166.203 17.2804 165.618 17.573C165.033 17.8655 164.555 18.265 164.183 18.7713L165.264 19.5984C165.511 19.2271 165.835 18.9373 166.234 18.7291C166.634 18.521 167.081 18.4169 167.576 18.4169C168.172 18.4169 168.662 18.5801 169.044 18.9064C169.427 19.2327 169.618 19.6884 169.618 20.2735V20.8643L166.766 21.3369C165.854 21.4832 165.159 21.7814 164.681 22.2315C164.203 22.6816 163.964 23.233 163.964 23.8856C163.964 24.6283 164.223 25.219 164.74 25.6579C165.258 26.0967 165.933 26.3161 166.766 26.3161ZM167.002 25.1177C166.518 25.1177 166.13 24.994 165.837 24.7464C165.545 24.4989 165.399 24.195 165.399 23.835C165.399 23.4636 165.536 23.1486 165.812 22.8898C166.088 22.6309 166.518 22.4565 167.103 22.3665L169.618 21.9277V23.548C169.326 24.0319 168.957 24.4145 168.513 24.6958C168.068 24.9771 167.565 25.1177 167.002 25.1177ZM177.804 25.9786L181.13 17.4717H179.577L176.859 24.4764L174.142 17.4717H172.589L175.914 25.9786H177.804ZM186.666 26.3161C187.453 26.3161 188.16 26.1586 188.784 25.8435C189.409 25.5285 189.918 25.1065 190.312 24.5776L189.248 23.7506C188.967 24.1332 188.607 24.4398 188.168 24.6705C187.729 24.9011 187.24 25.0165 186.7 25.0165C185.754 25.0165 184.986 24.7098 184.396 24.0966C183.805 23.4833 183.509 22.7097 183.509 21.7758V21.742H190.025C190.047 21.6295 190.07 21.4916 190.092 21.3285C190.115 21.1653 190.126 20.9993 190.126 20.8305C190.126 20.3017 190.036 19.8094 189.856 19.3537C189.676 18.8979 189.42 18.5069 189.088 18.1806C188.756 17.8543 188.354 17.5983 187.881 17.4126C187.408 17.2269 186.885 17.1341 186.311 17.1341C185.659 17.1341 185.065 17.2523 184.531 17.4886C183.996 17.7249 183.546 18.0484 183.18 18.4591C182.815 18.8698 182.531 19.3565 182.328 19.9191C182.125 20.4817 182.024 21.0837 182.024 21.7251C182.024 22.344 182.131 22.9319 182.345 23.4889C182.559 24.0459 182.865 24.5326 183.265 24.949C183.664 25.3653 184.154 25.6972 184.733 25.9448C185.313 26.1924 185.957 26.3161 186.666 26.3161ZM188.674 20.6111H183.628C183.796 19.8797 184.117 19.3227 184.59 18.9401C185.062 18.5575 185.642 18.3663 186.328 18.3663C187.026 18.3663 187.586 18.5885 188.008 19.033C188.43 19.4774 188.652 20.0035 188.674 20.6111ZM196.422 26.3161C197.198 26.3161 197.89 26.1586 198.498 25.8435C199.105 25.5285 199.606 25.1065 200 24.5776L198.852 23.6999C198.593 24.0825 198.256 24.3891 197.84 24.6198C197.423 24.8505 196.956 24.9658 196.439 24.9658C195.977 24.9658 195.555 24.8814 195.173 24.7127C194.79 24.5439 194.461 24.316 194.185 24.0291C193.91 23.7421 193.693 23.3989 193.535 22.9995C193.378 22.6 193.299 22.1752 193.299 21.7251C193.299 21.275 193.378 20.8531 193.535 20.4592C193.693 20.0654 193.907 19.7222 194.177 19.4296C194.447 19.137 194.776 18.9064 195.164 18.7376C195.552 18.5688 195.972 18.4844 196.422 18.4844C196.939 18.4844 197.409 18.5997 197.831 18.8304C198.253 19.0611 198.593 19.3677 198.852 19.7503L200 18.8726C199.606 18.355 199.103 17.9358 198.489 17.6151C197.876 17.2945 197.187 17.1341 196.422 17.1341C195.724 17.1341 195.088 17.2579 194.514 17.5054C193.941 17.753 193.454 18.0849 193.054 18.5013C192.655 18.9176 192.345 19.4043 192.126 19.9613C191.907 20.5183 191.797 21.1062 191.797 21.7251C191.797 22.344 191.907 22.9319 192.126 23.4889C192.345 24.0459 192.655 24.5326 193.054 24.949C193.454 25.3653 193.941 25.6972 194.514 25.9448C195.088 26.1924 195.724 26.3161 196.422 26.3161Z" fill="white"/>
<path d="M72.5596 45.0184V39.6829H76.6334V37.5018H72.5596V34.5816H77.3544V32.4005H70V45.0184H72.5596ZM81.2119 45.0184V39.3223C81.3801 39.046 81.6475 38.7816 82.014 38.5292C82.3805 38.2769 82.8402 38.1507 83.393 38.1507C83.5972 38.1507 83.7805 38.1627 83.9427 38.1867C84.105 38.2108 84.2582 38.2408 84.4024 38.2769V35.8795C84.2942 35.8434 84.1741 35.8134 84.0419 35.7893C83.9097 35.7653 83.7655 35.7533 83.6093 35.7533C83.0925 35.7533 82.6389 35.8584 82.2483 36.0687C81.8578 36.279 81.5123 36.5344 81.2119 36.8348V35.9335H78.9226V45.0184H81.2119ZM88.404 45.3789C88.9328 45.3789 89.4435 45.2678 89.9362 45.0454C90.4289 44.8231 90.8195 44.5317 91.1079 44.1712V45.0184H93.415V39.1421C93.415 38.6494 93.331 38.1837 93.163 37.7451C92.995 37.3065 92.745 36.928 92.415 36.6095C92.084 36.2911 91.6667 36.0387 91.162 35.8524C90.6572 35.6662 90.0804 35.573 89.4315 35.573C88.6143 35.573 87.8783 35.7353 87.2234 36.0597C86.5685 36.3842 86.0367 36.8228 85.6281 37.3756L87.3225 38.6554C87.5268 38.3069 87.8062 38.0395 88.1607 37.8533C88.5152 37.667 88.9148 37.5739 89.3594 37.5739C89.8761 37.5739 90.2967 37.7151 90.6212 37.9975C90.9456 38.2799 91.1079 38.6614 91.1079 39.1421V39.3764L88.368 39.8451C87.3946 40.0013 86.6466 40.3318 86.1238 40.8365C85.6011 41.3412 85.3397 41.936 85.3397 42.621C85.3397 43.4742 85.6251 44.1472 86.1959 44.6399C86.7667 45.1326 87.5028 45.3789 88.404 45.3789ZM88.8727 43.5403C88.4882 43.5403 88.1817 43.4442 87.9534 43.2519C87.7251 43.0596 87.6109 42.8193 87.6109 42.5309C87.6109 42.2425 87.7161 42.0021 87.9264 41.8099C88.1367 41.6176 88.4822 41.4794 88.9628 41.3953L91.1079 41.0167V42.2605C90.8796 42.633 90.5791 42.9395 90.2066 43.1798C89.8341 43.4201 89.3894 43.5403 88.8727 43.5403ZM98.318 45.0184V39.088C98.486 38.7996 98.736 38.5022 99.066 38.1958C99.397 37.8893 99.85 37.7361 100.427 37.7361C100.98 37.7361 101.415 37.9134 101.734 38.2679C102.052 38.6224 102.212 39.1 102.212 39.7009V45.0184H104.537V39.6108C104.537 38.9378 104.444 38.349 104.257 37.8443C104.071 37.3395 103.819 36.9189 103.5 36.5825C103.182 36.246 102.809 35.9936 102.383 35.8254C101.956 35.6572 101.497 35.573 101.004 35.573C100.403 35.573 99.883 35.6782 99.445 35.8885C99.006 36.0988 98.631 36.3541 98.318 36.6546V35.9335H96.029V45.0184H98.318ZM111.495 45.3789C112.324 45.3789 113.066 45.2107 113.721 44.8742C114.376 44.5377 114.914 44.0931 115.334 43.5403L113.514 42.1524C113.297 42.4648 113.018 42.7202 112.675 42.9184C112.333 43.1167 111.939 43.2159 111.495 43.2159C110.738 43.2159 110.11 42.9575 109.611 42.4408C109.112 41.924 108.863 41.2691 108.863 40.476C108.863 39.6829 109.109 39.0279 109.602 38.5112C110.095 37.9945 110.714 37.7361 111.459 37.7361C111.927 37.7361 112.333 37.8352 112.675 38.0335C113.018 38.2318 113.297 38.4872 113.514 38.7996L115.334 37.4116C114.914 36.8589 114.376 36.4142 113.721 36.0778C113.066 35.7413 112.324 35.573 111.495 35.573C110.714 35.573 110.011 35.7052 109.386 35.9696C108.761 36.234 108.235 36.5885 107.809 37.0331C107.382 37.4777 107.054 37.9975 106.826 38.5923C106.598 39.1872 106.484 39.815 106.484 40.476C106.484 41.1369 106.598 41.7648 106.826 42.3596C107.054 42.9545 107.382 43.4742 107.809 43.9189C108.235 44.3635 108.761 44.718 109.386 44.9824C110.011 45.2467 110.714 45.3789 111.495 45.3789ZM121.084 45.3789C121.938 45.3789 122.707 45.2137 123.392 44.8832C124.077 44.5528 124.629 44.1051 125.05 43.5403L123.41 42.2425C123.169 42.5669 122.851 42.8283 122.454 43.0266C122.058 43.2249 121.613 43.324 121.12 43.324C120.351 43.324 119.72 43.1137 119.228 42.6931C118.735 42.2725 118.453 41.6897 118.38 40.9446H124.743C124.78 40.7884 124.813 40.5961 124.843 40.3678C124.873 40.1395 124.888 39.8992 124.888 39.6468C124.888 38.4571 124.503 37.4807 123.734 36.7177C122.965 35.9546 121.956 35.573 120.706 35.573C119.961 35.573 119.3 35.7022 118.723 35.9606C118.146 36.219 117.659 36.5704 117.263 37.0151C116.866 37.4597 116.563 37.9794 116.353 38.5743C116.142 39.1691 116.037 39.803 116.037 40.476C116.037 41.1369 116.148 41.7648 116.371 42.3596C116.593 42.9545 116.917 43.4742 117.344 43.9189C117.771 44.3635 118.299 44.718 118.93 44.9824C119.561 45.2467 120.279 45.3789 121.084 45.3789ZM122.616 39.2142H118.525C118.681 38.6254 118.945 38.1897 119.318 37.9073C119.69 37.6249 120.153 37.4837 120.706 37.4837C121.307 37.4837 121.772 37.661 122.103 38.0155C122.433 38.37 122.604 38.7696 122.616 39.2142ZM133.306 45.3789C134.447 45.3789 135.475 45.1446 136.388 44.6759C137.301 44.2073 138.046 43.5824 138.623 42.8013L136.604 41.2511C136.244 41.7678 135.784 42.1854 135.225 42.5038C134.667 42.8223 134.027 42.9815 133.306 42.9815C132.717 42.9815 132.17 42.8704 131.665 42.6481C131.161 42.4257 130.731 42.1253 130.376 41.7468C130.022 41.3682 129.743 40.9176 129.538 40.3949C129.334 39.8721 129.232 39.3103 129.232 38.7095C129.232 38.1086 129.334 37.5468 129.538 37.0241C129.743 36.5014 130.022 36.0507 130.376 35.6722C130.731 35.2936 131.161 34.9932 131.665 34.7709C132.17 34.5486 132.717 34.4374 133.306 34.4374C134.027 34.4374 134.667 34.5967 135.225 34.9151C135.784 35.2336 136.244 35.6511 136.604 36.1679L138.623 34.5997C138.046 33.8426 137.301 33.2267 136.388 32.752C135.475 32.2774 134.447 32.04 133.306 32.04C132.32 32.04 131.413 32.2203 130.584 32.5808C129.755 32.9413 129.046 33.422 128.457 34.0228C127.868 34.6237 127.411 35.3297 127.087 36.1408C126.762 36.952 126.6 37.8082 126.6 38.7095C126.6 39.6108 126.762 40.467 127.087 41.2781C127.411 42.0893 127.868 42.7953 128.457 43.3961C129.046 43.997 129.755 44.4776 130.584 44.8382C131.413 45.1987 132.32 45.3789 133.306 45.3789ZM144.68 45.3789C145.413 45.3789 146.086 45.2497 146.699 44.9914C147.311 44.733 147.837 44.3845 148.276 43.9459C148.714 43.5073 149.054 42.9875 149.294 42.3867C149.535 41.7858 149.655 41.1489 149.655 40.476C149.655 39.803 149.535 39.1661 149.294 38.5653C149.054 37.9644 148.714 37.4447 148.276 37.0061C147.837 36.5674 147.311 36.219 146.699 35.9606C146.086 35.7022 145.413 35.573 144.68 35.573C143.947 35.573 143.274 35.7022 142.661 35.9606C142.048 36.219 141.522 36.5674 141.084 37.0061C140.645 37.4447 140.306 37.9644 140.065 38.5653C139.825 39.1661 139.705 39.803 139.705 40.476C139.705 41.1489 139.825 41.7858 140.065 42.3867C140.306 42.9875 140.645 43.5073 141.084 43.9459C141.522 44.3845 142.048 44.733 142.661 44.9914C143.274 45.2497 143.947 45.3789 144.68 45.3789ZM144.716 43.2159C143.959 43.2159 143.331 42.9575 142.832 42.4408C142.333 41.924 142.084 41.2691 142.084 40.476C142.084 39.6829 142.333 39.0279 142.832 38.5112C143.331 37.9945 143.959 37.7361 144.716 37.7361C145.437 37.7361 146.044 37.9945 146.536 38.5112C147.029 39.0279 147.275 39.6829 147.275 40.476C147.275 41.2571 147.029 41.909 146.536 42.4317C146.044 42.9545 145.437 43.2159 144.716 43.2159ZM154.035 45.0184V39.088C154.203 38.7996 154.453 38.5022 154.783 38.1958C155.113 37.8893 155.567 37.7361 156.144 37.7361C156.697 37.7361 157.132 37.9134 157.451 38.2679C157.769 38.6224 157.928 39.1 157.928 39.7009V45.0184H160.254V39.6108C160.254 38.9378 160.161 38.349 159.974 37.8443C159.788 37.3395 159.536 36.9189 159.217 36.5825C158.899 36.246 158.526 35.9936 158.1 35.8254C157.673 35.6572 157.213 35.573 156.721 35.573C156.12 35.573 155.6 35.6782 155.162 35.8885C154.723 36.0988 154.347 36.3541 154.035 36.6546V35.9335H151.746V45.0184H154.035ZM165.139 45.0184V39.088C165.307 38.7996 165.556 38.5022 165.887 38.1958C166.217 37.8893 166.671 37.7361 167.248 37.7361C167.8 37.7361 168.236 37.9134 168.554 38.2679C168.873 38.6224 169.032 39.1 169.032 39.7009V45.0184H171.357V39.6108C171.357 38.9378 171.264 38.349 171.078 37.8443C170.892 37.3395 170.639 36.9189 170.321 36.5825C170.003 36.246 169.63 35.9936 169.203 35.8254C168.777 35.6572 168.317 35.573 167.824 35.573C167.224 35.573 166.704 35.6782 166.265 35.8885C165.827 36.0988 165.451 36.3541 165.139 36.6546V35.9335H162.849V45.0184H165.139ZM178.351 45.3789C179.205 45.3789 179.974 45.2137 180.659 44.8832C181.344 44.5528 181.896 44.1051 182.317 43.5403L180.677 42.2425C180.436 42.5669 180.118 42.8283 179.721 43.0266C179.325 43.2249 178.88 43.324 178.387 43.324C177.618 43.324 176.987 43.1137 176.495 42.6931C176.002 42.2725 175.72 41.6897 175.648 40.9446H182.011C182.047 40.7884 182.08 40.5961 182.11 40.3678C182.14 40.1395 182.155 39.8992 182.155 39.6468C182.155 38.4571 181.77 37.4807 181.001 36.7177C180.232 35.9546 179.223 35.573 177.973 35.573C177.228 35.573 176.567 35.7022 175.99 35.9606C175.413 36.219 174.927 36.5704 174.53 37.0151C174.133 37.4597 173.83 37.9794 173.62 38.5743C173.409 39.1691 173.304 39.803 173.304 40.476C173.304 41.1369 173.415 41.7648 173.638 42.3596C173.86 42.9545 174.184 43.4742 174.611 43.9189C175.038 44.3635 175.566 44.718 176.197 44.9824C176.828 45.2467 177.546 45.3789 178.351 45.3789ZM179.884 39.2142H175.792C175.948 38.6254 176.212 38.1897 176.585 37.9073C176.957 37.6249 177.42 37.4837 177.973 37.4837C178.574 37.4837 179.039 37.661 179.37 38.0155C179.7 38.37 179.872 38.7696 179.884 39.2142ZM188.68 45.3789C189.509 45.3789 190.251 45.2107 190.906 44.8742C191.561 44.5377 192.099 44.0931 192.519 43.5403L190.699 42.1524C190.483 42.4648 190.203 42.7202 189.861 42.9184C189.518 43.1167 189.125 43.2159 188.68 43.2159C187.923 43.2159 187.295 42.9575 186.796 42.4408C186.298 41.924 186.048 41.2691 186.048 40.476C186.048 39.6829 186.295 39.0279 186.787 38.5112C187.28 37.9945 187.899 37.7361 188.644 37.7361C189.113 37.7361 189.518 37.8352 189.861 38.0335C190.203 38.2318 190.483 38.4872 190.699 38.7996L192.519 37.4116C192.099 36.8589 191.561 36.4142 190.906 36.0778C190.251 35.7413 189.509 35.573 188.68 35.573C187.899 35.573 187.196 35.7052 186.571 35.9696C185.946 36.234 185.42 36.5885 184.994 37.0331C184.567 37.4777 184.24 37.9975 184.011 38.5923C183.783 39.1872 183.669 39.815 183.669 40.476C183.669 41.1369 183.783 41.7648 184.011 42.3596C184.24 42.9545 184.567 43.4742 184.994 43.9189C185.42 44.3635 185.946 44.718 186.571 44.9824C187.196 45.2467 187.899 45.3789 188.68 45.3789ZM198.252 45.1987C198.624 45.1987 198.952 45.1746 199.234 45.1266C199.516 45.0785 199.772 45.0064 200 44.9103V42.9094C199.844 42.9695 199.658 43.0176 199.441 43.0536C199.225 43.0897 198.961 43.1077 198.648 43.1077C198.203 43.1077 197.852 42.9996 197.594 42.7832C197.335 42.5669 197.206 42.2064 197.206 41.7017V38.0245H199.982V35.9335H197.206V33.6623H194.899V35.9335H193.204V38.0245H194.899V41.7017C194.899 42.8073 195.175 43.6665 195.728 44.2794C196.281 44.8922 197.122 45.1987 198.252 45.1987Z" fill="white"/>
<path d="M35.3648 4.86747C35.1224 4.72289 34.6861 4.72289 34.4438 4.86747L13.2119 17.0602C12.9695 17.2048 12.7756 17.5422 12.7756 17.8313V42.1687C12.7756 42.4578 12.9695 42.7952 13.2119 42.9398L34.4438 55.1325C34.6861 55.2771 35.1224 55.2771 35.3648 55.1325L56.5967 42.9398C56.839 42.7952 57.0329 42.4578 57.0329 42.1687V17.8313C57.0329 17.5422 56.839 17.2048 56.5967 17.0602L35.3648 4.86747Z" fill="white"/>
<path d="M34.8723 49.6784L18.2824 40.1576C18.0889 40.0609 17.9438 39.7709 17.9438 39.5776V20.8258C17.9438 20.5842 18.0889 20.3425 18.2824 20.2459L34.8723 10.5522" fill="#0063CB"/>
<path d="M17.9457 39.4935L17.9438 20.7159C17.9438 20.4739 18.0889 20.2319 18.2824 20.1351L34.8723 10.5527" fill="#000091"/>
<path fill-rule="evenodd" clip-rule="evenodd" d="M28.9452 20.7112L23.3805 30.2519L18.3391 20.1006L24.3029 16.6559L29.2695 20.15L28.9452 20.7112Z" fill="#E1000F"/>
<path d="M34.8696 49.6788L51.4618 40.0451C51.6553 39.9486 51.8004 39.659 51.8004 39.4659V20.7374C51.8004 20.496 51.6553 20.2547 51.4618 20.1581L34.872 10.5525" fill="#000091"/>
<path d="M51.7991 39.4933L51.8005 20.73C51.8005 20.4888 51.6554 20.2477 51.4619 20.1512L34.8721 10.5525" fill="#E1000F"/>
<path fill-rule="evenodd" clip-rule="evenodd" d="M40.3545 19.9514L46.3149 30.1705L51.282 20.047L45.2406 16.5515L40.3545 19.9514Z" fill="#0063CB"/>
<path fill-rule="evenodd" clip-rule="evenodd" d="M41.1596 19.5671C41.5492 19.7623 41.911 20.0132 42.1616 20.4038C42.2729 20.5714 42.4122 20.8783 42.3287 21.1016C42.2171 21.3525 42.1616 21.799 41.911 21.8827C41.605 22.0503 41.1873 22.0503 40.7977 21.9943C40.5752 21.9943 40.3804 21.9387 40.1575 21.8827C40.937 22.1896 41.6885 22.5801 42.2171 23.3059C42.2729 23.4172 42.4677 23.4732 42.6902 23.4732C42.746 23.4732 42.746 23.5848 42.746 23.6405C42.6348 23.7521 42.5235 23.8081 42.579 23.9474H42.746C42.9966 23.8357 42.9689 23.3059 43.3304 23.4732C43.581 23.6405 43.6923 24.0034 43.5533 24.2546C43.3304 24.4776 43.1356 24.6172 42.9131 24.7845C42.8573 24.8961 42.8573 25.0357 42.9131 25.1474C43.0802 25.3706 43.1356 25.5659 43.1633 25.7892C43.3304 26.1517 43.3862 26.5703 43.5256 26.9608C43.7481 27.7422 43.9429 28.5513 43.8871 29.3328C43.8871 29.7513 43.6646 30.1138 43.8316 30.5324C43.9429 30.9509 44.1931 31.2578 44.416 31.6484C44.6385 31.9556 44.8333 32.1785 45.0004 32.4858C45.0683 32.6035 45.1501 32.7211 45.2336 32.8398L45.3171 32.9589C45.5795 33.3371 45.8169 33.728 45.6406 34.1596C45.4735 34.5225 44.9169 34.4669 44.5273 34.6898C44.2212 34.9411 44.4718 35.3876 44.6385 35.6385C44.8891 36.113 44.3325 36.4199 43.9429 36.5872C44.0541 36.7548 44.2489 36.6989 44.3044 36.8105C44.3602 37.0614 44.6108 37.229 44.4718 37.5079C44.4078 37.5958 44.3126 37.672 44.2159 37.7472L44.1434 37.8039C43.9287 37.9736 43.746 38.1515 43.9429 38.4567C44.1654 38.8196 44.0264 39.2377 43.8871 39.6286C43.72 40.1028 43.3027 40.3261 42.9408 40.4101C42.6348 40.5214 42.2448 40.5214 41.9391 40.4657C41.8275 40.4101 41.7162 40.3541 41.6327 40.3541C40.7419 40.2424 39.8514 39.9912 38.961 39.9912C38.7104 40.0472 38.432 40.1028 38.2372 40.1868C37.9866 40.3541 37.7918 40.5494 37.597 40.7446C37.5693 40.8006 37.5135 40.8283 37.4858 40.8843C37.4581 40.9123 37.4303 40.9399 37.4303 40.9679L37.4136 40.9845L37.3909 41.0072C37.3866 41.0115 37.3813 41.0168 37.3745 41.0235C37.2075 41.2192 37.0962 41.4144 36.9572 41.6373C36.9572 41.6653 36.9291 41.6653 36.9291 41.6653C36.9291 41.6933 36.9014 41.7213 36.8737 41.749C36.7062 42.0562 36.5673 42.3908 36.4837 42.7257C36.1218 43.9253 36.2889 44.958 36.5395 45.2093C36.7062 45.3766 38.7108 45.9967 40.4735 46.5733C37.3935 49.1403 34.904 50.4238 33.0051 50.4238C30.3828 50.4238 25.9848 48.6849 19.8109 45.207C21.3053 45.207 21.0926 45.8047 22.4843 45.109C23.1522 44.8308 24.6551 44.1351 25.1563 43.6344C25.4624 43.3282 25.7684 43.0223 26.0468 42.6885C26.6034 42.0484 27.1601 41.464 27.8003 40.9073C27.9951 40.7407 28.1899 40.5735 28.3847 40.4622C28.4405 40.4065 28.4405 40.2953 28.496 40.2396C28.2457 40.3509 28.0783 40.5458 27.8003 40.6571C27.7445 40.6571 27.689 40.6014 27.7445 40.5458C27.9393 40.4065 28.1341 40.2676 28.3012 40.1283H28.2734C28.2176 40.1283 28.2176 40.0727 28.2176 40.017C27.522 39.9058 27.0208 40.3789 26.5476 40.796C26.4364 40.852 26.3251 40.7407 26.2974 40.7407C25.5178 40.9909 24.9334 41.6866 24.1543 41.9928V41.8812C23.8482 41.9928 23.5418 42.1874 23.208 42.243C22.7349 42.3543 22.3172 42.2986 21.8999 42.2986C21.2597 42.3543 20.6195 42.4936 19.9793 42.6328C19.9515 42.6328 19.9515 42.6328 19.9238 42.6605C19.5897 42.7438 19.2559 42.883 18.9495 43.05L18.9217 43.078C18.894 43.1056 18.8659 43.1336 18.8382 43.1612C18.7269 43.2725 18.6157 43.4118 18.4763 43.4674C18.1426 43.6344 17.892 43.9126 17.6136 44.1631C17.5859 44.1908 17.5582 44.1908 17.5301 44.1908C17.2518 44.4693 17.5859 43.6344 17.892 43.4394C17.8642 43.4394 17.8084 43.4118 17.8361 43.3842C17.8642 43.3282 17.892 43.3005 17.9197 43.2449C17.9197 43.2169 17.9197 43.2169 17.9474 43.1892L17.9431 43.1726L17.9243 43.1499C17.9215 43.1457 17.9197 43.1407 17.9197 43.1336C17.8361 43.1892 17.753 43.2449 17.6694 43.3005C17.5301 43.4118 17.5859 42.7718 17.7249 42.6885H17.6972C17.892 42.5768 18.1148 42.4656 18.3096 42.3543L18.3928 42.271C18.0867 42.3823 17.8361 42.5216 17.5582 42.6885C17.5582 42.6885 17.5582 42.4936 17.6417 42.4103C17.6972 42.4103 17.753 42.4103 17.753 42.4656C18.7621 41.688 19.9882 41.4811 21.2259 41.3007L21.5636 41.2518C22.2952 41.1451 23.0242 41.0306 23.7089 40.796C23.8759 40.6847 24.0149 40.5735 24.182 40.4902C24.4326 40.3789 24.6551 40.1283 24.9612 39.9614C25.3788 39.6552 25.6849 39.2657 25.852 38.765C25.852 38.7093 25.7965 38.6537 25.7965 38.6537C25.1005 39.377 24.3213 39.9614 23.4863 40.3789C22.373 40.9633 21.1761 40.852 20.0073 41.0189C20.0628 40.9073 20.1744 40.9073 20.2576 40.9073C20.2576 40.7407 20.3689 40.6847 20.4801 40.6014H20.6476C20.703 40.6014 20.703 40.4902 20.7588 40.4902C20.8701 40.4902 21.0368 40.4345 20.9813 40.4345C20.8143 40.2116 20.5082 40.6014 20.2576 40.4345C20.3689 40.3232 20.3134 40.184 20.4247 40.1283H20.6476C20.6476 40.0171 20.7588 39.9058 20.7588 39.9058C21.538 39.4327 22.2895 39.0712 23.0128 38.6537C22.8461 38.6537 22.7626 38.8206 22.5955 38.7093C22.7071 38.7093 22.5955 38.5424 22.7071 38.5424C23.2915 38.3755 23.7647 38.0693 24.3491 37.8467C24.1265 37.8467 23.9872 38.0137 23.7647 37.8467C23.8759 37.7911 23.9314 37.6798 24.0707 37.6798V37.5129C24.0707 37.4569 24.1265 37.4569 24.182 37.4569C24.1265 37.4569 24.0707 37.4016 24.0707 37.4016C24.1265 37.29 24.2936 37.346 24.3768 37.2347C24.3213 37.2347 24.2101 37.2347 24.2101 37.1787C24.3768 36.9561 24.6274 36.9285 24.9057 36.8729C24.8499 36.7616 24.6832 36.8729 24.6832 36.7616C24.6832 36.7137 24.7237 36.707 24.7706 36.7059H24.6832C24.5716 36.6503 24.6274 36.539 24.6274 36.483C24.9334 36.1215 24.9334 35.6484 25.1005 35.231C25.0447 35.231 24.9893 35.231 24.9893 35.1757C24.4603 35.7597 23.6253 35.9546 22.8461 36.1772H22.4843C22.234 36.2885 21.8441 36.2885 21.5938 36.1215C21.3709 36.0103 21.2874 35.871 21.0649 35.7041C20.6476 35.4539 20.2299 35.231 19.7567 35.0644C18.4486 34.6469 17.085 34.424 15.7211 34.48C16.3055 34.1738 16.9457 34.1458 17.5582 33.9512C18.4486 33.7007 19.2836 33.3668 20.2299 33.4225C20.0628 33.3668 19.868 33.4225 19.7013 33.4225C18.9772 33.3668 18.2261 33.5894 17.4465 33.7287C16.9176 33.8396 16.4445 34.0345 15.9159 34.1458C15.6098 34.2571 15.4428 34.5633 15.0809 34.5076V34.3407C15.6098 33.7007 16.25 33.0886 17.085 33.033C18.0313 32.8657 18.9217 33.033 19.868 33.1443C20.564 33.1999 21.1761 33.3668 21.8718 33.5061C22.1224 33.5061 22.1782 33.9232 22.4007 33.9789C22.7071 34.0902 23.0409 33.9789 23.347 34.2014C23.347 34.0902 23.2915 33.9789 23.347 33.8956C23.5695 33.673 23.8201 33.9512 24.0426 33.8396C24.4603 33.5894 23.6811 33.1163 23.4582 32.7268C23.4582 32.6712 23.5141 32.6155 23.5141 32.6155C23.9314 32.9774 24.2378 33.3948 24.7667 33.673C25.017 33.7843 25.6572 33.9232 25.5456 33.6174C25.2953 33.033 24.7667 32.5599 24.3213 32.0311V31.8086C24.2101 31.8086 24.2101 31.7529 24.1543 31.6973V31.4747C23.9314 31.3634 23.9872 31.1685 23.9037 31.0016C23.7369 30.7514 23.8482 30.3616 23.7369 30.0557C23.6253 29.7495 23.5695 29.4713 23.5141 29.1651C23.347 28.2749 23.1522 27.4956 23.0409 26.633C22.9297 25.6315 23.6253 24.8521 24.0984 23.9619C24.4603 23.3219 24.878 22.7098 25.5736 22.2924C25.7407 21.6523 26.158 21.1236 26.5754 20.6228C26.993 20.1217 27.689 19.7882 28.1899 19.5653C28.8617 19.2555 29.2176 19.146 29.5716 19.0397C29.5737 19.039 29.5791 19.0376 29.5812 19.0365C30.0956 18.8111 36.8495 17.3936 40.1298 19.0365C40.1994 19.0716 40.1856 19.0365 40.4081 19.1762C40.6587 19.3158 40.9648 19.4831 41.1596 19.5671ZM15.6768 34.8282C15.6768 35.0728 15.512 35.2908 15.2652 35.3448C15.6768 35.4537 16.0885 35.4537 16.5004 35.6442C16.4454 35.753 16.3356 35.6986 16.2809 35.6986C16.5278 35.8618 16.8574 35.753 17.1045 35.9436C16.9398 36.1068 16.8027 35.9436 16.6379 35.9436C18.2574 36.4059 19.9593 36.7597 21.3046 37.7936C20.1518 38.365 18.9712 38.6097 17.736 38.8817C17.5712 38.8817 17.4888 38.8817 17.324 38.8273C17.324 38.8817 17.324 38.9905 17.2693 38.9905C17.0495 38.9905 16.9121 38.9905 16.7476 39.0993C16.5551 39.2625 16.2536 39.3173 16.0885 39.1537C16.0338 39.0993 16.2536 39.1537 16.3083 39.0452H15.8967C15.8416 39.0452 15.8416 38.9905 15.8416 38.9364C15.5944 38.9905 15.2652 39.0993 15.018 39.1537C14.6611 39.2625 14.8259 37.4943 15.0731 37.3855C15.018 37.3311 14.9083 37.3311 14.9083 37.2222C14.6888 37.2222 14.6064 36.6779 14.7435 36.6509C14.963 36.5964 15.2102 36.5964 15.375 36.4332C15.018 36.3788 14.9083 35.1002 15.512 34.7735C15.5671 34.7735 15.6768 34.7735 15.6768 34.8282ZM18.0683 39.6339C17.7352 39.9748 17.3189 39.8197 16.9586 39.9748C16.8474 39.9748 16.6532 40.0367 16.7089 39.9128C16.7436 39.7384 16.8973 39.6733 17.0621 39.6185L17.1613 39.5861C17.2272 39.564 17.2913 39.5411 17.3469 39.51C17.4578 39.448 17.5964 39.3241 17.7072 39.3861C17.8181 39.5719 17.957 39.51 18.0683 39.6339ZM16.1793 32.5062C16.1235 32.5062 16.0674 32.5062 16.0112 32.4502C16.0674 32.3943 16.0674 32.3383 16.0674 32.2823C15.5351 32.8698 14.3307 32.6741 15.451 32.1422C15.8713 31.9743 16.4032 32.0303 16.8235 32.1982C16.6554 32.4224 16.4032 32.3661 16.1793 32.5062ZM41.8115 29.0091C41.763 29.0192 41.7141 29.029 41.6659 29.0374C41.4109 29.0374 41.1273 29.2019 40.8719 29.2567C40.5032 29.3664 40.163 29.5585 39.8512 29.7778C40.2196 29.6133 40.5883 29.5585 41.0139 29.476C41.3258 29.4212 41.5812 29.3664 41.9213 29.4212C42.1481 29.476 42.4603 29.476 42.4603 29.5857C42.3469 29.9972 41.7228 30.1068 41.3827 30.5183H41.2124C41.0422 30.628 41.099 30.8746 40.9571 30.8746C40.7868 30.8201 40.6452 30.8746 40.4749 30.9297C40.7017 31.1491 40.9571 31.286 41.2689 31.2312C41.3258 31.2312 41.4392 31.3408 41.4392 31.4505C41.4392 31.4505 41.496 31.4505 41.5526 31.3957C41.6094 31.3957 41.6659 31.3957 41.6659 31.4505V31.6699C41.5641 31.8015 41.4312 31.8148 41.2925 31.8162L41.199 31.8166C41.1371 31.8169 41.0744 31.8197 41.0139 31.8344C41.4392 31.9441 41.8648 31.9441 42.2614 31.8344C42.5737 31.7247 42.2614 31.2039 42.4886 30.957C42.3752 30.957 42.4886 30.7925 42.3752 30.7925C42.4886 30.6828 42.6019 30.5455 42.6871 30.4907C42.8004 30.4907 42.9424 30.4359 42.9993 30.3262C42.9993 30.2165 42.7722 30.1617 42.829 30.0796C43.1409 29.8603 43.4245 29.5585 43.3108 29.2567C43.2543 29.0922 42.829 29.0922 42.5737 28.9825C42.3969 28.9067 42.1796 28.9357 41.959 28.979L41.8115 29.0091Z" fill="white"/>
</svg>
