<svg xmlns="http://www.w3.org/2000/svg" width="156" height="120" viewBox="0 0 156 120">
    <g fill="none" fill-rule="evenodd">
        <g>
            <g>
                <g>
                    <path d="M0 0H156V120H0z" transform="translate(-102 -216) translate(16 216) translate(86)"/>
                    <path fill="#DDE0E3" d="M43.429 117.273c2.862 1.018 10.204 1.899 16.12 2.25 16.159.964 38.736.44 48.307-1.33 9.642-1.785 10.07-4.485-14.44-5.821-20.872-1.14-45.235.484-50.445 2.9-1.398.65-1.321 1.37.458 2.001" transform="translate(-102 -216) translate(16 216) translate(86)"/>
                    <g>
                        <path fill="#DDE0E3" fill-rule="nonzero" d="M28 .108c15.464 0 28 12.578 28 28.093S43.464 56.294 28 56.294c-.425 0-.85-.01-1.272-.028l-.633-.036-.617-.05-.382.271c-3.005 2.08-5.43 2.892-8.144 2.13l-.282-.085-.243-.081c-1.506-.527-2.252-1.846-2.252-3.414 0-.584.169-1.178.44-1.733l.123-.236.036-.065-.197-.105C5.942 48.126.312 39.122.013 29.047l-.01-.465L0 28.2C0 12.686 12.536.108 28 .108zm0 3c-13.667 0-24.776 11.009-24.997 24.658L3 28.181l.002.36c.12 8.946 4.958 17.091 12.617 21.466l.379.212 2.894 1.556-1.527 2.704c-.133.243-.19.435-.19.522 0 .375.048.493.159.55l.044.019.203.068c1.622.517 3.113.162 5.513-1.452l.27-.185 1.27-.897 1.663.133c.565.038 1.133.057 1.703.057 13.805 0 25-11.232 25-25.093C53 14.34 41.805 3.108 28 3.108z" transform="translate(-102 -216) translate(16 216) translate(86) translate(100)"/>
                        <path fill="#7C8086" d="M27.934 35.476c1.94 0 3.515 1.573 3.515 3.515 0 1.94-1.575 3.514-3.515 3.514h-.22c-1.941 0-3.515-1.573-3.515-3.514 0-1.942 1.574-3.515 3.516-3.515zM28 14c1.657 0 3 1.343 3 3v12c0 1.657-1.343 3-3 3s-3-1.343-3-3V17c0-1.657 1.343-3 3-3z" transform="translate(-102 -216) translate(16 216) translate(86) translate(100)"/>
                    </g>
                    <g>
                        <path fill-rule="nonzero" d="M0 0H84V65H0z" transform="translate(-102 -216) translate(16 216) translate(86) translate(36 41)"/>
                        <path fill="#ECEFF1" d="M61.758 65.159H22.242c-12.266 0-22.243-9.99-22.243-22.27C0 37.031 2.252 31.5 6.344 27.314c3.584-3.663 8.227-5.944 13.25-6.537.593-5.03 2.868-9.68 6.53-13.267 4.18-4.099 9.705-6.35 15.555-6.35 5.847 0 11.372 2.251 15.554 6.349 3.645 3.572 5.913 8.197 6.522 13.2C75.087 21.725 84 31.284 84 42.89c0 12.28-9.98 22.269-22.243 22.269h.002z" transform="translate(-102 -216) translate(16 216) translate(86) translate(36 41)"/>
                        <path fill="#7C8086" d="M58.333 53.104c-1.626 0-3.158-.388-4.523-1.061l3.698-5.7c.26.062.528.103.805.103 1.594 0 2.922-1.073 3.345-2.53l6.856-.394c-.301 5.34-4.737 9.582-10.18 9.582zm-6.486-2.313c-2.273-1.865-3.722-4.685-3.722-7.843 0-3.4 1.684-6.402 4.262-8.246l3.317 5.942c-.545.616-.887 1.417-.887 2.305 0 .803.283 1.534.739 2.125l-3.71 5.717zm7.657-7.842c0 .644-.524 1.165-1.172 1.165-.647 0-1.171-.521-1.171-1.165s.524-1.166 1.171-1.166c.648 0 1.172.522 1.172 1.166zm-1.17-10.159c5.04 0 9.216 3.638 10.048 8.415l-6.843.394c-.528-1.26-1.772-2.147-3.226-2.147-.197 0-.386.026-.574.058l-3.319-5.944c1.207-.498 2.527-.776 3.913-.776zm15.753 9.069l-2.555-.317c-.087-.797-.243-1.573-.463-2.321l2.237-1.267c.284-.16.406-.535.28-.84l-.322-.77c-.128-.308-.483-.484-.795-.399l-2.483.679c-.382-.696-.825-1.353-1.322-1.967l1.582-2.022c.2-.257.168-.65-.066-.884l-.593-.59c-.237-.235-.632-.263-.888-.065l-2.032 1.573c-.617-.494-1.278-.935-1.978-1.316l.683-2.469c.086-.314-.094-.664-.4-.791l-.775-.32c-.31-.127-.686-.002-.845.28l-1.272 2.223c-.753-.22-1.532-.375-2.333-.458l-.32-2.544c-.041-.322-.341-.578-.675-.578h-.838c-.334 0-.633.26-.674.578l-.32 2.544c-.8.083-1.58.239-2.333.458l-1.272-2.224c-.16-.284-.538-.405-.844-.278l-.775.319c-.31.127-.486.48-.401.791l.682 2.47c-.698.38-1.36.821-1.976 1.315l-2.033-1.573c-.258-.2-.653-.169-.888.066l-.593.59c-.236.235-.265.628-.065.883l1.582 2.022c-.497.614-.942 1.27-1.323 1.967l-2.482-.679c-.316-.086-.668.093-.795.398l-.321.77c-.129.308-.003.683.279.841l2.236 1.267c-.22.748-.377 1.524-.462 2.321l-2.555.317c-.324.042-.581.34-.581.672v.833c0 .333.26.63.581.671l2.555.318c.085.796.241 1.573.462 2.322l-2.236 1.265c-.285.16-.407.536-.28.84l.322.77c.127.31.482.485.795.4l2.482-.679c.381.695.826 1.354 1.323 1.966l-1.582 2.024c-.202.256-.17.648.065.883l.593.59c.238.234.632.263.888.064L50 53.225c.616.494 1.278.935 1.976 1.316l-.682 2.469c-.087.314.093.665.401.791l.775.32c.308.127.686.002.845-.278l1.271-2.225c.753.22 1.533.375 2.333.46l.32 2.542c.041.322.342.578.674.578h.838c.335 0 .635-.26.674-.578l.321-2.542c.8-.085 1.58-.24 2.333-.46l1.272 2.225c.161.283.538.405.845.277l.775-.319c.309-.126.486-.48.4-.791l-.683-2.47c.7-.38 1.36-.821 1.978-1.315l2.032 1.573c.258.201.652.169.888-.065l.593-.59c.236-.236.264-.628.066-.882l-1.582-2.024c.497-.612.94-1.27 1.322-1.966l2.483.68c.316.085.667-.094.795-.4l.321-.77c.129-.307.001-.682-.279-.841l-2.237-1.265c.22-.749.376-1.526.463-2.322l2.555-.318c.324-.04.58-.34.58-.67v-.834c0-.333-.26-.632-.58-.672z" transform="translate(-102 -216) translate(16 216) translate(86) translate(36 41)"/>
                        <path fill="#7C8086" d="M33.833 37.142c-1.108 0-2.153-.263-3.085-.72l2.106-2.915c.314.092.64.157.982.157 1.672 0 3.066-1.168 3.413-2.727l3.567-.42c-.18 3.688-3.232 6.625-6.983 6.625zm-4.98-2.07c-1.248-1.258-2.02-2.986-2.02-4.894 0-2.282 1.108-4.3 2.812-5.57l1.648 3.194c-.589.623-.956 1.457-.956 2.38 0 .735.23 1.414.621 1.975l-2.104 2.914zm6.15-4.89c0 .641-.522 1.16-1.167 1.16-.644 0-1.166-.519-1.166-1.16 0-.64.522-1.16 1.166-1.16.645 0 1.167.52 1.167 1.16zm-1.17-6.968c3.18 0 5.859 2.11 6.712 4.998l-3.587.423c-.575-1.143-1.75-1.935-3.122-1.935-.158 0-.311.026-.465.046l-1.655-3.206c.668-.211 1.379-.326 2.117-.326zm11.072 6.165l-1.646-.204c-.06-.57-.172-1.123-.33-1.658l1.44-.816c.289-.162.42-.538.295-.84l-.105-.25c-.13-.311-.485-.474-.805-.387l-1.598.438c-.273-.497-.59-.967-.945-1.404l1.02-1.303c.202-.26.179-.657-.052-.888l-.192-.192c-.24-.239-.632-.253-.892-.05l-1.311 1.012c-.44-.353-.912-.668-1.41-.94l.439-1.589c.087-.319-.088-.676-.39-.802l-.25-.103c-.314-.129-.681.006-.845.293l-.82 1.433c-.537-.156-1.094-.268-1.666-.328l-.206-1.638c-.04-.327-.34-.592-.667-.592h-.272c-.339 0-.626.266-.668.592l-.205 1.638c-.572.06-1.129.172-1.666.328l-.82-1.433c-.163-.287-.541-.417-.844-.293l-.252.103c-.313.13-.476.484-.388.802l.44 1.59c-.5.27-.972.586-1.413.939l-1.31-1.013c-.26-.202-.66-.178-.891.051l-.193.192c-.24.239-.254.627-.05.888l1.017 1.303c-.354.437-.67.907-.944 1.404l-1.598-.438c-.32-.087-.68.086-.806.388l-.103.25c-.13.311.005.677.293.84l1.442.815c-.159.535-.27 1.088-.33 1.658l-1.647.204c-.329.041-.594.338-.594.664v.27c0 .338.267.624.594.665l1.647.205c.06.57.171 1.124.33 1.657l-1.442.816c-.288.162-.42.538-.293.84l.103.25c.131.311.487.474.806.387l1.598-.438c.274.497.59.967.944 1.405l-1.018 1.303c-.203.26-.18.657.051.886l.193.192c.24.239.63.254.892.052l1.31-1.014c.44.354.912.668 1.411.94l-.44 1.59c-.087.318.087.676.389.8l.252.104c.314.129.68-.006.844-.293l.82-1.432c.537.158 1.094.268 1.666.328l.205 1.638c.042.327.34.592.668.592h.272c.34 0 .626-.266.667-.592l.206-1.638c.572-.06 1.13-.17 1.667-.328l.82 1.432c.163.288.54.42.844.293l.25-.103c.314-.13.477-.483.39-.8l-.44-1.59c.5-.273.971-.587 1.411-.941l1.31 1.014c.262.202.66.18.893-.052l.192-.192c.24-.238.254-.627.051-.886L41.211 36.1c.356-.438.672-.908.945-1.405l1.598.438c.32.087.68-.087.805-.388l.105-.25c.128-.311-.007-.677-.295-.84l-1.44-.815c.158-.533.27-1.088.33-1.657l1.646-.205c.329-.041.595-.338.595-.664v-.27c0-.338-.267-.625-.595-.665z" transform="translate(-102 -216) translate(16 216) translate(86) translate(36 41)"/>
                    </g>
                </g>
            </g>
        </g>
    </g>
</svg>
