<svg xmlns="http://www.w3.org/2000/svg" width="156" height="120"><g fill="none" fill-rule="evenodd"><path d="M0 0h156v120H0z"/><path fill="#DDE0E3" d="M43.429 117.273c2.862 1.018 10.204 1.899 16.12 2.25 16.159.964 38.736.44 48.307-1.33 9.642-1.785 10.07-4.485-14.44-5.821-20.872-1.14-45.235.484-50.445 2.9-1.398.65-1.321 1.37.458 2.001"/><path fill="#DDE0E3" fill-rule="nonzero" d="M128 .108c15.464 0 28 12.578 28 28.093s-12.536 28.093-28 28.093c-.425 0-.85-.01-1.272-.028l-.633-.036-.617-.05-.382.271c-3.005 2.08-5.43 2.892-8.144 2.13l-.282-.085-.243-.081c-1.506-.527-2.252-1.846-2.252-3.414 0-.584.169-1.178.44-1.733l.123-.236.036-.065-.197-.105a28.1 28.1 0 0 1-14.564-23.815l-.01-.465L100 28.2C100 12.686 112.536.108 128 .108zm0 3c-13.667 0-24.776 11.009-24.997 24.658l-.003.415.002.36c.12 8.946 4.958 17.091 12.617 21.466l.379.212 2.894 1.556-1.527 2.704c-.133.243-.19.435-.19.522 0 .375.048.493.159.55l.044.019.203.068c1.622.517 3.113.162 5.513-1.452l.27-.185 1.27-.897 1.663.133c.565.038 1.133.057 1.703.057 13.805 0 25-11.232 25-25.093S141.805 3.108 128 3.108z"/><path fill="#7C8086" d="M127.934 35.476a3.515 3.515 0 0 1 0 7.029h-.22a3.515 3.515 0 1 1 .001-7.029zM128 14a3 3 0 0 1 3 3v12a3 3 0 1 1-6 0V17a3 3 0 0 1 3-3z"/><g><path d="M36 41h84v65H36z"/><path fill="#ECEFF1" d="M97.758 106.159H58.242c-12.266 0-22.243-9.99-22.243-22.27a22.161 22.161 0 0 1 6.345-15.575c3.584-3.663 8.227-5.944 13.25-6.537a22.13 22.13 0 0 1 6.53-13.267 22.089 22.089 0 0 1 15.555-6.35 22.098 22.098 0 0 1 15.554 6.349 22.162 22.162 0 0 1 6.522 13.2C111.087 62.725 120 72.284 120 83.89c0 12.28-9.98 22.269-22.243 22.269h.002z"/><path fill="#7C8086" d="M94.333 94.104c-1.626 0-3.158-.388-4.523-1.061l3.698-5.7c.26.062.528.103.805.103 1.594 0 2.922-1.073 3.345-2.53l6.856-.394c-.301 5.34-4.737 9.582-10.18 9.582zm-6.486-2.313a10.12 10.12 0 0 1-3.722-7.843c0-3.4 1.684-6.402 4.262-8.246l3.317 5.942a3.466 3.466 0 0 0-.887 2.305c0 .803.283 1.534.739 2.125l-3.71 5.717zm7.657-7.842c0 .644-.524 1.165-1.172 1.165-.647 0-1.171-.521-1.171-1.165s.524-1.166 1.171-1.166c.648 0 1.172.522 1.172 1.166zm-1.17-10.159c5.04 0 9.216 3.638 10.048 8.415l-6.843.394a3.497 3.497 0 0 0-3.226-2.147c-.197 0-.386.026-.574.058l-3.319-5.944a10.233 10.233 0 0 1 3.913-.776zm15.753 9.069-2.555-.317a13.36 13.36 0 0 0-.463-2.321l2.237-1.267a.683.683 0 0 0 .28-.84l-.322-.77a.69.69 0 0 0-.795-.399l-2.483.679a13.287 13.287 0 0 0-1.322-1.967l1.582-2.022a.684.684 0 0 0-.066-.884l-.593-.59a.691.691 0 0 0-.888-.065l-2.032 1.573a13.46 13.46 0 0 0-1.978-1.316l.683-2.469a.685.685 0 0 0-.4-.791l-.775-.32a.688.688 0 0 0-.845.28l-1.272 2.223a13.14 13.14 0 0 0-2.333-.458l-.32-2.544a.686.686 0 0 0-.675-.578h-.838a.69.69 0 0 0-.674.578l-.32 2.544c-.8.083-1.58.239-2.333.458l-1.272-2.224a.685.685 0 0 0-.844-.278l-.775.319a.684.684 0 0 0-.401.791l.682 2.47c-.698.38-1.36.821-1.976 1.315l-2.033-1.573a.689.689 0 0 0-.888.066l-.593.59a.68.68 0 0 0-.065.883l1.582 2.022c-.497.614-.942 1.27-1.323 1.967l-2.482-.679a.688.688 0 0 0-.795.398l-.321.77a.68.68 0 0 0 .279.841l2.236 1.267c-.22.748-.377 1.524-.462 2.321l-2.555.317a.687.687 0 0 0-.581.672v.833c0 .333.26.63.581.671l2.555.318c.085.796.241 1.573.462 2.322l-2.236 1.265a.68.68 0 0 0-.28.84l.322.77c.127.31.482.485.795.4l2.482-.679c.381.695.826 1.354 1.323 1.966l-1.582 2.024a.68.68 0 0 0 .065.883l.593.59a.691.691 0 0 0 .888.064L86 94.225c.616.494 1.278.935 1.976 1.316l-.682 2.469a.681.681 0 0 0 .401.791l.775.32a.69.69 0 0 0 .845-.278l1.271-2.225c.753.22 1.533.375 2.333.46l.32 2.542a.687.687 0 0 0 .674.578h.838c.335 0 .635-.26.674-.578l.321-2.542c.8-.085 1.58-.24 2.333-.46l1.272 2.225a.686.686 0 0 0 .845.277l.775-.319a.682.682 0 0 0 .4-.791l-.683-2.47c.7-.38 1.36-.821 1.978-1.315l2.032 1.573a.688.688 0 0 0 .888-.065l.593-.59a.682.682 0 0 0 .066-.882l-1.582-2.024c.497-.612.94-1.27 1.322-1.966l2.483.68a.69.69 0 0 0 .795-.4l.321-.77a.683.683 0 0 0-.279-.841l-2.237-1.265c.22-.749.376-1.526.463-2.322l2.555-.318c.324-.04.58-.34.58-.67v-.834a.687.687 0 0 0-.58-.672z"/><path fill="#7C8086" d="M69.833 78.142a6.986 6.986 0 0 1-3.085-.72l2.106-2.915c.314.092.64.157.982.157a3.494 3.494 0 0 0 3.413-2.727l3.567-.42c-.18 3.688-3.232 6.625-6.983 6.625zm-4.98-2.07a6.927 6.927 0 0 1 .792-10.464l1.648 3.194a3.453 3.453 0 0 0-.956 2.38c0 .735.23 1.414.621 1.975l-2.104 2.914zm6.15-4.89c0 .641-.522 1.16-1.167 1.16a1.163 1.163 0 0 1-1.166-1.16c0-.64.522-1.16 1.166-1.16.645 0 1.167.52 1.167 1.16zm-1.17-6.968c3.18 0 5.859 2.11 6.712 4.998l-3.587.423a3.492 3.492 0 0 0-3.122-1.935c-.158 0-.311.026-.465.046l-1.655-3.206a7.017 7.017 0 0 1 2.117-.326zm11.072 6.165-1.646-.204a9.272 9.272 0 0 0-.33-1.658l1.44-.816a.687.687 0 0 0 .295-.84l-.105-.25a.686.686 0 0 0-.805-.387l-1.598.438a9.423 9.423 0 0 0-.945-1.404l1.02-1.303a.69.69 0 0 0-.052-.888l-.192-.192a.684.684 0 0 0-.892-.05l-1.311 1.012a9.632 9.632 0 0 0-1.41-.94l.439-1.589a.692.692 0 0 0-.39-.802l-.25-.103a.686.686 0 0 0-.845.293l-.82 1.433a9.538 9.538 0 0 0-1.666-.328l-.206-1.638a.69.69 0 0 0-.667-.592h-.272a.685.685 0 0 0-.668.592l-.205 1.638a9.538 9.538 0 0 0-1.666.328l-.82-1.433a.694.694 0 0 0-.844-.293l-.252.103a.68.68 0 0 0-.388.802l.44 1.59c-.5.27-.972.586-1.413.939l-1.31-1.013a.696.696 0 0 0-.891.051l-.193.192a.677.677 0 0 0-.05.888l1.017 1.303c-.354.437-.67.907-.944 1.404l-1.598-.438a.695.695 0 0 0-.806.388l-.103.25a.678.678 0 0 0 .293.84l1.442.815a9.185 9.185 0 0 0-.33 1.658l-1.647.204a.69.69 0 0 0-.594.664v.27c0 .338.267.624.594.665l1.647.205c.06.57.171 1.124.33 1.657l-1.442.816a.684.684 0 0 0-.293.84l.103.25a.688.688 0 0 0 .806.387l1.598-.438c.274.497.59.967.944 1.405l-1.018 1.303a.685.685 0 0 0 .051.886l.193.192c.24.239.63.254.892.052l1.31-1.014c.44.354.912.668 1.411.94l-.44 1.59a.688.688 0 0 0 .389.8l.252.104a.685.685 0 0 0 .844-.293l.82-1.432a9.357 9.357 0 0 0 1.666.328l.205 1.638c.042.327.34.592.668.592h.272c.34 0 .626-.266.667-.592l.206-1.638c.572-.06 1.13-.17 1.667-.328l.82 1.432a.69.69 0 0 0 .844.293l.25-.103a.68.68 0 0 0 .39-.8l-.44-1.59c.5-.273.971-.587 1.411-.941l1.31 1.014c.262.202.66.18.893-.052l.192-.192a.675.675 0 0 0 .051-.886L77.211 77.1c.356-.438.672-.908.945-1.405l1.598.438c.32.087.68-.087.805-.388l.105-.25a.681.681 0 0 0-.295-.84l-1.44-.815c.158-.533.27-1.088.33-1.657l1.646-.205a.69.69 0 0 0 .595-.664v-.27a.682.682 0 0 0-.595-.665z"/></g></g></svg>