<svg width="64" height="64" viewBox="0 0 64 64" fill="none" xmlns="http://www.w3.org/2000/svg">
<g clip-path="url(#clip0_2931_59704)">
<path d="M48.9154 34.6666C40.8274 34.6666 34.2487 41.2452 34.2487 49.3332C34.2487 57.4212 40.8274 64 48.9154 64C57.0034 64 63.582 57.4214 63.582 49.3334C63.582 41.2454 57.0034 34.6666 48.9154 34.6666ZM55.1926 55.608C55.0689 55.7323 54.9218 55.831 54.7598 55.8983C54.5978 55.9655 54.424 56.0001 54.2486 56C53.8949 56 53.5555 55.86 53.3046 55.6106L48.9152 51.2212L44.5259 55.6106C44.2749 55.8599 43.9356 55.9998 43.5819 55.9998C43.2282 55.9998 42.8888 55.8599 42.6379 55.6106C42.1179 55.0906 42.1179 54.2453 42.6379 53.7253L47.0272 49.3359L42.6379 44.9465C42.1179 44.4265 42.1179 43.5811 42.6379 43.0611C43.1579 42.5411 44.0033 42.5411 44.5233 43.0611L48.9126 47.4505L53.302 43.0611C53.822 42.5411 54.6674 42.5411 55.1874 43.0611C55.7074 43.5811 55.7074 44.4265 55.1874 44.9465L50.8008 49.3331L55.1927 53.7225C55.7126 54.2426 55.7126 55.088 55.1926 55.608Z" fill="#E0EDFF"/>
<path d="M59.7767 20.4054L53.926 10.288C53.2914 9.12 51.91 8.50938 50.47 9.04263L43.8594 11.6986C42.6034 10.7946 41.2834 10.0266 39.918 9.41063L38.9127 2.4C38.742 1.032 37.5554 0 36.1527 0H24.4193C23.0167 0 21.8299 1.032 21.6619 2.376L20.6539 9.41063C19.3313 10.0106 18.0325 10.768 16.7205 11.7013L10.0914 9.03738C8.81679 8.54675 7.29404 9.09875 6.66204 10.2587L0.800662 20.3946C0.0966622 21.5893 0.387287 23.1386 1.48066 24.0026L7.08329 28.3813C6.99529 29.2266 6.95266 29.9652 6.95266 30.6666C6.95266 31.368 6.99529 32.1066 7.08066 32.952L1.47529 37.3334C0.405912 38.1787 0.112662 39.6774 0.795287 40.9254L6.64591 51.0454C7.28329 52.2108 8.65929 52.8214 10.1045 52.288L16.7152 49.632C17.9712 50.536 19.2912 51.304 20.6565 51.92L21.6619 58.9306C21.8299 60.3013 23.0165 61.3332 24.4193 61.3332H33.6087C34.1073 61.3332 34.5607 61.0559 34.79 60.6159C34.9024 60.3999 34.9535 60.1573 34.938 59.9143C34.9225 59.6713 34.8409 59.4372 34.702 59.2373C32.6594 56.3146 31.582 52.8906 31.582 49.3332C31.582 47.6746 31.8247 46.0133 32.3047 44.3946C32.3654 44.1898 32.376 43.9734 32.3356 43.7637C32.2952 43.5539 32.205 43.3569 32.0727 43.1893C31.8033 42.8479 31.39 42.6693 30.9553 42.6826C30.8113 42.6906 30.6699 42.7092 30.3073 42.7546C23.6753 42.7546 18.2807 37.36 18.2807 30.728C18.2807 24.096 23.6753 18.6986 30.3073 18.6986C36.9393 18.6986 42.3339 24.0933 42.3099 30.9466C42.2913 31.088 42.2725 31.2292 42.2645 31.3732C42.2537 31.5864 42.2941 31.7991 42.3822 31.9934C42.4703 32.1878 42.6037 32.3583 42.7712 32.4906C43.1125 32.76 43.5605 32.84 43.9765 32.7226C46.5685 31.9493 49.1259 31.7653 52.0245 32.2906C52.3765 32.3546 52.7685 32.1946 53.0672 31.9732C53.3632 31.7519 53.5605 31.3412 53.6005 30.9732C53.6059 30.9252 53.6192 30.7092 53.6192 30.6612C53.6192 29.8319 53.5605 29.0506 53.4912 28.3759L59.094 24C60.1634 23.1574 60.4594 21.6586 59.7767 20.4054Z" fill="#CFDDEE"/>
</g>
<defs>
<clipPath id="clip0_2931_59704">
<rect width="64" height="64" fill="white"/>
</clipPath>
</defs>
</svg>
