<svg xmlns="http://www.w3.org/2000/svg" width="32" height="32" viewBox="0 0 32 32">
    <g fill="none" fill-rule="evenodd">
        <g>
            <path fill="#B2D3FF" d="M8.889 27.892c-4.91 0-8.889-3.98-8.889-8.889 0-4.353 3.129-7.975 7.26-8.74.765-4.13 4.387-7.26 8.74-7.26 4.353 0 7.975 3.13 8.74 7.26 4.131.765 7.26 4.387 7.26 8.74 0 4.822-3.839 8.747-8.627 8.885l-.262.004H8.89z"/>
            <path fill="#297EF1" d="M22.052 19.17c.44.217.621.75.405 1.19-1.201 2.435-3.707 4.032-6.457 4.032-2.103 0-4.04-.962-5.373-2.471-.091.394-.427.693-.85.693-.49 0-.888-.398-.888-.889V18.17c0-.056.014-.106.023-.158.005-.024.004-.048.01-.071.028-.106.072-.201.132-.285l.022-.024c.056-.073.124-.134.198-.186.022-.016.044-.03.068-.043.184-.104.399-.142.613-.098.024.005.047.012.07.018.077.022.149.057.22.102.024.015.048.026.071.043.01.008.021.011.031.02l2.667 2.221c.377.314.427.875.113 1.252-.166.2-.4.301-.64.313.96.832 2.198 1.34 3.513 1.34 2.065 0 3.958-1.206 4.862-3.04.217-.44.75-.621 1.19-.404zm1.031-2.589c-.003.018-.002.036-.007.053-.03.105-.077.198-.138.28-.011.016-.024.026-.035.039-.055.067-.12.124-.19.171-.023.016-.043.03-.067.043-.092.05-.191.087-.295.103-.003 0-.005.002-.007.003-.008 0-.015-.003-.023-.002-.096.012-.194.004-.292-.018-.024-.005-.046-.01-.07-.018-.077-.024-.153-.062-.225-.11-.02-.014-.042-.023-.06-.038-.007-.005-.015-.006-.02-.012l-2.668-2.223c-.376-.313-.428-.874-.113-1.251.183-.22.449-.314.713-.305-.96-.838-2.22-1.348-3.586-1.348-2.103 0-4.007 1.213-4.89 3.06-.21.444-.741.631-1.184.42-.443-.211-.631-.742-.42-1.184C10.682 11.78 13.21 10.17 16 10.17c2.127 0 4.061.93 5.385 2.412.11-.364.436-.634.837-.634.49 0 .889.398.889.888v3.556c0 .068-.014.128-.028.19z"/>
        </g>
    </g>
</svg>
