<svg xmlns="http://www.w3.org/2000/svg" width="48" height="48"><g fill="none" fill-rule="evenodd"><path fill="#BFC3C7" d="m25.342 24.67 20.87 10.436a1 1 0 0 1 0 1.788L25.341 47.33a3 3 0 0 1-2.684 0L1.788 36.894a1 1 0 0 1 0-1.788l20.87-10.435a3 3 0 0 1 2.684 0z"/><path fill="#B2D3FF" d="m25.342 12.67 20.87 10.436a1 1 0 0 1 0 1.788L25.341 35.33a3 3 0 0 1-2.684 0L1.788 24.894a1 1 0 0 1 0-1.788l20.87-10.435a3 3 0 0 1 2.684 0z"/><path fill="#197BFF" d="m25.342.67 20.87 10.436a1 1 0 0 1 0 1.788L25.341 23.33a3 3 0 0 1-2.684 0L1.788 12.894a1 1 0 0 1 0-1.788L22.659.67a3 3 0 0 1 2.684 0z"/></g></svg>