<svg xmlns="http://www.w3.org/2000/svg" width="48" height="48" viewBox="0 0 48 48">
  <g fill="none" fill-rule="evenodd" transform="translate(3)">
    <path fill="#FF9300" fill-rule="nonzero" d="M0,9 C0,38.1783299 11.3111613,43.2993389 20.9966797,48 C30.6822566,43.2993389 42,38.1783299 42,9 L20.9977919,0 L0,9 Z"/>
    <path fill="#FFD799" d="M19.5,25.2439414 L19.5,30.5 C19.5,31.0522847 19.9477153,31.5 20.5,31.5 L21.5,31.5 C22.0522847,31.5 22.5,31.0522847 22.5,30.5 L22.5,25.2439414 C24.2477886,24.6261868 25.5,22.9593282 25.5,21 C25.5,18.5147186 23.4852814,16.5 21,16.5 C18.5147186,16.5 16.5,18.5147186 16.5,21 C16.5,22.9593282 17.7522114,24.6261868 19.5,25.2439414 Z M21,37.5 C12.7157288,37.5 6,30.7842712 6,22.5 C6,14.2157288 12.7157288,7.5 21,7.5 C29.2842712,7.5 36,14.2157288 36,22.5 C36,30.7842712 29.2842712,37.5 21,37.5 Z"/>
  </g>
</svg>
