<?xml version="1.0" encoding="UTF-8"?>
<svg width="16px" height="16px" viewBox="0 0 16 16" version="1.1" xmlns="http://www.w3.org/2000/svg" xmlns:xlink="http://www.w3.org/1999/xlink">
    <title>icons/16/icon-location</title>
    <g id="icons/16/icon-location" stroke="none" stroke-width="1" fill="none" fill-rule="evenodd">
        <path d="M8,0 C11.9907368,0 15,2.866 15,6.66666667 C15,11.4493333 8.49221053,15.756 8.21589474,15.9373333 C8.15105263,15.9793333 8.07515789,16 8,16 C7.92410526,16 7.84821053,15.9793333 7.78410526,15.9373333 C7.50705263,15.756 1,11.4493333 1,6.66666667 C1,2.866 4.00926316,0 8,0 Z M8,9 C9.38071194,9 10.5,7.88071194 10.5,6.5 C10.5,5.11928806 9.38071194,4 8,4 C6.61928806,4 5.5,5.11928806 5.5,6.5 C5.5,7.88071194 6.61928806,9 8,9 Z" id="Shape" fill="#000000"></path>
    </g>
</svg>