<svg xmlns="http://www.w3.org/2000/svg" width="48" height="48" viewBox="0 0 48 48" xmlns:xlink="http://www.w3.org/1999/xlink">
  <defs>
    <path id="a" d="M46,23 C46,35.704 35.702,46 23,46 C10.296,46 0,35.704 0,23 C0,10.3 10.296,0 23,0 C35.702,0 46,10.3 46,23 L46,23 Z"/>
  </defs>
  <g fill="none" fill-rule="evenodd" transform="translate(-96 -576)">
    <g transform="translate(97 577)">
      <mask id="b" fill="white">
        <use xlink:href="#a"/>
      </mask>
      <use fill="#C2F0D1" xlink:href="#a"/>
      <path fill="#35CE68" d="M9,25 C12.3137085,25 15,27.6862915 15,31 L15,47 L3,47 L3,31 L3,31 C3,27.6862915 5.6862915,25 9,25 Z M9,23 C5.6862915,23 3,20.3137085 3,17 C3,13.6862915 5.6862915,11 9,11 C12.3137085,11 15,13.6862915 15,17 C15,20.3137085 12.3137085,23 9,23 Z M37,23 C33.6862915,23 31,20.3137085 31,17 C31,13.6862915 33.6862915,11 37,11 C40.3137085,11 43,13.6862915 43,17 C43,20.3137085 40.3137085,23 37,23 Z M23,31 C19.6862915,31 17,28.3137085 17,25 C17,21.6862915 19.6862915,19 23,19 C26.3137085,19 29,21.6862915 29,25 C29,28.3137085 26.3137085,31 23,31 Z M37,25 C40.3137085,25 43,27.6862915 43,31 L43,47 L31,47 L31,31 L31,31 C31,27.6862915 33.6862915,25 37,25 Z M23,33 C26.3137085,33 29,35.6862915 29,39 L29,47 L17,47 L17,39 C17,35.6862915 19.6862915,33 23,33 Z" mask="url(#b)"/>
    </g>
  </g>
</svg>
