<svg xmlns="http://www.w3.org/2000/svg" width="48" height="48"><g fill="none" fill-rule="evenodd"><path fill="#CEBEF7" d="M24 41c8.837 0 16-4.925 16-11v-5H8v5c0 6.075 7.163 11 16 11z"/><path fill="#855CEA" d="M8 25.605v8.538c-.212.054-.42.128-.618.214l-.058.032c-.17.078-.336.168-.492.268-.046.03-.086.064-.13.096a4.036 4.036 0 0 0-.36.28c-.052.046-.098.094-.146.144-.096.094-.19.19-.276.294a4.476 4.476 0 0 0-.348.494 3.816 3.816 0 0 0-.272.55c-.034.084-.068.166-.096.25a3.95 3.95 0 0 0-.098.374c-.018.076-.038.15-.052.228a4.124 4.124 0 0 0-.054.632c0 .828.252 1.598.684 2.236.288.426.656.794 1.082 1.082A3.972 3.972 0 0 0 9 41.999a3.979 3.979 0 0 0 3.316-1.764A3.975 3.975 0 0 0 13 37.999c0-.158-.022-.31-.04-.462a3.972 3.972 0 0 0-2.36-3.188l-.6-.262v-7.438l14 7.305L47.466 21.71a.998.998 0 0 0 0-1.768L24.462 7.94c-.29-.15-.634-.15-.924 0L.534 19.942a1 1 0 0 0 0 1.768L8 25.605z"/></g></svg>