<svg xmlns="http://www.w3.org/2000/svg" width="48" height="48" viewBox="0 0 48 48">
  <g fill="none" fill-rule="evenodd" transform="translate(-480 -192)">
    <g transform="translate(487 193)">
      <path fill="#C2F0D1" d="M1.9999204,46 C0.895394863,46 0,45.1017583 0,43.9938589 L0,2.0061411 C0,0.898179965 0.889673948,0 1.991155,0 L22,0 L34,12 L34,44.0000796 C34,45.1046051 33.1080589,46 32.0000796,46 L1.9999204,46 Z"/>
      <path fill="#35CE68" d="M22,0 L22,9.9914698 C22,11.1007504 22.9019504,12 24.0085302,12 L34,12 L22,0 Z"/>
      <polygon stroke="#35CE68" stroke-width="2" points="28 40 6 40 6 16 28 16" stroke-linecap="round" stroke-linejoin="round"/>
      <path stroke="#35CE68" stroke-width="2" d="M6 21L28 21M6 27L28 27M6 33L28 33M13 16L13 40" stroke-linecap="round" stroke-linejoin="round"/>
    </g>
  </g>
</svg>
