<svg xmlns="http://www.w3.org/2000/svg" width="48" height="48" viewBox="0 0 48 48">
  <g fill="none" fill-rule="evenodd" transform="translate(-288 -384)">
    <g transform="translate(288 391)">
      <path fill="#CEBEF7" d="M24,34 C32.836556,34 40,29.0751322 40,23 L40,18 L8,18 C8,18 8,16.9248678 8,23 C8,29.0751322 15.163444,34 24,34 Z"/>
      <path fill="#855CEA" d="M7.9998,18.6050679 L7.9998,27.087 L7.9998,27.143 C7.7878,27.197 7.5798,27.271 7.3818,27.357 C7.3618,27.367 7.3438,27.379 7.3238,27.389 C7.1538,27.467 6.9878,27.557 6.8318,27.657 C6.7858,27.687 6.7458,27.721 6.7018,27.753 C6.5778,27.841 6.4558,27.931 6.3418,28.033 C6.2898,28.079 6.2438,28.127 6.1958,28.177 C6.0998,28.271 6.0058,28.367 5.9198,28.471 C5.8698,28.533 5.8218,28.597 5.7758,28.661 C5.7038,28.759 5.6358,28.861 5.5718,28.965 C5.5278,29.041 5.4838,29.117 5.4438,29.195 C5.3898,29.299 5.3438,29.407 5.2998,29.515 C5.2658,29.599 5.2318,29.681 5.2038,29.765 C5.1638,29.887 5.1338,30.013 5.1058,30.139 C5.0878,30.215 5.0678,30.289 5.0538,30.367 C5.0218,30.573 4.9998,30.785 4.9998,30.999 C4.9998,31.827 5.2518,32.597 5.6838,33.235 C5.9718,33.661 6.3398,34.029 6.7658,34.317 C7.4038,34.749 8.1738,34.999 8.9998,34.999 C9.8278,34.999 10.5958,34.749 11.2358,34.317 C11.6598,34.029 12.0278,33.661 12.3158,33.235 C12.7478,32.597 12.9998,31.827 12.9998,30.999 C12.9998,30.841 12.9778,30.689 12.9598,30.537 C12.8018,29.147 11.9138,27.923 10.5998,27.349 L9.9998,27.087 L9.9998,19.6486203 L24.0004,26.9538 L47.4664,14.7098 C47.7944,14.5378 48.0004,14.1978 48.0004,13.8258 C48.0004,13.4538 47.7944,13.1158 47.4664,12.9418 L24.4624,0.9398 C24.1724,0.7898 23.8284,0.7898 23.5384,0.9398 L0.5344,12.9418 C0.2064,13.1158 0.0004,13.4538 0.0004,13.8258 C0.0004,14.1978 0.2064,14.5378 0.5344,14.7098 L7.9998,18.6050679 Z"/>
    </g>
  </g>
</svg>
