<svg xmlns="http://www.w3.org/2000/svg" width="52" height="52"><path fill="#FFF" fill-rule="evenodd" d="M38.231 44H13.769C6.175 44 0 37.756 0 30.08c0-3.66 1.394-7.117 3.927-9.733 2.219-2.29 5.093-3.715 8.203-4.086a13.887 13.887 0 0 1 4.042-8.292A13.608 13.608 0 0 1 25.801 4c3.62 0 7.04 1.407 9.629 3.968a13.897 13.897 0 0 1 4.038 8.25C46.482 16.853 52 22.828 52 30.082 52 37.756 45.82 44 38.23 44h.001zm-.163-3.001h.104c5.97 0 10.828-4.91 10.828-10.947 0-6.035-4.857-10.946-10.828-10.946h-.11a1.442 1.442 0 0 1-1.435-1.417C36.492 11.794 31.637 7 25.803 7c-5.835 0-10.692 4.796-10.826 10.69a1.445 1.445 0 0 1-1.403 1.42C7.744 19.244 3 24.153 3 30.052 3 36.09 7.857 41 13.828 41h.088l.035-.002c.03 0 .062 0 .093.002h24.021l.003-.001zm-4.302-11.776c-.875-.585-.918-1.659-.92-1.706A.52.52 0 0 0 32.32 27a.523.523 0 0 0-.506.536c.002.039.016.543.251 1.137a7.99 7.99 0 0 1-11.138.019 3.554 3.554 0 0 0 .257-1.155.523.523 0 0 0-.503-.536.526.526 0 0 0-.528.515c0 .043-.042 1.121-.92 1.706a.536.536 0 0 0-.15.731.51.51 0 0 0 .714.154 2.82 2.82 0 0 0 .572-.505 9.006 9.006 0 0 0 12.251-.01c.16.184.35.36.582.515a.503.503 0 0 0 .281.085.516.516 0 0 0 .432-.24.537.537 0 0 0-.15-.731v.002z"/></svg>