<svg xmlns="http://www.w3.org/2000/svg" width="48" height="48" viewBox="0 0 48 48">
  <g fill="none" fill-rule="evenodd">
    <rect width="46" height="40" y="4" fill="#FFE2A1"/>
    <path fill="#FF9126" d="M38,18 L46,18 C47.1045695,18 48,18.8954305 48,20 L48,28 C48,29.1045695 47.1045695,30 46,30 L38,30 C34.6862915,30 32,27.3137085 32,24 L32,24 L32,24 C32,20.6862915 34.6862915,18 38,18 L38,18 Z M38,26 C39.1045695,26 40,25.1045695 40,24 C40,22.8954305 39.1045695,22 38,22 C36.8954305,22 36,22.8954305 36,24 C36,25.1045695 36.8954305,26 38,26 Z"/>
  </g>
</svg>
