<svg xmlns="http://www.w3.org/2000/svg" viewBox="0 0 48 48"><g fill="none" fill-rule="evenodd" transform="translate(6)"><path fill="#95999D" d="M9 30h18v17.08a.9.9 0 0 1-1.45.71L18 42l-7.55 5.79A.9.9 0 0 1 9 47.08V30z"/><path fill="#5D6165" d="m10.87 3.6-2.84.3A4.45 4.45 0 0 0 4.1 7.8l-.36 2.83c-.1.82-.43 1.6-.95 2.25l-1.8 2.21a4.45 4.45 0 0 0-.04 5.54l1.75 2.25c.51.65.83 1.44.92 2.26l.3 2.84a4.45 4.45 0 0 0 3.88 3.94l2.83.36c.82.1 1.6.43 2.24.95l2.23 1.8a4.45 4.45 0 0 0 5.53.04l2.25-1.75a4.45 4.45 0 0 1 2.26-.92l2.84-.3a4.45 4.45 0 0 0 3.94-3.88l.36-2.83c.1-.82.43-1.6.95-2.25l1.8-2.21a4.45 4.45 0 0 0 .04-5.54l-1.75-2.25a4.45 4.45 0 0 1-.92-2.26l-.3-2.84a4.45 4.45 0 0 0-3.88-3.94l-2.83-.36c-.82-.1-1.6-.43-2.25-.95L20.92.98a4.45 4.45 0 0 0-5.54-.04l-2.25 1.75c-.65.51-1.44.83-2.26.92z"/><circle cx="18" cy="18" r="9" fill="#D6D8DA"/></g></svg>