<svg xmlns="http://www.w3.org/2000/svg" width="48" height="48"><g stroke-width="2" stroke-linecap="round" stroke-linejoin="round" fill="none" fill-rule="evenodd"><path stroke="#9AE6B3" d="M40.613 39.898A22.924 22.924 0 0 0 47 24C47 11.296 36.703 1 24 1 11.297 1 1 11.296 1 24c0 6.166 2.434 11.766 6.388 15.898"/><path stroke="#9AE6B3" d="M11.816 32.727A14.91 14.91 0 0 1 9 24c0-8.284 6.714-15 15-15 8.282 0 15 6.716 15 15 0 3.258-1.052 6.266-2.816 8.726"/><path stroke="#9AE6B3" d="M17.016 24.307C17.012 24.203 17 24.1 17 24c0-3.916 3.2-7 7-7 3.808 0 7 3.09 7 7 0 .1-.012.202-.016.306"/><path fill="#35CE68" stroke="#35CE68" d="M14 47h20L24 27z"/><path stroke="#35CE68" d="M24 27v-4"/></g></svg>