<svg xmlns="http://www.w3.org/2000/svg" width="48" height="48"><g fill="none" fill-rule="evenodd"><path fill="#FFE2A1" d="M24 47C11.297 47 1 36.703 1 24S11.297 1 24 1s23 10.297 23 23-10.297 23-23 23zm19-23h-4a1 1 0 0 0 0 2h4a1 1 0 0 0 0-2zm-1.83-8.194-3.696 1.53a1 1 0 0 0 .765 1.848l3.696-1.53a1 1 0 0 0-.765-1.848zM30.346 6.063l-1.53 3.696a1 1 0 0 0 1.848.765l1.53-3.696a1 1 0 0 0-1.848-.765zM23 5v4a1 1 0 0 0 2 0V5a1 1 0 0 0-2 0zm-7.194 1.828 1.53 3.696a1 1 0 0 0 1.848-.765l-1.53-3.696a1 1 0 1 0-1.848.765zm-5.948 4.44 2.824 2.833a1 1 0 1 0 1.417-1.413l-2.824-2.832a1 1 0 1 0-1.417 1.413zm-3.793 6.386 3.694 1.53a1 1 0 1 0 .765-1.847l-3.694-1.53a1 1 0 1 0-.765 1.847zM5 26h4a1 1 0 0 0 0-2H5a1 1 0 0 0 0 2z"/><path stroke="#FF9125" stroke-width="2" stroke-linecap="round" stroke-linejoin="round" d="M22 33h4v8h-4zM30 33h4v8h-4zM14 33h4v8h-4zM27 24a3.001 3.001 0 0 1-6 0 3.001 3.001 0 0 1 6 0h0zm-.879-2.121 9.9-9.898"/></g></svg>