<svg xmlns="http://www.w3.org/2000/svg" viewBox="0 0 48 48"><g fill="none" fill-rule="evenodd"><path fill="#D6D8DA" d="M42 0H6a6 6 0 0 0-6 6v36a6 6 0 0 0 6 6h36a6 6 0 0 0 6-6V6a6 6 0 0 0-6-6"/><path fill="#5D6165" d="M24 6A18 18 0 1 1 7.52 31.24l-.2-.45a2 2 0 0 1 3.64-1.65l.1.23a14 14 0 1 0 2.04-14.15 2 2 0 0 1 2.33.38l.1.12a2 2 0 0 1-.13 2.7l-.12.12-6 5a2 2 0 0 1-3.27-1.39L6 22v-8a2 2 0 0 1 3.74-.99A17.98 17.98 0 0 1 24 6zm0 8a2 2 0 0 1 2 2v7.17l3.41 3.42a2 2 0 1 1-2.82 2.82l-4-4A2.05 2.05 0 0 1 22 24v-8c0-1.1.9-2 2-2z"/></g></svg>