<svg xmlns="http://www.w3.org/2000/svg" width="48" height="48"><g fill="none" fill-rule="evenodd"><path fill="#855CEA" d="M46 46V17c0-.552-.45-1-1-1h-6a1 1 0 0 0-1 1v29h-4V31c0-.552-.45-1-1-1h-6a1 1 0 0 0-1 1v15h-4V27c0-.552-.45-1-1-1h-6a1 1 0 0 0-1 1v19h-4v-9c0-.552-.45-1-1-1H3a1 1 0 0 0-1 1v9H1a1 1 0 0 0 0 2h46c.55 0 1-.45 1-1 0-.552-.45-1-1-1h-1z"/><path fill="#CEBEF7" d="M6 26c1.652 0 3-1.346 3-3a2.98 2.98 0 0 0-.196-1.036l7.672-6.394c.45.266.966.43 1.524.43.958 0 1.802-.46 2.352-1.162l6.654 2.216A3 3 0 0 0 30 20c1.652 0 3-1.346 3-3 0-.544-.156-1.044-.41-1.488l8.334-9.72C41.258 5.92 41.62 6 42 6c1.652 0 3-1.346 3-3 0-1.656-1.348-3-3-3-1.654 0-3 1.344-3 3 0 .542.156 1.046.408 1.486l-8.332 9.722A3.02 3.02 0 0 0 30 14c-.958 0-1.802.458-2.354 1.16l-6.652-2.216A3.003 3.003 0 0 0 18 10c-1.654 0-3 1.344-3 3 0 .364.074.712.196 1.036l-7.674 6.392A2.993 2.993 0 0 0 6 20c-1.654 0-3 1.344-3 3 0 1.654 1.346 3 3 3"/></g></svg>