<svg xmlns="http://www.w3.org/2000/svg" width="48" height="48"><g fill="none" fill-rule="evenodd"><path fill="#C0C3C7" d="M36.243 8.821 39.51 6.28a.577.577 0 0 1 .75.04l1.42 1.42a.58.58 0 0 1 .04.75l-2.542 3.268c.73.905 1.382 1.876 1.943 2.904l3.99-1.097a.577.577 0 0 1 .677.323l.769 1.857a.58.58 0 0 1-.25.707l-3.596 2.045a19.41 19.41 0 0 1 .679 3.428l4.108.513a.577.577 0 0 1 .501.558v2.01a.58.58 0 0 1-.501.558l-4.108.513a19.41 19.41 0 0 1-.679 3.428l3.596 2.045a.577.577 0 0 1 .25.707l-.77 1.857a.58.58 0 0 1-.676.323l-3.99-1.097a19.534 19.534 0 0 1-1.943 2.904l2.542 3.268a.577.577 0 0 1-.04.75l-1.42 1.42a.58.58 0 0 1-.75.04l-3.268-2.542a19.534 19.534 0 0 1-2.904 1.943l1.097 3.99a.577.577 0 0 1-.323.677l-1.857.769a.58.58 0 0 1-.707-.25l-2.045-3.596a19.41 19.41 0 0 1-3.428.679l-.513 4.108a.577.577 0 0 1-.558.501h-2.01a.58.58 0 0 1-.558-.501l-.513-4.108a19.41 19.41 0 0 1-3.428-.679l-2.045 3.596a.577.577 0 0 1-.707.25l-1.857-.77a.58.58 0 0 1-.323-.676l1.097-3.99a19.534 19.534 0 0 1-2.904-1.943L8.49 41.72a.577.577 0 0 1-.75-.04l-1.42-1.42a.58.58 0 0 1-.04-.75l2.542-3.268a19.534 19.534 0 0 1-1.943-2.904l-3.99 1.097a.577.577 0 0 1-.677-.323l-.769-1.857a.58.58 0 0 1 .25-.707l3.596-2.045a19.41 19.41 0 0 1-.679-3.428l-4.108-.513A.577.577 0 0 1 0 25.005v-2.01a.58.58 0 0 1 .501-.558l4.108-.513a19.41 19.41 0 0 1 .679-3.428L1.692 16.45a.577.577 0 0 1-.25-.707l.77-1.857a.58.58 0 0 1 .676-.323l3.99 1.097a19.534 19.534 0 0 1 1.943-2.904L6.28 8.49a.577.577 0 0 1 .04-.75l1.42-1.42a.58.58 0 0 1 .75-.04l3.268 2.542a19.534 19.534 0 0 1 2.904-1.943l-1.097-3.99a.577.577 0 0 1 .323-.677l1.857-.769a.58.58 0 0 1 .707.25l2.045 3.596a19.41 19.41 0 0 1 3.428-.679l.513-4.108A.577.577 0 0 1 22.995 0h2.01a.58.58 0 0 1 .558.501l.513 4.108a19.41 19.41 0 0 1 3.428.679l2.045-3.596a.577.577 0 0 1 .707-.25l1.857.77a.58.58 0 0 1 .323.676l-1.097 3.99a19.534 19.534 0 0 1 2.904 1.943zM9 24c0 8.284 6.716 15 15 15 8.284 0 15-6.716 15-15 0-8.284-6.716-15-15-15-8.284 0-15 6.716-15 15z"/><path fill="#BFC3C7" d="M24 19.5a4.5 4.5 0 1 1 0 9 4.5 4.5 0 0 1 0-9zm0 6a1.5 1.5 0 1 0 0-3 1.5 1.5 0 0 0 0 3z"/><g fill="#BFC3C7" fill-rule="nonzero"><path d="m20.951 25.869-7.2 10.799 2.497 1.664 7.2-10.8zM27.129 25.103l13.49-.99-.219-2.992-13.49.99zM23.841 20.329l-6-12-2.683 1.341 6 12z"/></g></g></svg>