<svg xmlns="http://www.w3.org/2000/svg" width="48" height="48"><g fill="none" fill-rule="evenodd"><path fill="#A9CBF9" d="M9 2C7.344 2 6 3.346 6 5s1.345 3 3 3h32.992c1.107 0 2.007.894 2.007 1.997v36.006A2 2 0 0 1 41.992 48H8.999c-2.756 0-5-2.244-5-5V6c0-.108.018-.208.048-.306A5.007 5.007 0 0 1 9 0h34a1 1 0 1 1 0 2H9zm0 2h32a1 1 0 0 1 0 2H9a1 1 0 0 1 0-2z"/><path fill="#297EF1" d="M21.818 22.32a2.52 2.52 0 0 0 .002-3.566l-2.676-2.678a2.528 2.528 0 0 0-3.57 0l-1.47 1.468a3.781 3.781 0 0 0-.474 4.762 58.547 58.547 0 0 0 16.4 16.398 3.784 3.784 0 0 0 4.762-.474l1.468-1.468a2.522 2.522 0 0 0 0-3.568l-2.676-2.676a2.518 2.518 0 0 0-3.568 0l-.892.89a60.016 60.016 0 0 1-8.198-8.196l.892-.892z"/></g></svg>