<svg xmlns="http://www.w3.org/2000/svg" width="48" height="48" viewBox="0 0 48 48" xmlns:xlink="http://www.w3.org/1999/xlink">
  <defs>
    <path id="a" d="M46,23 C46,35.704 35.702,46 23,46 C10.296,46 0,35.704 0,23 C0,10.3 10.296,0 23,0 C35.702,0 46,10.3 46,23 L46,23 Z"/>
  </defs>
  <g fill="none" fill-rule="evenodd" transform="translate(-384 -480)">
    <g transform="translate(385 481)">
      <mask id="b" fill="white">
        <use xlink:href="#a"/>
      </mask>
      <use fill="#CEBEF7" xlink:href="#a"/>
      <path fill="#855CEA" d="M23,27 C17.4771525,27 13,22.2989899 13,16.5 C13,10.7010101 17.4771525,6 23,6 C28.5228475,6 33,10.7010101 33,16.5 C33,22.2989899 28.5228475,27 23,27 Z M23,65 C13.0588745,65 5,56.9411255 5,47 C5,37.0588745 13.0588745,29 23,29 C32.9411255,29 41,37.0588745 41,47 C41,56.9411255 32.9411255,65 23,65 Z" mask="url(#b)"/>
    </g>
  </g>
</svg>
