<svg width="26" height="32" xmlns="http://www.w3.org/2000/svg"><g fill="none" fill-rule="evenodd"><path d="M25 6c.552 0 1 .451 1 1.003v23.994C26 31.55 25.549 32 24.997 32H4.006A4.002 4.002 0 0 1 0 27.996V4.004A4.007 4.007 0 0 1 4.003 0h20.002c.55 0 .995.444.995 1 0 .552-.439 1-1.003 1H4c-1.104 0-2 .888-2 2 0 1.105.897 2 2.005 2h20.994zM3 4c0-.552.439-1 .999-1H23c.552 0 .999.444.999 1 0 .552-.439 1-.999 1H4a.997.997 0 0 1-1-1z" fill="#FFD799"/><path d="M13 20c-2.21 0-4-2.015-4-4.5s1.79-4.5 4-4.5 4 2.015 4 4.5-1.79 4.5-4 4.5zm-8 5c0-1 2-4 4-4s1 1 4 1 2-1 4-1 4 3 4 4 0 2-1 2H6c-1 0-1-1-1-2z" fill="#FF9300"/></g></svg>