<svg xmlns="http://www.w3.org/2000/svg" width="32" height="32" viewBox="0 0 32 32">
    <g fill="none" fill-rule="evenodd">
        <g>
            <path fill="#B2D3FF" d="M8.889 27.874C3.979 27.874 0 23.913 0 19.026c0-4.333 3.129-7.938 7.26-8.7C8.025 6.216 11.647 3.1 16 3.1c4.353 0 7.975 3.115 8.74 7.228 4.131.76 7.26 4.365 7.26 8.698 0 4.8-3.839 8.706-8.627 8.844l-.262.004H8.89z"/>
            <path fill="#297EF1" d="M13.022 22.903l-4.4-.032c-.288 0-.522-.231-.522-.516 0-.137.055-.268.153-.365l7.88-7.786c.204-.202.535-.202.739 0l7.88 7.786c.204.201.204.528 0 .73-.098.097-.231.151-.37.151l-4.36.032v8.484c0 .285-.234.516-.522.516h-5.955c-.289 0-.523-.23-.523-.516v-8.484z"/>
        </g>
    </g>
</svg>
