<svg xmlns="http://www.w3.org/2000/svg" width="48" height="48" viewBox="0 0 48 48">
  <g fill="none" fill-rule="evenodd" transform="translate(-192 -288)">
    <g stroke-width="2" transform="translate(192 289)" stroke-linecap="round" stroke-linejoin="round">
      <path stroke="#9AE6B3" d="M40.6132,38.8984 C44.5672,34.7664 46.9992,29.1664 46.9992,23.0004 C46.9992,10.2964 36.7032,0.000400000001 23.9992,0.000400000001 C11.2972,0.000400000001 0.9992,10.2964 0.9992,23.0004 C0.9992,29.1664 3.4332,34.7664 7.3872,38.8984"/>
      <path stroke="#9AE6B3" d="M11.8164,31.7266 C10.0504,29.2666 9.0004,26.2586 9.0004,23.0006 C9.0004,14.7166 15.7144,8.0006 24.0004,8.0006 C32.2824,8.0006 39.0004,14.7166 39.0004,23.0006 C39.0004,26.2586 37.9484,29.2666 36.1844,31.7266"/>
      <path stroke="#9AE6B3" d="M17.0156,23.3066 C17.0116,23.2026 16.9996,23.1006 16.9996,23.0006 C16.9996,19.0846 20.1996,16.0006 23.9996,16.0006 C27.8076,16.0006 30.9996,19.0906 30.9996,23.0006 C30.9996,23.1006 30.9876,23.2026 30.9836,23.3066"/>
      <polygon fill="#35CE68" stroke="#35CE68" points="14 46 34 46 24 26"/>
      <path stroke="#35CE68" d="M24,26 L24,22"/>
    </g>
  </g>
</svg>
