<svg xmlns="http://www.w3.org/2000/svg" width="48" height="48" viewBox="0 0 48 48">
  <g fill="none" fill-rule="evenodd" transform="translate(-96 -384)">
    <g transform="translate(96 384.75)">
      <path fill="#FF9126" d="M9.001,26.252 L1.001,26.252 C0.449,26.252 0.001,26.7 0.001,27.252 L0.001,42.252 C0.001,42.802 0.449,43.252 1.001,43.252 L9.001,43.252 C9.551,43.252 10.001,42.802 10.001,42.252 L10.001,27.252 C10.001,26.7 9.551,26.252 9.001,26.252"/>
      <path fill="#FFE2A1" d="M47.708,34.543 C45.36,32.197 43.334,31.543 40.684,32.303 L34.668,34.299 C34.722,34.613 34.75,34.931 34.75,35.251 C34.75,36.531 34.334,37.737 33.582,38.641 C32.704,39.693 31.466,40.251 30,40.251 L20,40.251 C19.448,40.251 19,39.803 19,39.251 C19,38.699 19.448,38.251 20,38.251 L30,38.251 C30.864,38.251 31.552,37.951 32.044,37.361 C32.494,36.823 32.75,36.055 32.75,35.251 C32.75,34.137 32.17,32.251 30,32.251 L24.406,32.251 L24,32.251 C23.736,32.251 23.482,32.147 23.294,31.959 C22.376,31.041 19.586,28.251 15,28.251 L12,28.251 C11.448,28.251 11,28.699 11,29.251 L11,40.251 C11,40.681 11.276,41.065 11.684,41.199 C14.806,42.241 17.248,43.127 19.206,43.841 C23.062,45.243 25.22,46.001 27.144,46.001 C29.438,46.001 31.4,44.923 35.498,42.583 C38.21,41.031 41.922,38.909 47.448,36.147 C47.736,36.001 47.936,35.729 47.988,35.411 C48.038,35.095 47.934,34.771 47.708,34.543"/>
      <path fill="#FF9126" d="M34.001,14.252 C30.141,14.252 27.001,11.112 27.001,7.252 C27.001,3.39 30.141,0.252 34.001,0.252 C37.861,0.252 41.001,3.39 41.001,7.252 C41.001,11.112 37.861,14.252 34.001,14.252 Z M25.001,28.252 C21.141,28.252 18.001,25.112 18.001,21.252 C18.001,17.39 21.141,14.252 25.001,14.252 C28.861,14.252 32.001,17.39 32.001,21.252 C32.001,25.112 28.861,28.252 25.001,28.252 Z"/>
      <path fill="#FFE2A1" d="M33.001,5.252 C33.001,4.7 33.449,4.252 34.001,4.252 C34.551,4.252 35.001,4.7 35.001,5.252 L35.001,9.252 C35.001,9.802 34.551,10.252 34.001,10.252 C33.449,10.252 33.001,9.802 33.001,9.252 L33.001,5.252 Z M24.001,19.252 C24.001,18.7 24.449,18.252 25.001,18.252 C25.551,18.252 26.001,18.7 26.001,19.252 L26.001,23.252 C26.001,23.802 25.551,24.252 25.001,24.252 C24.449,24.252 24.001,23.802 24.001,23.252 L24.001,19.252 Z"/>
    </g>
  </g>
</svg>
