<svg width="96" height="96" viewBox="0 0 96 96" fill="none" xmlns="http://www.w3.org/2000/svg">
<path d="M66.7076 0H29.2924C13.1147 0 0 13.1147 0 29.2924V66.7076C0 82.8852 13.1147 96 29.2924 96H66.7076C82.8852 96 96 82.8852 96 66.7076V29.2924C96 13.1147 82.8852 0 66.7076 0Z" fill="white"/>
<path d="M66.7076 0H29.2924C13.1147 0 0 13.1147 0 29.2924V66.7076C0 82.8852 13.1147 96 29.2924 96H66.7076C82.8852 96 96 82.8852 96 66.7076V29.2924C96 13.1147 82.8852 0 66.7076 0Z" fill="url(#paint0_linear_2322_6456)"/>
<path d="M66.7076 0H29.2924C13.1147 0 0 13.1147 0 29.2924V66.7076C0 82.8852 13.1147 96 29.2924 96H66.7076C82.8852 96 96 82.8852 96 66.7076V29.2924C96 13.1147 82.8852 0 66.7076 0Z" fill="url(#paint1_linear_2322_6456)"/>
<path d="M66.7076 0H29.2924C13.1147 0 0 13.1147 0 29.2924V66.7076C0 82.8852 13.1147 96 29.2924 96H66.7076C82.8852 96 96 82.8852 96 66.7076V29.2924C96 13.1147 82.8852 0 66.7076 0Z" fill="url(#paint2_linear_2322_6456)"/>
<path d="M48.129 14.3055C48.1639 14.331 48.2041 14.3484 48.2467 14.3563C48.2674 14.3563 48.288 14.3658 48.31 14.3674C48.5548 14.3928 48.7919 14.4679 49.0067 14.5881C49.0733 14.6214 49.1369 14.661 49.2022 14.6976L53.9713 17.3957L59.5484 20.5509C60.8975 21.3127 62.2456 22.0756 63.5923 22.8395C63.6766 22.8871 63.7608 22.9315 63.8416 22.9823C64.3587 23.2986 64.7206 23.8163 64.84 24.4107C64.8535 24.4734 64.8613 24.5372 64.8637 24.6012C64.8637 24.7504 64.8748 24.8996 64.8748 25.0504V31.4911C64.8748 33.8937 64.8748 36.2967 64.8748 38.6997C64.8748 38.8282 64.8748 38.9567 64.8748 39.0835C64.8643 39.4275 64.7639 39.7623 64.583 40.0549C64.3124 40.5101 63.8862 40.8514 63.383 41.0151C63.1682 41.0817 62.9457 41.1186 62.7211 41.1246C62.6251 41.124 62.529 41.1158 62.434 41.101C62.1783 41.0729 61.9307 40.9961 61.7038 40.8754C61.6277 40.8358 61.5529 40.7929 61.4799 40.7516L54.3125 36.6968L49.2336 33.8288L48.983 33.6874C48.7821 33.588 48.5684 33.5169 48.3482 33.4764C48.2958 33.4665 48.2427 33.4608 48.1896 33.4588C48.1037 33.4588 48.0181 33.4588 47.9322 33.4588C47.6001 33.4611 47.2737 33.5433 46.9801 33.6986C46.8942 33.7429 46.8117 33.7922 46.7292 33.8399C44.9221 34.8745 43.1147 35.9101 41.3077 36.9457L34.8005 40.6741C34.7085 40.7279 34.6148 40.7803 34.5211 40.8328C34.3145 40.9447 34.0926 41.0255 33.8626 41.0722C33.8206 41.081 33.7782 41.0871 33.7355 41.0898L33.4181 41.0993C33.1174 41.1 32.8206 41.0303 32.5515 40.8964C31.968 40.6315 31.534 40.1188 31.3691 39.4995C31.318 39.3247 31.2913 39.1437 31.2897 38.9615V25.0519C31.2897 24.9662 31.2897 24.8805 31.2897 24.7964C31.2955 24.5287 31.3492 24.2642 31.4485 24.0155C31.6155 23.5955 31.9103 23.2385 32.2912 22.995C32.3626 22.949 32.4388 22.9077 32.5118 22.8649L36.3478 20.6651L40.9076 18.0527L45.5184 15.4165L46.6595 14.7626L46.9101 14.6214C47.0616 14.5388 47.2213 14.4723 47.3863 14.423C47.4908 14.3973 47.5967 14.3787 47.7039 14.3674C47.7458 14.361 47.7851 14.3422 47.8165 14.3135L48.129 14.3055Z" fill="white"/>
<path d="M14.5893 53.4623C14.6534 53.4447 14.6996 53.3889 14.7052 53.3226C14.7217 53.1957 14.7461 53.0703 14.7782 52.9465C14.9155 52.4584 15.2193 52.034 15.6368 51.7465C15.7241 51.6863 15.8177 51.6322 15.9098 51.5879L18.8238 49.9056L25.3167 46.16L27.8418 44.7013C27.9338 44.6488 28.0275 44.5951 28.1227 44.5426C28.4091 44.3955 28.7261 44.3184 29.048 44.317C29.6213 44.3103 30.1742 44.5294 30.5875 44.9268C30.8465 45.1687 31.0394 45.473 31.1478 45.8106C31.2145 46.0027 31.2509 46.2043 31.2557 46.4075C31.2557 46.5249 31.2557 46.6422 31.2557 46.7599V60.3124C31.2557 60.4504 31.2557 60.59 31.2557 60.728C31.269 61.4349 31.6239 62.0914 32.208 62.4898C32.3032 62.5564 32.4079 62.6135 32.5095 62.6707L35.2774 64.218L40.9816 67.4067L44.5146 69.3778C44.6083 69.4302 44.702 69.4813 44.7923 69.5367C45.2796 69.8188 45.6337 70.2848 45.7748 70.83C45.8536 71.108 45.8739 71.3996 45.8333 71.6857C45.7991 71.9397 45.723 72.1863 45.608 72.4156C45.4301 72.7595 45.1619 73.048 44.8318 73.2506C44.7415 73.3078 44.6461 73.3568 44.5525 73.4092L35.3186 78.4881L32.1746 80.2133C32.0905 80.2593 32.0159 80.3084 31.9223 80.3513C31.7798 80.4251 31.6297 80.4829 31.4747 80.5242C31.2573 80.5813 31.0326 80.6053 30.8081 80.5959C30.4431 80.5779 30.0883 80.469 29.7765 80.2783L28.8099 79.7101L15.9701 72.1616C15.8876 72.1142 15.8114 72.0665 15.7225 72.0141C15.2278 71.7077 14.8767 71.2153 14.748 70.6477C14.7242 70.5541 14.7178 70.4573 14.7004 70.3636C14.6921 70.3207 14.662 70.2852 14.6211 70.27C14.6112 70.2659 14.6012 70.2629 14.5909 70.2605L14.5893 53.4623Z" fill="white"/>
<path d="M64.607 80.7024C64.5833 80.6815 64.5573 80.6639 64.5292 80.65C64.4484 80.6216 64.3662 80.5979 64.283 80.5787C64.0848 80.5337 63.894 80.4606 63.7165 80.3612C63.6133 80.304 63.5132 80.2438 63.4118 80.185L58.6677 77.4472L51.6464 73.3984C51.5717 73.3555 51.4973 73.3142 51.4259 73.2682C50.9402 72.9652 50.597 72.4795 50.4735 71.9208C50.4387 71.7754 50.4211 71.6262 50.4211 71.4764C50.395 70.7452 50.7464 70.0519 51.3512 69.6403C51.4394 69.5824 51.5304 69.5293 51.6241 69.4813L55.6268 67.1865L61.023 64.0963L63.5531 62.6474C63.6641 62.5838 63.7767 62.5219 63.8846 62.4536C64.2972 62.1983 64.6121 61.812 64.7798 61.3568C64.838 61.2073 64.8769 61.0511 64.8958 60.8918C64.9148 60.7223 64.9242 60.5515 64.9242 60.3807C64.9242 59.7713 64.9242 59.1635 64.9242 58.5541C64.9242 54.6667 64.9242 50.7799 64.9242 46.8936C64.9242 46.7857 64.9242 46.6791 64.9242 46.576C64.9242 46.4728 64.9242 46.4045 64.9337 46.3206C64.9611 45.812 65.1752 45.3314 65.5354 44.9715C65.8063 44.6952 66.1469 44.497 66.5209 44.3986C66.6853 44.3509 66.8547 44.3239 67.0255 44.3174C67.3796 44.3117 67.7297 44.3918 68.0463 44.5508C68.1318 44.5937 68.216 44.6414 68.2986 44.6905L71.5173 46.5459L77.1783 49.8137L80.1464 51.5264C80.2401 51.5802 80.3321 51.6326 80.4241 51.685C80.8008 51.9143 81.0978 52.2539 81.2747 52.658C81.3085 52.7253 81.3305 52.7977 81.3399 52.8721C81.3521 52.9235 81.3755 52.9719 81.4083 53.0135V70.7049C81.3717 70.7286 81.3481 70.7668 81.343 70.8098C81.3312 70.895 81.3055 70.9775 81.2669 71.0543C81.0944 71.4362 80.8134 71.7588 80.4589 71.9827C80.3703 72.0415 80.2766 72.094 80.1843 72.1413L75.8214 74.6427L66.0955 80.2215C66.0129 80.2692 65.9368 80.3182 65.8448 80.3629C65.668 80.4623 65.4779 80.5357 65.2797 80.58C65.2066 80.5966 65.1346 80.6179 65.0639 80.6436C65.0341 80.6544 65.0088 80.675 64.9925 80.7024H64.607Z" fill="white"/>
<defs>
<linearGradient id="paint0_linear_2322_6456" x1="96" y1="55.9999" x2="0" y2="55.9999" gradientUnits="userSpaceOnUse">
<stop offset="0.12998" stop-color="#A033FF"/>
<stop offset="0.610381" stop-color="#0094FF"/>
<stop offset="1" stop-color="#4FB500"/>
</linearGradient>
<linearGradient id="paint1_linear_2322_6456" x1="43.9998" y1="29.9999" x2="14" y2="89.9998" gradientUnits="userSpaceOnUse">
<stop stop-color="#FFD600" stop-opacity="0"/>
<stop offset="0.563347" stop-color="#FFC700"/>
</linearGradient>
<linearGradient id="paint2_linear_2322_6456" x1="51.9998" y1="55.9999" x2="85.9998" y2="92" gradientUnits="userSpaceOnUse">
<stop offset="0.0297327" stop-color="#FF3B30" stop-opacity="0"/>
<stop offset="0.842824" stop-color="#E73B2D"/>
</linearGradient>
</defs>
</svg>
