<svg xmlns="http://www.w3.org/2000/svg" width="48" height="48" viewBox="0 0 48 48">
  <g fill="none" fill-rule="evenodd" transform="translate(-288 -480)">
    <g transform="translate(288 479)">
      <path fill="#F52D2D" d="M7,36.9995616 C5.346,36.9995616 4,35.6535125 4,33.9994521 C4,32.3453916 5.346,30.9993425 7,30.9993425 L20.068,30.9993425 C21.4974448,32.2036382 22.3534141,28.6993803 20.9744184,27.1181384 C19.4998103,25.4272614 15.7565252,25.6483548 16.604,26.9991964 L7,26.9991964 C3.14,26.9991964 0,30.1393111 0,33.9994521 C0,37.8595931 3.14,40.9997078 7,40.9997078 L41,40.9997078 C42.102,40.9997078 43,41.8977406 43,42.9997808 C43,44.1038212 42.102,44.9998539 41,44.9998539 L21,44.9998539 C19.896,44.9998539 19,45.8958866 19,46.9999269 C19,48.1059673 19.896,49 21,49 L41,49 C44.308,49 47,46.3079017 47,42.9997808 C47,39.69166 44.308,36.9995616 41,36.9995616 L7,36.9995616 Z"/>
      <path fill="#FCBFBF" d="M31,34.9994886 C21.6111593,34.9994886 14,27.3880513 14,17.9988676 C14,8.60968387 21.6111593,0.998246588 31,0.998246588 C40.3888407,0.998246588 48,8.60968387 48,17.9988676 C48,27.3880513 40.3888407,34.9994886 31,34.9994886 Z M31,13.9987215 C28.794,13.9987215 27,15.792787 27,17.9988676 C27,20.2049482 28.794,21.9990137 31,21.9990137 C33.206,21.9990137 35,20.2049482 35,17.9988676 C35,15.792787 33.206,13.9987215 31,13.9987215 Z"/>
      <path fill="#F52D2D" d="M19.0566,13.0782 C19.1466,12.8242 19.3346,12.6182 19.5806,12.5042 C19.8246,12.3902 20.1046,12.3782 20.3566,12.4762 L25.3566,14.3862 C25.6346,14.4942 25.8486,14.7162 25.9466,14.9962 C26.0426,15.2782 26.0106,15.5862 25.8566,15.8382 C24.8766,17.4622 25.2306,19.1602 25.7026,20.2962 C25.8046,20.5442 25.8026,20.8222 25.6986,21.0702 C25.5946,21.3162 25.3946,21.5102 25.1466,21.6102 L20.4226,23.4742 C20.2946,23.5442 20.1486,23.5862 19.9986,23.5922 L19.9566,23.5922 C19.4946,23.5922 19.0846,23.2782 18.9726,22.8302 C17.5046,19.1442 18.2046,15.5002 19.0566,13.0782 Z M26.1886,5.9582 C26.2026,5.9562 26.2166,5.9522 26.2306,5.9522 C29.1306,4.8162 32.5226,4.8602 35.9206,6.0562 C36.1806,6.1482 36.3926,6.3442 36.5026,6.5942 C36.6146,6.8462 36.6186,7.1322 36.5126,7.3862 L34.6006,11.9622 C34.4426,12.3402 34.0766,12.5782 33.6786,12.5782 C33.6266,12.5782 33.5726,12.5742 33.5206,12.5642 C33.3826,12.5422 33.2546,12.4942 33.1426,12.4242 C31.7046,11.8702 30.1146,11.8842 28.7026,12.4682 C28.1926,12.6802 27.6086,12.4382 27.3966,11.9282 L25.5326,7.4402 C25.4586,7.3062 25.4146,7.1582 25.4086,7.0022 L25.4066,6.9802 C25.3866,6.4942 25.7166,6.0642 26.1886,5.9582 Z M41.5686,12.5302 C41.6986,12.4582 41.8446,12.4162 41.9986,12.4102 C42.4746,12.3722 42.9106,12.7062 43.0246,13.1682 C44.4946,16.8582 43.7966,20.5022 42.9426,22.9222 C42.8546,23.1782 42.6646,23.3842 42.4206,23.4982 C42.2866,23.5602 42.1426,23.5922 41.9986,23.5922 C41.8786,23.5922 41.7566,23.5702 41.6426,23.5262 L36.6426,21.6142 C36.3666,21.5082 36.1506,21.2862 36.0546,21.0042 C35.9586,20.7242 35.9906,20.4162 36.1426,20.1622 C37.1246,18.5382 36.7686,16.8422 36.2986,15.7042 C36.1946,15.4562 36.1966,15.1782 36.3006,14.9322 C36.4046,14.6862 36.6046,14.4902 36.8546,14.3922 L41.5686,12.5302 Z M35.8286,30.0262 C34.4106,30.5922 32.8806,30.8762 31.2766,30.8762 C29.5846,30.8762 27.8346,30.5622 26.0766,29.9442 C25.8226,29.8542 25.6146,29.6662 25.5026,29.4202 C25.3866,29.1762 25.3786,28.8942 25.4766,28.6422 L27.3866,23.6422 C27.4926,23.3682 27.7146,23.1502 27.9946,23.0542 C28.2746,22.9562 28.5846,22.9922 28.8366,23.1442 C30.1166,23.9162 31.6886,23.9622 33.2946,23.2982 C33.5426,23.1962 33.8206,23.1982 34.0666,23.3002 C34.3146,23.4062 34.5086,23.6062 34.6066,23.8562 L36.4746,28.5802 C36.5426,28.7062 36.5846,28.8522 36.5906,29.0002 C36.6106,29.4782 36.2906,29.9122 35.8286,30.0262 Z"/>
    </g>
  </g>
</svg>
