<svg xmlns="http://www.w3.org/2000/svg" width="48" height="48" viewBox="0 0 48 48">
  <g fill="none" fill-rule="evenodd" transform="translate(-192 -576)">
    <g transform="translate(193 577)">
      <path fill="#FCBFBF" d="M45.8126826,44.3485 L23.8946826,0.5085 C23.5546826,-0.1695 22.4446826,-0.1695 22.1066826,0.5085 L0.106682589,44.5085 C-0.049317411,44.8185 -0.033317411,45.1865 0.148682589,45.4805 C0.330682589,45.7765 0.652682589,45.9565 1.00068259,45.9565 L45.0006826,45.9565 L45.0206826,45.9565 C45.5706826,45.9565 46.0206826,45.5085 46.0206826,44.9565 C46.0206826,44.7265 45.9426826,44.5165 45.8126826,44.3485 L45.8126826,44.3485 Z"/>
      <path fill="#F52D2D" d="M23.0006826,40.1725 C21.9426826,40.1725 21.0866826,39.3165 21.0866826,38.2605 C21.0866826,37.2065 21.9426826,36.3465 23.0006826,36.3465 C24.0546826,36.3465 24.9126826,37.2065 24.9126826,38.2605 C24.9126826,39.3165 24.0546826,40.1725 23.0006826,40.1725 Z M22.0006826,16.2605 C22.0006826,15.7085 22.4486826,15.2605 23.0006826,15.2605 C23.5506826,15.2605 24.0006826,15.7085 24.0006826,16.2605 L24.0006826,31.5645 C24.0006826,32.1165 23.5506826,32.5645 23.0006826,32.5645 C22.4486826,32.5645 22.0006826,32.1165 22.0006826,31.5645 L22.0006826,16.2605 Z"/>
    </g>
  </g>
</svg>
