<svg xmlns="http://www.w3.org/2000/svg" width="48" height="48" viewBox="0 0 48 48">
  <g fill="none" fill-rule="evenodd" transform="translate(-192 -192)">
    <g transform="translate(193 193)">
      <path fill="#A9CBF9" d="M2.00174332,42 C0.89621101,42 0,41.1033397 0,40.0025078 L0,1.99749218 C0,0.894307712 0.889673948,0 1.991155,0 L22,0 L32,10 L32,42 L2.00174332,42 Z"/>
      <path fill="#297EF2" d="M22,0 L32,10 L23.999615,10 C22.8874333,10 22,9.10474188 22,8.00038502 L22,0 Z M25.9313108,45.4521969 C24.8646773,45.7569493 24.2452393,45.1456626 24.5518031,44.0726892 L26,39.004 L39.5906483,25.4115399 C40.3701163,24.6319679 41.6352535,24.6332535 42.421425,25.419425 L44.582575,27.580575 C45.3665018,28.3645018 45.3669649,29.6351197 44.5906483,30.4115399 L31,44.004 L25.9313108,45.4521969 Z M15,37 L25,37 L25,39 L15,39 L15,37 Z"/>
    </g>
  </g>
</svg>
