<svg xmlns="http://www.w3.org/2000/svg" width="32" height="32"><g fill="none" fill-rule="evenodd"><path fill="#B2D3FF" d="M8.889 27.892A8.889 8.889 0 0 1 0 19.003a8.892 8.892 0 0 1 7.26-8.74c.765-4.13 4.387-7.26 8.74-7.26 4.353 0 7.975 3.13 8.74 7.26a8.892 8.892 0 0 1 7.26 8.74 8.888 8.888 0 0 1-8.627 8.885l-.262.004H8.89z"/><path fill="#297EF1" d="M22.052 19.17a.89.89 0 0 1 .405 1.19c-1.201 2.435-3.707 4.032-6.457 4.032-2.103 0-4.04-.962-5.373-2.471a.875.875 0 0 1-.85.693.889.889 0 0 1-.888-.889V18.17c0-.056.014-.106.023-.158.005-.024.004-.048.01-.071a.866.866 0 0 1 .132-.285l.022-.024a.896.896 0 0 1 .879-.327c.024.005.047.012.07.018a.842.842 0 0 1 .22.102c.024.015.048.026.071.043.01.008.021.011.031.02l2.667 2.221a.89.89 0 0 1 .113 1.252c-.166.2-.4.301-.64.313.96.832 2.198 1.34 3.513 1.34 2.065 0 3.958-1.206 4.862-3.04a.889.889 0 0 1 1.19-.404zm1.031-2.589c-.003.018-.002.036-.007.053a.862.862 0 0 1-.138.28c-.011.016-.024.026-.035.039a.88.88 0 0 1-.19.171c-.023.016-.043.03-.067.043a.91.91 0 0 1-.295.103c-.003 0-.005.002-.007.003-.008 0-.015-.003-.023-.002a.85.85 0 0 1-.362-.036.884.884 0 0 1-.225-.11c-.02-.014-.042-.023-.06-.038-.007-.005-.015-.006-.02-.012l-2.668-2.223a.888.888 0 0 1-.113-1.251.872.872 0 0 1 .713-.305A5.448 5.448 0 0 0 16 11.948c-2.103 0-4.007 1.213-4.89 3.06a.887.887 0 1 1-1.604-.764C10.682 11.78 13.21 10.17 16 10.17c2.127 0 4.061.93 5.385 2.412a.876.876 0 0 1 .837-.634.89.89 0 0 1 .889.888v3.556c0 .068-.014.128-.028.19z"/></g></svg>