<svg xmlns="http://www.w3.org/2000/svg" width="48" height="48" viewBox="0 0 48 48">
  <g fill="none" fill-rule="evenodd">
    <rect width="10" height="16" x="19" y="24" fill="#F52D2D"/>
    <path fill="#FCBFBF" d="M24,28 C25.102,28 26,28.896 26,30 C26,30.736 25.594,31.374 25,31.72 L25,37 C25,37.55 24.55,38 24,38 C23.448,38 23,37.55 23,37 L23,31.72 C22.404,31.374 22,30.736 22,30 C22,28.896 22.896,28 24,28 Z M6,21 L6,45 L6,45 C6,46.6568542 7.34314575,48 9,48 L39,48 L39,48 C40.6568542,48 42,46.6568542 42,45 L42,21 L42,21 C42,19.3431458 40.6568542,18 39,18 L36,18 L36,12 C36,5.382 30.616,0 24,0 C17.382,0 12,5.382 12,12 L14,12 C14,6.486 18.484,2 24,2 C29.514,2 34,6.486 34,12 L34,18 L9,18 L9,18 C7.34314575,18 6,19.3431458 6,21 Z"/>
  </g>
</svg>
