<svg xmlns="http://www.w3.org/2000/svg" width="48" height="48" viewBox="0 0 48 48">
  <g fill="none" fill-rule="evenodd" transform="translate(-96 -480)">
    <g transform="translate(99 480)">
      <path fill="#A9CBF9" d="M5.9994,1.9998 C4.3454,1.9998 2.9994,3.3458 2.9994,4.9998 C2.9994,6.6538 4.3454,7.9998 5.9994,7.9998 L38.9919388,7.9998 C40.0990545,7.9998 40.9994,8.89401792 40.9994,9.99709162 L40.9994,46.0025084 C40.9994,47.1082602 40.100629,47.9998 38.9919388,47.9998 L5.9994,47.9998 C3.2434,47.9998 0.9994,45.7558 0.9994,42.9998 L0.9994,5.9998 C0.9994,5.8918 1.0174,5.7918 1.0474,5.6938 C1.0174,5.4658 0.9994,5.2358 0.9994,4.9998 C0.9994,2.2438 3.2434,-0.0002 5.9994,-0.0002 L39.9994,-0.0002 C40.5534,-0.0002 40.9994,0.4478 40.9994,0.9998 C40.9994,1.5518 40.5534,1.9998 39.9994,1.9998 L5.9994,1.9998 Z M6,4 L38,4 C38.552,4 39,4.448 39,5 C39,5.552 38.552,6 38,6 L6,6 C5.448,6 5,5.552 5,5 C5,4.448 5.448,4 6,4 Z"/>
      <path fill="#297EF1" d="M18.8184,22.3204 C19.8044,21.3364 19.8064,19.7364 18.8204,18.7544 L16.1444,16.0764 C15.1584,15.0924 13.5584,15.0924 12.5744,16.0764 L11.1044,17.5444 C9.8344,18.8184 9.6364,20.8044 10.6304,22.3064 C14.8924,28.7544 20.5824,34.4444 27.0304,38.7044 C28.5284,39.6964 30.5224,39.5004 31.7924,38.2304 L33.2604,36.7624 C34.2464,35.7764 34.2464,34.1784 33.2604,33.1944 L30.5844,30.5184 C29.5984,29.5304 28.0004,29.5304 27.0164,30.5184 L26.1244,31.4084 C23.1884,29.0044 20.3344,26.1464 17.9264,23.2124 L18.8184,22.3204 L18.8184,22.3204 Z"/>
    </g>
  </g>
</svg>
