<svg xmlns="http://www.w3.org/2000/svg" viewBox="0 0 48 48"><g fill="none" fill-rule="evenodd"><path fill="#5D6165" d="M42 0a6 6 0 0 1 6 6v33a6 6 0 0 1-6 6h-3v3h-9v-3H18v3H9v-3H6a6 6 0 0 1-6-6V6a6 6 0 0 1 6-6h36z"/><path fill="#D1D5DB" d="M39 6H9a3 3 0 0 0-2.98 2.65L6 9v3H4a1 1 0 0 0-1 1v4a1 1 0 0 0 1 1h2v9H4a1 1 0 0 0-1 1v4a1 1 0 0 0 1 1h2v3a3 3 0 0 0 2.65 2.98L9 39h30a3 3 0 0 0 2.98-2.65L42 36V9a3 3 0 0 0-2.65-2.98L39 6z"/><path fill="#5D6165" d="M24 34a11.5 11.5 0 1 0 0-23 11.5 11.5 0 0 0 0 23zm-7.92-7.07-2.25 1-.67-1.5 2.25-1a.82.82 0 1 1 .67 1.5zm5.45 4.3-.88 2.3-1.54-.59.89-2.3a.82.82 0 1 1 1.53.59zm-5.2-11.67a.82.82 0 0 1-1.06.47l-2.3-.88.59-1.54 2.3.89c.42.16.63.63.47 1.06zM27 21.16a3.29 3.29 0 1 1-6 2.68 3.29 3.29 0 0 1 6-2.68zm2.43 11.51-1.5.67-1-2.25a.82.82 0 1 1 1.5-.67l1 2.25zM20.66 15c-.42.18-.9 0-1.09-.42l-1-2.25 1.5-.67 1 2.25c.19.42 0 .9-.41 1.09zm14.37 10.85-.59 1.54-2.3-.89a.82.82 0 1 1 .59-1.53l2.3.88zm-6.14-13.8-.89 2.3a.82.82 0 1 1-1.53-.58l.88-2.3 1.54.59zm5.95 6.52-2.25 1a.82.82 0 1 1-.67-1.5l2.25-1 .67 1.5z"/></g></svg>