<svg xmlns="http://www.w3.org/2000/svg" width="48" height="48" viewBox="0 0 48 48">
  <g fill="none" fill-rule="evenodd" transform="translate(-480 -480)">
    <g transform="translate(479 480)">
      <path fill="#FF9126" d="M7.001,21 L7.001,47.0002 L43.001,47.0002 L43.001,21 L47.2929639,25.2928225 L47.2928932,25.2928932 C47.6833785,25.6834566 48.3165434,25.6835199 48.7071068,25.2930346 C48.7071303,25.2930111 48.7071539,25.2929875 48.7071775,25.2929639 L48.7928932,25.2071068 L48.7928595,25.2070731 C49.1833707,24.816562 49.1833858,24.183423 48.7928932,23.7928932 L39.001,14 L39.001,4 L39.001,4 C39.001,3.44771525 38.5532847,3 38.001,3 L33,3 L33,3 C32.4477153,3 32,3.44771525 32,4 L32,7 L25.7071068,0.707106781 L25.7071068,0.707106781 C25.3165825,0.316582489 24.6834175,0.316582489 24.2928932,0.707106781 L1.20710678,23.7928932 L1.2068712,23.7926576 C0.816346905,24.1831819 0.816346905,24.8163469 1.2068712,25.2068712 C1.20694974,25.2069497 1.20702829,25.2070283 1.20710686,25.2071068 L1.29365763,25.2931289 L1.29389322,25.2928931 C1.68445558,25.6831953 2.31743884,25.6830898 2.70787112,25.2926576 L7.001,21 Z"/>
      <rect width="8" height="14" x="15" y="33" fill="#FFE2A1"/>
    </g>
  </g>
</svg>
