<svg xmlns="http://www.w3.org/2000/svg" width="48" height="48" viewBox="0 0 48 48">
  <g fill="none" fill-rule="evenodd">
    <circle cx="24" cy="24" r="24" fill="#B5EDBD"/>
    <path fill="#1EC737" d="M24,14 C20.6862915,14 18,11.3137085 18,8 C18,4.6862915 20.6862915,2 24,2 C27.3137085,2 30,4.6862915 30,8 C30,11.3137085 27.3137085,14 24,14 Z M32.660254,19 C31.0033998,16.1302443 31.9866507,12.4607018 34.8564065,10.8038476 C37.7261622,9.14699333 41.3957046,10.1302443 43.0525589,13 C44.7094131,15.8697557 43.7261622,19.5392982 40.8564065,21.1961524 C37.9866507,22.8530067 34.3171083,21.8697557 32.660254,19 Z M32.660254,29 C34.3171083,26.1302443 37.9866507,25.1469933 40.8564065,26.8038476 C43.7261622,28.4607018 44.7094131,32.1302443 43.0525589,35 C41.3957046,37.8697557 37.7261622,38.8530067 34.8564065,37.1961524 C31.9866507,35.5392982 31.0033998,31.8697557 32.660254,29 Z M24,34 C27.3137085,34 30,36.6862915 30,40 C30,43.3137085 27.3137085,46 24,46 C20.6862915,46 18,43.3137085 18,40 C18,36.6862915 20.6862915,34 24,34 Z M15.339746,29 C16.9966002,31.8697557 16.0133493,35.5392982 13.1435935,37.1961524 C10.2738378,38.8530067 6.60429537,37.8697557 4.94744112,35 C3.29058687,32.1302443 4.2738378,28.4607018 7.14359354,26.8038476 C10.0133493,25.1469933 13.6828917,26.1302443 15.339746,29 Z M15.339746,19 C13.6828917,21.8697557 10.0133493,22.8530067 7.14359354,21.1961524 C4.2738378,19.5392982 3.29058687,15.8697557 4.94744112,13 C6.60429537,10.1302443 10.2738378,9.14699333 13.1435935,10.8038476 C16.0133493,12.4607018 16.9966002,16.1302443 15.339746,19 Z M24,30 C20.6862915,30 18,27.3137085 18,24 C18,20.6862915 20.6862915,18 24,18 C27.3137085,18 30,20.6862915 30,24 C30,27.3137085 27.3137085,30 24,30 Z"/>
    <circle cx="36" cy="36" r="12" fill="#1EC737"/>
    <path fill="#FFFFFF" fill-rule="nonzero" d="M31.7071068,37.2928932 C31.3165825,36.9023689 30.6834175,36.9023689 30.2928932,37.2928932 C29.9023689,37.6834175 29.9023689,38.3165825 30.2928932,38.7071068 L32.2928932,40.7071068 C32.6834175,41.0976311 33.3165825,41.0976311 33.7071068,40.7071068 L41.7071068,32.7071068 C42.0976311,32.3165825 42.0976311,31.6834175 41.7071068,31.2928932 C41.3165825,30.9023689 40.6834175,30.9023689 40.2928932,31.2928932 L33,38.5857864 L31.7071068,37.2928932 Z"/>
  </g>
</svg>
