<svg xmlns="http://www.w3.org/2000/svg" width="48" height="48" viewBox="0 0 48 48">
  <g fill="none" fill-rule="evenodd">
    <rect width="38" height="32" fill="#FFE2A1"/>
    <path fill="#FF9126" d="M31,12 L38,12 C39.1045695,12 40,12.8954305 40,14 L40,20 C40,21.1045695 39.1045695,22 38,22 L31,22 C28.2385763,22 26,19.7614237 26,17 L26,17 L26,17 C26,14.2385763 28.2385763,12 31,12 L31,12 Z M31,19 C32.1045695,19 33,18.1045695 33,17 C33,15.8954305 32.1045695,15 31,15 C29.8954305,15 29,15.8954305 29,17 C29,18.1045695 29.8954305,19 31,19 Z"/>
    <g transform="translate(24 24)">
      <circle cx="12" cy="12" r="12" fill="#FF9126"/>
      <path fill="#FFFFFF" fill-rule="nonzero" d="M5.29194944,13.7099466 C4.89985674,13.3178539 4.9055206,12.6764822 5.29194944,12.2900534 L11.8720562,5.70994663 C12.2641489,5.31785393 13.0350391,5 13.5790329,5 L19.5849727,5 C20.1356172,5 20.5820028,5.45303631 20.5820028,5.99703014 L20.5820028,12.0029699 C20.5820028,12.5536144 20.258485,13.3235178 19.8720562,13.7099466 L13.2919494,20.2900534 C12.8998567,20.6821461 12.258485,20.6764822 11.8720562,20.2900534 L5.29194944,13.7099466 Z M16.5800018,11 C17.6845713,11 18.5800018,10.1045695 18.5800018,9 C18.5800018,7.8954305 17.6845713,7 16.5800018,7 C15.4754323,7 14.5800018,7.8954305 14.5800018,9 C14.5800018,10.1045695 15.4754323,11 16.5800018,11 Z" transform="matrix(-1 0 0 1 25.582 0)"/>
    </g>
  </g>
</svg>
