<svg width="48" height="48" xmlns="http://www.w3.org/2000/svg"><g fill="none" fill-rule="evenodd"><path d="M24 0c13.255 0 24 10.745 24 24S37.255 48 24 48 0 37.255 0 24 10.745 0 24 0" fill="#FCBABA"/><path d="M26.536 36.393l6.928-4 .006.01A3.984 3.984 0 0 1 32 37.857a3.997 3.997 0 0 1-5.458-1.454l-.006-.01zm-1-1.732l-6.917 3.993a2.002 2.002 0 0 1-2.744-.726 2.007 2.007 0 0 1 .733-2.731l-2-3.464c-2.45-4.243-3.257-10.974.301-15.48l-.379-.655A3.985 3.985 0 0 1 16 10.144a3.995 3.995 0 0 1 5.458 1.454l.38.656c5.68-.828 11.104 3.236 13.554 7.478l2 3.465a1.994 1.994 0 0 1 2.732.732 2.004 2.004 0 0 1-.743 2.738l-6.917 3.994-6.928 4z" fill="#F52D2D"/></g></svg>