<svg xmlns="http://www.w3.org/2000/svg" width="48" height="48"><g fill="none" fill-rule="evenodd"><path fill="#F52D2D" d="M7 36c-1.654 0-3-1.346-3-3 0-1.655 1.346-3 3-3h13.068c1.43 1.204 2.285-2.3.906-3.882-1.474-1.69-5.217-1.47-4.37-.119H7c-3.86 0-7 3.14-7 7s3.14 7 7 7h34c1.102 0 2 .899 2 2 0 1.105-.898 2-2 2H21A2 2 0 0 0 21 48h20c3.308 0 6-2.692 6-6s-2.692-6-6-6H7z"/><path fill="#FCBFBF" d="M31 34c-9.389 0-17-7.612-17-17.001 0-9.39 7.611-17 17-17s17 7.61 17 17-7.611 17-17 17zm0-21.001c-2.206 0-4 1.794-4 4s1.794 4 4 4 4-1.794 4-4-1.794-4-4-4z"/><path fill="#F52D2D" d="M19.057 12.078a1 1 0 0 1 .524-.574.987.987 0 0 1 .776-.028l5 1.91c.278.108.492.33.59.61a.997.997 0 0 1-.09.842c-.98 1.624-.626 3.322-.154 4.458.102.248.1.526-.004.774-.104.246-.304.44-.552.54l-4.724 1.864a.968.968 0 0 1-.424.118h-.042c-.462 0-.872-.314-.984-.762-1.468-3.686-.768-7.33.084-9.752zm7.132-7.12c.014-.002.028-.006.042-.006 2.9-1.136 6.292-1.092 9.69.104a1.002 1.002 0 0 1 .592 1.33L34.6 10.962a1 1 0 0 1-1.458.462 5.987 5.987 0 0 0-4.44.044.999.999 0 0 1-1.306-.54L25.533 6.44a.98.98 0 0 1-.124-.438l-.002-.022c-.02-.486.31-.916.782-1.022zm15.38 6.572a.962.962 0 0 1 .43-.12c.476-.038.912.296 1.026.758 1.47 3.69.772 7.334-.082 9.754a.994.994 0 0 1-.944.67.993.993 0 0 1-.356-.066l-5-1.912a1.005 1.005 0 0 1-.5-1.452c.982-1.624.626-3.32.156-4.458a.994.994 0 0 1 .556-1.312l4.714-1.862zm-5.74 17.496c-1.418.566-2.948.85-4.552.85-1.692 0-3.442-.314-5.2-.932a.994.994 0 0 1-.574-.524.983.983 0 0 1-.026-.778l1.91-5a.997.997 0 0 1 1.45-.498c1.28.772 2.852.818 4.458.154.248-.102.526-.1.772.002.248.106.442.306.54.556l1.868 4.724c.068.126.11.272.116.42.02.478-.3.912-.762 1.026z"/></g></svg>