<svg xmlns="http://www.w3.org/2000/svg" width="48" height="48"><g fill="none" fill-rule="evenodd"><path fill="#FFE2A1" d="M0 0h38v32H0z"/><path fill="#FF9126" d="M31 12h7a2 2 0 0 1 2 2v6a2 2 0 0 1-2 2h-7a5 5 0 0 1 0-10zm0 7a2 2 0 1 0 0-4 2 2 0 0 0 0 4z"/><g transform="translate(24 24)"><circle cx="12" cy="12" r="12" fill="#FF9126"/><path fill="#FFF" fill-rule="nonzero" d="M20.29 13.71a1.01 1.01 0 0 0 0-1.42l-6.58-6.58c-.392-.392-1.163-.71-1.707-.71H5.997C5.447 5 5 5.453 5 5.997v6.006c0 .55.324 1.32.71 1.707l6.58 6.58a1.01 1.01 0 0 0 1.42 0l6.58-6.58zM9.002 11a2 2 0 1 1 0-4 2 2 0 0 1 0 4z"/></g></g></svg>