<svg xmlns="http://www.w3.org/2000/svg" width="48" height="48"><g fill="none" fill-rule="evenodd"><path fill="#FF9126" d="M9.001 27.002h-8a1 1 0 0 0-1 1v15c0 .55.448 1 1 1h8c.55 0 1-.45 1-1v-15c0-.552-.45-1-1-1"/><path fill="#FFE2A1" d="M47.708 35.293c-2.348-2.346-4.374-3-7.024-2.24l-6.016 1.996c.054.314.082.632.082.952 0 1.28-.416 2.486-1.168 3.39-.878 1.052-2.116 1.61-3.582 1.61H20a1 1 0 0 1 0-2h10c.864 0 1.552-.3 2.044-.89.45-.538.706-1.306.706-2.11 0-1.114-.58-3-2.75-3h-6a.998.998 0 0 1-.706-.292c-.918-.918-3.708-3.708-8.294-3.708h-3a1 1 0 0 0-1 1v11c0 .43.276.814.684.948a274.217 274.217 0 0 1 7.522 2.642c3.856 1.402 6.014 2.16 7.938 2.16 2.294 0 4.256-1.078 8.354-3.418 2.712-1.552 6.424-3.674 11.95-6.436.288-.146.488-.418.54-.736.05-.316-.054-.64-.28-.868"/><path fill="#FF9126" d="M34.001 15.002c-3.86 0-7-3.14-7-7 0-3.862 3.14-7 7-7s7 3.138 7 7c0 3.86-3.14 7-7 7zm-9 14c-3.86 0-7-3.14-7-7 0-3.862 3.14-7 7-7s7 3.138 7 7c0 3.86-3.14 7-7 7z"/><path fill="#FFE2A1" d="M33.001 6.002a1 1 0 0 1 2 0v4c0 .55-.45 1-1 1-.552 0-1-.45-1-1v-4zm-9 14a1 1 0 0 1 2 0v4c0 .55-.45 1-1 1-.552 0-1-.45-1-1v-4z"/></g></svg>