<svg xmlns="http://www.w3.org/2000/svg" width="48" height="48" viewBox="0 0 48 48">
  <g fill="none" fill-rule="evenodd" transform="translate(-480 -96)">
    <g transform="translate(481 97)">
      <path fill="#FFE2A1" d="M23,46 C10.2974508,46 0,35.7025492 0,23 C0,10.2974508 10.2974508,0 23,0 C35.7025492,0 46,10.2974508 46,23 C46,35.7025492 35.7025492,46 23,46 Z M42,23 L38,23 C37.4477153,23 37,23.4477153 37,24 C37,24.5522847 37.4477153,25 38,25 L42,25 C42.5522847,25 43,24.5522847 43,24 C43,23.4477153 42.5522847,23 42,23 Z M40.1703157,14.806438 L36.4743157,16.336438 C35.9640256,16.5476782 35.7215978,17.1325941 35.932838,17.6428843 C36.1440782,18.1531744 36.7289941,18.3956022 37.2392843,18.184362 L40.9352843,16.654362 C41.4455744,16.4431218 41.6880022,15.8582059 41.476762,15.3479157 C41.2655218,14.8376256 40.6806059,14.5951978 40.1703157,14.806438 Z M29.345638,5.06291573 L27.815638,8.75891573 C27.6043978,9.26920585 27.8468256,9.85412177 28.3571157,10.065362 C28.8674059,10.2766022 29.4523218,10.0341744 29.663562,9.52388427 L31.193562,5.82788427 C31.4048022,5.31759415 31.1623744,4.73267823 30.6520843,4.521438 C30.1417941,4.31019777 29.5568782,4.55262561 29.345638,5.06291573 Z M22,4 L22,8 C22,8.55228475 22.4477153,9 23,9 C23.5522847,9 24,8.55228475 24,8 L24,4 C24,3.44771525 23.5522847,3 23,3 C22.4477153,3 22,3.44771525 22,4 Z M14.806438,5.82788427 L16.336438,9.52388427 C16.5476782,10.0341744 17.1325941,10.2766022 17.6428843,10.065362 C18.1531744,9.85412177 18.3956022,9.26920585 18.184362,8.75891573 L16.654362,5.06291573 C16.4431218,4.55262561 15.8582059,4.31019777 15.3479157,4.521438 C14.8376256,4.73267823 14.5951978,5.31759415 14.806438,5.82788427 Z M8.85829378,10.2685059 L11.6822938,13.1005059 C12.0722653,13.4915822 12.7054297,13.4924778 13.0965059,13.1025062 C13.4875822,12.7125347 13.4884778,12.0793703 13.0985062,11.6882941 L10.2745062,8.85629408 C9.88453469,8.46521781 9.25137034,8.46432224 8.86029408,8.85429378 C8.46921781,9.24426531 8.46832224,9.87742966 8.85829378,10.2685059 Z M5.06453896,16.6542888 L8.75853896,18.1842888 C9.26878866,18.3956267 9.85375095,18.1533107 10.0650888,17.643061 C10.2764267,17.1328113 10.0341107,16.547849 9.52386104,16.3365112 L5.82986104,14.8065112 C5.31961134,14.5951733 4.73464905,14.8374893 4.52331119,15.347739 C4.31197334,15.8579887 4.55428926,16.442951 5.06453896,16.6542888 Z M4,25 L8,25 C8.55228475,25 9,24.5522847 9,24 C9,23.4477153 8.55228475,23 8,23 L4,23 C3.44771525,23 3,23.4477153 3,24 C3,24.5522847 3.44771525,25 4,25 Z"/>
      <rect width="4" height="8" x="21" y="32" stroke="#FF9125" stroke-width="2" stroke-linecap="round" stroke-linejoin="round"/>
      <rect width="4" height="8" x="29" y="32" stroke="#FF9125" stroke-width="2" stroke-linecap="round" stroke-linejoin="round"/>
      <rect width="4" height="8" x="13" y="32" stroke="#FF9125" stroke-width="2" stroke-linecap="round" stroke-linejoin="round"/>
      <path stroke="#FF9125" stroke-width="2" d="M26 23C26 24.656 24.656 26 23 26 21.344 26 20 24.656 20 23 20 21.344 21.344 20 23 20 24.656 20 26 21.344 26 23L26 23zM25.121 20.879L35.021 10.981" stroke-linecap="round" stroke-linejoin="round"/>
    </g>
  </g>
</svg>
