<svg xmlns="http://www.w3.org/2000/svg" width="16" height="16" viewBox="0 0 16 16">
    <g fill="none" fill-rule="evenodd">
        <g fill="#297EF1">
            <g>
                <g>
                    <g>
                        <path d="M2 15.005v-8.01C2 6.455 2.448 6 3 6h1V4c0-2.206 1.794-4 4-4 2.205 0 4 1.794 4 4v2h1c.556 0 1 .446 1 .995v8.01c0 .54-.449.995-1.002.995H3.002C2.456 16 2 15.554 2 15.005zM6 4.5C6 3.122 6.897 2 8 2s2 1.122 2 2.5V6H6V4.5zm2 4c.826 0 1.5.672 1.5 1.5 0 .552-.305 1.032-.75 1.29v2.46c0 .412-.338.75-.75.75-.414 0-.75-.338-.75-.75v-2.46c-.447-.258-.75-.738-.75-1.29 0-.828.672-1.5 1.5-1.5z" transform="translate(-368 -254) translate(312 222) translate(48 24) translate(8 8)"/>
                    </g>
                </g>
            </g>
        </g>
    </g>
</svg>
