<svg xmlns="http://www.w3.org/2000/svg" width="32" height="32"><g fill="none" fill-rule="evenodd"><path fill="#B2D3FF" d="M8.889 27.874C3.979 27.874 0 23.913 0 19.026c0-4.333 3.129-7.938 7.26-8.7C8.025 6.216 11.647 3.1 16 3.1c4.353 0 7.975 3.115 8.74 7.228 4.131.76 7.26 4.365 7.26 8.698 0 4.8-3.839 8.706-8.627 8.844l-.262.004H8.89z"/><path fill="#297EF1" d="m13.022 22.903-4.4-.032a.513.513 0 0 1-.369-.881l7.88-7.786a.526.526 0 0 1 .739 0l7.88 7.786a.512.512 0 0 1 0 .73.525.525 0 0 1-.37.151l-4.36.032v8.484a.52.52 0 0 1-.522.516h-5.955a.519.519 0 0 1-.523-.516v-8.484z"/></g></svg>