<svg xmlns="http://www.w3.org/2000/svg" width="16" height="16" viewBox="0 0 16 16">
  <path fill="#5D6165" fill-rule="evenodd" d="M162,65.0008717 C162,64.4481055 162.455761,64 163.002473,64 L172.997527,64 C173.551177,64 174,64.4446309 174,65.0008717 L174,78.9991283 C174,79.5518945 173.544239,80 172.997527,80 L163.002473,80 C162.448823,80 162,79.5553691 162,78.9991283 L162,65.0008717 Z M164,66 L172,66 L172,76 L164,76 L164,66 Z M168,79 C168.552285,79 169,78.5522847 169,78 C169,77.4477153 168.552285,77 168,77 C167.447715,77 167,77.4477153 167,78 C167,78.5522847 167.447715,79 168,79 Z" transform="translate(-160 -64)"/>
</svg>
