<svg width="128" height="128" viewBox="0 0 128 128" fill="none" xmlns="http://www.w3.org/2000/svg">
<path d="M20.96 122.384C24.5388 124.082 33.7078 125.545 41.1004 126.145C61.2669 127.752 89.4531 126.903 101.391 123.964C113.433 121.012 113.969 116.519 83.3665 114.26C57.3094 112.353 26.8898 115.03 20.3984 119.053C18.6482 120.124 18.7527 121.326 20.96 122.384Z" fill="black" fill-opacity="0.16"/>
<path d="M13 41.6C13 34.3028 13.0008 28.8901 13.3509 24.6047C13.7001 20.331 14.3917 17.2666 15.7248 14.6502C18.1217 9.94619 21.9462 6.12167 26.6502 3.72484C29.2666 2.39172 32.331 1.70008 36.6047 1.35091C40.8901 1.00078 46.3028 1 53.6 1H74.4C81.6972 1 87.1099 1.00078 91.3953 1.35091C95.669 1.70008 98.7334 2.39172 101.35 3.72484L101.804 2.83383L101.35 3.72484C106.054 6.12167 109.878 9.94619 112.275 14.6502C113.608 17.2666 114.3 20.331 114.649 24.6047C114.999 28.8901 115 34.3028 115 41.6V62.4C115 69.6972 114.999 75.1099 114.649 79.3953C114.3 83.669 113.608 86.7334 112.275 89.3498C109.878 94.0538 106.054 97.8783 101.35 100.275C98.7334 101.608 95.669 102.3 91.3953 102.649C87.1099 102.999 81.6972 103 74.4 103H53.6C46.3028 103 40.8901 102.999 36.6047 102.649C32.331 102.3 29.2666 101.608 26.6502 100.275C21.9462 97.8783 18.1217 94.0538 15.7248 89.3498L14.8338 89.8037L15.7248 89.3498C14.3917 86.7334 13.7001 83.669 13.3509 79.3953C13.0008 75.1099 13 69.6972 13 62.4V41.6Z" fill="#297EF2" stroke="white" stroke-width="2"/>
<path fill-rule="evenodd" clip-rule="evenodd" d="M75.4025 62.5345C74.8526 63.391 73.6334 63.6484 72.7934 63.0868C72.7208 63.0423 72.6506 62.9932 72.5851 62.944C70.1351 64.8652 67.1189 65.9135 63.9833 65.9135C60.8547 65.9135 57.8455 64.8699 55.4002 62.9557C55.337 63.0002 55.2738 63.047 55.2083 63.0868C54.3425 63.6507 53.1421 63.3816 52.5968 62.5416C52.0446 61.6898 52.2856 60.5362 53.1327 59.9676C53.8675 59.4832 53.9189 58.5168 53.9189 58.5074C53.9377 58.002 54.1576 57.5199 54.525 57.1806C54.89 56.8413 55.3487 56.6448 55.8541 56.6845C56.8673 56.7079 57.691 57.5597 57.6723 58.5846C57.6723 58.5987 57.67 59.1111 57.4851 59.8225C61.2642 62.9604 66.7421 62.9487 70.5072 59.7967C70.3691 59.2515 70.334 58.8163 70.3247 58.615C70.3153 58.0885 70.5025 57.6112 70.8559 57.2485C71.2022 56.8928 71.6702 56.6916 72.1686 56.6822H72.2014C73.2146 56.6822 74.0546 57.4989 74.078 58.5144C74.078 58.5144 74.1319 59.4855 74.8596 59.9652C75.7114 60.5268 75.9547 61.6758 75.4025 62.5345ZM83.394 40.6182C82.8534 36.0459 80.8293 31.8198 77.5791 28.5532C73.8515 24.8069 68.9258 22.75 63.7122 22.75C58.4987 22.75 53.5754 24.8069 49.8477 28.5555C46.5834 31.8339 44.5547 36.0833 44.0258 40.6814C39.5494 41.2243 35.4099 43.3092 32.2135 46.6578C28.5678 50.4837 26.5601 55.5404 26.5601 60.8943C26.5601 72.1193 35.4521 81.25 46.3869 81.25H81.6109C92.541 81.25 101.44 72.1193 101.44 60.8943C101.44 50.2871 93.4934 41.5472 83.394 40.6182Z" fill="white"/>
<path d="M81.8946 96.157C83.2947 101.682 87.3758 106.668 90.7731 108.761C100.031 114.492 113.512 112.549 119.666 103.474C125.864 94.3225 126.884 79.9376 112.796 71.8872C100.802 65.0346 85.954 72.7829 82.1985 85.4735C81.1891 88.8728 81.0263 92.7254 81.9055 96.157H81.8946Z" fill="#CBF7D8"/>
<path fill-rule="evenodd" clip-rule="evenodd" d="M101 91.6427V83.9997C101 83.0792 101.747 82.333 102.667 82.333C103.587 82.333 104.334 83.0792 104.334 83.9997V91.6427L104.822 91.1545C105.473 90.5036 106.528 90.5036 107.179 91.1545C107.83 91.8054 107.83 92.8606 107.179 93.5115L103.846 96.8449C103.195 97.4957 102.139 97.4957 101.488 96.8449L98.1551 93.5115C97.5043 92.8606 97.5043 91.8054 98.1551 91.1545C98.806 90.5036 99.8613 90.5036 100.512 91.1545L101 91.6427ZM92.667 79.0011C92.667 78.0799 93.4266 77.333 94.3378 77.333H110.996C111.919 77.333 112.667 78.0741 112.667 79.0011V102.332C112.667 103.253 111.907 104 110.996 104H94.3378C93.415 104 92.667 103.259 92.667 102.332V79.0011ZM96.0003 80.6663V98.9997H109.334V80.6663H96.0003Z" fill="#35CE68"/>
</svg>
