<svg width="258" height="34" viewBox="0 0 258 34" fill="none" xmlns="http://www.w3.org/2000/svg">
<rect y="0.754883" width="32.49" height="32.49" rx="9.91366" fill="white"/>
<rect y="0.754883" width="32.49" height="32.49" rx="9.91366" fill="url(#paint0_linear_6911_8250)"/>
<rect y="0.754883" width="32.49" height="32.49" rx="9.91366" fill="url(#paint1_linear_6911_8250)"/>
<rect y="0.754883" width="32.49" height="32.49" rx="9.91366" fill="url(#paint2_linear_6911_8250)"/>
<path d="M16.2885 5.59692C16.3003 5.60555 16.3139 5.61143 16.3282 5.61411C16.3352 5.61411 16.3422 5.61734 16.3497 5.61787C16.4326 5.62646 16.5128 5.65187 16.5855 5.69254C16.6081 5.70382 16.6296 5.71724 16.6516 5.7296L18.2657 6.64274L20.1532 7.71058C20.6098 7.96841 21.066 8.22659 21.5219 8.48514C21.5503 8.50125 21.5788 8.51629 21.6062 8.53348C21.7812 8.64052 21.9037 8.81573 21.9441 9.01691C21.9486 9.03812 21.9513 9.05968 21.9521 9.08136C21.9521 9.13186 21.9559 9.18235 21.9559 9.23338V11.4131C21.9559 12.2263 21.9559 13.0396 21.9559 13.8528C21.9559 13.8963 21.9559 13.9398 21.9559 13.9828C21.9524 14.0991 21.9183 14.2125 21.857 14.3115C21.7656 14.4655 21.6212 14.581 21.451 14.6365C21.3783 14.659 21.303 14.6714 21.227 14.6736C21.1944 14.6733 21.1619 14.6706 21.1298 14.6655C21.0433 14.656 20.9594 14.6301 20.8827 14.5892C20.8569 14.5758 20.8316 14.5613 20.8069 14.5473L18.3812 13.1749L16.6623 12.2043L16.5775 12.1565C16.5095 12.1229 16.4372 12.0988 16.3626 12.0851C16.3449 12.0818 16.3269 12.0798 16.3089 12.0792C16.2799 12.0792 16.2509 12.0792 16.2219 12.0792C16.1095 12.0799 15.9989 12.1077 15.8996 12.1603C15.8706 12.1753 15.8427 12.192 15.8147 12.2081C15.2031 12.5583 14.5915 12.9087 13.9799 13.2593L11.7776 14.521C11.7464 14.5393 11.7147 14.557 11.683 14.5747C11.6131 14.6126 11.538 14.6399 11.4601 14.6558C11.446 14.6588 11.4316 14.6608 11.4172 14.6617L11.3097 14.665C11.2079 14.6652 11.1075 14.6416 11.0164 14.5962C10.819 14.5066 10.6721 14.3331 10.6163 14.1235C10.599 14.0643 10.5899 14.0031 10.5894 13.9414V9.23391C10.5894 9.20491 10.5894 9.1759 10.5894 9.14743C10.5914 9.05684 10.6095 8.96732 10.6431 8.88316C10.6997 8.74099 10.7994 8.62017 10.9284 8.53778C10.9525 8.5222 10.9783 8.50823 11.003 8.49373L12.3013 7.74925L13.8445 6.86512L15.4049 5.97292L15.7911 5.75162L15.876 5.70382C15.9272 5.67587 15.9812 5.65336 16.0371 5.63667C16.0725 5.62798 16.1083 5.62169 16.1445 5.61787C16.1588 5.61571 16.1721 5.60935 16.1827 5.59961L16.2885 5.59692Z" fill="white"/>
<path d="M4.93793 18.8488C4.9596 18.8428 4.97525 18.8239 4.97714 18.8015C4.98273 18.7586 4.99098 18.7161 5.00185 18.6742C5.04834 18.5091 5.15114 18.3654 5.29244 18.2681C5.32198 18.2477 5.35368 18.2295 5.38483 18.2144L6.37102 17.645L8.56847 16.3774L9.42306 15.8838C9.45422 15.866 9.48591 15.8478 9.51814 15.83C9.61506 15.7803 9.72236 15.7542 9.83129 15.7537C10.0253 15.7515 10.2125 15.8255 10.3523 15.96C10.44 16.042 10.5053 16.145 10.5419 16.2592C10.5645 16.3242 10.5768 16.3924 10.5785 16.4612C10.5785 16.5009 10.5785 16.5407 10.5785 16.5804V21.1671C10.5785 21.2138 10.5785 21.2611 10.5785 21.3078C10.583 21.547 10.7031 21.7692 10.9007 21.904C10.933 21.9266 10.9684 21.9459 11.0028 21.9653L11.9396 22.489L13.8701 23.5681L15.0657 24.2352C15.0974 24.253 15.1291 24.2702 15.1597 24.289C15.3247 24.3845 15.4445 24.5422 15.4922 24.7267C15.519 24.8208 15.5258 24.9194 15.5121 25.0162C15.5005 25.1022 15.4747 25.1857 15.4358 25.2633C15.3757 25.3797 15.2848 25.4774 15.1732 25.5459C15.1426 25.5652 15.1103 25.5819 15.0786 25.5996L11.9535 27.3184L10.8895 27.9023C10.861 27.9179 10.8357 27.9345 10.8041 27.949C10.7558 27.974 10.705 27.9936 10.6526 28.0076C10.579 28.0269 10.503 28.035 10.427 28.0318C10.3034 28.0258 10.1834 27.9888 10.0778 27.9243L9.75072 27.732L5.40524 25.1774C5.37731 25.1613 5.35153 25.1452 5.32145 25.1274C5.154 25.0237 5.03519 24.8571 4.99164 24.6649C4.98358 24.6333 4.98144 24.6005 4.97553 24.5688C4.97271 24.5543 4.96253 24.5423 4.94867 24.5371C4.94535 24.5358 4.94194 24.5347 4.93846 24.5339L4.93793 18.8488Z" fill="white"/>
<path d="M21.8662 28.0671C21.8582 28.0601 21.8494 28.0541 21.8399 28.0494C21.8126 28.0398 21.7848 28.0317 21.7566 28.0252C21.6895 28.01 21.6249 27.9852 21.5649 27.9516C21.5299 27.9323 21.4961 27.9119 21.4617 27.892L19.8562 26.9654L17.4799 25.5952C17.4546 25.5807 17.4294 25.5667 17.4052 25.5511C17.2409 25.4486 17.1247 25.2842 17.0829 25.0951C17.0711 25.0458 17.0652 24.9954 17.0652 24.9447C17.0564 24.6972 17.1753 24.4626 17.38 24.3232C17.4098 24.3037 17.4406 24.2858 17.4724 24.2695L18.827 23.4928L20.6533 22.447L21.5095 21.9566C21.5471 21.9351 21.5853 21.9141 21.6218 21.8911C21.7613 21.8046 21.868 21.6739 21.9247 21.5199C21.9445 21.4693 21.9576 21.4164 21.9639 21.3625C21.9704 21.3051 21.9736 21.2473 21.9736 21.1895C21.9736 20.9833 21.9736 20.7776 21.9736 20.5713C21.9736 19.2557 21.9736 17.9402 21.9736 16.6249C21.9736 16.5884 21.9736 16.5524 21.9736 16.5175C21.9736 16.4826 21.9736 16.4595 21.9768 16.431C21.986 16.2589 22.0585 16.0963 22.1804 15.9744C22.2721 15.8809 22.3873 15.8139 22.514 15.7805C22.5696 15.7644 22.6269 15.7552 22.6848 15.753C22.8046 15.7511 22.9231 15.7782 23.0302 15.8321C23.0592 15.8466 23.0877 15.8627 23.1156 15.8794L24.2049 16.5073L26.1209 17.6133L27.1253 18.1928C27.157 18.2111 27.1882 18.2288 27.2193 18.2465C27.3469 18.3241 27.4474 18.4391 27.5073 18.5758C27.5186 18.5986 27.526 18.6231 27.5293 18.6483C27.5334 18.6657 27.5413 18.6821 27.5524 18.6961V24.6837C27.5401 24.6916 27.532 24.7046 27.5304 24.7191C27.5263 24.7479 27.5176 24.7758 27.5046 24.8018C27.4462 24.9311 27.3511 25.0403 27.2312 25.1161C27.2011 25.1359 27.1694 25.1537 27.1382 25.1698L25.6616 26.0163L22.37 27.9044C22.3421 27.9205 22.3163 27.9371 22.2852 27.9522C22.2254 27.9859 22.1609 28.0107 22.0939 28.0258C22.0692 28.0313 22.0448 28.0385 22.0209 28.0472C22.0108 28.0508 22.0022 28.0579 21.9967 28.0671H21.8662Z" fill="white"/>
<path d="M45.1717 27.7847V12.6158H39.8864V9.28605H54.1568V12.6158H48.8714V27.7847H45.1717ZM55.8666 27.7847L51.5855 14.0428H55.7609L57.5315 21.8387C57.6901 22.4993 57.8486 23.2393 57.9543 23.9264C58.06 23.2393 58.2186 22.4729 58.4036 21.8123L60.412 14.0428H64.5081L66.6487 21.8123C66.8337 22.4729 66.9922 23.2393 67.0979 23.9264C67.2036 23.2393 67.3622 22.4993 67.5208 21.8387L69.4235 14.0428H73.3082L69.0271 27.7847H65.1688L62.9225 19.9624C62.7111 19.3017 62.5526 18.5882 62.4469 17.9011C62.3412 18.5882 62.209 19.3017 62.024 19.9624L59.9628 27.7847H55.8666ZM79.6886 28.1282C75.9096 28.1282 72.8969 24.9306 72.8969 20.9666C72.8969 17.0026 75.9096 13.7521 79.6886 13.7521C82.067 13.7521 83.309 14.7299 84.049 16.2098V14.0428H87.5901V27.7847H84.1282V25.5384C83.3883 27.0976 82.1462 28.1282 79.6886 28.1282ZM76.4645 20.9402C76.4645 23.0279 77.9973 24.9042 80.27 24.9042C82.6219 24.9042 84.1282 23.1072 84.1282 20.9666C84.1282 18.8261 82.6219 16.9762 80.27 16.9762C77.9973 16.9762 76.4645 18.7996 76.4645 20.9402ZM98.8006 27.7847L93.2774 21.2573V27.7847H89.7098V8.49325H93.2774V19.5924L98.4306 14.0428H103.505L97.03 20.4381L103.531 27.7847H98.8006ZM109.297 28.1282C105.042 28.1282 102.188 24.9042 102.188 20.9402C102.188 16.9762 105.174 13.6993 109.297 13.6993C113.419 13.6993 116.274 16.9762 116.274 20.9402C116.274 21.3366 116.247 21.7594 116.168 22.2087H105.888C106.284 23.8207 107.5 24.957 109.297 24.957C110.83 24.957 112.019 24.1642 112.653 23.1072L115.428 25.1949C114.318 26.9126 112.019 28.1282 109.297 28.1282ZM105.888 19.5396H112.679C112.283 18.0068 110.988 16.7648 109.244 16.7648C107.553 16.7648 106.284 17.9011 105.888 19.5396Z" fill="black"/>
<path d="M235.598 27.7433C233.526 27.7433 231.803 27.0559 230.428 25.681C229.072 24.3062 228.393 22.6106 228.393 20.5942C228.393 18.5778 229.072 16.8821 230.428 15.5073C231.803 14.1325 233.526 13.4451 235.598 13.4451C236.991 13.4451 238.237 13.775 239.337 14.4349C240.455 15.0949 241.326 15.9931 241.949 17.1296L239.887 18.2845C239.484 17.4779 238.906 16.8363 238.155 16.3597C237.422 15.8831 236.569 15.6448 235.598 15.6448C234.186 15.6448 233.031 16.1214 232.133 17.0746C231.235 18.0278 230.786 19.201 230.786 20.5942C230.786 21.9873 231.235 23.1605 232.133 24.1137C233.031 25.0669 234.186 25.5435 235.598 25.5435C236.569 25.5435 237.422 25.3052 238.155 24.8286C238.906 24.352 239.484 23.7104 239.887 22.9039L241.949 24.0587C241.326 25.1953 240.455 26.0935 239.337 26.7534C238.237 27.4133 236.991 27.7433 235.598 27.7433Z" fill="#97A3B7"/>
<path d="M218.071 27.743C217.008 27.743 216.101 27.5505 215.349 27.1655C214.616 26.7623 214.057 26.2215 213.672 25.5432C213.287 24.8467 213.094 24.0676 213.094 23.206C213.094 21.7579 213.516 20.713 214.359 20.0714C215.221 19.4298 216.449 19.1091 218.044 19.1091H222.773V18.1192C222.773 16.8727 222.489 16.0111 221.921 15.5345C221.371 15.0579 220.537 14.8196 219.419 14.8196C218.374 14.8196 217.613 15.0212 217.136 15.4245C216.66 15.8095 216.394 16.2494 216.339 16.7444H213.919C213.974 15.9561 214.24 15.2595 214.717 14.6546C215.193 14.0314 215.844 13.5364 216.669 13.1698C217.494 12.8032 218.456 12.6199 219.556 12.6199C220.711 12.6199 221.71 12.8032 222.553 13.1698C223.397 13.5181 224.047 14.0772 224.506 14.8471C224.964 15.5987 225.193 16.5977 225.193 17.8442V23.756C225.193 24.5259 225.193 25.2041 225.193 25.7907C225.211 26.359 225.257 26.9181 225.33 27.468H223.213C223.158 27.0464 223.122 26.6523 223.103 26.2856C223.085 25.9007 223.076 25.4699 223.076 24.9933C222.691 25.7632 222.068 26.414 221.206 26.9456C220.344 27.4772 219.3 27.743 218.071 27.743ZM218.594 25.5432C219.364 25.5432 220.06 25.4058 220.684 25.1308C221.325 24.8558 221.829 24.4525 222.196 23.9209C222.581 23.3893 222.773 22.7386 222.773 21.9687V20.9788H218.456C217.558 20.9788 216.852 21.1621 216.339 21.5287C215.826 21.877 215.569 22.4361 215.569 23.206C215.569 23.8843 215.807 24.4434 216.284 24.8833C216.779 25.3233 217.549 25.5432 218.594 25.5432Z" fill="#97A3B7"/>
<path d="M207.296 27.4679V6.84546H209.66V27.4679H207.296Z" fill="#97A3B7"/>
<path d="M192.294 33.2151H189.929V13.72H192.294V15.8373C192.77 15.1407 193.439 14.5724 194.301 14.1325C195.181 13.6742 196.125 13.4451 197.133 13.4451C199.039 13.4451 200.634 14.1416 201.917 15.5348C203.219 16.928 203.87 18.6144 203.87 20.5942C203.87 22.5739 203.219 24.2604 201.917 25.6535C200.634 27.0467 199.039 27.7433 197.133 27.7433C196.125 27.7433 195.181 27.5233 194.301 27.0833C193.439 26.6251 192.77 26.0476 192.294 25.3511V33.2151ZM193.421 24.1412C194.301 25.0944 195.419 25.571 196.776 25.571C198.132 25.571 199.25 25.0944 200.13 24.1412C201.01 23.188 201.45 22.0057 201.45 20.5942C201.45 19.1827 201.01 18.0003 200.13 17.0471C199.25 16.0939 198.132 15.6173 196.776 15.6173C195.419 15.6173 194.301 16.0939 193.421 17.0471C192.541 18.0003 192.101 19.1827 192.101 20.5942C192.101 22.0057 192.541 23.188 193.421 24.1412Z" fill="#97A3B7"/>
<path d="M184.965 27.4679L177.513 20.5937V27.4679H175.149V6.84546H177.513V19.0814L183.508 13.7196H186.642L179.878 19.7963L188.155 27.4679H184.965Z" fill="#97A3B7"/>
<path d="M164.802 27.4675V13.7193H167.167V16.3864C167.424 15.5432 167.918 14.865 168.652 14.3517C169.403 13.8384 170.192 13.5818 171.016 13.5818C171.42 13.5818 171.777 13.6184 172.089 13.6918V16.139C171.759 15.9923 171.328 15.919 170.796 15.919C169.843 15.919 169 16.3314 168.267 17.1563C167.534 17.9812 167.167 19.1453 167.167 20.6484V27.4675H164.802Z" fill="#97A3B7"/>
<path d="M154.279 27.7433C152.208 27.7433 150.484 27.0559 149.11 25.681C147.753 24.2879 147.075 22.5922 147.075 20.5942C147.075 18.5961 147.753 16.9096 149.11 15.5348C150.484 14.1416 152.208 13.4451 154.279 13.4451C156.332 13.4451 158.037 14.1416 159.393 15.5348C160.768 16.9096 161.456 18.5961 161.456 20.5942C161.456 22.5922 160.768 24.2879 159.393 25.681C158.037 27.0559 156.332 27.7433 154.279 27.7433ZM150.814 24.1137C151.713 25.0669 152.867 25.5435 154.279 25.5435C155.69 25.5435 156.836 25.0669 157.716 24.1137C158.596 23.1605 159.036 21.9873 159.036 20.5942C159.036 19.201 158.596 18.0278 157.716 17.0746C156.836 16.1214 155.69 15.6448 154.279 15.6448C152.867 15.6448 151.713 16.1214 150.814 17.0746C149.935 18.0278 149.495 19.201 149.495 20.5942C149.495 21.9873 149.935 23.1605 150.814 24.1137Z" fill="#97A3B7"/>
<path d="M138.611 27.4675L133.827 14.2142L129.07 27.4675H126.787L121.453 7.94495H124.12L128.19 23.178L133.827 7.61499L139.463 23.178L143.56 7.94495H146.227L140.893 27.4675H138.611Z" fill="#97A3B7"/>
<path d="M251.035 27.7433C248.927 27.7433 247.213 27.065 245.893 25.7085C244.573 24.352 243.913 22.6472 243.913 20.5942C243.913 18.5594 244.582 16.8638 245.92 15.5073C247.258 14.1325 248.972 13.4451 251.062 13.4451C252.914 13.4451 254.463 14.0683 255.709 15.3148C256.974 16.543 257.606 18.2203 257.606 20.3467C257.606 20.6217 257.597 20.86 257.579 21.0616H246.305C246.342 22.3448 246.8 23.4171 247.68 24.2787C248.578 25.1403 249.706 25.571 251.062 25.571C252.987 25.571 254.417 24.7736 255.352 23.1788L257.221 24.4712C255.883 26.6526 253.821 27.7433 251.035 27.7433ZM246.47 19.1369H255.187C255.003 18.037 254.518 17.1663 253.729 16.5247C252.959 15.8648 252.043 15.5348 250.98 15.5348C249.898 15.5348 248.927 15.8648 248.065 16.5247C247.222 17.1663 246.69 18.037 246.47 19.1369Z" fill="#97A3B7"/>
<defs>
<linearGradient id="paint0_linear_6911_8250" x1="32.49" y1="19.7074" x2="-8.36458e-07" y2="19.7074" gradientUnits="userSpaceOnUse">
<stop offset="0.12998" stop-color="#A033FF"/>
<stop offset="0.610381" stop-color="#0094FF"/>
<stop offset="1" stop-color="#4FB500"/>
</linearGradient>
<linearGradient id="paint1_linear_6911_8250" x1="14.8913" y1="10.908" x2="4.73812" y2="31.2143" gradientUnits="userSpaceOnUse">
<stop stop-color="#FFD600" stop-opacity="0"/>
<stop offset="0.563347" stop-color="#FFC700"/>
</linearGradient>
<linearGradient id="paint2_linear_6911_8250" x1="17.5988" y1="19.7074" x2="29.1056" y2="31.8911" gradientUnits="userSpaceOnUse">
<stop offset="0.0297327" stop-color="#FF3B30" stop-opacity="0"/>
<stop offset="0.842824" stop-color="#E73B2D"/>
</linearGradient>
</defs>
</svg>
