<svg xmlns="http://www.w3.org/2000/svg" width="110" height="48" viewBox="0 0 110 48">
    <g fill="none" fill-rule="evenodd">
        <g>
            <g transform="translate(-8 -8) translate(8 8)">
                <path d="M0 0H110V48H0z"/>
                <path fill="#297EF2" d="M85.66 20.477l2.597 6.934 2.464-6.934h2.846l-4.049 10.371c-.745 1.93-2.006 2.943-3.553 2.943-.821 0-1.815-.248-2.483-.611l.591-1.91c.478.266.975.438 1.3.438.533 0 .955-.172 1.166-.535l.344-.726-4.108-9.97h2.885zm-17.98-.196c2.922 0 5.367 2.349 5.367 5.157s-2.445 5.176-5.367 5.176c-2.942 0-5.406-2.368-5.406-5.176 0-2.808 2.464-5.157 5.406-5.157zM56.97 17c1.986 0 3.82.842 5.1 2.198l-2.043 1.833c-.765-.878-1.853-1.47-3.057-1.47-2.196 0-4.069 1.948-4.069 4.22 0 2.292 1.873 4.241 4.07 4.241 1.203 0 2.291-.592 3.056-1.471l2.043 1.835c-1.28 1.336-3.114 2.196-5.1 2.196-3.761 0-6.97-3.114-6.97-6.8S53.21 17 56.97 17zm25.088 3.478v1.968l-4.966 5.538h5.005v2.368h-8.633v-1.967l4.966-5.54h-4.832v-2.367h8.46zm-14.38 2.152c-1.49 0-2.73 1.28-2.73 2.808 0 1.529 1.24 2.827 2.73 2.827 1.472 0 2.713-1.298 2.713-2.827 0-1.528-1.24-2.808-2.712-2.808z"/>
                <circle cx="30" cy="24" r="16" fill="#297EF2" fill-rule="nonzero"/>
                <path fill="#FFF" d="M33.314 25.561c-.16.25-.514.324-.759.16-.02-.012-.041-.026-.06-.04-.712.558-1.589.862-2.5.862-.909 0-1.783-.303-2.494-.86-.018.014-.037.027-.056.039-.251.164-.6.086-.759-.159-.16-.247-.09-.582.156-.748.214-.14.229-.421.229-.424.005-.147.069-.287.176-.385.106-.1.239-.156.386-.145.294.007.534.255.528.553 0 .004 0 .153-.054.36 1.098.911 2.69.908 3.784-.008-.04-.159-.05-.285-.053-.344-.003-.153.052-.291.154-.397.101-.103.237-.162.382-.164h.01c.294 0 .538.237.545.532 0 0 .015.282.227.422.247.163.318.497.158.746m2.322-6.369c-.157-1.328-.745-2.556-1.69-3.506C32.863 14.598 31.431 14 29.916 14c-1.515 0-2.945.598-4.029 1.687-.948.953-1.538 2.188-1.691 3.524-1.301.158-2.504.763-3.433 1.737-1.06 1.111-1.643 2.58-1.643 4.137 0 3.262 2.584 5.915 5.762 5.915h10.236c3.176 0 5.762-2.653 5.762-5.915 0-3.083-2.31-5.623-5.244-5.893"/>
            </g>
        </g>
    </g>
</svg>
