<svg xmlns="http://www.w3.org/2000/svg" width="110" height="48"><g fill="none" fill-rule="evenodd"><path d="M0 0h110v48H0z"/><path fill="#FFF" d="M29.949 12.5c1.928 0 3.78.767 5.146 2.129a7.55 7.55 0 0 1 2.183 4.427 7.475 7.475 0 0 1 6.721 7.356 7.48 7.48 0 0 1-7.394 7.56H23.447a7.47 7.47 0 0 1-.875-14.885 7.438 7.438 0 0 1 7.377-6.587zm55.71 7.977 2.598 6.934 2.463-6.934h2.846l-4.048 10.371c-.745 1.93-2.007 2.943-3.553 2.943-.822 0-1.816-.248-2.483-.611l.59-1.91c.479.266.975.438 1.3.438.534 0 .956-.172 1.166-.535l.344-.726-4.107-9.97h2.884zm-17.98-.196c2.922 0 5.367 2.349 5.367 5.157s-2.445 5.176-5.367 5.176c-2.942 0-5.405-2.368-5.405-5.176 0-2.808 2.463-5.157 5.405-5.157zM56.971 17c1.986 0 3.819.842 5.1 2.198l-2.044 1.833c-.764-.878-1.852-1.47-3.056-1.47-2.196 0-4.07 1.948-4.07 4.22 0 2.292 1.874 4.241 4.07 4.241 1.204 0 2.292-.592 3.056-1.471l2.043 1.835c-1.28 1.336-3.113 2.196-5.1 2.196-3.76 0-6.97-3.114-6.97-6.8S53.21 17 56.97 17zm25.087 3.478v1.968l-4.966 5.538h5.006v2.368h-8.634v-1.967l4.966-5.54h-4.832v-2.367h8.46zm-48.503 4.144a.597.597 0 0 0-.542.757c.01.203.046.404.108.597a4.567 4.567 0 0 1-6.191 0c.069-.203.108-.415.116-.627a.588.588 0 0 0-.589-.589h-.015a.58.58 0 0 0-.379.139.608.608 0 0 0-.201.426 1.147 1.147 0 0 1-.442.82.605.605 0 0 0-.116.79.588.588 0 0 0 .774.17c.074-.045.144-.097.21-.154a5.743 5.743 0 0 0 7.446 0l.216.154a.564.564 0 0 0 .442.093.61.61 0 0 0 .386-.263.603.603 0 0 0-.185-.812 1.16 1.16 0 0 1-.411-.774v-.163a.596.596 0 0 0-.627-.564zm34.124-1.992c-1.49 0-2.731 1.28-2.731 2.808 0 1.529 1.24 2.827 2.731 2.827 1.472 0 2.712-1.298 2.712-2.827 0-1.528-1.24-2.808-2.712-2.808z"/></g></svg>