<svg xmlns="http://www.w3.org/2000/svg" width="110" height="48"><g fill="none" fill-rule="evenodd"><path d="M0 0h110v48H0z"/><path fill="#297EF2" d="m85.66 20.477 2.597 6.934 2.464-6.934h2.846l-4.049 10.371c-.745 1.93-2.006 2.943-3.553 2.943-.821 0-1.815-.248-2.483-.611l.591-1.91c.478.266.975.438 1.3.438.533 0 .955-.172 1.166-.535l.344-.726-4.108-9.97h2.885zm-17.98-.196c2.922 0 5.367 2.349 5.367 5.157s-2.445 5.176-5.367 5.176c-2.942 0-5.406-2.368-5.406-5.176 0-2.808 2.464-5.157 5.406-5.157zM56.97 17c1.986 0 3.82.842 5.1 2.198l-2.043 1.833c-.765-.878-1.853-1.47-3.057-1.47-2.196 0-4.069 1.948-4.069 4.22 0 2.292 1.873 4.241 4.07 4.241 1.203 0 2.291-.592 3.056-1.471l2.043 1.835c-1.28 1.336-3.114 2.196-5.1 2.196-3.761 0-6.97-3.114-6.97-6.8S53.21 17 56.97 17zm25.088 3.478v1.968l-4.966 5.538h5.005v2.368h-8.633v-1.967l4.966-5.54h-4.832v-2.367h8.46zm-14.38 2.152c-1.49 0-2.73 1.28-2.73 2.808 0 1.529 1.24 2.827 2.73 2.827 1.472 0 2.713-1.298 2.713-2.827 0-1.528-1.24-2.808-2.712-2.808z"/><circle cx="30" cy="24" r="16" fill="#297EF2" fill-rule="nonzero"/><path fill="#FFF" d="M33.314 25.561a.554.554 0 0 1-.759.16.782.782 0 0 1-.06-.04 4.046 4.046 0 0 1-4.994.002.557.557 0 0 1-.815-.12.548.548 0 0 1 .156-.748c.214-.14.229-.421.229-.424a.55.55 0 0 1 .176-.385.501.501 0 0 1 .386-.145.545.545 0 0 1 .528.553c0 .004 0 .153-.054.36a2.955 2.955 0 0 0 3.784-.008 1.8 1.8 0 0 1-.053-.344.544.544 0 0 1 .536-.561h.01c.294 0 .538.237.545.532 0 0 .015.282.227.422a.544.544 0 0 1 .158.746m2.322-6.369a5.941 5.941 0 0 0-1.69-3.506 5.654 5.654 0 0 0-8.059.001 5.937 5.937 0 0 0-1.691 3.524 5.674 5.674 0 0 0-3.433 1.737 5.96 5.96 0 0 0-1.643 4.137c0 3.262 2.584 5.915 5.762 5.915h10.236c3.176 0 5.762-2.653 5.762-5.915 0-3.083-2.31-5.623-5.244-5.893"/></g></svg>