<svg xmlns="http://www.w3.org/2000/svg" width="110" height="48" viewBox="0 0 110 48">
    <g fill="none" fill-rule="evenodd">
        <g>
            <g>
                <path d="M0 0H110V48H0z" transform="translate(-8 -64) translate(8 64)"/>
                <path fill="#FFF" d="M29.949 12.5c1.928 0 3.78.767 5.146 2.129 1.203 1.19 1.972 2.748 2.183 4.427 3.787.384 6.68 3.551 6.721 7.356.045 4.13-3.266 7.513-7.394 7.56H23.447c-3.77-.013-6.939-2.83-7.393-6.573-.495-4.095 2.423-7.816 6.518-8.312.432-3.75 3.603-6.58 7.377-6.587zm55.71 7.977l2.598 6.934 2.463-6.934h2.846l-4.048 10.371c-.745 1.93-2.007 2.943-3.553 2.943-.822 0-1.816-.248-2.483-.611l.59-1.91c.479.266.975.438 1.3.438.534 0 .956-.172 1.166-.535l.344-.726-4.107-9.97h2.884zm-17.98-.196c2.922 0 5.367 2.349 5.367 5.157s-2.445 5.176-5.367 5.176c-2.942 0-5.405-2.368-5.405-5.176 0-2.808 2.463-5.157 5.405-5.157zM56.971 17c1.986 0 3.819.842 5.1 2.198l-2.044 1.833c-.764-.878-1.852-1.47-3.056-1.47-2.196 0-4.07 1.948-4.07 4.22 0 2.292 1.874 4.241 4.07 4.241 1.204 0 2.292-.592 3.056-1.471l2.043 1.835c-1.28 1.336-3.113 2.196-5.1 2.196-3.76 0-6.97-3.114-6.97-6.8S53.21 17 56.97 17zm25.087 3.478v1.968l-4.966 5.538h5.006v2.368h-8.634v-1.967l4.966-5.54h-4.832v-2.367h8.46zm-48.503 4.144c-.328.018-.581.3-.563.627.002.044.01.088.021.13.01.203.046.404.108.597-1.748 1.612-4.443 1.612-6.191 0 .069-.203.108-.415.116-.627 0-.326-.263-.589-.589-.589h-.015c-.14 0-.274.049-.379.139-.121.108-.194.263-.201.426-.025.323-.185.622-.442.82-.232.197-.281.536-.116.79.175.248.511.322.774.17.074-.045.144-.097.21-.154 2.146 1.827 5.3 1.827 7.446 0l.216.154c.128.091.287.125.442.093.158-.033.297-.127.386-.263.166-.277.083-.635-.185-.812-.233-.195-.381-.473-.411-.774v-.163c-.017-.33-.298-.581-.627-.564zm34.124-1.992c-1.49 0-2.731 1.28-2.731 2.808 0 1.529 1.24 2.827 2.731 2.827 1.472 0 2.712-1.298 2.712-2.827 0-1.528-1.24-2.808-2.712-2.808z" transform="translate(-8 -64) translate(8 64)"/>
            </g>
        </g>
    </g>
</svg>
