<svg xmlns="http://www.w3.org/2000/svg" xmlns:xlink="http://www.w3.org/1999/xlink" width="60" height="82"><defs><path id="a" d="M0 .359h60v43.64H0z"/><path id="c" d="M.223.264H60v44.421H.223z"/><path id="e" d="M0 .014h60V40.8H0z"/></defs><g fill="none" fill-rule="evenodd"><g transform="translate(0 19.2)"><mask id="b" fill="#fff"><use xlink:href="#a"/></mask><path fill="#FFD799" d="M59.956 29.133c.03-2.32.012-4.637-.012-6.953.024-2.318.042-4.635.012-6.954-.05-3.99.192-7.98-.112-11.965-.074-.968-.501-1.564-1.127-1.928a7.505 7.505 0 0 0-.813-.348c-.345-.13-.782-.3-1.608-.372C52.821.31 40.592.328 36.064.413 31.105.34 9.948.277 4.462.688 3.327.774 2.177.944 1.258 1.88.308 2.85.266 3.934.223 4.895A231.897 231.897 0 0 0 .01 17.32c.011 1.311.01 2.906 0 4.62H.005l.002.24-.002.238H.01c.01 1.715.011 3.31 0 4.62-.035 4.229.027 8.201.214 12.426.043.961.085 2.045 1.035 3.014.919.937 2.069 1.108 3.204 1.193 5.486.411 26.643.347 31.602.275 4.528.085 16.757.103 20.232-.2.826-.073 1.263-.242 1.608-.372a7.67 7.67 0 0 0 .813-.348c.626-.364 1.053-.96 1.127-1.928.304-3.986.062-7.976.112-11.965" mask="url(#b)"/></g><mask id="d" fill="#fff"><use xlink:href="#c"/></mask><path fill="#BBD9FD" d="M27.143 1.269.957 20.962c-.978.736-.978 2.29 0 3.025L27.143 43.68a4.886 4.886 0 0 0 5.937 0l26.187-19.693c.978-.736.978-2.29 0-3.025L33.08 1.269a4.886 4.886 0 0 0-5.937 0" mask="url(#d)"/><path fill="#35CE68" d="M56.761 41.01a348.5 348.5 0 0 0-.01-7.01c.02-2.336.037-4.673.01-7.01-.045-4.022.17-8.046-.101-12.064-.065-.975-.447-1.577-1.006-1.944a6.597 6.597 0 0 0-.726-.35c-.309-.131-.698-.303-1.436-.376-3.105-.306-14.03-.287-18.074-.201-4.43-.073-23.33-.138-28.232.277-1.014.086-2.041.258-2.862 1.203-.849.976-.886 2.07-.924 3.038-.168 4.26-.223 8.265-.192 12.528.01 1.322.008 2.93 0 4.658h-.003l.001.241-.001.24h.003c.008 1.73.01 3.337 0 4.659-.03 4.263.024 8.268.192 12.528.038.969.075 2.061.924 3.038.82.945 1.848 1.117 2.862 1.203 4.901.415 23.801.35 28.232.277 4.044.086 14.969.105 18.074-.201.738-.073 1.127-.245 1.436-.375a6.49 6.49 0 0 0 .726-.351c.56-.367.94-.968 1.006-1.944.272-4.018.056-8.042.101-12.063"/><g transform="translate(0 23.2)"><mask id="f" fill="#fff"><use xlink:href="#e"/></mask><path fill="#FFF" d="M59.871.053a1.811 1.811 0 0 1-.605.845L33.08 20.667a4.871 4.871 0 0 1-5.936 0L.957.897A1.811 1.811 0 0 1 .339.015a8.536 8.536 0 0 0-.116 1.227 236.816 236.816 0 0 0-.214 12.57c.01 1.326.009 2.94 0 4.673H.005v.483h.002c.01 1.735.012 3.348.001 4.674a236.8 236.8 0 0 0 .214 12.57c.043.972.085 2.068 1.035 3.048.919.948 2.069 1.12 3.203 1.207 5.487.416 26.644.351 31.603.278 4.528.086 16.757.105 20.233-.202.825-.074 1.261-.246 1.607-.376a7.48 7.48 0 0 0 .813-.352c.626-.369 1.053-.972 1.127-1.95.304-4.032.062-8.069.113-12.104.029-2.346.01-4.69-.013-7.034.024-2.344.042-4.688.013-7.035-.05-3.88.168-7.761-.086-11.639" mask="url(#f)"/></g><path fill="#FFF" d="M48 52.8 32.555 41.015c-1.774-1.353-4.136-1.353-5.91 0L11.2 52.8H48z"/><path fill="#FF9300" d="M1.274 60.237a.237.237 0 1 1-.473 0 .237.237 0 0 1 .473 0m58.4 0a.237.237 0 1 1-.237-.237c.132 0 .237.106.237.237"/><path fill="#BBD9FD" d="M60 60.606a1.963 1.963 0 0 0-.187-.19l-.444-.396-1.79-1.56c-1.193-1.04-2.408-2.052-3.611-3.079a450.332 450.332 0 0 0-7.338-6.004c-2.45-1.997-4.959-3.914-7.44-5.868-1.242-.975-2.51-1.917-3.763-2.878l-.943-.716-.235-.18-.294-.208c-.2-.149-.424-.266-.64-.392a6.904 6.904 0 0 0-1.41-.543 6.844 6.844 0 0 0-1.507-.192 6.735 6.735 0 0 0-1.508.187 6.9 6.9 0 0 0-1.413.54c-.217.125-.442.242-.643.39l-.295.209-.236.178-.944.715-3.756 2.887c-2.48 1.956-4.991 3.87-7.44 5.868a442.114 442.114 0 0 0-7.337 6.005c-1.203 1.027-2.417 2.04-3.611 3.079l-1.79 1.56-.442.396c-.066.057-.125.12-.183.186l.195.198a1.71 1.71 0 0 1 .18-.129l.504-.314 2-1.281c1.332-.856 2.645-1.737 3.969-2.604a446.195 446.195 0 0 0 7.821-5.362c2.605-1.79 5.146-3.665 7.72-5.497l3.824-2.797.95-.706.237-.177c.08-.06.127-.086.19-.131.116-.088.248-.148.37-.223.257-.127.524-.227.798-.298.277-.062.558-.094.84-.1.282.002.564.034.84.095.275.07.543.169.802.295.123.074.255.134.372.222.064.045.11.071.19.13l.238.176.953.704c1.273.935 2.532 1.887 3.816 2.806 2.572 1.834 5.116 3.706 7.72 5.498a446.978 446.978 0 0 0 7.821 5.362c1.323.868 2.635 1.75 3.968 2.605l2 1.282.504.314c.065.04.124.085.183.132l.195-.194z"/><path stroke="#FFF" stroke-linecap="round" stroke-linejoin="round" stroke-width="3" d="m24.8 27.2 3.6 3.2 7.6-8"/><path fill="#000" d="M10.814 79.948c1.63.764 5.81 1.426 9.181 1.692 9.2.724 22.057.337 27.506-.989 5.49-1.337 5.736-3.361-8.224-4.37-11.885-.858-25.758.356-28.724 2.167-.796.486-.753 1.026.261 1.5" opacity=".155"/></g></svg>