<svg width="102" height="102" viewBox="0 0 102 102" fill="none" xmlns="http://www.w3.org/2000/svg">
<rect width="101.617" height="101.617" rx="50.8086" fill="#F6FAFF"/>
<path d="M13.0463 60.9852C13.1748 61.6416 13.5586 62.2202 14.1135 62.5937C14.6683 62.9673 15.3488 63.1053 16.0053 62.9773L23.5212 61.5164C23.8597 61.4681 24.1849 61.3515 24.477 61.1737C24.769 60.9959 25.0219 60.7606 25.2203 60.4821C25.4186 60.2036 25.5583 59.8876 25.6309 59.5535C25.7034 59.2193 25.7072 58.8739 25.6422 58.5382C25.5771 58.2025 25.4445 57.8835 25.2524 57.6007C25.0604 57.3178 24.8128 57.0769 24.5247 56.8926C24.2367 56.7083 23.9142 56.5845 23.5769 56.5287C23.2395 56.4729 22.8943 56.4862 22.5623 56.5678L15.0464 58.0288C14.721 58.0915 14.411 58.2177 14.1343 58.4002C13.8576 58.5828 13.6196 58.818 13.4339 59.0926C13.2481 59.3671 13.1183 59.6756 13.0518 60.0003C12.9853 60.325 12.9834 60.6597 13.0463 60.9852ZM24.168 44.7741L18.9392 45.7901C18.6139 45.8536 18.3043 45.9805 18.0281 46.1636C17.7519 46.3468 17.5144 46.5825 17.3293 46.8574C16.9554 47.4126 16.8174 48.0935 16.9457 48.7505C17.0739 49.4074 17.4578 49.9865 18.013 50.3603C18.5682 50.7342 19.2491 50.8722 19.906 50.744L25.1362 49.728C25.7875 49.5945 26.3598 49.2094 26.7288 48.6564C27.0978 48.1034 27.2337 47.427 27.1068 46.7744C26.98 46.1218 26.6007 45.5456 26.0514 45.171C25.5021 44.7965 24.8272 44.6538 24.1733 44.7741H24.168ZM28.4645 66.902L20.9486 68.3629C20.6125 68.4142 20.2902 68.5329 20.0011 68.7119C19.712 68.8909 19.4621 69.1264 19.2663 69.4044C19.0705 69.6824 18.9329 69.9971 18.8618 70.3296C18.7907 70.6621 18.7875 71.0055 18.8524 71.3393C18.9173 71.673 19.049 71.9902 19.2396 72.2718C19.4302 72.5534 19.6757 72.7936 19.9614 72.9779C20.2471 73.1622 20.5672 73.2869 20.9023 73.3445C21.2374 73.402 21.5807 73.3912 21.9115 73.3128L29.4274 71.8519C29.7554 71.7915 30.0682 71.6668 30.3477 71.4848C30.6272 71.3029 30.8679 71.0673 31.0558 70.7917C31.2437 70.5162 31.3751 70.2061 31.4425 69.8794C31.5098 69.5528 31.5117 69.216 31.448 68.8886C31.3844 68.5612 31.2565 68.2496 31.0717 67.972C30.8869 67.6943 30.6489 67.4561 30.3715 67.2709C30.094 67.0858 29.7827 66.9576 29.4553 66.8935C29.128 66.8295 28.7912 66.831 28.4645 66.898V66.902ZM80.9892 56.3938V56.362C81.0309 52.9558 80.7229 49.5544 80.0701 46.2111C79.4462 42.8649 78.4804 39.5917 77.1881 36.4427L77.1761 36.4122C75.2756 31.9975 70.165 28.6573 65.2868 28.6387H65.1632C62.507 28.6387 56.1147 29.3027 51.9046 30.1461C47.6094 30.9191 41.2928 32.7041 38.9062 33.6723C34.3773 35.4865 30.8564 40.4736 30.7157 45.2774V45.3106C30.6741 48.7168 30.9825 52.1183 31.636 55.4615C32.2589 58.8072 33.2238 62.08 34.5154 65.2285L34.5287 65.2591C36.4293 69.6751 41.5399 73.0153 46.4181 73.0326H46.5389C49.1952 73.0326 55.5901 72.3685 59.8003 71.5238C64.0941 70.7509 70.408 68.9672 72.796 67.999C77.3275 66.1874 80.8484 61.199 80.9892 56.3938ZM40.7882 38.3566H40.8014C42.6821 37.5916 48.6932 35.8557 52.8236 35.1146L52.8781 35.104C56.9953 34.2726 63.2202 33.6696 65.2509 33.6909H65.2642C67.862 33.6988 70.7546 35.4041 72.1293 37.6274L56.4295 48.7425C56.1171 48.9636 55.7608 49.1151 55.3849 49.1869C55.0089 49.2586 54.6219 49.2488 54.25 49.1582L35.8356 44.6691C36.25 42.0527 38.3391 39.3354 40.7882 38.3566ZM75.945 56.261C75.8546 59.0806 73.6021 62.2376 70.918 63.316H70.9047C69.0241 64.0797 63.0143 65.8155 58.8825 66.558L58.8281 66.5673C54.7109 67.4 48.486 67.999 46.4566 67.9817H46.442C43.552 67.9737 40.2941 65.8634 39.1718 63.2748C38.0114 60.45 37.147 57.5124 36.5926 54.5092C36.2925 52.9155 36.0733 51.3788 35.9352 49.8767L53.0547 54.055C54.1286 54.3186 55.2466 54.3484 56.333 54.1421C57.4194 53.9359 58.4488 53.4985 59.3514 52.8597L73.9873 42.491C74.4243 43.9652 74.7948 45.5019 75.1136 47.1567C75.7009 50.1551 75.9795 53.2058 75.945 56.261Z" fill="#0A84FF"/>
</svg>
