<svg width="102" height="102" viewBox="0 0 102 102" fill="none" xmlns="http://www.w3.org/2000/svg">
<rect width="101.617" height="101.617" rx="50.8086" fill="#F6FAFF"/>
<path d="M74.125 60.1883C74.0634 60.1883 74.0325 60.1883 73.9709 60.2192C73.2 55.0083 68.76 51 63.3334 51C59.0167 51 55.3167 53.5592 53.59 57.2283C48.7184 57.475 44.8334 61.4833 44.8334 66.4167C44.8334 71.535 48.965 75.6667 54.0834 75.6667L74.125 75.605C78.38 75.605 81.8334 72.1517 81.8334 67.8967C81.8334 63.6417 78.38 60.1883 74.125 60.1883ZM74.1559 69.5H54.0834C52.3875 69.5 51 68.1125 51 66.4167C51 64.7208 52.3875 63.3333 54.0834 63.3333H57.9375V62.5625C57.9375 59.5717 60.3425 57.1667 63.3334 57.1667C66.3242 57.1667 68.7292 59.5717 68.7292 62.5625V66.4167C68.7292 66.4167 74.125 66.4167 74.1559 66.4167C75.0192 66.4167 75.6975 67.095 75.6975 67.9583C75.6667 68.7908 74.9884 69.5 74.1559 69.5Z" fill="white"/>
<path d="M74.125 60.1883C74.0634 60.1883 74.0325 60.1883 73.9709 60.2192C73.2 55.0083 68.76 51 63.3334 51C59.0167 51 55.3167 53.5592 53.59 57.2283C48.7184 57.475 44.8334 61.4833 44.8334 66.4167C44.8334 71.535 48.965 75.6667 54.0834 75.6667L74.125 75.605C78.38 75.605 81.8334 72.1517 81.8334 67.8967C81.8334 63.6417 78.38 60.1883 74.125 60.1883ZM74.1559 69.5H54.0834C52.3875 69.5 51 68.1125 51 66.4167C51 64.7208 52.3875 63.3333 54.0834 63.3333H57.9375V62.5625C57.9375 59.5717 60.3425 57.1667 63.3334 57.1667C66.3242 57.1667 68.7292 59.5717 68.7292 62.5625V66.4167C68.7292 66.4167 74.125 66.4167 74.1559 66.4167C75.0192 66.4167 75.6975 67.095 75.6975 67.9583C75.6667 68.7908 74.9884 69.5 74.1559 69.5Z" fill="url(#paint0_linear_2971_63912)"/>
<path d="M74.125 60.1883C74.0634 60.1883 74.0325 60.1883 73.9709 60.2192C73.2 55.0083 68.76 51 63.3334 51C59.0167 51 55.3167 53.5592 53.59 57.2283C48.7184 57.475 44.8334 61.4833 44.8334 66.4167C44.8334 71.535 48.965 75.6667 54.0834 75.6667L74.125 75.605C78.38 75.605 81.8334 72.1517 81.8334 67.8967C81.8334 63.6417 78.38 60.1883 74.125 60.1883ZM74.1559 69.5H54.0834C52.3875 69.5 51 68.1125 51 66.4167C51 64.7208 52.3875 63.3333 54.0834 63.3333H57.9375V62.5625C57.9375 59.5717 60.3425 57.1667 63.3334 57.1667C66.3242 57.1667 68.7292 59.5717 68.7292 62.5625V66.4167C68.7292 66.4167 74.125 66.4167 74.1559 66.4167C75.0192 66.4167 75.6975 67.095 75.6975 67.9583C75.6667 68.7908 74.9884 69.5 74.1559 69.5Z" fill="url(#paint1_linear_2971_63912)"/>
<path d="M74.125 60.1883C74.0634 60.1883 74.0325 60.1883 73.9709 60.2192C73.2 55.0083 68.76 51 63.3334 51C59.0167 51 55.3167 53.5592 53.59 57.2283C48.7184 57.475 44.8334 61.4833 44.8334 66.4167C44.8334 71.535 48.965 75.6667 54.0834 75.6667L74.125 75.605C78.38 75.605 81.8334 72.1517 81.8334 67.8967C81.8334 63.6417 78.38 60.1883 74.125 60.1883ZM74.1559 69.5H54.0834C52.3875 69.5 51 68.1125 51 66.4167C51 64.7208 52.3875 63.3333 54.0834 63.3333H57.9375V62.5625C57.9375 59.5717 60.3425 57.1667 63.3334 57.1667C66.3242 57.1667 68.7292 59.5717 68.7292 62.5625V66.4167C68.7292 66.4167 74.125 66.4167 74.1559 66.4167C75.0192 66.4167 75.6975 67.095 75.6975 67.9583C75.6667 68.7908 74.9884 69.5 74.1559 69.5Z" fill="url(#paint2_linear_2971_63912)"/>
<path d="M38.6666 27.1357V33.5798C31.4825 36.139 26.3333 42.9532 26.3333 51.0007C26.3333 56.4582 28.7383 61.299 32.5 64.6907V57.1673H38.6666V75.6673H20.1666V69.5007H28.5841C23.435 64.999 20.1666 58.4007 20.1666 51.0007C20.1666 39.4998 28.0291 29.8798 38.6666 27.1357ZM69.5 32.5007H61.0825C65.4916 36.3857 68.5133 41.7815 69.2841 47.9173H63.0558C62.3466 43.724 60.1883 40.0548 57.1666 37.3107V44.834H51V26.334H69.5V32.5007Z" fill="#CFDDEE"/>
<defs>
<linearGradient id="paint0_linear_2971_63912" x1="81.8334" y1="65.3889" x2="44.8334" y2="65.3889" gradientUnits="userSpaceOnUse">
<stop offset="0.12998" stop-color="#A033FF"/>
<stop offset="0.610381" stop-color="#0094FF"/>
<stop offset="1" stop-color="#4FB500"/>
</linearGradient>
<linearGradient id="paint1_linear_2971_63912" x1="61.7917" y1="58.7083" x2="56.0105" y2="76.0521" gradientUnits="userSpaceOnUse">
<stop stop-color="#FFD600" stop-opacity="0"/>
<stop offset="0.563347" stop-color="#FFC700"/>
</linearGradient>
<linearGradient id="paint2_linear_2971_63912" x1="64.875" y1="65.3889" x2="72.7659" y2="77.9214" gradientUnits="userSpaceOnUse">
<stop offset="0.0297327" stop-color="#FF3B30" stop-opacity="0"/>
<stop offset="0.842824" stop-color="#E73B2D"/>
</linearGradient>
</defs>
</svg>
