<svg width="36" height="48" viewBox="0 0 36 48" fill="none" xmlns="http://www.w3.org/2000/svg">
<path d="M35 18H32V14C32 6.28031 25.7197 0 18 0C10.2802 0 4.00003 6.28031 4.00003 14V18H1.00003C0.868681 17.9999 0.738602 18.0257 0.617234 18.0759C0.495865 18.1262 0.385589 18.1998 0.29271 18.2927C0.199831 18.3856 0.126173 18.4959 0.0759475 18.6172C0.0257218 18.7386 -8.60652e-05 18.8687 2.15627e-07 19V44.0001C2.15627e-07 46.2061 1.79391 48 4.00003 48H32.0001C34.2061 48 36 46.2061 36 44V19C36.0001 18.8687 35.9743 18.7386 35.9241 18.6172C35.8738 18.4959 35.8002 18.3856 35.7073 18.2927C35.6144 18.1998 35.5041 18.1262 35.3828 18.0759C35.2614 18.0257 35.1313 17.9999 35 18ZM20.9942 38.8897C21.0097 39.0294 20.9955 39.1709 20.9526 39.3049C20.9097 39.4388 20.839 39.5622 20.7452 39.667C20.6514 39.7717 20.5366 39.8556 20.4082 39.913C20.2798 39.9703 20.1407 40 20.0001 40H16C15.8594 40 15.7203 39.9703 15.5919 39.913C15.4635 39.8556 15.3487 39.7717 15.2549 39.667C15.1611 39.5622 15.0904 39.4388 15.0475 39.3049C15.0046 39.1709 14.9904 39.0294 15.0059 38.8897L15.6368 33.2168C14.6123 32.4717 14.0001 31.293 14.0001 30C14.0001 27.794 15.794 26 18.0001 26C20.2062 26 22.0001 27.7939 22.0001 30C22.0001 31.293 21.3878 32.4717 20.3634 33.2168L20.9942 38.8897ZM26 18H10V14C10 9.58884 13.5889 6 18 6C22.4111 6 26 9.58884 26 14V18Z" fill="#DCEDFD"/>
</svg>
