<svg width="96" height="96" viewBox="0 0 96 96" fill="none" xmlns="http://www.w3.org/2000/svg">
<path d="M17.2642 93.2583C19.8125 94.2785 26.3412 95.1574 31.6052 95.5184C45.9648 96.4836 66.0347 95.9735 74.5351 94.2079C83.11 92.4343 83.4913 89.7348 61.7008 88.3772C43.1468 87.2315 21.4865 88.8402 16.8643 91.2572C15.618 91.9007 15.6925 92.6227 17.2642 93.2583Z" fill="black" fill-opacity="0.16"/>
<path d="M38 20C38 14.4772 42.4772 10 48 10C53.5009 10 57.9647 14.442 57.9998 19.9342L58 25.0002L68 24.9998L67.9998 20L68 19.9869L67.9998 19.92L67.9998 19.9067L67.9997 19.8937C67.9422 8.89655 59.0102 0 48 0C36.9543 0 28 8.9543 28 20V25H38V20Z" fill="white"/>
<path d="M67.3019 25H28.6979C23.9311 25 19.827 28.3646 18.8921 33.0388L15.9465 47.7669C15.6502 49.2483 15.5636 50.764 15.689 52.2695C16.9952 67.9437 30.098 80 45.8265 80H50.1733C65.9018 80 79.0046 67.9437 80.3108 52.2695C80.4362 50.764 80.3495 49.2483 80.0533 47.7669L77.1077 33.0388C76.1728 28.3646 72.0687 25 67.3019 25Z" fill="#B2D3FF"/>
<path d="M55.5 47.5C55.5 50.2761 53.9918 52.6998 51.75 53.9966V61.25C51.75 63.3211 50.0711 65 48 65C45.9289 65 44.25 63.3211 44.25 61.25V53.9966C42.0082 52.6998 40.5 50.2761 40.5 47.5C40.5 43.3579 43.8579 40 48 40C52.1421 40 55.5 43.3579 55.5 47.5Z" fill="white"/>
</svg>
