<svg xmlns="http://www.w3.org/2000/svg" width="33" height="33" viewBox="0 0 33 33" fill="none">
  <rect width="32.49" height="32.49" rx="9.91366" fill="white"/>
  <rect width="32.49" height="32.49" rx="9.91366" fill="url(#paint0_linear_3096_4047)"/>
  <rect width="32.49" height="32.49" rx="9.91366" fill="url(#paint1_linear_3096_4047)"/>
  <rect width="32.49" height="32.49" rx="9.91366" fill="url(#paint2_linear_3096_4047)"/>
  <path d="M16.2892 4.8418C16.301 4.85043 16.3145 4.8563 16.3289 4.85899C16.3359 4.85899 16.3429 4.86221 16.3504 4.86275C16.4333 4.87133 16.5135 4.89674 16.5862 4.93741C16.6088 4.94869 16.6302 4.96212 16.6523 4.97447L18.2664 5.88761L20.1539 6.95545C20.6105 7.21328 21.0667 7.47146 21.5225 7.73001C21.551 7.74612 21.5795 7.76116 21.6069 7.77835C21.7819 7.88539 21.9044 8.06061 21.9447 8.26178C21.9493 8.28299 21.952 8.30456 21.9528 8.32624C21.9528 8.37673 21.9565 8.42722 21.9565 8.47825V10.658C21.9565 11.4712 21.9565 12.2844 21.9565 13.0977C21.9565 13.1412 21.9565 13.1847 21.9565 13.2277C21.953 13.344 21.919 13.4574 21.8577 13.5564C21.7662 13.7104 21.6219 13.8259 21.4516 13.8814C21.379 13.9039 21.3036 13.9163 21.2276 13.9184C21.1951 13.9182 21.1626 13.9155 21.1304 13.9104C21.044 13.9008 20.9601 13.875 20.8833 13.8341C20.8576 13.8207 20.8323 13.8062 20.8076 13.7922L18.3819 12.4198L16.663 11.4492L16.5781 11.4014C16.5102 11.3677 16.4379 11.3437 16.3633 11.3299C16.3456 11.3266 16.3276 11.3247 16.3096 11.324C16.2806 11.324 16.2516 11.324 16.2226 11.324C16.1102 11.3247 15.9996 11.3526 15.9003 11.4051C15.8713 11.4202 15.8433 11.4368 15.8154 11.4529C15.2038 11.8032 14.5922 12.1536 13.9805 12.5041L11.7782 13.7659C11.7471 13.7841 11.7154 13.8019 11.6837 13.8196C11.6138 13.8575 11.5387 13.8848 11.4608 13.9007C11.4466 13.9037 11.4323 13.9057 11.4178 13.9066L11.3104 13.9098C11.2086 13.9101 11.1082 13.8865 11.0171 13.8411C10.8196 13.7515 10.6728 13.578 10.6169 13.3684C10.5997 13.3092 10.5906 13.2479 10.5901 13.1863V8.47879C10.5901 8.44978 10.5901 8.42077 10.5901 8.39231C10.592 8.30171 10.6102 8.2122 10.6438 8.12803C10.7003 7.98586 10.8001 7.86504 10.929 7.78265C10.9532 7.76707 10.979 7.75311 11.0037 7.7386L12.302 6.99412L13.8452 6.10999L15.4056 5.2178L15.7918 4.99649L15.8766 4.94869C15.9279 4.92074 15.9819 4.89824 16.0378 4.88155C16.0731 4.87285 16.109 4.86657 16.1452 4.86275C16.1595 4.86058 16.1727 4.85422 16.1833 4.84448L16.2892 4.8418Z" fill="white"/>
  <path d="M4.93774 18.0932C4.95942 18.0872 4.97507 18.0683 4.97696 18.0459C4.98254 18.003 4.9908 17.9605 5.00166 17.9186C5.04816 17.7535 5.15096 17.6098 5.29226 17.5125C5.3218 17.4921 5.35349 17.4738 5.38465 17.4588L6.37084 16.8894L8.56829 15.6218L9.42288 15.1281C9.45404 15.1104 9.48573 15.0921 9.51796 15.0744C9.61487 15.0247 9.72217 14.9985 9.83111 14.9981C10.0251 14.9958 10.2123 15.0699 10.3521 15.2044C10.4398 15.2864 10.5051 15.3893 10.5417 15.5036C10.5643 15.5686 10.5766 15.6368 10.5783 15.7056C10.5783 15.7453 10.5783 15.7851 10.5783 15.8248V20.4115C10.5783 20.4582 10.5783 20.5055 10.5783 20.5522C10.5828 20.7914 10.7029 21.0136 10.9006 21.1484C10.9328 21.171 10.9682 21.1903 11.0026 21.2097L11.9394 21.7334L13.8699 22.8125L15.0656 23.4796C15.0972 23.4973 15.1289 23.5145 15.1596 23.5333C15.3245 23.6288 15.4443 23.7865 15.4921 23.9711C15.5188 24.0652 15.5256 24.1638 15.5119 24.2606C15.5003 24.3466 15.4745 24.4301 15.4357 24.5077C15.3755 24.6241 15.2847 24.7218 15.173 24.7902C15.1424 24.8096 15.1101 24.8262 15.0785 24.844L11.9534 26.5628L10.8893 27.1467C10.8608 27.1623 10.8356 27.1789 10.8039 27.1934C10.7556 27.2183 10.7049 27.238 10.6524 27.252C10.5788 27.2712 10.5028 27.2794 10.4268 27.2761C10.3033 27.2702 10.1832 27.2332 10.0777 27.1687L9.75054 26.9764L5.40506 24.4218C5.37713 24.4057 5.35134 24.3895 5.32126 24.3718C5.15382 24.268 5.03501 24.1014 4.99146 23.9093C4.9834 23.8776 4.98125 23.8449 4.97534 23.8132C4.97253 23.7987 4.96235 23.7867 4.94849 23.7815C4.94517 23.7802 4.94176 23.7791 4.93828 23.7783L4.93774 18.0932Z" fill="white"/>
  <path d="M21.8641 27.3122C21.8562 27.3052 21.8473 27.2992 21.8378 27.2945C21.8105 27.2849 21.7828 27.2768 21.7546 27.2703C21.6874 27.2551 21.6229 27.2304 21.5628 27.1967C21.5279 27.1774 21.4941 27.157 21.4597 27.1371L19.8542 26.2105L17.4778 24.8403C17.4526 24.8258 17.4274 24.8118 17.4032 24.7963C17.2388 24.6937 17.1227 24.5294 17.0809 24.3402C17.0691 24.291 17.0631 24.2405 17.0632 24.1898C17.0544 23.9423 17.1732 23.7077 17.3779 23.5683C17.4078 23.5488 17.4386 23.5309 17.4703 23.5146L18.825 22.7379L20.6513 21.6921L21.5075 21.2017C21.5451 21.1802 21.5832 21.1593 21.6197 21.1362C21.7593 21.0497 21.8659 20.9191 21.9227 20.765C21.9424 20.7144 21.9556 20.6615 21.9619 20.6076C21.9684 20.5502 21.9716 20.4924 21.9716 20.4347C21.9716 20.2284 21.9716 20.0227 21.9716 19.8164C21.9716 18.5008 21.9716 17.1853 21.9716 15.87C21.9716 15.8335 21.9716 15.7975 21.9716 15.7626C21.9716 15.7277 21.9716 15.7046 21.9748 15.6761C21.984 15.504 22.0565 15.3414 22.1784 15.2195C22.27 15.126 22.3853 15.059 22.5119 15.0256C22.5675 15.0095 22.6249 15.0003 22.6827 14.9981C22.8026 14.9962 22.9211 15.0233 23.0281 15.0772C23.0571 15.0917 23.0856 15.1078 23.1135 15.1245L24.2029 15.7524L26.1188 16.8584L27.1233 17.4379C27.155 17.4562 27.1861 17.4739 27.2173 17.4917C27.3448 17.5692 27.4453 17.6842 27.5052 17.8209C27.5166 17.8437 27.524 17.8682 27.5272 17.8934C27.5314 17.9109 27.5393 17.9272 27.5503 17.9412V23.9288C27.5381 23.9367 27.53 23.9497 27.5283 23.9642C27.5242 23.993 27.5155 24.0209 27.5025 24.0469C27.4441 24.1762 27.349 24.2854 27.2291 24.3612C27.199 24.381 27.1673 24.3988 27.1362 24.4149L25.6596 25.2614L22.368 27.1495C22.3401 27.1656 22.3143 27.1822 22.2831 27.1973C22.2233 27.231 22.1589 27.2558 22.0919 27.2709C22.0671 27.2765 22.0427 27.2836 22.0188 27.2924C22.0087 27.296 22.0002 27.303 21.9947 27.3122H21.8641Z" fill="white"/>
  <defs>
    <linearGradient id="paint0_linear_3096_4047" x1="32.49" y1="18.9525" x2="-8.36458e-07" y2="18.9525" gradientUnits="userSpaceOnUse">
      <stop offset="0.12998" stop-color="#A033FF"/>
      <stop offset="0.610381" stop-color="#0094FF"/>
      <stop offset="1" stop-color="#4FB500"/>
    </linearGradient>
    <linearGradient id="paint1_linear_3096_4047" x1="14.8913" y1="10.1531" x2="4.73812" y2="30.4594" gradientUnits="userSpaceOnUse">
      <stop stop-color="#FFD600" stop-opacity="0"/>
      <stop offset="0.563347" stop-color="#FFC700"/>
    </linearGradient>
    <linearGradient id="paint2_linear_3096_4047" x1="17.5988" y1="18.9525" x2="29.1056" y2="31.1363" gradientUnits="userSpaceOnUse">
      <stop offset="0.0297327" stop-color="#FF3B30" stop-opacity="0"/>
      <stop offset="0.842824" stop-color="#E73B2D"/>
    </linearGradient>
  </defs>
</svg>