<svg xmlns="http://www.w3.org/2000/svg" viewBox="0 0 40 40"><g fill="none" fill-rule="evenodd"><path fill="#297EF1" d="M40 20a20 20 0 1 1-40 0 20 20 0 0 1 40 0"/><path fill="#FFFFFF" d="M23.92 22.21a.77.77 0 0 1-1.05.22h-.02a5.03 5.03 0 0 1-6.07 0h-.02a.78.78 0 0 1-1.04-.21.76.76 0 0 1 .22-1.05c.21-.14.23-.43.23-.43.01-.42.37-.72.78-.74.4.02.74.36.73.77 0 0 0 .17-.05.4a3.52 3.52 0 0 0 4.38-.01 1.7 1.7 0 0 1-.05-.37c0-.43.33-.78.74-.79h.01c.41 0 .75.33.76.75 0 0 .03.28.23.42a.75.75 0 0 1 .22 1.05m2.81-7.1a6.9 6.9 0 0 0-6.83-6.08 6.9 6.9 0 0 0-6.84 6.1A6.9 6.9 0 0 0 7 22.03a6.91 6.91 0 0 0 6.9 6.93h12.2a6.92 6.92 0 1 0 .62-13.83"/></g></svg>