<svg xmlns="http://www.w3.org/2000/svg" width="48" height="48" fill="none"><path fill="#5D6165" d="M29 10.6v19.9a31.51 31.51 0 0 0-6.632-1.372l-.642-.054v.013h-1.513l8.686 12.165a1 1 0 0 1 .102.183L29 42h.056a.955.955 0 0 1-.244.468l-.103.094-5.421 4.238a.962.962 0 0 1-.727.193.963.963 0 0 1-.559-.291l-.082-.1L9.414 29.085H8.55a8.55 8.55 0 0 1-8.546-8.278L0 20.552c.01-4.634 3.695-8.401 8.293-8.537l.257-.003h13.176v.012a31.318 31.318 0 0 0 7.275-1.425L29 10.6Zm17.508-9.424a2.391 2.391 0 0 1 1.485 2.037l.007.181v34.31a2.39 2.39 0 0 1-1.492 2.217 2.39 2.39 0 0 1-2.485-.422L44 39.477V1.62l.023-.021a2.393 2.393 0 0 1 2.485-.423Z"/><path fill="#D6D8DA" d="M43.999 1.622v37.854l-.435-.421-.332-.308-.306-.274-.36-.314-.415-.35-.226-.187-.491-.396-.542-.423a42.535 42.535 0 0 0-3.817-2.603c-2.262-1.367-4.993-2.718-8.074-3.7V10.6c3.08-.983 5.812-2.335 8.074-3.703a42.47 42.47 0 0 0 3.227-2.158l.59-.444.277-.214.756-.604.44-.366.56-.484.307-.274.25-.23.517-.501ZM7.263 16.903a3.499 3.499 0 1 1-.001 6.993 3.499 3.499 0 0 1 0-6.993Z"/></svg>