<svg width="16" height="16" xmlns="http://www.w3.org/2000/svg"><path d="M13 8a3.99 3.99 0 0 1 2.669 1.02l.159.151-1.414 1.415a1.988 1.988 0 0 0-3.05.28l-.086.134H13v2h-1.722c.347.595.985 1 1.722 1a2 2 0 0 0 1.288-.47l.125-.116 1.415 1.415a3.987 3.987 0 0 1-6.632-1.64L9.142 13H8v-2h1.142A3.99 3.99 0 0 1 13 8zm-8 4a1 1 0 0 1 0 2H1a1 1 0 0 1 0-2h4zm0-4a1 1 0 1 1 0 2H1a1 1 0 1 1 0-2h4zm10-8a1 1 0 0 1 0 2H1a1 1 0 1 1 0-2h14zm0 4a1 1 0 0 1 0 2H1a1 1 0 1 1 0-2h14z" fill="#297EF1" fill-rule="evenodd"/></svg>