<svg width="48" height="48" viewBox="0 0 48 48" fill="none" xmlns="http://www.w3.org/2000/svg">
<rect y="4" width="48" height="44" rx="8" fill="#D1D5DB"/>
<path d="M0 12C0 7.58172 3.58172 4 8 4H40C44.4183 4 48 7.58172 48 12V16H0V12Z" fill="#5D6165"/>
<path d="M6 27C6 25.3431 7.34315 24 9 24C10.6569 24 12 25.3431 12 27C12 28.6569 10.6569 30 9 30C7.34315 30 6 28.6569 6 27Z" fill="#5D6165"/>
<path d="M9 34C7.34315 34 6 35.3431 6 37C6 38.6569 7.34315 40 9 40C10.6569 40 12 38.6569 12 37C12 35.3431 10.6569 34 9 34Z" fill="#5D6165"/>
<path d="M16 27C16 25.3431 17.3431 24 19 24C20.6569 24 22 25.3431 22 27C22 28.6569 20.6569 30 19 30C17.3431 30 16 28.6569 16 27Z" fill="#5D6165"/>
<path d="M19 34C17.3431 34 16 35.3431 16 37C16 38.6569 17.3431 40 19 40C20.6569 40 22 38.6569 22 37C22 35.3431 20.6569 34 19 34Z" fill="#5D6165"/>
<path d="M26 27C26 25.3431 27.3431 24 29 24C30.6569 24 32 25.3431 32 27C32 28.6569 30.6569 30 29 30C27.3431 30 26 28.6569 26 27Z" fill="#5D6165"/>
<path d="M29 34C27.3431 34 26 35.3431 26 37C26 38.6569 27.3431 40 29 40C30.6569 40 32 38.6569 32 37C32 35.3431 30.6569 34 29 34Z" fill="#5D6165"/>
<path d="M36 27C36 25.3431 37.3431 24 39 24C40.6569 24 42 25.3431 42 27C42 28.6569 40.6569 30 39 30C37.3431 30 36 28.6569 36 27Z" fill="#5D6165"/>
<path d="M39 34C37.3431 34 36 35.3431 36 37C36 38.6569 37.3431 40 39 40C40.6569 40 42 38.6569 42 37C42 35.3431 40.6569 34 39 34Z" fill="#5D6165"/>
<path d="M12 0C10.3431 0 9 1.34315 9 3V9C9 10.6569 10.3431 12 12 12C13.6569 12 15 10.6569 15 9V3C15 1.34315 13.6569 0 12 0Z" fill="#95999D"/>
<path d="M36 0C34.3431 0 33 1.34315 33 3V9C33 10.6569 34.3431 12 36 12C37.6569 12 39 10.6569 39 9V3C39 1.34315 37.6569 0 36 0Z" fill="#95999D"/>
</svg>
