<svg xmlns="http://www.w3.org/2000/svg" width="16" height="16"><path d="M14.25 7.078c.051.26.077.568.077.926 0 .358-.026.665-.078.925l1.62 1.333c.131.086.163.203.099.352-.325.95-.859 1.826-1.602 2.628-.104.124-.229.155-.37.094l-2.032-.668c-.52.396-1.08.705-1.68.926l-.409 2c-.026.146-.117.233-.273.258-.56.1-1.094.148-1.602.148a9.197 9.197 0 0 1-1.601-.148c-.157-.024-.248-.11-.274-.259l-.409-1.999a5.956 5.956 0 0 1-1.68-.926l-2.03.668c-.145.062-.268.03-.372-.094C.892 12.44.359 11.565.032 10.614c-.065-.148-.032-.266.098-.352L1.751 8.93a4.76 4.76 0 0 1-.078-.925c0-.358.026-.667.078-.926L.131 5.746C0 5.66-.034 5.542.031 5.394c.326-.95.86-1.826 1.602-2.627.104-.123.228-.154.371-.093l2.031.667a5.978 5.978 0 0 1 1.68-.926l.41-1.999c.025-.148.116-.234.273-.259a8.216 8.216 0 0 1 3.202 0c.156.024.247.111.273.26l.41 1.998c.6.223 1.159.53 1.68.926l2.03-.667c.143-.062.267-.03.371.093.742.802 1.276 1.678 1.602 2.627.064.148.032.266-.098.352l-1.62 1.332zM8 4.5a3.5 3.5 0 1 0 0 7 3.5 3.5 0 0 0 0-7z" fill="#FFF" fill-rule="evenodd"/></svg>