<svg width="40" height="36" fill="none" xmlns="http://www.w3.org/2000/svg"><path fill-rule="evenodd" clip-rule="evenodd" d="M12.966 1c.555 0 1.322.313 1.714.7L16 3h14.006C31.107 3 32 3.895 32 4.997v22.006C32 28.106 31.11 29 29.998 29H2.002C.896 29 0 28.1 0 27.009V1.997A1 1 0 0 1 1.005 1h11.96z" fill="#B2D3FF"/><path fill-rule="evenodd" clip-rule="evenodd" d="M0 2a1 1 0 0 1 1-1h12.586a1 1 0 0 1 .707.293l1.414 1.414a1 1 0 0 0 .707.293H30a2 2 0 0 1 2 2H16.414a1 1 0 0 0-.707.293l-1.414 1.414a1 1 0 0 1-.707.293H1a1 1 0 0 1-1-1V2z" fill="#197BFF"/><rect x="16" y="12" width="24" height="24" rx="6" fill="#fff"/><rect x="16.5" y="12.5" width="23" height="23" rx="5.5" stroke="#1D212A" stroke-opacity=".16"/><path fill-rule="evenodd" clip-rule="evenodd" d="m31 16 .14.002a5 5 0 0 1 4.858 4.858L36 21l-.002.14a5 5 0 0 1-4.858 4.858L31 26l-.14-.002a4.98 4.98 0 0 1-1.71-.352l-5.56 5.745a2 2 0 0 1-1.438.609H21a1 1 0 0 1-1-1v-1.896c0-.227.09-.444.25-.604l.023-.023a1 1 0 0 1 .543-.28l.444-.074a.885.885 0 0 0 .74-.873V27a.5.5 0 0 1 .5-.5h.25a.75.75 0 0 0 .75-.75v-.25a.5.5 0 0 1 .5-.5h.375c.345 0 .625-.28.625-.625v-.21a1 1 0 0 1 .293-.708l.941-.941A5 5 0 0 1 31 16zm.071 2c-.233 0-.466.027-.695.083a1.003 1.003 0 0 0-.521 1.626l.052.056 2.328 2.328a1.003 1.003 0 0 0 1.661-.395l.021-.075a2.926 2.926 0 0 0-.68-2.666l-.095-.099a2.916 2.916 0 0 0-1.93-.855L31.07 18z" fill="#BFC3C7"/><path fill-rule="evenodd" clip-rule="evenodd" d="M22.025 31.975a3.246 3.246 0 0 1-.401.025c-.32 0-.62-.093-.871-.253l6.97-6.97c.272.235.568.442.886.615l-6.584 6.583z" fill="#95999D"/></svg>