<svg width="48" height="48" viewBox="0 0 48 48" fill="none" xmlns="http://www.w3.org/2000/svg">
<path fill-rule="evenodd" clip-rule="evenodd" d="M24.48 3.069L24.786 3.195L47.181 15.171C47.4344 15.3053 47.6461 15.5066 47.793 15.753C47.976 16.0633 48.0391 16.4298 47.9706 16.7835C47.9021 17.1371 47.7066 17.4535 47.421 17.673L47.181 17.829L24.786 29.805C24.3956 30.0111 23.9397 30.0553 23.517 29.928L23.214 29.805L6 20.601V33C6 33.7956 5.68393 34.5587 5.12132 35.1213C4.55871 35.6839 3.79565 36 3 36C2.20435 36 1.44129 35.6839 0.87868 35.1213C0.316071 34.5587 0 33.7956 0 33V16.5C0 16.056 0.204 15.624 0.576 15.33L0.816 15.171L23.214 3.195C23.5247 3.02994 23.8795 2.96695 24.228 3.015L24.483 3.072L24.48 3.069Z" fill="#5D6165"/>
<path d="M39 35.835V27.306L26.91 33.771C26.0145 34.249 25.0151 34.499 24 34.499C22.9849 34.499 21.9855 34.249 21.09 33.771L9 27.306V35.835C9.00046 36.1008 9.07153 36.3617 9.20595 36.591C9.34037 36.8203 9.5333 37.0098 9.765 37.14L23.265 44.736C23.4894 44.8621 23.7425 44.9284 24 44.9284C24.2575 44.9284 24.5106 44.8621 24.735 44.736L38.235 37.14C38.4667 37.0098 38.6596 36.8203 38.794 36.591C38.9285 36.3617 38.9995 36.1008 39 35.835Z" fill="#D6D8DA"/>
</svg>
