<svg width="16" height="16" xmlns="http://www.w3.org/2000/svg"><path d="M8 2a4 4 0 0 1 4 4 4 4 0 1 1 0 8H4a4 4 0 1 1 0-8 4 4 0 0 1 4-4zM4.6 9.014a.496.496 0 0 0-.345.055l-.038.024a.491.491 0 0 0-.112.104l-.012.014a.484.484 0 0 0-.074.16l-.006.04C4.008 9.441 4 9.469 4 9.5v2a.5.5 0 0 0 .5.5.493.493 0 0 0 .478-.39C5.728 12.459 6.818 13 8 13a4.07 4.07 0 0 0 3.632-2.268.5.5 0 0 0-.897-.442A3.07 3.07 0 0 1 8 12c-.74 0-1.436-.286-1.976-.754a.493.493 0 0 0 .36-.176.5.5 0 0 0-.064-.704l-1.5-1.25c-.005-.005-.012-.006-.017-.011l-.04-.024a.476.476 0 0 0-.124-.057zM8 5c-1.57 0-2.992.906-3.653 2.291a.5.5 0 0 0 .903.43A3.05 3.05 0 0 1 8 6c.769 0 1.477.287 2.017.758a.491.491 0 0 0-.337.876l1.5 1.25.011.007c.01.008.023.013.034.02a.479.479 0 0 0 .33.083c.005 0 .009.002.013.001a.545.545 0 0 0 .17-.059c.014-.007.025-.016.038-.024a.478.478 0 0 0 .107-.097l.02-.021a.481.481 0 0 0 .077-.158c.003-.01.002-.02.004-.03.008-.034.016-.068.016-.106v-2a.5.5 0 0 0-.5-.5.493.493 0 0 0-.471.357A4.059 4.059 0 0 0 7.999 5z" fill="#297EF1" fill-rule="evenodd"/></svg>