<svg width="16" height="16" xmlns="http://www.w3.org/2000/svg"><path d="M8 0C3.589 0 0 3.589 0 8s3.589 8 8 8a8.039 8.039 0 0 0 7.229-4.571 1 1 0 1 0-1.806-.858A6.031 6.031 0 0 1 8 14c-3.309 0-6-2.691-6-6s2.691-6 6-6c1.482 0 2.866.571 3.938 1.507a.989.989 0 0 0-.706.353 1 1 0 0 0 .128 1.408l3 2.5A1 1 0 0 0 16 7V3a1 1 0 0 0-1-1 .987.987 0 0 0-.96.801C12.548 1.08 10.364 0 8 0zm0 4a1 1 0 0 1 1 1v2.586l1.707 1.707a.999.999 0 1 1-1.414 1.414l-2-1.999A1.025 1.025 0 0 1 7 8V5a1 1 0 0 1 1-1z" fill="#297EF1" fill-rule="evenodd"/></svg>