<svg width="16" height="16" viewBox="0 0 16 16" fill="none" xmlns="http://www.w3.org/2000/svg">
<path fill-rule="evenodd" clip-rule="evenodd" d="M8 0C12.4183 0 16 3.58172 16 8C16 12.4183 12.4183 16 8 16C3.58172 16 0 12.4183 0 8C0 3.58172 3.58172 0 8 0ZM8 9.75C7.30964 9.75 6.75 10.3096 6.75 11C6.75 11.6904 7.30964 12.25 8 12.25C8.69036 12.25 9.25 11.6904 9.25 11C9.25 10.3096 8.69036 9.75 8 9.75ZM8 4C7.48716 4 7.06449 4.38604 7.00673 4.88338L7 5V8C7 8.55229 7.44772 9 8 9C8.51284 9 8.93551 8.61396 8.99327 8.11662L9 8V5C9 4.44772 8.55229 4 8 4Z" fill="white"/>
</svg>
