<svg width="64" height="64" fill="none" xmlns="http://www.w3.org/2000/svg"><path opacity=".32" d="M0 35.333c0 9.819 7.96 17.778 17.778 17.778h28.444c9.819 0 17.778-7.96 17.778-17.778 0-8.705-6.258-15.95-14.52-17.48C47.95 9.591 40.706 3.333 32 3.333c-8.706 0-15.95 6.258-17.48 14.52C6.257 19.383 0 26.628 0 35.333z" fill="#297EF2"/><path fill-rule="evenodd" clip-rule="evenodd" d="M34.667 35.445A6.668 6.668 0 0 0 32 22.667a6.667 6.667 0 0 0-2.667 12.778v5.888a2.667 2.667 0 1 0 5.334 0v-5.888z" fill="#297EF2"/></svg>