<svg width="64" height="64" viewBox="0 0 64 64" fill="none" xmlns="http://www.w3.org/2000/svg">
<path opacity="0.32" d="M0 35.3333C0 45.1517 7.95938 53.1111 17.7778 53.1111L46.2222 53.1111C56.0406 53.1111 64 45.1517 64 35.3333C64 26.6277 57.7425 19.3836 49.48 17.8534C47.9498 9.59082 40.7056 3.33333 32 3.33333C23.2944 3.33333 16.0502 9.59082 14.52 17.8534C6.25749 19.3836 0 26.6277 0 35.3333Z" fill="#297EF2"/>
<path fill-rule="evenodd" clip-rule="evenodd" d="M34.6666 35.4453C37.0211 34.4165 38.6666 32.0671 38.6666 29.3333C38.6666 25.6514 35.6818 22.6667 31.9999 22.6667C28.318 22.6667 25.3333 25.6514 25.3333 29.3333C25.3333 32.0671 26.9787 34.4165 29.3333 35.4453V41.3333C29.3333 42.8061 30.5272 44 31.9999 44C33.4727 44 34.6666 42.8061 34.6666 41.3333V35.4453Z" fill="#297EF2"/>
</svg>
