<svg xmlns="http://www.w3.org/2000/svg" width="16" height="16" viewBox="0 0 16 16">
    <g fill="none" fill-rule="evenodd">
        <g fill="#09AE1C">
            <g>
                <g>
                    <path d="M8 16c-4.418 0-8-3.582-8-8s3.582-8 8-8 8 3.582 8 8-3.582 8-8 8zM5.707 7.293c-.39-.39-1.023-.39-1.414 0-.39.39-.39 1.023 0 1.414l2 1.997c.391.39 1.023.39 1.414 0l4-3.997c.391-.39.391-1.023 0-1.414-.39-.39-1.023-.39-1.414 0L7 8.559 5.707 7.293z" transform="translate(-384 -535) translate(384 524) translate(0 11)"/>
                </g>
            </g>
        </g>
    </g>
</svg>
