<svg width="48" height="48" viewBox="0 0 48 48" fill="none" xmlns="http://www.w3.org/2000/svg">
<path d="M0 19.2C0 12.4794 0 9.11905 1.30792 6.55211C2.4584 4.29417 4.29417 2.4584 6.55211 1.30792C9.11905 0 12.4794 0 19.2 0H28.8C35.5206 0 38.8809 0 41.4479 1.30792C43.7058 2.4584 45.5416 4.29417 46.6921 6.55211C48 9.11905 48 12.4794 48 19.2V28.8C48 35.5206 48 38.8809 46.6921 41.4479C45.5416 43.7058 43.7058 45.5416 41.4479 46.6921C38.8809 48 35.5206 48 28.8 48H19.2C12.4794 48 9.11905 48 6.55211 46.6921C4.29417 45.5416 2.4584 43.7058 1.30792 41.4479C0 38.8809 0 35.5206 0 28.8V19.2Z" fill="#297EF2"/>
<path fill-rule="evenodd" clip-rule="evenodd" d="M29.2626 28.8621C29.0088 29.2574 28.4461 29.3762 28.0584 29.117C28.0249 29.0964 27.9925 29.0738 27.9623 29.0511C26.8315 29.9378 25.4394 30.4216 23.9922 30.4216C22.5483 30.4216 21.1594 29.9399 20.0308 29.0565C20.0016 29.077 19.9725 29.0986 19.9422 29.117C19.5426 29.3772 18.9886 29.253 18.7369 28.8653C18.4821 28.4722 18.5933 27.9398 18.9843 27.6773C19.3234 27.4538 19.3471 27.0077 19.3471 27.0034C19.3558 26.7701 19.4573 26.5476 19.6269 26.391C19.7953 26.2344 20.007 26.1437 20.2403 26.1621C20.7079 26.1729 21.0881 26.566 21.0795 27.039C21.0795 27.0455 21.0784 27.282 20.9931 27.6104C22.7373 29.0586 25.2655 29.0532 27.0033 27.5985C26.9395 27.3468 26.9233 27.146 26.919 27.0531C26.9147 26.8101 27.0011 26.5898 27.1642 26.4224C27.324 26.2582 27.54 26.1653 27.7701 26.161H27.7852C28.2528 26.161 28.6405 26.5379 28.6513 27.0066C28.6513 27.0066 28.6762 27.4548 29.0121 27.6762C29.4052 27.9354 29.5175 28.4657 29.2626 28.8621ZM32.951 18.7469C32.7015 16.6365 31.7673 14.6861 30.2672 13.1784C28.5468 11.4493 26.2734 10.5 23.8671 10.5C21.4609 10.5 19.1886 11.4493 17.4681 13.1795C15.9615 14.6925 15.0252 16.6538 14.7811 18.776C12.7151 19.0266 10.8045 19.9889 9.32925 21.5343C7.64661 23.3001 6.71997 25.634 6.71997 28.1051C6.71997 33.2858 10.824 37.5 15.8708 37.5H32.1281C37.1727 37.5 41.28 33.2858 41.28 28.1051C41.28 23.2094 37.6123 19.1756 32.951 18.7469Z" fill="white"/>
</svg>

