<svg xmlns="http://www.w3.org/2000/svg" width="16" height="16" viewBox="0 0 16 16">
    <g fill="none" fill-rule="evenodd">
        <g fill="#FFF">
            <g>
                <g>
                    <path d="M8 6.586l5.293-5.293c.39-.39 1.024-.39 1.414 0 .39.39.39 1.024 0 1.414L9.414 8l5.293 5.293c.39.39.39 1.024 0 1.414-.39.39-1.024.39-1.414 0L8 9.414l-5.293 5.293c-.39.39-1.024.39-1.414 0-.39-.39-.39-1.024 0-1.414L6.586 8 1.293 2.707c-.39-.39-.39-1.024 0-1.414.39-.39 1.024-.39 1.414 0L8 6.586z" transform="translate(-312.000000, -157.000000) translate(16.000000, 105.000000) translate(296.000000, 52.000000)"/>
                </g>
            </g>
        </g>
    </g>
</svg>
