<svg width="16" height="16" fill="none" xmlns="http://www.w3.org/2000/svg"><path fill-rule="evenodd" clip-rule="evenodd" d="M8 12.038c.587 0 1.141-.134 1.644-.361l-1.64-1.639H8a2 2 0 0 1-2-2v-.004L4.361 6.395A3.975 3.975 0 0 0 4 8.038a4 4 0 0 0 4 4zM1.115 1.2l12.727 12.705-.986.986-1.56-1.562A7.796 7.796 0 0 1 8 14.038c-6 0-8-6-8-6s.662-1.969 2.353-3.652L.141 2.175l.974-.975zm5.196 3.225-1.66-1.66A7.782 7.782 0 0 1 8 2.039c6 0 8 6 8 6s-.671 1.997-2.39 3.687l-1.996-1.997a3.969 3.969 0 0 0 .385-1.69 4 4 0 0 0-4-4c-.605 0-1.173.145-1.688.387zM8 6.038a2 2 0 0 1 2 2c0 .024-.006.046-.007.069L7.931 6.045c.023-.001.046-.007.069-.007z" fill="#1D212A" fill-opacity=".9"/></svg>