<svg xmlns="http://www.w3.org/2000/svg" width="48" height="48" fill="none">
<path d="M0 0h48v48H0z"/>
<path fill="#297EF2" opacity=".32" d="M13.333 39.833C5.97 39.833 0 33.863 0 26.5c0-6.53 4.693-11.963 10.89-13.11C12.038 7.193 17.47 2.5 24 2.5c6.53 0 11.963 4.693 13.11 10.89C43.307 14.538 48 19.97 48 26.5c0 7.364-5.97 13.333-13.333 13.333z"/>
<path fill="#297EF2" fill-rule="evenodd" d="M18.946 43.298v-11.25l-4.44-.072a1.695 1.695 0 0 1-1.656-1.73c.007-.441.184-.863.493-1.176l9.46-9.572a1.67 1.67 0 0 1 2.38 0l9.46 9.572a1.716 1.716 0 0 1 0 2.407 1.676 1.676 0 0 1-1.162.499l-4.442.072v11.25c0 .94-.753 1.702-1.682 1.702h-6.729a1.692 1.692 0 0 1-1.682-1.702z"/>
</svg>
