<svg xmlns="http://www.w3.org/2000/svg" width="48" height="48" fill="none"><path d="M0 0h48v48H0z"/><path fill="#297EF2" opacity=".32" d="M13.333 39.833C5.97 39.833 0 33.863 0 26.5c0-6.53 4.693-11.963 10.89-13.11C12.038 7.193 17.47 2.5 24 2.5c6.53 0 11.963 4.693 13.11 10.89C43.307 14.538 48 19.97 48 26.5c0 7.364-5.97 13.333-13.333 13.333z"/><path fill="#297EF2" fill-rule="evenodd" clip-rule="evenodd" d="M21.569 12c.837 0 1.528.63 1.622 1.443l.011.19v10.941c0 .232.16.426.377.477l.113.013h.653c.27 0 .49-.22.49-.49v-9.308l.011-.19a1.633 1.633 0 0 1 3.244 0l.011.19v9.308c0 .232.16.426.377.477l.113.013h.653c.27 0 .49-.22.49-.49v-6.042l.011-.19a1.633 1.633 0 0 1 3.244 0l.011.19v16.33a6.525 6.525 0 0 1-3 5.495V43a2 2 0 0 1-2 2h-8a2 2 0 0 1-2-2v-2.615a6.722 6.722 0 0 1-1.022-.78l-8.425-7.824a1.73 1.73 0 0 1-.263-2.226 1.538 1.538 0 0 1 2.076-.463l4.67 2.827V16.9l.012-.19a1.632 1.632 0 0 1 3.244 0l.01.19v7.675c0 .232.162.426.378.477l.113.013h.653c.27 0 .49-.22.49-.49V13.633l.01-.19A1.634 1.634 0 0 1 21.569 12z"/></svg>