<svg xmlns="http://www.w3.org/2000/svg" width="48" height="33" viewBox="0 0 48 33" fill="none">
  <path d="M24 4.66699C29.24 4.66699 33.76 8.38699 34.78 13.527L35.38 16.527L38.44 16.747C41.56 16.947 44 19.567 44 22.667C44 25.967 41.3 28.667 38 28.667H12C7.58 28.667 4 25.087 4 20.667C4 16.567 7.06 13.147 11.12 12.727L13.26 12.507L14.26 10.607C16.16 6.94699 19.88 4.66699 24 4.66699ZM24 0.666992C18.22 0.666992 13.2 3.94699 10.7 8.74699C4.68 9.38699 0 14.487 0 20.667C0 27.287 5.38 32.667 12 32.667H38C43.52 32.667 48 28.187 48 22.667C48 17.387 43.9 13.107 38.7 12.747C37.34 5.84699 31.28 0.666992 24 0.666992Z" fill="white"/>
  <path d="M24 4.66699C29.24 4.66699 33.76 8.38699 34.78 13.527L35.38 16.527L38.44 16.747C41.56 16.947 44 19.567 44 22.667C44 25.967 41.3 28.667 38 28.667H12C7.58 28.667 4 25.087 4 20.667C4 16.567 7.06 13.147 11.12 12.727L13.26 12.507L14.26 10.607C16.16 6.94699 19.88 4.66699 24 4.66699ZM24 0.666992C18.22 0.666992 13.2 3.94699 10.7 8.74699C4.68 9.38699 0 14.487 0 20.667C0 27.287 5.38 32.667 12 32.667H38C43.52 32.667 48 28.187 48 22.667C48 17.387 43.9 13.107 38.7 12.747C37.34 5.84699 31.28 0.666992 24 0.666992Z" fill="url(#paint0_linear_2971_60296)"/>
  <path d="M24 4.66699C29.24 4.66699 33.76 8.38699 34.78 13.527L35.38 16.527L38.44 16.747C41.56 16.947 44 19.567 44 22.667C44 25.967 41.3 28.667 38 28.667H12C7.58 28.667 4 25.087 4 20.667C4 16.567 7.06 13.147 11.12 12.727L13.26 12.507L14.26 10.607C16.16 6.94699 19.88 4.66699 24 4.66699ZM24 0.666992C18.22 0.666992 13.2 3.94699 10.7 8.74699C4.68 9.38699 0 14.487 0 20.667C0 27.287 5.38 32.667 12 32.667H38C43.52 32.667 48 28.187 48 22.667C48 17.387 43.9 13.107 38.7 12.747C37.34 5.84699 31.28 0.666992 24 0.666992Z" fill="url(#paint1_linear_2971_60296)"/>
  <path d="M24 4.66699C29.24 4.66699 33.76 8.38699 34.78 13.527L35.38 16.527L38.44 16.747C41.56 16.947 44 19.567 44 22.667C44 25.967 41.3 28.667 38 28.667H12C7.58 28.667 4 25.087 4 20.667C4 16.567 7.06 13.147 11.12 12.727L13.26 12.507L14.26 10.607C16.16 6.94699 19.88 4.66699 24 4.66699ZM24 0.666992C18.22 0.666992 13.2 3.94699 10.7 8.74699C4.68 9.38699 0 14.487 0 20.667C0 27.287 5.38 32.667 12 32.667H38C43.52 32.667 48 28.187 48 22.667C48 17.387 43.9 13.107 38.7 12.747C37.34 5.84699 31.28 0.666992 24 0.666992Z" fill="url(#paint2_linear_2971_60296)"/>
  <defs>
    <linearGradient id="paint0_linear_2971_60296" x1="48" y1="19.3337" x2="-1.23576e-06" y2="19.3337" gradientUnits="userSpaceOnUse">
      <stop offset="0.12998" stop-color="#A033FF"/>
      <stop offset="0.610381" stop-color="#0094FF"/>
      <stop offset="1" stop-color="#4FB500"/>
    </linearGradient>
    <linearGradient id="paint1_linear_2971_60296" x1="22" y1="10.667" x2="14.5" y2="33.167" gradientUnits="userSpaceOnUse">
      <stop stop-color="#FFD600" stop-opacity="0"/>
      <stop offset="0.563347" stop-color="#FFC700"/>
    </linearGradient>
    <linearGradient id="paint2_linear_2971_60296" x1="26" y1="19.3337" x2="36.2367" y2="35.592" gradientUnits="userSpaceOnUse">
      <stop offset="0.0297327" stop-color="#FF3B30" stop-opacity="0"/>
      <stop offset="0.842824" stop-color="#E73B2D"/>
    </linearGradient>
  </defs>
</svg>