<svg width="16" height="16" viewBox="0 0 16 16" fill="none" xmlns="http://www.w3.org/2000/svg">
  <path fill-rule="evenodd" clip-rule="evenodd" d="M14.8085 10.125C15.3035 10.369 15.5075 10.969 15.2635 11.464C13.9125 14.203 11.0935 16 7.99951 16C5.63451 16 3.45551 14.918 1.95551 13.22C1.85251 13.663 1.47451 14 0.999512 14C0.447512 14 -0.000488281 13.552 -0.000488281 13V8.99998C-0.000488281 8.93698 0.0155117 8.88098 0.0255117 8.82198C0.0315117 8.79498 0.0305117 8.76798 0.0375117 8.74198C0.0685117 8.62298 0.118512 8.51598 0.185512 8.42198C0.193512 8.41198 0.203512 8.40398 0.210512 8.39498C0.273512 8.31298 0.349512 8.24398 0.433512 8.18598C0.457512 8.16798 0.482512 8.15198 0.509512 8.13698C0.716512 8.01998 0.958512 7.97798 1.19951 8.02698C1.22651 8.03298 1.25251 8.03998 1.27851 8.04698C1.36451 8.07198 1.44551 8.11098 1.52551 8.16198C1.55251 8.17898 1.57951 8.19098 1.60551 8.20998C1.61651 8.21898 1.62951 8.22298 1.64051 8.23198L4.64051 10.732C5.06451 11.085 5.12151 11.716 4.76751 12.14C4.58151 12.364 4.31851 12.479 4.04851 12.492C5.12751 13.428 6.52051 14 7.99951 14C10.3225 14 12.4525 12.643 13.4695 10.58C13.7135 10.084 14.3125 9.88098 14.8085 10.125ZM15.9686 7.21288C15.9646 7.23288 15.9656 7.25288 15.9606 7.27188C15.9276 7.38988 15.8736 7.49488 15.8046 7.58788C15.7926 7.60488 15.7786 7.61588 15.7656 7.63088C15.7036 7.70688 15.6316 7.77088 15.5516 7.82388C15.5266 7.84088 15.5036 7.85788 15.4766 7.87188C15.3726 7.92788 15.2616 7.96988 15.1446 7.98788C15.1416 7.98788 15.1386 7.98988 15.1366 7.99088C15.1276 7.99188 15.1196 7.98788 15.1106 7.98888C15.0026 8.00188 14.8926 7.99288 14.7826 7.96888C14.7556 7.96288 14.7306 7.95688 14.7036 7.94788C14.6166 7.92088 14.5316 7.87888 14.4506 7.82388C14.4276 7.80888 14.4036 7.79888 14.3826 7.78188C14.3756 7.77588 14.3666 7.77488 14.3596 7.76788L11.3596 5.26788C10.9356 4.91488 10.8776 4.28388 11.2316 3.85988C11.4376 3.61288 11.7366 3.50688 12.0336 3.51688C10.9546 2.57388 9.53761 1.99988 7.99961 1.99988C5.63361 1.99988 3.49161 3.36488 2.49961 5.44388C2.26161 5.94188 1.66461 6.15288 1.16661 5.91588C0.668612 5.67788 0.456612 5.08088 0.694612 4.58288C2.01661 1.81188 4.85961 -0.00012207 7.99961 -0.00012207C10.3926 -0.00012207 12.5686 1.04588 14.0576 2.71388C14.1816 2.30388 14.5486 1.99988 14.9996 1.99988C15.5516 1.99988 15.9996 2.44788 15.9996 2.99988V6.99988C15.9996 7.07588 15.9836 7.14388 15.9686 7.21288Z" fill="white"/>
</svg>
