<svg width="174" height="85" viewBox="0 0 174 85" fill="none" xmlns="http://www.w3.org/2000/svg">
<path d="M93.6924 69.2533V15.7148H105.685V69.2533H93.6924Z" fill="black"/>
<path d="M116.969 69.2533V15.7148H135.223C142.765 15.7148 149.202 18.3289 154.532 23.5571C159.862 28.7853 162.528 35.0943 162.528 42.4841C162.528 49.8739 159.862 56.1829 154.532 61.411C149.202 66.6392 142.765 69.2533 135.223 69.2533H116.969ZM128.962 58.244H135.223C139.648 58.244 143.268 56.7359 146.084 53.7196C148.95 50.6531 150.384 46.9079 150.384 42.4841C150.384 38.0602 148.95 34.3402 146.084 31.3239C143.268 28.2574 139.648 26.7242 135.223 26.7242H128.962V58.244Z" fill="black"/>
<rect x="11.4727" y="7.11035" width="70.7473" height="70.7473" rx="35.3736" fill="white"/>
<rect x="11.4727" y="7.11035" width="70.7473" height="70.7473" rx="35.3736" fill="url(#paint0_linear_24398_7692)"/>
<rect x="11.4727" y="7.11035" width="70.7473" height="70.7473" rx="35.3736" fill="url(#paint1_linear_24398_7692)"/>
<rect x="11.4727" y="7.11035" width="70.7473" height="70.7473" rx="35.3736" fill="url(#paint2_linear_24398_7692)"/>
<path d="M46.7298 19.708C46.752 19.7243 46.7776 19.7354 46.8047 19.7404C46.8179 19.7404 46.8311 19.7465 46.8452 19.7475C47.0015 19.7637 47.1528 19.8116 47.2898 19.8883C47.3324 19.9095 47.3729 19.9349 47.4144 19.9582L50.4578 21.6799L54.0166 23.6932C54.8775 24.1794 55.7376 24.6662 56.5971 25.1536C56.6508 25.184 56.7045 25.2124 56.7561 25.2448C57.0862 25.4466 57.3171 25.777 57.3932 26.1563C57.4018 26.1963 57.4069 26.2369 57.4084 26.2778C57.4084 26.373 57.4154 26.4682 57.4154 26.5644V30.6742C57.4154 32.2075 57.4154 33.7408 57.4154 35.2742C57.4154 35.3562 57.4154 35.4382 57.4154 35.5193C57.4088 35.7386 57.3446 35.9524 57.2291 36.1391C57.0566 36.4294 56.7845 36.6471 56.4634 36.7518C56.3265 36.7942 56.1844 36.8177 56.0411 36.8217C55.9797 36.8212 55.9185 36.8161 55.8578 36.8065C55.6948 36.7885 55.5367 36.7397 55.3919 36.6627C55.3433 36.6373 55.2957 36.61 55.2491 36.5837L50.6755 33.9961L47.4347 32.166L47.2747 32.0759C47.1465 32.0124 47.0102 31.9671 46.8695 31.9412C46.8361 31.935 46.8023 31.9312 46.7683 31.93C46.7136 31.93 46.6589 31.93 46.6042 31.93C46.3923 31.9314 46.1838 31.9838 45.9965 32.083C45.9419 32.1113 45.8892 32.1427 45.8365 32.1731C44.6833 32.8334 43.5301 33.4941 42.3769 34.1551L38.2246 36.534C38.1659 36.5685 38.1061 36.6019 38.0464 36.6353C37.9146 36.7068 37.7729 36.7583 37.6261 36.7882C37.5994 36.7939 37.5723 36.7976 37.545 36.7994L37.3425 36.8055C37.1506 36.8059 36.9612 36.7615 36.7895 36.6758C36.4172 36.5069 36.1402 36.1797 36.035 35.7846C36.0024 35.673 35.9854 35.5575 35.9844 35.4413V26.5654C35.9844 26.5107 35.9844 26.456 35.9844 26.4024C35.988 26.2316 36.0223 26.0628 36.0857 25.9041C36.1922 25.636 36.3804 25.4082 36.6234 25.2529C36.669 25.2235 36.7176 25.1972 36.7642 25.1698L39.212 23.7661L42.1217 22.0991L45.0638 20.4169L45.792 19.9997L45.952 19.9095C46.0486 19.8569 46.1504 19.8144 46.2558 19.783C46.3224 19.7666 46.3901 19.7547 46.4584 19.7475C46.4852 19.7434 46.5103 19.7314 46.5303 19.7131L46.7298 19.708Z" fill="white"/>
<path d="M25.3311 44.6941C25.3719 44.6828 25.4014 44.6473 25.405 44.605C25.4155 44.5241 25.4311 44.4439 25.4516 44.365C25.5392 44.0536 25.7331 43.7828 25.9995 43.5993C26.0552 43.5608 26.1149 43.5264 26.1737 43.4981L28.0331 42.4245L32.1763 40.0344L33.7876 39.1037C33.8464 39.0703 33.9061 39.0358 33.9669 39.0024C34.1496 38.9086 34.3519 38.8593 34.5573 38.8585C34.9231 38.8543 35.276 38.9939 35.5397 39.2475C35.705 39.402 35.8281 39.5962 35.8972 39.8116C35.9398 39.9342 35.963 40.0627 35.9661 40.1924C35.9661 40.2673 35.9661 40.3423 35.9661 40.4172V49.0652C35.9661 49.1533 35.9661 49.2424 35.9661 49.3306C35.9746 49.7816 36.2011 50.2005 36.5737 50.4547C36.6345 50.4973 36.7013 50.5337 36.7662 50.5702L38.5324 51.5576L42.1723 53.5923L44.4267 54.8501C44.4865 54.8835 44.5462 54.9159 44.6039 54.9514C44.915 55.1315 45.1408 55.4288 45.2308 55.7768C45.2812 55.9541 45.294 56.1401 45.2683 56.3227C45.2464 56.4848 45.1978 56.6422 45.1245 56.7885C45.011 57.0079 44.8398 57.1921 44.6293 57.3213C44.5715 57.3577 44.5108 57.3891 44.451 57.4225L38.5587 60.6634L36.5525 61.7642C36.4988 61.7936 36.4512 61.825 36.3914 61.8524C36.3005 61.8994 36.2047 61.9364 36.1058 61.9627C35.9671 61.9991 35.8237 62.0144 35.6805 62.0083C35.4475 61.997 35.2212 61.9274 35.0222 61.8058L34.4054 61.4432L26.2122 56.6265C26.1595 56.5961 26.1109 56.5657 26.0542 56.5323C25.7385 56.3367 25.5144 56.0225 25.4323 55.6603C25.4171 55.6006 25.4131 55.5388 25.4019 55.479C25.3966 55.4517 25.3775 55.429 25.3513 55.4193C25.345 55.4168 25.3386 55.4148 25.3321 55.4132L25.3311 44.6941Z" fill="white"/>
<path d="M57.2492 62.0754C57.2342 62.0621 57.2176 62.0508 57.1996 62.042C57.1482 62.0238 57.0958 62.0086 57.0426 61.9964C56.9161 61.9678 56.7943 61.921 56.6811 61.8576C56.6152 61.8212 56.5514 61.7827 56.4866 61.7452L53.4595 59.9982L48.979 57.4146C48.9314 57.3873 48.8838 57.361 48.8382 57.3316C48.5284 57.1383 48.3094 56.8284 48.2306 56.4718C48.2083 56.3789 48.1971 56.2837 48.1971 56.1882C48.1806 55.7216 48.4047 55.2791 48.7906 55.0164C48.8469 54.9796 48.905 54.9458 48.9648 54.9151L51.519 53.4507L54.9624 51.4788L56.5767 50.5542C56.6476 50.5137 56.7195 50.4742 56.7884 50.4306C57.0515 50.2676 57.2526 50.0213 57.3596 49.7308C57.3968 49.6355 57.4216 49.5357 57.4335 49.4341C57.4457 49.3258 57.4518 49.2169 57.4518 49.108C57.4518 48.7191 57.4518 48.3312 57.4518 47.9423C57.4518 45.4617 57.4518 42.9814 57.4518 40.5015C57.4518 40.4326 57.4518 40.3648 57.4518 40.299C57.4518 40.2331 57.4518 40.1896 57.4578 40.1359C57.4752 39.8114 57.6119 39.5048 57.8417 39.2751C58.0145 39.0987 58.2318 38.9724 58.4706 38.9094C58.5754 38.8791 58.6836 38.8617 58.7927 38.8576C59.0186 38.854 59.242 38.9051 59.4439 39.0067C59.4986 39.034 59.5522 39.0644 59.6049 39.0958L61.6588 40.2797L65.2713 42.365L67.1652 43.4578C67.2249 43.4922 67.2837 43.5256 67.3424 43.559C67.5828 43.7053 67.7723 43.9221 67.8853 44.1799C67.9066 44.2228 67.9207 44.269 67.9268 44.3166C67.9346 44.3494 67.9494 44.3802 67.9703 44.4067V55.696C67.9472 55.7109 67.932 55.7355 67.9288 55.7628C67.9211 55.8171 67.9047 55.8698 67.8802 55.9188C67.77 56.1625 67.5908 56.3685 67.3647 56.5113C67.308 56.5487 67.2482 56.5822 67.1895 56.6125L64.4054 58.2087L58.1992 61.7685C58.1465 61.7989 58.0979 61.8303 58.0392 61.8586C57.9264 61.9223 57.805 61.969 57.6786 61.9974C57.6319 62.008 57.5859 62.0215 57.5409 62.0379C57.5218 62.0447 57.5057 62.058 57.4953 62.0754H57.2492Z" fill="white"/>
<rect x="1.43407" y="1.85204" width="171.132" height="81.2637" rx="40.6319" stroke="black" stroke-width="2.86814"/>
<defs>
<linearGradient id="paint0_linear_24398_7692" x1="82.2199" y1="48.3796" x2="11.4727" y2="48.3796" gradientUnits="userSpaceOnUse">
<stop offset="0.12998" stop-color="#A033FF"/>
<stop offset="0.610381" stop-color="#0094FF"/>
<stop offset="1" stop-color="#4FB500"/>
</linearGradient>
<linearGradient id="paint1_linear_24398_7692" x1="43.8985" y1="29.2189" x2="21.79" y2="73.4359" gradientUnits="userSpaceOnUse">
<stop stop-color="#FFD600" stop-opacity="0"/>
<stop offset="0.563347" stop-color="#FFC700"/>
</linearGradient>
<linearGradient id="paint2_linear_24398_7692" x1="49.7941" y1="48.3796" x2="74.8504" y2="74.9098" gradientUnits="userSpaceOnUse">
<stop offset="0.0297327" stop-color="#FF3B30" stop-opacity="0"/>
<stop offset="0.842824" stop-color="#E73B2D"/>
</linearGradient>
</defs>
</svg>
