<svg width="259" height="137" viewBox="0 0 259 137" fill="none"
xmlns="http://www.w3.org/2000/svg">
<path d="M6.78766 111.294H0V107.018H18.3266V111.294H11.5389V130.775H6.78766V111.294ZM15.0246 113.127H20.3867L22.6606 123.139C22.9095 124.157 23.0905 125.051 23.2036 125.82C23.3621 124.847 23.5544 123.942 23.7806 123.105L26.3599 113.127H31.6203L34.3693 123.105C34.5955 123.942 34.7879 124.847 34.9463 125.82C35.0594 125.051 35.2404 124.157 35.4893 123.139L37.9328 113.127H42.9217L37.4237 130.775H32.4687L29.584 120.729C29.3125 119.915 29.1088 119.032 28.9731 118.082C28.8147 119.123 28.6338 120.005 28.4302 120.729L25.783 130.775H20.5225L15.0246 113.127ZM51.1157 131.216C49.532 131.216 48.0725 130.809 46.7377 129.994C45.4028 129.157 44.3394 128.037 43.5475 126.634C42.7782 125.232 42.3935 123.693 42.3935 122.019C42.3935 120.345 42.7782 118.806 43.5475 117.403C44.3394 115.978 45.4028 114.847 46.7377 114.009C48.0725 113.172 49.532 112.754 51.1157 112.754C52.5638 112.754 53.7289 113.025 54.6114 113.568C55.5164 114.111 56.2178 114.892 56.7155 115.91V113.127H61.2632V130.775H56.8173V127.89C56.2969 128.954 55.5842 129.779 54.6792 130.368C53.7969 130.933 52.609 131.216 51.1157 131.216ZM46.9752 121.985C46.9752 122.89 47.1788 123.738 47.5861 124.53C48.0161 125.3 48.5929 125.922 49.317 126.397C50.0636 126.849 50.912 127.076 51.8624 127.076C52.8352 127.076 53.6951 126.849 54.4416 126.397C55.211 125.944 55.7991 125.333 56.2064 124.564C56.6136 123.795 56.8173 122.946 56.8173 122.019C56.8173 121.091 56.6136 120.243 56.2064 119.474C55.7991 118.682 55.211 118.059 54.4416 117.607C53.6951 117.132 52.8352 116.894 51.8624 116.894C50.912 116.894 50.0636 117.132 49.317 117.607C48.5703 118.059 47.9935 118.67 47.5861 119.439C47.1788 120.209 46.9752 121.057 46.9752 121.985ZM68.5671 122.392V130.775H63.9855V106H68.5671V120.254L75.185 113.127H81.7011L73.3864 121.34L81.7352 130.775H75.6602L68.5671 122.392ZM89.1404 131.216C87.3527 131.216 85.7683 130.809 84.3886 129.994C83.0085 129.157 81.9338 128.037 81.1646 126.634C80.3953 125.232 80.0106 123.682 80.0106 121.985C80.0106 120.311 80.4066 118.761 81.1985 117.335C81.9904 115.91 83.0765 114.779 84.4564 113.942C85.86 113.104 87.4204 112.686 89.1404 112.686C90.859 112.686 92.3982 113.104 93.7553 113.942C95.1362 114.779 96.1996 115.91 96.9453 117.335C97.7149 118.738 98.1003 120.288 98.1003 121.985C98.1003 122.551 98.0551 123.094 97.9634 123.614H84.7615C85.0339 124.677 85.5423 125.537 86.2893 126.193C87.0589 126.827 88.0092 127.143 89.1404 127.143C90.0907 127.143 90.9394 126.929 91.6851 126.499C92.4321 126.046 93.0209 125.469 93.4502 124.768L97.0131 127.449C96.29 128.58 95.2266 129.497 93.8231 130.198C92.4208 130.877 90.859 131.216 89.1404 131.216ZM93.4841 120.186C93.2129 119.168 92.6806 118.32 91.8885 117.641C91.0976 116.962 90.1585 116.623 89.0726 116.623C88.0092 116.623 87.0815 116.951 86.2893 117.607C85.5197 118.263 85.0113 119.123 84.7615 120.186H93.4841Z"
fill="black"></path>
<path d="M233.234 129.852C230.884 129.852 228.93 129.068 227.37 127.499C225.831 125.929 225.062 123.994 225.062 121.692C225.062 119.39 225.831 117.455 227.37 115.885C228.93 114.316 230.884 113.531 233.234 113.531C234.815 113.531 236.229 113.908 237.477 114.661C238.745 115.414 239.734 116.44 240.442 117.737L238.101 119.055C237.643 118.135 236.988 117.402 236.136 116.858C235.303 116.314 234.337 116.042 233.234 116.042C231.634 116.042 230.324 116.586 229.303 117.674C228.284 118.762 227.775 120.102 227.775 121.692C227.775 123.282 228.284 124.621 229.303 125.709C230.324 126.798 231.634 127.342 233.234 127.342C234.337 127.342 235.303 127.07 236.136 126.526C236.988 125.981 237.643 125.249 238.101 124.328L240.442 125.647C239.734 126.944 238.745 127.969 237.477 128.723C236.229 129.476 234.815 129.852 233.234 129.852Z"
fill="#97A3B7"></path>
<path d="M213.167 129.855C211.953 129.855 210.918 129.635 210.06 129.196C209.223 128.735 208.584 128.118 208.145 127.344C207.706 126.548 207.486 125.659 207.486 124.676C207.486 123.023 207.967 121.83 208.93 121.098C209.913 120.365 211.315 119.999 213.135 119.999H218.534V118.869C218.534 117.446 218.21 116.463 217.561 115.919C216.933 115.375 215.981 115.103 214.705 115.103C213.512 115.103 212.644 115.333 212.1 115.793C211.556 116.233 211.252 116.735 211.19 117.3H208.427C208.49 116.4 208.794 115.605 209.338 114.914C209.882 114.203 210.625 113.638 211.566 113.219C212.508 112.801 213.606 112.592 214.862 112.592C216.18 112.592 217.32 112.801 218.283 113.219C219.245 113.617 219.988 114.255 220.512 115.134C221.034 115.992 221.297 117.132 221.297 118.555V125.304C221.297 126.182 221.297 126.956 221.297 127.626C221.318 128.275 221.369 128.913 221.453 129.541H219.036C218.973 129.06 218.932 128.61 218.911 128.191C218.89 127.752 218.879 127.26 218.879 126.716C218.44 127.595 217.728 128.338 216.745 128.944C215.762 129.551 214.569 129.855 213.167 129.855ZM213.763 127.344C214.642 127.344 215.437 127.187 216.149 126.873C216.881 126.559 217.456 126.099 217.875 125.492C218.314 124.885 218.534 124.142 218.534 123.263V122.133H213.606C212.581 122.133 211.775 122.343 211.19 122.761C210.604 123.159 210.311 123.797 210.311 124.676C210.311 125.45 210.583 126.088 211.127 126.59C211.692 127.092 212.57 127.344 213.763 127.344Z"
fill="#97A3B7"></path>
<path d="M200.894 129.54V106H203.562V129.54H200.894Z" fill="#97A3B7"></path>
<path d="M183.809 136.13H181.121V113.846H183.809V116.266C184.351 115.47 185.112 114.82 186.092 114.317C187.092 113.793 188.165 113.531 189.312 113.531C191.479 113.531 193.292 114.327 194.751 115.92C196.231 117.513 196.971 119.44 196.971 121.703C196.971 123.966 196.231 125.894 194.751 127.486C193.292 129.079 191.479 129.875 189.312 129.875C188.165 129.875 187.092 129.624 186.092 129.121C185.112 128.597 184.351 127.937 183.809 127.141V136.13ZM185.091 125.758C186.092 126.847 187.363 127.392 188.905 127.392C190.447 127.392 191.719 126.847 192.719 125.758C193.72 124.668 194.22 123.317 194.22 121.703C194.22 120.09 193.72 118.738 192.719 117.649C191.719 116.559 190.447 116.014 188.905 116.014C187.363 116.014 186.092 116.559 185.091 117.649C184.091 118.738 183.59 120.09 183.59 121.703C183.59 123.317 184.091 124.668 185.091 125.758Z"
fill="#97A3B7"></path>
<path d="M175.424 129.54L166.883 121.693V129.54H164.172V106H166.883V119.967L173.754 113.847H177.347L169.593 120.783L179.081 129.54H175.424Z"
fill="#97A3B7"></path>
<path d="M152.402 129.542V113.848H155.101V116.893C155.394 115.93 155.959 115.156 156.796 114.57C157.654 113.984 158.554 113.691 159.495 113.691C159.956 113.691 160.364 113.733 160.719 113.817V116.61C160.343 116.443 159.851 116.359 159.244 116.359C158.156 116.359 157.194 116.83 156.357 117.772C155.52 118.713 155.101 120.042 155.101 121.758V129.542H152.402Z"
fill="#97A3B7"></path>
<path d="M140.333 129.852C137.982 129.852 136.026 129.068 134.466 127.499C132.926 125.908 132.157 123.973 132.157 121.692C132.157 119.411 132.926 117.486 134.466 115.917C136.026 114.326 137.982 113.531 140.333 113.531C142.663 113.531 144.598 114.326 146.138 115.917C147.698 117.486 148.478 119.411 148.478 121.692C148.478 123.973 147.698 125.908 146.138 127.499C144.598 129.068 142.663 129.852 140.333 129.852ZM136.401 125.709C137.42 126.798 138.731 127.342 140.333 127.342C141.935 127.342 143.235 126.798 144.234 125.709C145.233 124.621 145.732 123.282 145.732 121.692C145.732 120.102 145.233 118.762 144.234 117.674C143.235 116.586 141.935 116.042 140.333 116.042C138.731 116.042 137.42 116.586 136.401 117.674C135.402 118.762 134.903 120.102 134.903 121.692C134.903 123.282 135.402 124.621 136.401 125.709Z"
fill="#97A3B7"></path>
<path d="M122.374 129.542L116.919 114.455L111.495 129.542H108.892L102.81 107.319H105.851L110.491 124.659L116.919 106.943L123.346 124.659L128.017 107.319H131.058L124.976 129.542H122.374Z"
fill="#97A3B7"></path>
<path d="M250.877 129.852C248.484 129.852 246.539 129.078 245.044 127.53C243.546 125.981 242.796 124.035 242.796 121.692C242.796 119.369 243.556 117.434 245.074 115.885C246.592 114.316 248.537 113.531 250.907 113.531C253.009 113.531 254.766 114.243 256.18 115.666C257.615 117.068 258.333 118.982 258.333 121.409C258.333 121.723 258.322 121.995 258.301 122.226H245.511C245.553 123.69 246.072 124.914 247.07 125.898C248.09 126.881 249.368 127.373 250.907 127.373C253.092 127.373 254.713 126.463 255.775 124.642L257.896 126.117C256.377 128.608 254.037 129.852 250.877 129.852ZM245.699 120.028H255.588C255.379 118.773 254.828 117.779 253.933 117.047C253.06 116.293 252.021 115.917 250.815 115.917C249.588 115.917 248.484 116.293 247.507 117.047C246.551 117.779 245.947 118.773 245.699 120.028Z"
fill="#97A3B7"></path>
<path d="M136.149 0H101.851C87.0218 0 75 12.0218 75 26.8514V61.1486C75 75.9782 87.0218 88 101.851 88H136.149C150.978 88 163 75.9782 163 61.1486V26.8514C163 12.0218 150.978 0 136.149 0Z"
fill="white"></path>
<path d="M136.149 0H101.851C87.0218 0 75 12.0218 75 26.8514V61.1486C75 75.9782 87.0218 88 101.851 88H136.149C150.978 88 163 75.9782 163 61.1486V26.8514C163 12.0218 150.978 0 136.149 0Z"
fill="url(#paint0_linear_22591_4752)"></path>
<path d="M136.149 0H101.851C87.0218 0 75 12.0218 75 26.8514V61.1486C75 75.9782 87.0218 88 101.851 88H136.149C150.978 88 163 75.9782 163 61.1486V26.8514C163 12.0218 150.978 0 136.149 0Z"
fill="url(#paint1_linear_22591_4752)"></path>
<path d="M136.149 0H101.851C87.0218 0 75 12.0218 75 26.8514V61.1486C75 75.9782 87.0218 88 101.851 88H136.149C150.978 88 163 75.9782 163 61.1486V26.8514C163 12.0218 150.978 0 136.149 0Z"
fill="url(#paint2_linear_22591_4752)"></path>
<path d="M119.118 13.1133C119.15 13.1365 119.187 13.1527 119.225 13.1598C119.244 13.1598 119.263 13.1685 119.284 13.17C119.508 13.1933 119.725 13.2621 119.922 13.3722C119.983 13.4028 120.042 13.4391 120.101 13.4726L124.473 15.946L129.586 18.8382C130.822 19.5364 132.058 20.2358 133.292 20.9362C133.37 20.9796 133.447 21.0205 133.521 21.067C133.995 21.3569 134.327 21.8315 134.436 22.3762C134.448 22.4339 134.456 22.4922 134.458 22.5508C134.458 22.6878 134.468 22.8245 134.468 22.9628V28.8666C134.468 31.0691 134.468 33.2718 134.468 35.4745C134.468 35.5924 134.468 35.7102 134.468 35.8264C134.459 36.1417 134.366 36.449 134.2 36.7168C133.953 37.1341 133.562 37.4469 133.1 37.597C132.904 37.6581 132.7 37.6918 132.494 37.6974C132.406 37.6968 132.317 37.6897 132.23 37.6757C131.996 37.65 131.769 37.5799 131.561 37.4693C131.491 37.4327 131.423 37.3936 131.356 37.3558L124.786 33.6386L120.13 31.0095L119.9 30.88C119.716 30.7888 119.521 30.7237 119.318 30.6865C119.27 30.6775 119.222 30.6722 119.173 30.6707C119.095 30.6707 119.016 30.6707 118.937 30.6707C118.633 30.6725 118.333 30.7479 118.064 30.8902C117.986 30.9308 117.91 30.9761 117.835 31.0198C116.178 31.9681 114.521 32.9174 112.865 33.8667L106.9 37.2845C106.815 37.3338 106.729 37.3818 106.644 37.4299C106.454 37.5325 106.251 37.6066 106.04 37.6494C106.002 37.6577 105.963 37.663 105.924 37.6655L105.633 37.6742C105.357 37.6748 105.085 37.6112 104.838 37.4882C104.303 37.2454 103.906 36.7754 103.754 36.2078C103.708 36.0475 103.683 35.8816 103.682 35.7145V22.9641C103.682 22.8856 103.682 22.8069 103.682 22.73C103.687 22.4844 103.736 22.242 103.827 22.0141C103.98 21.6291 104.25 21.3017 104.6 21.0785C104.665 21.0363 104.735 20.9985 104.802 20.9594L108.318 18.943L112.498 16.5481L116.724 14.1317L117.77 13.5321L118 13.4028C118.139 13.3272 118.285 13.2661 118.437 13.2209C118.532 13.1973 118.63 13.1802 118.728 13.17C118.767 13.1641 118.802 13.1468 118.831 13.1204L119.118 13.1133Z"
fill="white"></path>
<path d="M88.373 49.0063C88.4318 48.9899 88.4741 48.9387 88.4793 48.8782C88.4944 48.762 88.5167 48.6467 88.5462 48.5332C88.6721 48.0861 88.9506 47.697 89.3333 47.4335C89.4133 47.378 89.4991 47.3287 89.5835 47.2878L92.2546 45.7457L98.2065 42.3122L100.521 40.9754C100.606 40.9273 100.691 40.8777 100.779 40.8297C101.041 40.6951 101.332 40.6244 101.627 40.6232C102.152 40.617 102.659 40.8176 103.038 41.1819C103.276 41.4038 103.452 41.6829 103.552 41.9923C103.613 42.1684 103.646 42.3528 103.651 42.5391C103.651 42.647 103.651 42.7546 103.651 42.8622V55.2853C103.651 55.4121 103.651 55.5398 103.651 55.6666C103.663 56.3145 103.988 56.9163 104.523 57.2815C104.611 57.3426 104.707 57.395 104.8 57.4474L107.337 58.8657L112.566 61.7887L115.805 63.5955C115.89 63.6436 115.976 63.6901 116.059 63.7409C116.506 63.9998 116.83 64.4267 116.96 64.9268C117.032 65.1816 117.051 65.4485 117.013 65.7108C116.982 65.944 116.912 66.17 116.807 66.3802C116.644 66.6951 116.398 66.9599 116.095 67.1453C116.013 67.1977 115.925 67.243 115.839 67.2907L107.375 71.9464L104.493 73.5278C104.416 73.57 104.347 73.6152 104.262 73.6543C104.131 73.7219 103.993 73.7752 103.851 73.813C103.652 73.8651 103.446 73.8871 103.24 73.8785C102.906 73.8623 102.58 73.7622 102.295 73.5876L101.409 73.0668L89.6388 66.1473C89.5631 66.1036 89.4933 66.0599 89.4118 66.0122C88.9583 65.731 88.6365 65.2799 88.5185 64.7593C88.4967 64.6735 88.4909 64.5848 88.4749 64.4989C88.4673 64.4595 88.4397 64.427 88.4022 64.413C88.3932 64.4096 88.3839 64.4065 88.3745 64.4044L88.373 49.0063Z"
fill="white"></path>
<path d="M134.223 73.9762C134.202 73.9573 134.178 73.9412 134.152 73.9282C134.078 73.9025 134.003 73.8804 133.926 73.8628C133.745 73.8218 133.57 73.7546 133.407 73.6634C133.312 73.611 133.221 73.5558 133.128 73.5022L128.779 70.9925L122.343 67.2809C122.274 67.2418 122.206 67.204 122.141 67.1619C121.695 66.8841 121.381 66.4389 121.268 65.9267C121.236 65.7931 121.22 65.6564 121.22 65.5193C121.196 64.8491 121.518 64.2132 122.072 63.8359C122.153 63.7832 122.236 63.7345 122.322 63.6905L125.991 61.5867L130.938 58.7543L133.257 57.4258C133.359 57.3675 133.462 57.3108 133.561 57.2485C133.939 57.0141 134.228 56.6603 134.382 56.243C134.435 56.106 134.471 55.9628 134.488 55.8168C134.505 55.6611 134.514 55.5049 134.514 55.3483C134.514 54.7896 134.514 54.2325 134.514 53.6739C134.514 50.1104 134.514 46.5473 134.514 42.9848C134.514 42.8859 134.514 42.7885 134.514 42.694C134.514 42.5994 134.514 42.5368 134.523 42.4596C134.548 41.9936 134.744 41.5531 135.074 41.2229C135.323 40.9696 135.635 40.7882 135.978 40.6977C136.128 40.654 136.284 40.6292 136.44 40.6233C136.765 40.618 137.086 40.6915 137.376 40.8375C137.454 40.8766 137.532 40.9203 137.607 40.9656L140.558 42.6664L145.747 45.6619L148.468 47.2315C148.554 47.2811 148.638 47.3292 148.722 47.3772C149.068 47.5871 149.34 47.8987 149.502 48.2689C149.533 48.3306 149.553 48.3969 149.562 48.4654C149.573 48.5125 149.594 48.5566 149.624 48.5947V64.8122C149.591 64.8336 149.569 64.8689 149.565 64.9083C149.554 64.9861 149.53 65.0617 149.495 65.1321C149.337 65.4821 149.079 65.7782 148.754 65.9835C148.673 66.0371 148.587 66.0851 148.502 66.1289L144.503 68.4218L135.588 73.5354C135.512 73.5791 135.442 73.6244 135.358 73.665C135.196 73.7564 135.022 73.8237 134.84 73.8643C134.773 73.8795 134.707 73.899 134.642 73.9226C134.615 73.9322 134.592 73.9514 134.577 73.9762H134.223Z"
fill="white"></path>
<defs>
<linearGradient id="paint0_linear_22591_4752" x1="163" y1="51.3332" x2="75"
y2="51.3332" gradientUnits="userSpaceOnUse">
<stop offset="0.12998" stop-color="#A033FF"></stop>
<stop offset="0.610381" stop-color="#0094FF"></stop>
<stop offset="1" stop-color="#4FB500"></stop>
</linearGradient>
<linearGradient id="paint1_linear_22591_4752" x1="115.333" y1="27.4999"
x2="87.8333" y2="82.4998" gradientUnits="userSpaceOnUse">
<stop stop-color="#FFD600" stop-opacity="0"></stop>
<stop offset="0.563347" stop-color="#FFC700"></stop>
</linearGradient>
<linearGradient id="paint2_linear_22591_4752" x1="122.667" y1="51.3332"
x2="153.833" y2="84.3333" gradientUnits="userSpaceOnUse">
<stop offset="0.0297327" stop-color="#FF3B30" stop-opacity="0"></stop>
<stop offset="0.842824" stop-color="#E73B2D"></stop>
</linearGradient>
</defs>
</svg>
